<svg width="469" height="140" viewBox="0 0 469 140" fill="none" xmlns="http://www.w3.org/2000/svg">
<path d="M39.169 134.75H31.8929L30.5096 138.9H26.0968L33.5943 118.759H37.4399L44.9789 138.9H40.5662L39.169 134.75ZM33.0133 131.389H38.0486L35.5171 123.85L33.0133 131.389Z" fill="black"/>
<path d="M60.0707 122.12H51.0377V138.9H46.8878V118.759H60.0707V122.12Z" fill="black"/>
<path d="M74.7752 130.171H66.8074V135.566H76.1585V138.9H62.6575V118.759H76.1308V122.12H66.8074V126.921H74.7752V130.171Z" fill="black"/>
<path d="M94.9852 138.9H90.8353V130.268H82.743V138.9H78.5931V118.759H82.743V126.921H90.8353V118.759H94.9852V138.9Z" fill="black"/>
<path d="M114.434 132.191C114.278 134.358 113.475 136.064 112.027 137.309C110.589 138.554 108.689 139.177 106.328 139.177C103.746 139.177 101.713 138.31 100.228 136.576C98.7524 134.833 98.0146 132.444 98.0146 129.41V128.179C98.0146 126.243 98.3559 124.537 99.0383 123.061C99.7207 121.586 100.694 120.456 101.957 119.672C103.23 118.879 104.705 118.482 106.384 118.482C108.708 118.482 110.58 119.105 112 120.35C113.42 121.595 114.241 123.342 114.462 125.593H110.312C110.211 124.292 109.846 123.352 109.219 122.771C108.602 122.18 107.656 121.885 106.384 121.885C105 121.885 103.963 122.383 103.271 123.379C102.589 124.366 102.238 125.901 102.22 127.986V129.507C102.22 131.684 102.547 133.274 103.202 134.28C103.866 135.285 104.908 135.787 106.328 135.787C107.61 135.787 108.565 135.497 109.192 134.916C109.828 134.326 110.192 133.417 110.285 132.191H114.434Z" fill="black"/>
<path d="M131.906 122.12H125.736V138.9H121.586V122.12H115.5V118.759H131.906V122.12Z" fill="black"/>
<path d="M134.285 138.9V118.759H141.34C143.783 118.759 145.637 119.229 146.9 120.17C148.164 121.101 148.796 122.471 148.796 124.278C148.796 125.265 148.542 126.137 148.035 126.893C147.528 127.64 146.822 128.189 145.918 128.539C146.951 128.797 147.763 129.318 148.353 130.102C148.952 130.886 149.252 131.845 149.252 132.979C149.252 134.916 148.634 136.382 147.398 137.378C146.163 138.374 144.401 138.881 142.114 138.9H134.285ZM138.435 130.13V135.566H141.99C142.967 135.566 143.728 135.336 144.272 134.874C144.826 134.404 145.102 133.759 145.102 132.938C145.102 131.093 144.148 130.157 142.239 130.13H138.435ZM138.435 127.197H141.506C143.599 127.16 144.646 126.326 144.646 124.693C144.646 123.78 144.378 123.126 143.843 122.729C143.318 122.323 142.483 122.12 141.34 122.12H138.435V127.197Z" fill="black"/>
<path d="M168.923 129.286C168.923 131.269 168.572 133.007 167.871 134.501C167.17 135.995 166.165 137.148 164.856 137.959C163.555 138.771 162.061 139.177 160.374 139.177C158.705 139.177 157.215 138.775 155.906 137.973C154.596 137.171 153.582 136.027 152.863 134.543C152.143 133.049 151.779 131.333 151.77 129.397V128.401C151.77 126.418 152.125 124.675 152.835 123.172C153.554 121.659 154.564 120.502 155.864 119.7C157.174 118.888 158.668 118.482 160.346 118.482C162.025 118.482 163.514 118.888 164.814 119.7C166.124 120.502 167.134 121.659 167.844 123.172C168.563 124.675 168.923 126.413 168.923 128.387V129.286ZM164.717 128.373C164.717 126.261 164.339 124.657 163.583 123.559C162.827 122.462 161.748 121.913 160.346 121.913C158.954 121.913 157.879 122.457 157.123 123.545C156.367 124.624 155.984 126.21 155.975 128.304V129.286C155.975 131.342 156.353 132.938 157.109 134.072C157.865 135.206 158.954 135.774 160.374 135.774C161.766 135.774 162.836 135.23 163.583 134.141C164.33 133.044 164.708 131.449 164.717 129.355V128.373Z" fill="black"/>
<path d="M194.804 132.191C194.647 134.358 193.845 136.064 192.397 137.309C190.959 138.554 189.059 139.177 186.698 139.177C184.116 139.177 182.082 138.31 180.598 136.576C179.122 134.833 178.384 132.444 178.384 129.41V128.179C178.384 126.243 178.726 124.537 179.408 123.061C180.09 121.586 181.063 120.456 182.327 119.672C183.599 118.879 185.075 118.482 186.753 118.482C189.077 118.482 190.949 119.105 192.37 120.35C193.79 121.595 194.611 123.342 194.832 125.593H190.682C190.581 124.292 190.216 123.352 189.589 122.771C188.971 122.18 188.026 121.885 186.753 121.885C185.37 121.885 184.333 122.383 183.641 123.379C182.959 124.366 182.608 125.901 182.59 127.986V129.507C182.59 131.684 182.917 133.274 183.572 134.28C184.236 135.285 185.278 135.787 186.698 135.787C187.98 135.787 188.934 135.497 189.561 134.916C190.198 134.326 190.562 133.417 190.654 132.191H194.804Z" fill="black"/>
<path d="M214.074 129.286C214.074 131.269 213.723 133.007 213.022 134.501C212.321 135.995 211.316 137.148 210.007 137.959C208.706 138.771 207.212 139.177 205.525 139.177C203.856 139.177 202.366 138.775 201.057 137.973C199.747 137.171 198.733 136.027 198.013 134.543C197.294 133.049 196.93 131.333 196.921 129.397V128.401C196.921 126.418 197.276 124.675 197.986 123.172C198.705 121.659 199.715 120.502 201.015 119.7C202.325 118.888 203.819 118.482 205.497 118.482C207.176 118.482 208.665 118.888 209.965 119.7C211.275 120.502 212.285 121.659 212.995 123.172C213.714 124.675 214.074 126.413 214.074 128.387V129.286ZM209.868 128.373C209.868 126.261 209.49 124.657 208.734 123.559C207.978 122.462 206.899 121.913 205.497 121.913C204.105 121.913 203.03 122.457 202.274 123.545C201.518 124.624 201.135 126.21 201.126 128.304V129.286C201.126 131.342 201.504 132.938 202.26 134.072C203.016 135.206 204.105 135.774 205.525 135.774C206.917 135.774 207.987 135.23 208.734 134.141C209.481 133.044 209.859 131.449 209.868 129.355V128.373Z" fill="black"/>
<path d="M233.163 118.759V138.9H228.999V131.264C227.736 131.532 226.417 131.665 225.043 131.665C222.489 131.665 220.547 131.107 219.219 129.991C217.901 128.876 217.223 127.262 217.186 125.15V118.759H221.35V125.067C221.359 126.22 221.636 127.05 222.18 127.557C222.733 128.064 223.688 128.318 225.043 128.318C226.417 128.318 227.736 128.184 228.999 127.916V118.759H233.163Z" fill="black"/>
<path d="M253.179 138.9H249.03V130.268H240.937V138.9H236.787V118.759H240.937V126.921H249.03V118.759H253.179V138.9Z" fill="black"/>
<path d="M273.362 129.286C273.362 131.269 273.011 133.007 272.311 134.501C271.61 135.995 270.604 137.148 269.295 137.959C267.995 138.771 266.501 139.177 264.813 139.177C263.144 139.177 261.655 138.775 260.345 137.973C259.035 137.171 258.021 136.027 257.302 134.543C256.582 133.049 256.218 131.333 256.209 129.397V128.401C256.209 126.418 256.564 124.675 257.274 123.172C257.993 121.659 259.003 120.502 260.303 119.7C261.613 118.888 263.107 118.482 264.785 118.482C266.464 118.482 267.953 118.888 269.253 119.7C270.563 120.502 271.573 121.659 272.283 123.172C273.002 124.675 273.362 126.413 273.362 128.387V129.286ZM269.157 128.373C269.157 126.261 268.779 124.657 268.022 123.559C267.266 122.462 266.187 121.913 264.785 121.913C263.393 121.913 262.318 122.457 261.562 123.545C260.806 124.624 260.423 126.21 260.414 128.304V129.286C260.414 131.342 260.792 132.938 261.548 134.072C262.305 135.206 263.393 135.774 264.813 135.774C266.206 135.774 267.275 135.23 268.022 134.141C268.769 133.044 269.147 131.449 269.157 129.355V128.373Z" fill="black"/>
<path d="M288.454 118.759H292.617V138.9H288.454V125.523L280.389 138.9H276.239V118.759H280.389V132.163L288.454 118.759ZM289.256 113.461C289.256 114.688 288.813 115.679 287.928 116.435C287.052 117.191 285.899 117.569 284.47 117.569C283.04 117.569 281.883 117.196 280.998 116.449C280.122 115.702 279.684 114.706 279.684 113.461H282.519C282.519 114.042 282.69 114.494 283.031 114.817C283.382 115.13 283.861 115.287 284.47 115.287C285.069 115.287 285.539 115.13 285.881 114.817C286.222 114.494 286.393 114.042 286.393 113.461H289.256Z" fill="black"/>
<path d="M307.419 131.804V138.9H303.269V118.759H311.126C312.638 118.759 313.966 119.036 315.11 119.589C316.263 120.142 317.148 120.931 317.766 121.954C318.384 122.969 318.693 124.126 318.693 125.427C318.693 127.4 318.015 128.959 316.659 130.102C315.313 131.236 313.445 131.804 311.057 131.804H307.419ZM307.419 128.442H311.126C312.223 128.442 313.058 128.184 313.63 127.667C314.211 127.151 314.501 126.413 314.501 125.454C314.501 124.467 314.211 123.67 313.63 123.061C313.049 122.452 312.246 122.139 311.223 122.12H307.419V128.442Z" fill="black"/>
<path d="M333.674 130.171H325.706V135.566H335.057V138.9H321.556V118.759H335.029V122.12H325.706V126.921H333.674V130.171Z" fill="black"/>
<path d="M344.062 130.669H341.669V138.9H337.519V118.759H341.669V126.824H343.564L348.489 118.759H353.552L347.341 128.29L354.202 138.9H349.25L344.062 130.669Z" fill="black"/>
<path d="M372.185 118.759V138.9H368.021V122.12H362.654L362.322 129.231C362.184 131.628 361.879 133.519 361.409 134.902C360.939 136.276 360.252 137.286 359.348 137.932C358.444 138.568 357.208 138.891 355.641 138.9H354.562V135.566L355.253 135.497C356.295 135.359 357.038 134.759 357.48 133.699C357.932 132.629 358.218 130.729 358.338 127.999L358.684 118.759H372.185Z" fill="black"/>
<path d="M387.429 134.75H380.153L378.769 138.9H374.357L381.854 118.759H385.7L393.239 138.9H388.826L387.429 134.75ZM381.273 131.389H386.308L383.777 123.85L381.273 131.389Z" fill="black"/>
<path d="M400.543 118.759L405.716 133.367L410.862 118.759H416.312V138.9H412.148V133.394L412.563 123.891L407.127 138.9H404.277L398.855 123.905L399.27 133.394V138.9H395.12V118.759H400.543Z" fill="black"/>
<path d="M424.155 126.021H427.392C429.762 126.021 431.639 126.598 433.022 127.75C434.415 128.894 435.111 130.439 435.111 132.385C435.111 134.34 434.42 135.912 433.036 137.102C431.662 138.282 429.832 138.881 427.545 138.9H419.978V118.759H424.155V126.021ZM440.99 138.9H436.84V118.759H440.99V138.9ZM424.155 129.369V135.566H427.462C428.522 135.566 429.366 135.276 429.993 134.695C430.629 134.114 430.947 133.334 430.947 132.357C430.947 131.444 430.643 130.725 430.034 130.199C429.435 129.664 428.61 129.387 427.558 129.369H424.155Z" fill="black"/>
<path d="M67.25 82.27H29.82L22.7 103.62H0L38.57 0H58.36L97.14 103.62H74.44L67.25 82.27ZM35.58 64.98H61.49L48.49 26.19L35.58 64.98Z" fill="#010101"/>
<path d="M148.74 45.9C146.289 45.5462 143.817 45.3557 141.34 45.33C133.56 45.33 128.46 47.9634 126.04 53.23V103.62H105.47V26.62H124.9L125.47 35.8C129.603 28.7267 135.32 25.19 142.62 25.19C144.788 25.1739 146.946 25.4875 149.02 26.12L148.74 45.9Z" fill="#010101"/>
<path d="M159.98 103.62V0H196.28C208.847 0 218.383 2.40664 224.89 7.21997C231.397 12.0333 234.647 19.08 234.64 28.36C234.733 33.127 233.369 37.8089 230.73 41.78C228.085 45.7149 224.268 48.7169 219.82 50.36C224.814 51.4753 229.258 54.3062 232.38 58.36C235.522 62.6414 237.138 67.8522 236.97 73.16C236.97 83.12 233.79 90.6633 227.43 95.79C221.07 100.917 212.01 103.527 200.25 103.62H159.98ZM181.33 43.41H197.13C207.903 43.2233 213.29 38.93 213.29 30.53C213.29 25.8633 211.927 22.4833 209.2 20.39C206.473 18.2967 202.167 17.2633 196.28 17.29H181.28L181.33 43.41ZM181.33 58.5V86.5H199.63C204.65 86.5 208.573 85.3 211.4 82.9C214.227 80.5 215.64 77.1933 215.64 72.98C215.64 63.4866 210.73 58.67 200.91 58.53L181.33 58.5Z" fill="#010101"/>
<path d="M297.82 95.7896C292.74 101.963 285.717 105.046 276.75 105.04C268.503 105.04 262.207 102.67 257.86 97.9296C253.513 93.1896 251.293 86.2363 251.2 77.0696V26.6196H271.72V76.4196C271.72 84.4196 275.387 88.4196 282.72 88.4196C289.693 88.4196 294.487 85.9963 297.1 81.1496V26.6196H317.73V103.62H298.34L297.82 95.7896Z" fill="#010101"/>
<path d="M356.82 87.0396H394.47V103.62H330.56V91.0896L366.82 43.1996H331.66V26.6196H393.37V38.7296L356.82 87.0396Z" fill="#010101"/>
<path d="M430.99 87.0396H468.64V103.62H404.73V91.0896L440.96 43.1996H405.82V26.6196H467.52V38.7296L430.99 87.0396Z" fill="#010101"/>
</svg>
