<svg width="146" height="32" viewBox="0 0 146 32" fill="none" xmlns="http://www.w3.org/2000/svg">
<path d="M20.9475 24.9867H9.28865L7.07059 31.4733H0L12.0112 0H18.1449L30.2602 31.4733H23.1896L20.9475 24.9867ZM11.0823 19.7333H19.1538L15.0941 7.9542L11.0823 19.7333Z" fill="white"/>
<path d="M46.3391 13.9413C45.5748 13.8373 44.8046 13.7799 44.033 13.7696C41.6307 13.7696 40.0292 14.5502 39.2285 16.166V31.4734H32.8225V8.05568H38.8761L39.0523 10.8424C40.3388 8.69837 42.1192 7.62636 44.3933 7.62636C45.0713 7.62162 45.7461 7.71635 46.3952 7.90737L46.3391 13.9413Z" fill="white"/>
<path d="M49.8384 31.4733V0H61.1449C65.0579 0 68.0287 0.731151 70.0572 2.19345C72.0858 3.65576 73.1 5.79978 73.1 8.62551C73.1294 10.074 72.7018 11.4964 71.8749 12.7002C71.0532 13.8878 69.8678 14.792 68.4878 15.2839C70.0453 15.6327 71.428 16.5028 72.3954 17.7428C73.3745 19.0436 73.8791 20.6263 73.8287 22.239C73.8287 25.2625 72.8385 27.5522 70.858 29.1082C68.8774 30.6641 66.0535 31.4525 62.3861 31.4733H49.8384ZM56.4926 13.1841H61.3851C64.7376 13.1321 66.4165 11.8311 66.4218 9.2812C66.4775 8.70666 66.391 8.12747 66.1694 7.59231C65.9479 7.05714 65.5978 6.58161 65.1486 6.20568C63.9497 5.48695 62.5483 5.15634 61.1449 5.26117H56.4926V13.1841ZM56.4926 17.7662V26.2668H62.1859C63.5057 26.343 64.8097 25.9552 65.8613 25.174C66.3 24.7998 66.646 24.3336 66.8735 23.8104C67.1009 23.2873 67.2039 22.7206 67.1745 22.1531C67.1745 19.2753 65.6451 17.813 62.5863 17.7662H56.4926Z" fill="white"/>
<path d="M92.7665 29.0926C91.9714 30.0263 90.964 30.7664 89.8242 31.2542C88.6844 31.742 87.4436 31.964 86.2004 31.9027C83.6327 31.9027 81.6708 31.1819 80.3149 29.7405C78.9616 28.3042 78.273 26.1888 78.241 23.4099V8.08691H84.6469V23.2069C84.6469 25.6424 85.7867 26.8601 88.0661 26.8601C90.2335 26.8601 91.7255 26.1237 92.5423 24.651V8.08691H98.9483V31.5046H92.9186L92.7665 29.0926Z" fill="white"/>
<path d="M111.168 26.4386H122.89V31.4734H103.024V27.6641L114.234 13.1217H103.32V8.08691H122.538V11.7635L111.168 26.4386Z" fill="white"/>
<path d="M134.253 26.4386H145.976V31.4734H126.085V27.6641L137.368 13.1217H126.422V8.08691H145.64V11.7635L134.253 26.4386Z" fill="white"/>
</svg>
