<svg width="470" height="142" viewBox="0 0 470 142" fill="none" xmlns="http://www.w3.org/2000/svg">
<path d="M17.4501 137.26H10.1601L8.78009 141.42H4.36011L11.8601 121.25H15.7201L23.2601 141.42H18.9001L17.4501 137.26ZM11.2801 133.89H16.2801L13.7401 126.35L11.2801 133.89Z" fill="white"/>
<path d="M39.5701 124.61H30.5701V141.42H26.4202V121.25H39.6201L39.5701 124.61Z" fill="white"/>
<path d="M55.4701 132.68H47.4701V138.08H56.9001V141.42H43.3401V121.25H56.8301V124.61H47.4901V129.42H55.4901L55.4701 132.68Z" fill="white"/>
<path d="M76.9 141.42H72.74V132.77H64.64V141.42H60.48V121.25H64.64V129.42H72.74V121.25H76.9V141.42Z" fill="white"/>
<path d="M96.7901 124.61H90.6101V141.42H86.4601V124.61H80.3601V121.25H96.7901V124.61Z" fill="white"/>
<path d="M115.57 134.7C115.544 135.673 115.317 136.629 114.904 137.51C114.491 138.391 113.901 139.178 113.17 139.82C111.562 141.125 109.529 141.791 107.46 141.69C106.312 141.746 105.166 141.54 104.109 141.088C103.053 140.636 102.112 139.949 101.36 139.08C99.7726 137.039 98.9801 134.491 99.13 131.91V130.68C99.0819 128.92 99.4234 127.172 100.13 125.56C100.742 124.157 101.763 122.972 103.06 122.16C104.612 121.287 106.385 120.886 108.162 121.007C109.938 121.128 111.641 121.765 113.06 122.84C114.534 124.201 115.417 126.086 115.52 128.09H111.37C111.364 127.045 110.977 126.039 110.28 125.26C109.479 124.61 108.458 124.295 107.43 124.38C106.828 124.343 106.226 124.461 105.682 124.722C105.138 124.983 104.669 125.378 104.32 125.87C103.527 127.275 103.159 128.88 103.26 130.49V132.01C103.146 133.665 103.493 135.319 104.26 136.79C104.602 137.295 105.072 137.701 105.622 137.966C106.171 138.232 106.781 138.347 107.39 138.3C108.424 138.382 109.45 138.067 110.26 137.42C110.954 136.684 111.344 135.712 111.35 134.7H115.57Z" fill="white"/>
<path d="M134.2 124.61H128.03V141.42H123.9V124.61H117.81V121.25H134.2V124.61Z" fill="white"/>
<path d="M137.76 141.42V121.25H144.83C146.788 121.12 148.736 121.61 150.4 122.65C151.029 123.129 151.531 123.755 151.863 124.474C152.194 125.192 152.344 125.98 152.3 126.77C152.315 127.701 152.047 128.615 151.53 129.39C151.016 130.15 150.273 130.728 149.41 131.04C150.386 131.259 151.254 131.815 151.86 132.61C152.469 133.444 152.782 134.458 152.75 135.49C152.805 136.317 152.666 137.145 152.345 137.909C152.024 138.672 151.529 139.351 150.9 139.89C149.357 140.984 147.489 141.523 145.6 141.42H137.76ZM141.9 129.7H144.98C147.07 129.7 148.12 128.83 148.12 127.19C148.158 126.817 148.106 126.44 147.966 126.091C147.827 125.743 147.605 125.434 147.32 125.19C146.57 124.723 145.69 124.509 144.81 124.58H141.9V129.7ZM141.9 132.63V138.08H145.46C146.283 138.131 147.096 137.882 147.75 137.38C148.026 137.142 148.244 136.845 148.387 136.511C148.531 136.176 148.597 135.814 148.58 135.45C148.58 133.6 147.58 132.66 145.71 132.63H141.9Z" fill="white"/>
<path d="M173.63 131.79C173.672 133.587 173.31 135.371 172.57 137.01C171.936 138.436 170.892 139.64 169.57 140.47C168.221 141.298 166.663 141.722 165.08 141.69C163.504 141.716 161.952 141.3 160.6 140.49C159.287 139.659 158.245 138.464 157.6 137.05C156.847 135.439 156.471 133.678 156.5 131.9V130.9C156.465 129.096 156.83 127.306 157.57 125.66C158.208 124.232 159.251 123.022 160.57 122.18C161.935 121.38 163.488 120.958 165.07 120.958C166.652 120.958 168.205 121.38 169.57 122.18C170.889 123.022 171.932 124.232 172.57 125.66C173.318 127.3 173.688 129.088 173.65 130.89L173.63 131.79ZM169.42 130.88C169.531 129.195 169.134 127.516 168.28 126.06C167.909 125.55 167.423 125.134 166.86 124.848C166.298 124.562 165.676 124.413 165.045 124.413C164.414 124.413 163.792 124.562 163.23 124.848C162.668 125.134 162.181 125.55 161.81 126.06C160.959 127.503 160.559 129.168 160.66 130.84V131.84C160.562 133.514 160.958 135.18 161.8 136.63C162.166 137.146 162.649 137.567 163.21 137.86C163.77 138.153 164.392 138.308 165.025 138.314C165.657 138.32 166.282 138.176 166.848 137.894C167.414 137.611 167.905 137.199 168.28 136.69C169.123 135.244 169.52 133.581 169.42 131.91V130.88Z" fill="white"/>
<path d="M201.9 134.7C201.87 135.673 201.641 136.629 201.226 137.51C200.812 138.391 200.221 139.177 199.49 139.82C197.882 141.125 195.849 141.791 193.78 141.69C192.632 141.746 191.486 141.54 190.429 141.088C189.373 140.636 188.432 139.949 187.68 139.08C186.097 137.037 185.305 134.491 185.45 131.91V130.68C185.407 128.921 185.748 127.174 186.45 125.56C187.062 124.157 188.083 122.972 189.38 122.16C190.938 121.276 192.721 120.87 194.507 120.991C196.294 121.111 198.006 121.755 199.43 122.84C200.905 124.201 201.788 126.086 201.89 128.09H197.8C197.799 127.044 197.411 126.036 196.71 125.26C195.909 124.61 194.888 124.295 193.86 124.38C193.258 124.344 192.656 124.461 192.112 124.722C191.568 124.983 191.099 125.378 190.75 125.87C189.961 127.276 189.596 128.881 189.7 130.49V132.01C189.587 133.665 189.933 135.319 190.7 136.79C191.041 137.295 191.509 137.7 192.057 137.965C192.605 138.23 193.213 138.346 193.82 138.3C194.854 138.382 195.88 138.067 196.69 137.42C197.39 136.688 197.781 135.713 197.78 134.7H201.9Z" fill="white"/>
<path d="M222.41 131.79C222.465 133.582 222.123 135.365 221.41 137.01C220.773 138.434 219.729 139.638 218.41 140.47C217.057 141.298 215.496 141.722 213.91 141.69C212.337 141.716 210.788 141.301 209.44 140.49C208.111 139.664 207.051 138.468 206.39 137.05C205.645 135.437 205.273 133.677 205.3 131.9V130.9C205.26 129.095 205.625 127.304 206.37 125.66C207.012 124.234 208.054 123.025 209.37 122.18C210.736 121.382 212.289 120.962 213.87 120.962C215.452 120.962 217.005 121.382 218.37 122.18C219.686 123.025 220.728 124.234 221.37 125.66C222.115 127.301 222.481 129.088 222.44 130.89L222.41 131.79ZM218.2 130.88C218.309 129.197 217.916 127.519 217.07 126.06C216.699 125.55 216.213 125.134 215.65 124.848C215.088 124.562 214.466 124.413 213.835 124.413C213.204 124.413 212.582 124.562 212.02 124.848C211.458 125.134 210.971 125.55 210.6 126.06C209.749 127.503 209.349 129.168 209.45 130.84V131.84C209.354 133.512 209.746 135.177 210.58 136.63C210.946 137.148 211.43 137.571 211.991 137.865C212.553 138.159 213.176 138.315 213.81 138.321C214.444 138.327 215.07 138.182 215.637 137.899C216.203 137.615 216.695 137.201 217.07 136.69C217.905 135.241 218.297 133.579 218.2 131.91V130.88Z" fill="white"/>
<path d="M242.72 121.25V141.42H238.55V133.77C237.235 134.045 235.894 134.179 234.55 134.17C232.471 134.314 230.408 133.723 228.72 132.5C228.051 131.888 227.526 131.136 227.18 130.298C226.834 129.46 226.677 128.556 226.72 127.65V121.25H230.9V127.56C230.861 128.012 230.916 128.467 231.06 128.897C231.205 129.327 231.436 129.723 231.74 130.06C232.569 130.653 233.586 130.923 234.6 130.82C235.944 130.829 237.285 130.695 238.6 130.42V121.25H242.72Z" fill="white"/>
<path d="M263.95 141.42H259.8V132.77H251.7V141.42H247.54V121.25H251.7V129.42H259.8V121.25H263.95V141.42Z" fill="white"/>
<path d="M285.34 131.79C285.379 133.586 285.02 135.369 284.29 137.01C283.653 138.434 282.609 139.638 281.29 140.47C279.937 141.298 278.376 141.722 276.79 141.69C275.217 141.716 273.668 141.301 272.32 140.49C271.009 139.656 269.968 138.462 269.32 137.05C268.571 135.438 268.198 133.677 268.23 131.9V130.9C268.19 129.095 268.555 127.304 269.3 125.66C269.942 124.234 270.984 123.025 272.3 122.18C273.666 121.382 275.219 120.962 276.8 120.962C278.382 120.962 279.935 121.382 281.3 122.18C282.616 123.025 283.658 124.234 284.3 125.66C285.04 127.302 285.405 129.089 285.37 130.89L285.34 131.79ZM281.13 130.88C281.239 129.197 280.845 127.519 280 126.06C279.629 125.55 279.142 125.134 278.58 124.848C278.018 124.562 277.396 124.413 276.765 124.413C276.134 124.413 275.512 124.562 274.95 124.848C274.388 125.134 273.901 125.55 273.53 126.06C272.679 127.503 272.279 129.168 272.38 130.84V131.84C272.284 133.512 272.676 135.177 273.51 136.63C273.876 137.148 274.359 137.571 274.921 137.865C275.482 138.159 276.106 138.315 276.74 138.321C277.374 138.327 278 138.182 278.567 137.899C279.133 137.615 279.625 137.201 280 136.69C280.834 135.241 281.227 133.579 281.13 131.91V130.88Z" fill="white"/>
<path d="M301.65 121.25H305.82V141.42H301.65V128.02L293.57 141.42H289.41V121.25H293.57V134.67L301.65 121.25ZM302.45 115.94C302.472 116.507 302.365 117.072 302.136 117.592C301.908 118.112 301.563 118.573 301.13 118.94C300.124 119.678 298.908 120.075 297.66 120.075C296.412 120.075 295.197 119.678 294.19 118.94C293.752 118.576 293.404 118.116 293.173 117.596C292.943 117.075 292.835 116.509 292.86 115.94H295.7C295.687 116.189 295.726 116.438 295.816 116.67C295.906 116.903 296.043 117.114 296.22 117.29C296.621 117.628 297.136 117.8 297.66 117.77C298.174 117.797 298.679 117.625 299.07 117.29C299.246 117.114 299.382 116.902 299.47 116.67C299.558 116.437 299.595 116.188 299.58 115.94H302.45Z" fill="white"/>
<path d="M323.02 134.31V141.42H318.9V121.25H326.77C328.149 121.222 329.516 121.506 330.77 122.08C331.868 122.587 332.79 123.408 333.42 124.44C334.05 125.494 334.372 126.703 334.35 127.93C334.393 128.809 334.235 129.686 333.889 130.496C333.542 131.305 333.016 132.024 332.35 132.6C330.741 133.823 328.748 134.429 326.73 134.31H323.02ZM323.02 130.94H326.73C327.637 131.006 328.535 130.731 329.25 130.17C329.545 129.883 329.774 129.537 329.922 129.154C330.071 128.771 330.135 128.36 330.11 127.95C330.13 127.514 330.063 127.078 329.914 126.668C329.765 126.258 329.536 125.881 329.24 125.56C328.929 125.237 328.554 124.981 328.139 124.809C327.725 124.637 327.279 124.552 326.83 124.56H323.02V130.94Z" fill="white"/>
<path d="M350.49 132.68H342.49V138.08H351.9V141.42H338.38V121.25H351.87V124.61H342.54V129.42H350.54L350.49 132.68Z" fill="white"/>
<path d="M362.08 133.18H359.69V141.43H355.53V121.25H359.69V129.32H361.58L366.51 121.25H371.58L365.36 130.79L372.23 141.42H367.28L362.08 133.18Z" fill="white"/>
<path d="M391.42 121.25V141.42H387.25V124.61H381.9L381.56 131.73C381.503 133.655 381.197 135.564 380.65 137.41C380.296 138.602 379.575 139.652 378.59 140.41C377.481 141.115 376.183 141.464 374.87 141.41H373.79V138.08L374.49 138.01C374.994 137.946 375.469 137.743 375.863 137.423C376.257 137.103 376.554 136.68 376.72 136.2C377.297 134.355 377.584 132.433 377.57 130.5L377.92 121.25H391.42Z" fill="white"/>
<path d="M407.7 137.26H400.41L399.03 141.42H394.61L402.11 121.25H405.96L413.51 141.42H409.1L407.7 137.26ZM401.53 133.89H406.53L404 126.35L401.53 133.89Z" fill="white"/>
<path d="M422.02 121.25L427.2 135.88L432.35 121.25H437.81V141.42H433.64V135.9L434.06 126.39L428.61 141.39H425.76L420.33 126.39L420.74 135.89V141.41H416.59V121.25H422.02Z" fill="white"/>
<path d="M446.9 128.52H450.14C452.164 128.413 454.16 129.022 455.78 130.24C456.464 130.801 457.008 131.513 457.37 132.32C457.733 133.126 457.904 134.006 457.87 134.89C457.903 135.783 457.733 136.672 457.373 137.489C457.013 138.307 456.471 139.032 455.79 139.61C454.236 140.859 452.282 141.502 450.29 141.42H442.71V121.25H446.9V128.52ZM446.9 131.87V138.08H450.21C451.137 138.125 452.046 137.814 452.75 137.21C453.075 136.913 453.333 136.549 453.506 136.144C453.678 135.738 453.762 135.301 453.75 134.86C453.767 134.455 453.695 134.051 453.537 133.678C453.38 133.304 453.142 132.97 452.84 132.7C452.136 132.134 451.252 131.839 450.35 131.87H446.9ZM463.75 141.42H459.6V121.25H463.75V141.42Z" fill="white"/>
<path d="M67.35 82.38H29.9L22.78 103.76H0L38.63 0H58.44L97.28 103.76H74.55L67.35 82.38ZM35.64 65.06H61.58L48.58 26.22L35.64 65.06Z" fill="white"/>
<path d="M148.9 45.96C146.446 45.6058 143.97 45.4154 141.49 45.39C133.704 45.39 128.597 48.0266 126.17 53.3V103.76H105.62V26.65H125.07L125.64 35.84C129.813 28.7333 135.54 25.18 142.82 25.18C144.992 25.1645 147.153 25.4781 149.23 26.11L148.9 45.96Z" fill="white"/>
<path d="M160.21 103.76V0H196.55C209.143 0 218.693 2.40998 225.2 7.22998C231.707 12.05 234.96 19.1167 234.96 28.43C235.056 33.202 233.688 37.8889 231.04 41.86C228.387 45.7701 224.575 48.7499 220.14 50.38C225.139 51.495 229.59 54.3255 232.72 58.38C235.862 62.6728 237.477 67.893 237.31 73.21C237.31 83.21 234.13 90.7633 227.77 95.87C221.41 100.977 212.333 103.59 200.54 103.71L160.21 103.76ZM181.58 43.47H197.41C208.19 43.2833 213.58 38.9833 213.58 30.57C213.58 25.9033 212.217 22.5166 209.49 20.41C206.763 18.3033 202.45 17.27 196.55 17.31H181.55L181.58 43.47ZM181.58 58.58V86.58H199.9C204.94 86.58 208.873 85.38 211.7 82.98C214.527 80.58 215.94 77.2666 215.94 73.04C215.94 63.54 211.02 58.72 201.18 58.58H181.58Z" fill="white"/>
<path d="M298.17 95.9199C293.09 102.093 286.06 105.18 277.08 105.18C268.813 105.18 262.507 102.807 258.16 98.0599C253.813 93.3133 251.593 86.3533 251.5 77.1799V26.6499H272.09V76.52C272.09 84.56 275.757 88.58 283.09 88.58C290.07 88.58 294.867 86.1533 297.48 81.2999V26.6499H318.15V103.76H298.74L298.17 95.9199Z" fill="white"/>
<path d="M357.32 87.1799H395.02V103.79H331.02V91.1799L367.29 43.1799H332.09V26.58H393.9V38.7799L357.32 87.1799Z" fill="white"/>
<path d="M431.58 87.1799H469.28V103.79H405.28V91.1799L441.56 43.1799H406.35V26.58H468.14V38.7799L431.58 87.1799Z" fill="white"/>
</svg>
