<svg width="33" height="22" viewBox="0 0 33 22" fill="none" xmlns="http://www.w3.org/2000/svg">
<path d="M31.3076 0H1.69234C0.761512 0 0 0.761512 0 1.69228V20.3077C0 21.2384 0.761512 22 1.69234 22H31.3077C32.2384 22 33 21.2385 33 20.3077V1.69228C32.9999 0.761512 32.2384 0 31.3076 0ZM30.6725 1.26914L17.4735 11.1693C17.2362 11.3499 16.8719 11.4628 16.4999 11.4612C16.128 11.4628 15.7638 11.3499 15.5264 11.1693L2.32733 1.26914H30.6725ZM23.622 11.8225L30.8143 20.7071C30.8216 20.716 30.8304 20.7228 30.8381 20.7309H2.16188C2.16949 20.7224 2.17838 20.716 2.1856 20.7071L9.37791 11.8225C9.59828 11.55 9.55651 11.1506 9.28355 10.9297C9.01111 10.7094 8.6117 10.7511 8.39127 11.0237L1.26921 19.8216V2.06243L14.7653 12.1845C15.2726 12.5623 15.8898 12.7286 16.4998 12.7303C17.1091 12.729 17.7268 12.5627 18.2344 12.1845L31.7305 2.06243V19.8214L24.6086 11.0237C24.3882 10.7512 23.9884 10.7093 23.7163 10.9297C23.4434 11.1501 23.4015 11.55 23.622 11.8225Z" fill="black"/>
</svg>
