<svg width="22" height="22" viewBox="0 0 22 22" fill="none" xmlns="http://www.w3.org/2000/svg">
<path d="M14.8995 7.10052C13.9101 6.1111 12.5133 5.47089 11 5.47089C9.48682 5.47089 8.09 6.082 7.10058 7.10052C6.11116 8.08993 5.47095 9.48676 5.47095 11C5.47095 12.5132 6.11116 13.91 7.10058 14.8995C8.09 15.8889 9.48682 16.5291 11 16.5291C12.5133 16.5291 13.9101 15.918 14.8995 14.8995C15.8889 13.91 16.5292 12.5132 16.5292 11C16.5292 9.48676 15.918 8.08993 14.8995 7.10052Z" fill="white"/>
<path d="M11 3.75396C11.4074 3.75396 11.7566 3.40476 11.7566 2.99735V0.756613C11.7566 0.349206 11.4074 0 11 0C10.5926 0 10.2434 0.349206 10.2434 0.756613V2.99735C10.2434 3.40476 10.5926 3.75396 11 3.75396Z" fill="white"/>
<path d="M17.1985 5.8783L18.799 4.27777C19.09 3.98677 19.09 3.52116 18.799 3.23016C18.508 2.93915 18.0424 2.93915 17.7514 3.23016L16.1509 4.83068C15.8599 5.12169 15.8599 5.5873 16.1509 5.8783C16.4128 6.16931 16.8784 6.16931 17.1985 5.8783Z" fill="white"/>
<path d="M21.2435 10.2434H19.0027C18.5953 10.2434 18.2461 10.5926 18.2461 11C18.2461 11.4074 18.5953 11.7566 19.0027 11.7566H21.2435C21.6509 11.7566 22.0001 11.4074 22.0001 11C22.0001 10.5926 21.6509 10.2434 21.2435 10.2434Z" fill="white"/>
<path d="M17.1692 16.1217C16.8782 15.8307 16.4126 15.8307 16.1216 16.1217C15.8306 16.4127 15.8306 16.8783 16.1216 17.1693L17.7221 18.7698C18.0131 19.0608 18.4787 19.0608 18.7697 18.7698C19.0607 18.4788 19.0607 18.0132 18.7697 17.7222L17.1692 16.1217Z" fill="white"/>
<path d="M11 18.246C10.5926 18.246 10.2434 18.5952 10.2434 19.0027V21.2434C10.2434 21.6508 10.5926 22 11 22C11.4074 22 11.7566 21.6508 11.7566 21.2434V19.0027C11.7566 18.5952 11.4074 18.246 11 18.246Z" fill="white"/>
<path d="M4.80169 16.1217L3.20116 17.7222C2.91016 18.0132 2.91016 18.4788 3.20116 18.7698C3.49217 19.0608 3.95778 19.0608 4.24878 18.7698L5.84931 17.1693C6.14032 16.8783 6.14032 16.4127 5.84931 16.1217C5.58741 15.8307 5.1218 15.8307 4.80169 16.1217Z" fill="white"/>
<path d="M3.75396 11C3.75396 10.5926 3.40476 10.2434 2.99735 10.2434H0.756613C0.349206 10.2434 0 10.5926 0 11C0 11.4074 0.349206 11.7566 0.756613 11.7566H2.99735C3.40476 11.7566 3.75396 11.4074 3.75396 11Z" fill="white"/>
<path d="M4.80169 5.8783C5.0927 6.16931 5.55831 6.16931 5.84931 5.8783C6.14032 5.5873 6.14032 5.12169 5.84931 4.83068L4.24878 3.23016C3.95778 2.93915 3.49217 2.93915 3.20116 3.23016C2.91016 3.52116 2.91016 3.98677 3.20116 4.27777L4.80169 5.8783Z" fill="white"/>
</svg>
