<svg width="41" height="41" viewBox="0 0 41 41" fill="none" xmlns="http://www.w3.org/2000/svg">
<circle r="19.6288" transform="matrix(-1 0 0 1 20.1288 20.8712)" stroke="#5CC560"/>
<path d="M24.7129 20.923L18.374 14.6018C18.1664 14.3948 17.8301 14.3951 17.6228 14.6028C17.4156 14.8105 17.4161 15.1469 17.6238 15.3541L23.5854 21.2992L17.6236 27.2442C17.4159 27.4514 17.4154 27.7876 17.6226 27.9953C17.7265 28.0994 17.8627 28.1515 17.9988 28.1515C18.1346 28.1515 18.2703 28.0998 18.374 27.9964L24.7129 21.6752C24.8129 21.5757 24.869 21.4403 24.869 21.2992C24.869 21.158 24.8127 21.0228 24.7129 20.923Z" fill="#5CC560"/>
</svg>
