<svg width="41" height="41" viewBox="0 0 41 41" fill="none" xmlns="http://www.w3.org/2000/svg">
<circle r="19.6288" transform="matrix(-1 0 0 1 20.1288 20.8712)" stroke="#F85453"/>
<path d="M24.713 20.923L18.3742 14.6018C18.1665 14.3948 17.8302 14.3951 17.6229 14.6028C17.4157 14.8105 17.4163 15.1469 17.624 15.3541L23.5855 21.2992L17.6237 27.2442C17.4161 27.4514 17.4155 27.7876 17.6227 27.9953C17.7266 28.0994 17.8628 28.1515 17.9989 28.1515C18.1348 28.1515 18.2704 28.0998 18.3741 27.9964L24.713 21.6752C24.813 21.5757 24.8691 21.4403 24.8691 21.2992C24.8691 21.158 24.8129 21.0228 24.713 20.923Z" fill="#F85453"/>
</svg>
