<svg width="22" height="22" viewBox="0 0 22 22" fill="none" xmlns="http://www.w3.org/2000/svg">
<path d="M11 22C4.93436 22 0 17.0656 0 11C0 4.93436 4.93436 0 11 0C17.0656 0 22 4.93436 22 11C22 17.0656 17.0656 22 11 22ZM11 1.375C5.69252 1.375 1.375 5.69252 1.375 11C1.375 16.3075 5.69252 20.625 11 20.625C16.3075 20.625 20.625 16.3075 20.625 11C20.625 5.69252 16.3075 1.375 11 1.375Z" fill="#2D2D2D"/>
<path d="M14.8893 8.08318L8.08341 14.8891C7.81506 15.1574 7.37948 15.1574 7.11114 14.8891C6.84279 14.6207 6.84279 14.1852 7.11114 13.9168L13.917 7.11091C14.1854 6.84256 14.621 6.84256 14.8893 7.11091C15.1577 7.37926 15.1577 7.81483 14.8893 8.08318Z" fill="#2D2D2D"/>
<path d="M14.8893 14.8891C14.621 15.1574 14.1854 15.1574 13.917 14.8891L7.11114 8.08319C6.84279 7.81484 6.84279 7.37927 7.11114 7.11092C7.37948 6.84257 7.81506 6.84257 8.08341 7.11092L14.8893 13.9168C15.1577 14.1852 15.1577 14.6207 14.8893 14.8891Z" fill="#2D2D2D"/>
</svg>
