<svg width="31" height="31" viewBox="0 0 31 31" fill="none" xmlns="http://www.w3.org/2000/svg">
<path d="M15.5 31C6.95296 31 0 24.047 0 15.5C0 6.95296 6.95296 0 15.5 0C24.047 0 31 6.95296 31 15.5C31 24.047 24.047 31 15.5 31ZM15.5 1.9375C8.02128 1.9375 1.9375 8.02128 1.9375 15.5C1.9375 22.9787 8.02128 29.0625 15.5 29.0625C22.9787 29.0625 29.0625 22.9787 29.0625 15.5C29.0625 8.02128 22.9787 1.9375 15.5 1.9375Z" fill="#5CC560"/>
<path d="M16.4687 8.71875L16.4687 22.2812C16.4687 22.816 16.0347 23.25 15.5 23.25C14.9652 23.25 14.5312 22.816 14.5312 22.2812L14.5312 8.71875C14.5312 8.184 14.9652 7.75 15.5 7.75C16.0347 7.75 16.4687 8.184 16.4687 8.71875Z" fill="#5CC560"/>
<path d="M23.25 15.5C23.25 16.0348 22.816 16.4687 22.2812 16.4687L8.71875 16.4687C8.184 16.4687 7.75 16.0348 7.75 15.5C7.75 14.9652 8.184 14.5312 8.71875 14.5312L22.2812 14.5312C22.816 14.5312 23.25 14.9652 23.25 15.5Z" fill="#5CC560"/>
</svg>
