<svg width="27" height="22" viewBox="0 0 27 22" fill="none" xmlns="http://www.w3.org/2000/svg">
<path d="M25.5087 0.412403C25.0416 0.00448358 24.3914 -0.111801 23.8126 0.107848L0.97981 8.7886C0.362559 9.02302 -0.0220784 9.60444 -0.00193075 10.2689C0.0200485 10.9334 0.441318 11.4871 1.07139 11.681L6.6816 13.3994L8.53152 19.7747C8.55716 19.8633 8.60478 19.9446 8.67072 20.011C8.67072 20.011 9.43816 20.7364 9.43633 20.7124C9.49677 20.777 9.56821 20.8342 9.65063 20.8748C9.75869 20.9302 9.87591 20.9579 9.99131 20.9579C10.169 20.9579 10.3448 20.8933 10.4858 20.7696L13.8798 17.7776L19.0449 21.6279C19.3728 21.8716 19.7611 21.9971 20.1549 21.9971C20.3728 21.9971 20.5945 21.9583 20.8051 21.8789C21.3985 21.6575 21.8381 21.1536 21.9792 20.5334C22.9463 16.277 25.1478 6.19711 26.0508 2.06069C26.1845 1.45158 25.9757 0.820323 25.5087 0.412403ZM9.92354 13.9771C9.80998 14.0731 9.74038 14.2097 9.72756 14.3555L9.36123 18.6913L7.7714 13.2148L18.1951 7.05356L9.92354 13.9771ZM10.4071 19.3687L10.7386 15.4371L12.975 17.1039L10.4071 19.3687ZM24.9775 1.82259C24.0764 5.95716 21.8729 16.0333 20.9077 20.286C20.8491 20.5463 20.6732 20.7475 20.4241 20.8416C20.175 20.9339 19.9113 20.897 19.6988 20.7382L11.1654 14.3777L21.3235 5.87964C21.3326 5.87225 21.3418 5.86302 21.3509 5.85379C21.6806 5.53816 21.7246 5.0601 21.4572 4.71679C21.1788 4.3587 20.6861 4.28487 20.2813 4.53959L7.05524 12.3565L1.39192 10.6196C1.12634 10.5384 1.09886 10.3021 1.09703 10.232C1.0952 10.1619 1.10802 9.92376 1.36628 9.82594L24.1991 1.14518C24.494 1.03259 24.7101 1.1821 24.7888 1.25039C24.8676 1.31869 25.0453 1.51434 24.9775 1.82259Z" fill="white"/>
</svg>
