<svg width="996" height="562" viewBox="0 0 996 562" fill="none" xmlns="http://www.w3.org/2000/svg">
<g clip-path="url(#clip0)">
<path d="M184.287 562.254L89.5981 340.535L483.087 425.468L343.461 562.239H351.111L493.92 422.347L489.083 421.307C486.566 420.756 89.6917 335.084 85.6666 334.221L80.6118 333.129L178.468 562.275L184.287 562.254Z" fill="#ACCD6A"/>
<path d="M584.875 562.02L220.529 -0.217041H219.166L583.278 562.02H584.875Z" fill="#F4A8AB"/>
<path d="M969.767 543.611L960.927 542.014C957.765 541.442 956.413 546.279 959.59 546.851L968.431 548.452C971.587 549.024 972.945 544.188 969.767 543.611Z" fill="black"/>
<path d="M935.133 517.79C932.654 520.588 930.171 523.388 927.686 526.189C925.548 528.597 929.084 532.159 931.232 529.736L938.679 521.337C940.817 518.929 937.28 515.367 935.133 517.79Z" fill="black"/>
<path d="M909.489 538.478C910.233 540.917 911.138 543.304 911.881 545.758C912.828 548.837 917.669 547.521 916.723 544.422C915.974 541.983 915.075 539.596 914.326 537.141C913.384 534.057 908.538 535.373 909.489 538.473V538.478Z" fill="black"/>
<path d="M997.194 549.315L988.353 547.714C985.197 547.142 983.845 551.978 987.022 552.555L995.863 554.152C999.019 554.724 1000.38 549.887 997.194 549.315Z" fill="black"/>
<path d="M857.61 546.736L850.163 555.129C848.026 557.537 851.562 561.099 853.71 558.681C856.189 555.877 858.671 553.077 861.157 550.283C863.294 547.875 859.758 544.313 857.61 546.736Z" fill="black"/>
<path d="M874.72 531.863L872.723 542.908C872.151 546.065 876.987 547.422 877.559 544.245C878.225 540.563 878.892 536.881 879.561 533.199C880.133 530.037 875.297 528.685 874.72 531.863Z" fill="black"/>
<path d="M897.897 502.59C898.528 506.279 899.159 509.967 899.79 513.656C900.31 516.834 905.168 515.487 904.627 512.32L902.739 501.259C902.219 498.081 897.357 499.428 897.897 502.59Z" fill="black"/>
<path d="M869.519 497.55C870.268 499.989 871.173 502.376 871.917 504.831C872.858 507.915 877.705 506.599 876.758 503.5C876.009 501.061 875.105 498.674 874.361 496.219C873.42 493.14 868.573 494.456 869.519 497.556V497.55Z" fill="black"/>
<path d="M862.108 149.68L862.483 149.856L862.441 149.95L861.453 149.508L831.509 215.886C822.848 211.755 816.164 204.377 812.906 195.351C809.648 186.324 810.078 176.378 814.104 167.667C818.13 158.957 825.427 152.184 834.413 148.816C843.399 145.449 853.35 145.759 862.108 149.68Z" fill="#84C38E"/>
<path d="M857.132 0.479736L210.336 523.246L996.456 522.965V0.479736H857.132Z" fill="#F4A8AB"/>
<path d="M548.653 343.052C551.15 330.248 553.172 320.003 556.813 308.479C559.325 300.517 561.238 291.51 567.401 285.878C573.563 280.246 574.219 278.754 582.279 276.7C583.194 276.465 592.009 275.925 592.945 276.044C594.147 276.2 594.885 276.117 595.899 276.783C603.757 281.952 612.54 287.735 621.241 291.281C620.544 288.853 620.632 284.136 619.935 281.707C619.545 280.345 619.753 278.192 621.022 277.547C622.146 277.027 622.203 278.322 623.44 278.483C626.301 278.868 627.949 275.171 627.752 272.284C627.554 269.398 626.561 266.273 628.032 263.787L634.361 263.334C638.002 274.5 640.035 277.771 646.494 276.46C645.792 274.994 650.191 272.638 651.694 273.194C653.197 273.751 652.901 276.315 653.655 277.766C660.998 291.76 672.407 301.37 687.296 306.675C685.736 304.34 686.09 303.237 687.816 301.474C688.336 300.954 689.376 300.148 690.115 300.06C691.072 299.945 692.663 299.623 693.235 298.858C698.383 292.249 702.643 285.14 707.796 278.525C708.769 277.277 709.772 275.997 711.119 275.165C712.21 274.555 713.381 274.101 714.598 273.818C719.502 272.43 723.819 271.738 728.723 270.345C725.602 265.888 727.079 259.221 727.62 253.818C727.974 250.333 729.31 245.653 728.067 242.481C727.386 240.733 725.94 239.47 724.37 238.346C725.826 239.215 727.688 237.754 728.286 236.168C725.384 233.37 724.001 231.487 724.126 227.462C725.389 227.462 725.342 227.706 725.977 228.804C726.611 229.901 727.417 231.149 728.681 231.243C729.945 231.336 730.761 229.131 729.524 228.871C729.123 231.82 732.951 232.314 735.878 231.815C738.637 231.402 741.363 230.799 744.038 230.01C747.241 229.038 750.653 231.399 753.513 233.13C756.373 234.862 759.629 237.031 760.274 240.317C761.246 245.357 757.985 249.273 756.165 254.073C754.985 257.193 755.052 260.126 751.131 262.518C748.874 263.901 752.031 268.8 751.651 271.416C757.765 273.068 763.781 275.063 769.671 277.391C771.366 278.062 773.108 278.8 774.32 280.158C775.36 281.328 775.916 282.841 776.442 284.318L793.806 333.072C794.206 334.195 794.601 335.449 794.149 336.551C793.697 337.654 791.949 338.189 791.32 337.18C791.597 350.823 791.875 364.467 792.152 378.113C792.23 381.945 792.282 385.913 790.712 389.424C789.141 392.934 785.469 395.799 781.694 395.144C781.84 390.51 782.105 385.196 783.582 380.718C783.114 382.143 780.493 383.708 779 383.838C779.863 379.496 782.604 375.315 782.926 370.895C783.051 369.23 781.476 364.072 781.403 362.407C780.971 352.173 779.661 346.733 778.179 337.784L774.954 338.34C774.152 337.078 773.86 335.557 774.137 334.088C774.414 332.618 775.24 331.308 776.447 330.425C773.748 322.978 769.686 311.974 765.297 305.375C764.865 318.318 764.912 335.142 764.481 348.08C764.434 349.375 764.371 350.733 763.69 351.83C762.931 353.052 761.542 353.718 760.211 354.264C753.321 357.108 748.588 360.806 741.136 360.665C737.277 367.514 721.281 367.192 716.32 361.102C713.631 357.8 713.381 350.764 713.054 346.541C711.81 331.418 711.399 316.237 711.821 301.069C710.183 303.908 708.852 306.95 706.902 309.587C701.951 316.285 699.741 322.213 691.94 321.725C687.099 321.423 680.879 319.78 677.166 316.654C668.705 309.53 657.331 301.053 649.276 298.453C648.881 300.601 649.333 303.482 647.534 304.979C642.089 309.514 630.066 309.79 624.46 306.29C619.873 303.419 626.347 301.672 621.859 298.671C617.372 295.671 607.548 290.808 603.575 287.132C600.855 284.615 598.51 282.67 594.958 281.614C591.973 280.725 588.717 282.42 586.84 284.927C584.963 287.433 579.83 300.377 580.282 303.456C582.882 321.309 586.159 328.49 593.803 344.383C587.516 349.427 570.656 347.305 562.767 345.626L549.361 342.776" fill="white"/>
<path d="M389.657 482.298C389.571 482.297 389.486 482.288 389.402 482.272C389.058 482.2 388.757 481.997 388.562 481.705C388.368 481.413 388.296 481.056 388.362 480.712C394.222 450.313 394.135 419.067 388.107 388.701C386.807 382.216 385.205 375.617 383.65 369.236C379.287 351.279 374.773 332.708 376.369 314.013C376.399 313.659 376.568 313.331 376.839 313.102C377.11 312.873 377.461 312.761 377.815 312.79C378.169 312.82 378.496 312.989 378.726 313.26C378.955 313.531 379.067 313.882 379.037 314.236C377.477 332.5 381.96 350.852 386.271 368.601C387.831 375.008 389.443 381.633 390.754 388.176C396.849 418.883 396.937 450.48 391.014 481.221C390.951 481.532 390.781 481.811 390.532 482.008C390.284 482.205 389.973 482.308 389.657 482.298Z" fill="black"/>
<path d="M380.639 357.223C377.139 359.303 372.739 357.452 369.037 355.787C363.613 353.354 357.96 351.284 353.087 347.883C348.214 344.482 344.095 339.437 343.44 333.53C343.118 330.643 343.861 327.346 346.3 325.771C348.646 324.263 351.74 324.814 354.366 325.771C360.697 328.077 366.15 332.3 369.968 337.851C373.733 343.348 373.946 347.852 379.786 351.071C379.297 352.199 380.509 353.463 381.736 353.52C382.963 353.577 384.071 352.849 385.085 352.152L390.972 348.117C396.172 344.555 401.487 340.878 405.091 335.709C408.695 330.539 410.291 323.477 407.416 317.866C406.979 317.013 406.376 316.155 405.476 315.848C404.748 315.661 403.981 315.699 403.276 315.957C399.558 317.039 396.599 319.847 394.066 322.78C387.24 330.73 382.424 340.205 380.025 350.405" fill="black"/>
<path d="M388.528 380.801C389.116 375.601 391.898 370.92 394.618 366.427C396.558 363.219 398.539 359.968 401.316 357.446C404.093 354.924 407.822 353.208 411.535 353.697C412.022 353.734 412.492 353.897 412.897 354.17C413.229 354.452 413.489 354.808 413.657 355.21C415.737 359.532 414.754 364.846 412.221 368.918C409.689 372.99 405.809 376.027 401.857 378.747C397.312 381.867 391.768 384.806 386.516 383.131" fill="black"/>
<path d="M389.833 396.054C374.71 398.332 358.594 389.668 352.151 375.773C351.579 374.545 351.069 373.172 351.428 371.862C351.823 370.421 353.186 369.454 354.548 368.892C359.026 367.077 364.278 368.45 368.272 371.165C372.266 373.88 375.277 377.775 378.309 381.535C382.282 386.472 386.41 391.28 390.691 395.961" fill="black"/>
<path d="M395.242 415.072C395.949 406.902 399.771 399.304 404.42 392.544C406.615 389.351 409.231 386.127 412.918 384.92C413.918 384.523 415.029 384.51 416.038 384.884C416.732 385.258 417.315 385.809 417.728 386.48C421.369 391.681 420.49 399.008 417.208 404.401C413.927 409.794 408.602 413.626 403.261 417.022C400.099 419.035 396.817 420.974 393.188 421.9" fill="black"/>
<path d="M375.61 521.899C373.803 521.446 372.105 520.638 370.615 519.52C369.125 518.403 367.872 517 366.931 515.393C366.104 513.953 365.552 512.19 366.208 510.671C367.929 506.646 375.678 508.185 377.082 504.046C377.669 502.309 376.64 500.359 375.126 499.277C373.613 498.195 371.731 497.779 369.9 497.389L359.109 495.101C354.678 494.16 350.086 493.151 346.477 490.468C342.868 487.784 340.523 482.917 342.234 478.808C344.012 474.539 349.156 472.781 353.768 471.814C355.328 471.497 357.102 471.018 357.669 469.578C358.501 467.497 356.046 465.604 353.883 464.861C348.729 463.093 342.769 462.781 338.724 459.182C336.123 456.868 333.851 453.69 333.679 450.248C333.279 442.145 342.109 442.967 341.308 438.937C340.788 436.337 336.909 431.875 334.761 427.225C333.06 423.533 332.587 419.071 334.542 415.499C336.498 411.926 341.303 409.778 345.032 411.551C347.45 412.695 348.922 415.098 350.482 417.241C352.408 419.876 354.641 422.273 357.133 424.381C357.856 424.994 358.667 425.608 359.619 425.681C361.018 425.79 362.183 424.745 363.394 424.048C367.731 421.547 374.196 424.329 375.246 429.15C375.896 432.14 374.726 435.333 375.558 438.281C376.832 442.806 382.116 448.776 386.432 446.722C394.753 442.764 400.473 449.166 402.595 454.881C404.098 458.922 403.261 461.642 406.61 464.419C408.014 465.584 407.827 472.074 409.267 473.197C412.101 475.407 412.798 479.271 413.303 482.781C413.937 487.217 423.501 490.192 424.135 494.628C425.024 500.811 416.969 508.622 415.565 514.717C414.899 517.614 413.401 520.708 410.526 521.654" fill="black"/>
<path d="M689.553 450.263C685.565 444.896 677.358 444.246 671.3 447.086C665.241 449.925 660.899 455.406 656.983 460.825C654.295 439.622 649.067 418.818 641.413 398.862C634.83 399.58 630.18 392.747 624.283 389.73C620.903 387.999 617.034 387.541 613.263 387.13L511.601 375.44C499.307 386.855 496.649 405.02 494.746 421.661L490.549 458.1C487.237 448.703 479.686 440.72 467.08 443.393C468.743 440.183 469.538 436.594 469.386 432.981C469.234 429.369 468.139 425.859 466.211 422.8C463.726 418.962 459.919 415.909 458.411 411.598C457.34 408.551 457.542 405.228 457.412 402.003C457.054 393.665 454.39 385.589 449.716 378.674C447.37 375.216 444.365 371.966 440.423 370.567C436.481 369.168 431.478 370.12 429.205 373.635C426.933 377.151 427.978 382.013 426.283 385.892C423.683 391.915 415.445 393.693 412.361 399.502C407.317 409.008 418.883 422.706 411.545 430.585C407.072 435.385 398.216 434.08 394.264 439.322C392.184 442.083 392.184 445.884 392.756 449.291C393.877 455.665 396.78 461.591 401.128 466.384C403.921 469.442 407.535 472.625 407.28 476.749C406.937 482.23 400.437 484.602 395.985 487.815C393.275 489.768 391.113 492.384 389.705 495.413C388.297 498.442 387.691 501.782 387.945 505.113C388.199 508.443 389.305 511.652 391.157 514.432C393.008 517.212 395.543 519.47 398.518 520.989L399.683 530.09C411.488 529.299 423.292 528.389 435.097 527.604C455.712 526.231 476.326 525.388 496.982 525.877C517.347 526.356 538.253 521.197 558.592 522.237C569.148 522.757 579.04 529.653 589.607 529.335C599.841 529.029 610.07 528.467 620.289 528.072C630.097 527.692 639.822 528.498 649.515 529.699C650.925 523.397 651.169 516.844 651.382 510.364C656.432 513.693 663.343 513.136 668.643 510.224C673.942 507.312 677.863 502.423 681.025 497.223C687.215 487.091 690.991 475.671 692.06 463.847C692.497 459.156 692.367 454.039 689.553 450.263Z" fill="white"/>
<path d="M807.291 523.968C807.108 523.967 806.928 523.916 806.771 523.823C806.658 523.754 806.561 523.663 806.483 523.556C806.406 523.449 806.35 523.328 806.32 523.199C806.29 523.071 806.285 522.937 806.306 522.807C806.327 522.677 806.374 522.552 806.443 522.44C811.342 514.473 813.11 505.049 814.504 496.084C817.748 475.18 819.393 454.059 819.424 432.904C819.424 412.623 818.186 389.268 808.633 369.86C808.515 369.62 808.498 369.344 808.584 369.092C808.671 368.84 808.854 368.633 809.093 368.515C809.332 368.398 809.608 368.381 809.86 368.467C810.112 368.553 810.32 368.736 810.437 368.976C820.172 388.737 821.457 412.389 821.431 432.904C821.396 454.162 819.739 475.385 816.475 496.391C815.05 505.559 813.235 515.206 808.154 523.49C808.064 523.638 807.937 523.76 807.786 523.843C807.634 523.927 807.464 523.97 807.291 523.968Z" fill="white"/>
<path d="M809.886 371.893C804.607 362.891 802.683 352.132 803.52 341.731C804.358 331.33 807.852 321.257 812.762 312.047C814.498 308.791 817.213 305.193 820.885 305.541C822.114 322.386 820.966 339.32 817.473 355.845C816.22 361.763 814.29 368.164 809.22 371.446" fill="white"/>
<path d="M817.416 399.336C817.276 391.015 820.656 383.006 825.362 376.173C831.998 366.526 842.591 358.393 854.277 359.09C854.999 359.056 855.707 359.298 856.258 359.766C856.533 360.106 856.722 360.507 856.809 360.936C857.938 365.096 857.028 369.646 855.072 373.51C853.117 377.374 850.189 380.645 847.126 383.703C838.822 391.986 829.32 398.976 818.94 404.437C818.517 402.773 818.417 401.043 818.644 399.341" fill="white"/>
<path d="M820.115 446.061C824.858 433.029 830.739 419.57 841.905 411.338C849.461 405.814 858.747 403.181 868.078 403.917C869.157 403.932 870.214 404.215 871.157 404.739C872.608 405.69 873.159 407.563 873.237 409.294C873.471 416.055 868.083 421.552 862.805 425.759C853.26 433.367 842.753 439.683 831.556 444.543C827.754 446.191 823.708 447.694 819.595 447.377" fill="white"/>
<path d="M818.705 404.318C809.345 405.971 799.609 402.711 791.913 397.136C784.216 391.561 778.329 383.859 773.191 375.861C771.018 372.465 768.891 368.721 769.14 364.701C787.284 369.943 805.065 379.085 816.225 394.317C818.346 397.214 818.222 398.997 819.101 402.477" fill="white"/>
<path d="M818.971 450.362C807.068 444.083 796.704 435.243 788.626 424.48C785.589 420.423 782.776 415.639 783.348 410.61C787.233 408.977 791.715 410.34 795.486 412.227C802.166 415.651 807.925 420.631 812.279 426.746C816.632 432.861 819.451 439.934 820.5 447.367" fill="white"/>
<path d="M815.039 494.727C808.071 495.455 801.648 490.982 796.625 486.099C790.396 480.038 785.161 473.034 781.112 465.344C778.366 460.144 776.135 454.205 777.378 448.448C777.475 447.79 777.748 447.17 778.169 446.654C779.011 445.759 780.42 445.77 781.637 445.952C783.81 446.309 785.932 446.929 787.956 447.798C796.796 451.48 804.077 458.459 808.809 466.754C813.542 475.048 815.913 484.601 816.381 494.155C816.381 494.773 816.345 495.543 815.778 495.793C815.211 496.042 814.701 494.877 815.32 494.877" fill="white"/>
<path d="M816.012 490.306C821.213 473.894 837.75 461.777 854.969 461.74C857.709 461.74 860.559 462.037 862.904 463.446C866.056 465.344 867.772 468.875 869.301 472.219C869.457 472.417 869.564 472.648 869.615 472.895C869.665 473.141 869.656 473.396 869.589 473.639C869.522 473.881 869.399 474.105 869.23 474.291C869.06 474.477 868.85 474.621 868.614 474.71C854.589 484.065 838.652 490.171 821.967 492.584C819.549 492.927 816.335 492.709 815.669 490.358" fill="white"/>
<path d="M853.965 522.502C842.701 511.264 839.695 495.158 844.641 480.035C845.582 477.154 846.872 474.315 849.04 472.183C854.761 466.577 864.08 467.908 871.922 469.629C875.224 462.479 875.604 454.387 876.675 446.586C877.746 438.786 879.795 430.595 885.516 425.182C887.076 423.715 889.099 422.436 891.195 422.815C892.921 423.127 894.263 424.49 895.922 425.057C899.042 426.097 902.511 424.017 904.243 421.193C905.974 418.369 906.395 414.989 907.066 411.759C908.299 405.8 910.54 399.871 914.706 395.435C918.871 390.999 925.231 388.3 931.16 389.678C932.092 389.823 932.953 390.264 933.614 390.937C934.265 391.706 934.41 392.773 934.499 393.781C934.946 398.815 934.701 403.969 933.146 408.779C930.375 417.35 923.65 424.303 921.43 433.029C920.806 435.489 920.79 438.588 922.896 439.997C925.101 441.464 928.029 440.107 930.671 440.226C935.071 440.424 938.305 445.109 938.108 449.509C937.91 453.909 935.102 457.83 931.748 460.669C928.393 463.509 924.467 465.609 920.915 468.23C916.878 471.222 913.393 474.895 910.618 479.084C909.303 481.07 908.122 483.27 908.018 485.652C907.914 488.034 909.115 490.629 911.357 491.44C912.6 491.887 913.957 491.752 915.283 491.82C922.777 492.204 928.669 500.088 927.764 507.535C926.859 514.982 918.658 522.003 911.216 522.96" fill="black"/>
<path d="M881.053 531.343C880.81 531.341 880.576 531.252 880.393 531.091C880.211 530.931 880.092 530.71 880.06 530.469C878.417 518.16 881.1 500.192 887.699 479.88C893.477 462.011 901.569 444.376 909.349 432.712C909.419 432.597 909.513 432.499 909.623 432.421C909.733 432.343 909.857 432.289 909.988 432.26C910.12 432.232 910.256 432.23 910.388 432.255C910.52 432.28 910.646 432.331 910.758 432.406C910.87 432.481 910.966 432.577 911.04 432.689C911.114 432.802 911.164 432.928 911.189 433.06C911.213 433.193 911.21 433.328 911.181 433.46C911.152 433.591 911.096 433.715 911.018 433.825C903.337 445.349 895.333 462.796 889.608 480.498C883.128 500.53 880.445 518.186 882.046 530.204C882.082 530.467 882.012 530.734 881.851 530.946C881.69 531.157 881.452 531.296 881.188 531.332L881.053 531.343Z" fill="white"/>
<path d="M463.32 448.297C463.17 448.297 463.02 448.271 462.878 448.219C462.712 448.162 462.559 448.072 462.428 447.955C462.296 447.837 462.19 447.696 462.113 447.537C462.037 447.379 461.993 447.207 461.983 447.031C461.973 446.855 461.998 446.68 462.057 446.514C463.183 443.187 463.531 439.647 463.074 436.165C462.617 432.683 461.367 429.353 459.42 426.43C458.201 424.724 456.885 423.09 455.478 421.536C452.061 417.615 448.525 413.564 448.463 408.187C448.431 405.795 449.134 403.569 449.815 401.426C450.235 400.201 450.582 398.953 450.855 397.687C452.29 390.12 447.001 381.815 439.539 379.912C438.986 379.715 438.386 379.687 437.817 379.834C437.657 379.905 437.484 379.944 437.308 379.949C437.133 379.954 436.958 379.923 436.794 379.86C436.63 379.797 436.48 379.703 436.353 379.582C436.226 379.461 436.123 379.316 436.052 379.155C435.981 378.995 435.941 378.822 435.937 378.646C435.932 378.471 435.963 378.296 436.026 378.132C436.089 377.968 436.183 377.818 436.304 377.691C436.425 377.564 436.57 377.461 436.731 377.39C437.845 376.973 439.068 376.947 440.199 377.317C448.962 379.553 455.171 389.278 453.486 398.186C453.198 399.555 452.83 400.906 452.384 402.232C451.739 404.271 451.13 406.2 451.151 408.161C451.208 412.55 454.272 416.065 457.511 419.784C458.998 421.417 460.387 423.136 461.672 424.932C463.85 428.202 465.248 431.929 465.759 435.825C466.27 439.72 465.881 443.681 464.62 447.403C464.526 447.67 464.349 447.901 464.116 448.062C463.882 448.222 463.604 448.305 463.32 448.297Z" fill="black"/>
<path d="M424.811 522.549C424.568 522.549 424.329 522.483 424.12 522.359C423.912 522.234 423.74 522.055 423.625 521.842C420.952 516.828 420.723 511.108 420.671 505.148C420.507 473.383 423.207 441.667 428.737 410.386C428.768 410.213 428.832 410.048 428.927 409.9C429.021 409.752 429.144 409.623 429.289 409.523C429.433 409.422 429.595 409.351 429.767 409.313C429.939 409.275 430.116 409.271 430.289 409.302C430.462 409.333 430.628 409.397 430.776 409.492C430.924 409.587 431.052 409.71 431.153 409.854C431.254 409.998 431.325 410.16 431.363 410.332C431.401 410.504 431.404 410.681 431.374 410.854C425.873 441.976 423.187 473.529 423.349 505.133C423.375 510.733 423.604 516.126 425.986 520.583C426.156 520.892 426.196 521.256 426.099 521.595C426.001 521.934 425.774 522.221 425.466 522.393C425.265 522.501 425.039 522.555 424.811 522.549Z" fill="black"/>
<path d="M408.867 516.771C408.685 516.773 408.505 516.726 408.348 516.635C408.19 516.543 408.06 516.411 407.972 516.251C401.654 503.942 395.392 493.458 388.835 484.196C384.841 478.559 381.169 473.275 377.623 468.205C370.29 457.689 363.368 447.757 355.261 436.924C355.101 436.711 355.032 436.443 355.07 436.179C355.107 435.916 355.248 435.677 355.461 435.517C355.674 435.357 355.942 435.289 356.206 435.326C356.47 435.364 356.708 435.505 356.868 435.718C365.017 446.581 371.949 456.519 379.287 467.055C382.833 472.147 386.505 477.404 390.494 483.036C397.109 492.397 403.417 502.938 409.782 515.336C409.902 515.573 409.923 515.847 409.842 516.1C409.76 516.352 409.581 516.562 409.345 516.683C409.196 516.753 409.031 516.783 408.867 516.771Z" fill="white"/>
<path d="M765.968 356.656C765.968 356.656 767.814 440.424 763.56 506.849C763.56 506.849 751.5 516.043 743.065 511.69C735.639 507.863 725.55 505.356 725.55 505.356C725.55 505.356 710.386 385.258 714.141 361.456C714.141 361.456 725.639 367.254 765.968 356.656Z" fill="#66B662"/>
<path d="M498.209 521.665C497.878 521.664 497.559 521.54 497.314 521.317C497.069 521.094 496.916 520.788 496.883 520.458C494.039 492.033 487.861 431.947 486.181 418.452C486.159 418.278 486.173 418.101 486.219 417.931C486.266 417.762 486.346 417.603 486.454 417.465C486.562 417.326 486.697 417.21 486.85 417.124C487.003 417.037 487.171 416.981 487.346 416.96C487.52 416.938 487.697 416.951 487.867 416.998C488.036 417.045 488.195 417.125 488.333 417.233C488.472 417.341 488.588 417.476 488.675 417.629C488.761 417.782 488.817 417.95 488.838 418.125C490.518 431.646 496.701 491.757 499.546 520.193C499.564 520.368 499.547 520.545 499.496 520.714C499.446 520.883 499.362 521.04 499.25 521.176C499.139 521.312 499.001 521.425 498.846 521.508C498.69 521.591 498.52 521.643 498.345 521.66L498.209 521.665Z" fill="black"/>
<path d="M649.303 522.221C648.928 520.713 650.457 510.671 654.591 484.461C657.914 463.415 661.68 439.561 663.146 425.993L665.804 426.284C664.332 439.914 660.562 463.8 657.233 484.877C654.519 502.08 651.71 519.865 651.913 521.639C651.913 521.639 651.913 521.592 651.913 521.571L649.303 522.221Z" fill="black"/>
<path d="M657.545 512.84C655.926 512.855 654.309 512.68 652.73 512.32C652.385 512.233 652.089 512.012 651.907 511.707C651.724 511.402 651.671 511.037 651.757 510.692C651.844 510.347 652.065 510.051 652.37 509.869C652.675 509.686 653.04 509.633 653.385 509.719C656.676 510.304 660.052 510.204 663.302 509.427C666.553 508.649 669.608 507.21 672.278 505.2C682.944 497.306 688.992 480.992 690.256 456.722C690.558 450.846 684.536 446.68 678.576 446.04C671.342 445.266 662.834 449.218 660.661 462.614C660.604 462.965 660.411 463.278 660.123 463.486C659.835 463.693 659.477 463.778 659.126 463.722C658.776 463.665 658.463 463.472 658.255 463.184C658.047 462.897 657.962 462.538 658.019 462.188C660.494 446.93 670.796 442.52 678.862 443.378C687.094 444.257 693.272 450.18 692.903 456.857C691.598 482.012 685.165 499.012 673.786 507.39C669.099 510.905 663.404 512.816 657.545 512.84Z" fill="black"/>
<path d="M655.969 485.668C655.614 485.666 655.274 485.524 655.024 485.273C654.773 485.021 654.633 484.681 654.633 484.326C654.633 481.897 662.397 471.205 669.475 466.676C673.489 464.112 677.036 463.503 680.021 464.881C680.343 465.03 680.593 465.301 680.715 465.634C680.838 465.967 680.823 466.335 680.674 466.657C680.525 466.979 680.254 467.229 679.921 467.351C679.588 467.474 679.22 467.459 678.898 467.31C677.171 466.514 675.039 466.748 672.548 467.996C665.023 471.782 657.711 482.745 657.306 484.409C657.286 484.75 657.136 485.07 656.888 485.304C656.639 485.538 656.311 485.668 655.969 485.668Z" fill="black"/>
<path d="M670.182 491.695C669.941 491.693 669.705 491.625 669.499 491.5C669.293 491.374 669.125 491.195 669.013 490.982C668.901 490.769 668.848 490.529 668.86 490.289C668.873 490.048 668.95 489.815 669.085 489.615C669.147 489.526 673.822 482.729 672.205 477.446C671.518 475.194 669.714 473.483 666.838 472.365C666.527 472.222 666.282 471.966 666.153 471.649C666.024 471.331 666.022 470.977 666.146 470.658C666.271 470.339 666.512 470.079 666.822 469.933C667.131 469.786 667.485 469.763 667.81 469.869C671.492 471.304 673.833 473.592 674.769 476.676C676.755 483.213 671.498 490.832 671.274 491.149C671.149 491.32 670.984 491.459 670.794 491.554C670.604 491.649 670.394 491.698 670.182 491.695Z" fill="black"/>
<path d="M492.749 511.326C486.885 511.317 481.181 509.416 476.482 505.908C465.104 497.53 458.676 480.524 457.371 455.375C457.023 448.656 463.45 442.676 472.005 441.766C480.3 440.882 490.867 445.24 493.327 460.435C493.355 460.609 493.349 460.786 493.309 460.957C493.268 461.128 493.195 461.29 493.092 461.432C492.99 461.575 492.86 461.696 492.711 461.789C492.561 461.881 492.395 461.944 492.221 461.972C492.048 462 491.871 461.994 491.7 461.954C491.528 461.914 491.367 461.84 491.224 461.738C491.082 461.635 490.96 461.505 490.868 461.356C490.775 461.206 490.713 461.04 490.685 460.867C488.521 447.528 479.764 443.633 472.281 444.428C466.04 445.094 459.732 449.322 460.039 455.235C461.297 479.547 467.366 495.871 478.063 503.749C480.724 505.756 483.771 507.19 487.012 507.963C490.254 508.735 493.62 508.829 496.899 508.237C497.07 508.194 497.248 508.184 497.422 508.209C497.597 508.234 497.764 508.293 497.916 508.383C498.068 508.473 498.2 508.591 498.306 508.732C498.412 508.873 498.488 509.034 498.532 509.205C498.576 509.375 498.586 509.553 498.561 509.727C498.536 509.902 498.477 510.07 498.387 510.221C498.297 510.373 498.178 510.505 498.037 510.611C497.896 510.717 497.736 510.794 497.565 510.838C495.984 511.186 494.368 511.35 492.749 511.326Z" fill="black"/>
<path d="M546.053 327.559C546.053 327.559 534.654 329.031 529.142 336.754C528.465 337.7 530.613 328.662 533.551 324.985C536.49 321.309 490.908 339.692 497.149 372.049C497.149 372.049 467.735 398.883 483.544 437.122L492.011 460.664C492.011 460.664 510.763 432.722 508.558 384.925C508.558 384.925 610.767 426.102 640.545 405.883C640.545 405.883 647.165 455.516 657.826 464.341C657.826 464.341 677.312 407.719 669.589 390.438C669.589 390.438 654.882 401.104 652.677 400.365C652.677 400.365 655.985 396.689 667.759 387.13C679.532 377.572 698.639 331.616 644.596 319.483C644.596 319.483 646.801 341.907 609.301 338.969C609.301 338.969 576.944 337.128 575.841 337.497L574.739 337.867L575.108 343.748L563.709 344.851L562.242 337.867C562.242 337.867 555.008 337.045 552.679 336.764C549.038 336.317 539.444 336.764 539.444 336.764L546.053 327.559Z" fill="black"/>
<path d="M494.325 484.149C493.985 484.15 493.657 484.02 493.408 483.787C493.16 483.555 493.01 483.236 492.989 482.896C492.588 481.226 485.271 470.264 477.746 466.483C475.261 465.23 473.123 465.001 471.397 465.797C471.075 465.946 470.707 465.961 470.373 465.838C470.04 465.716 469.77 465.466 469.621 465.144C469.472 464.822 469.457 464.454 469.579 464.121C469.702 463.788 469.951 463.517 470.273 463.368C473.258 461.99 476.805 462.593 480.82 465.162C487.897 469.692 495.662 480.384 495.662 482.813C495.662 483.167 495.521 483.507 495.27 483.758C495.02 484.008 494.68 484.149 494.325 484.149Z" fill="black"/>
<path d="M480.113 490.181C479.897 490.182 479.685 490.13 479.494 490.031C479.302 489.931 479.138 489.786 479.015 489.609C478.792 489.287 473.534 481.673 475.521 475.137C476.457 472.053 478.797 469.759 482.479 468.329C482.645 468.253 482.825 468.212 483.008 468.208C483.19 468.204 483.372 468.237 483.541 468.306C483.711 468.374 483.864 468.477 483.992 468.607C484.121 468.737 484.221 468.892 484.288 469.062C484.354 469.232 484.385 469.414 484.378 469.597C484.372 469.78 484.328 469.959 484.25 470.124C484.171 470.289 484.06 470.437 483.923 470.557C483.786 470.678 483.625 470.769 483.451 470.825C480.576 471.943 478.771 473.649 478.085 475.906C476.472 481.195 481.163 488.008 481.205 488.075C481.305 488.219 481.376 488.382 481.414 488.553C481.452 488.725 481.455 488.902 481.424 489.075C481.393 489.248 481.329 489.413 481.234 489.561C481.139 489.709 481.016 489.837 480.872 489.937C480.65 490.095 480.385 490.181 480.113 490.181Z" fill="black"/>
<path d="M574.619 504.826C572.9 504.868 571.202 504.439 569.71 503.583C565.498 501.081 565.316 495.834 565.311 495.616V495.507L566.782 462.422C566.79 462.246 566.832 462.074 566.907 461.915C566.981 461.756 567.086 461.613 567.216 461.494C567.346 461.376 567.497 461.284 567.663 461.224C567.828 461.164 568.003 461.137 568.179 461.145C568.354 461.153 568.526 461.195 568.685 461.27C568.845 461.344 568.988 461.449 569.106 461.579C569.225 461.708 569.316 461.86 569.376 462.025C569.436 462.19 569.463 462.366 569.455 462.541L567.984 495.569C567.984 495.964 568.301 499.636 571.104 501.289C573.907 502.943 578.488 502.189 584.432 499.162C584.589 499.083 584.759 499.034 584.934 499.02C585.109 499.006 585.286 499.027 585.453 499.081C585.62 499.135 585.775 499.222 585.908 499.336C586.042 499.449 586.152 499.589 586.232 499.745C586.312 499.901 586.36 500.072 586.374 500.247C586.388 500.422 586.367 500.598 586.313 500.765C586.259 500.932 586.173 501.087 586.059 501.221C585.945 501.354 585.806 501.464 585.649 501.544C581.359 503.734 577.672 504.826 574.619 504.826Z" fill="black"/>
<path d="M534.296 461.387C538.762 461.387 542.382 457.766 542.382 453.3C542.382 448.834 538.762 445.214 534.296 445.214C529.83 445.214 526.209 448.834 526.209 453.3C526.209 457.766 529.83 461.387 534.296 461.387Z" fill="black"/>
<path d="M508.189 431.24L560.766 421.313C560.766 421.313 532.085 408.077 508.189 431.24Z" fill="black"/>
<path d="M613.337 461.018C617.803 461.018 621.423 457.397 621.423 452.931C621.423 448.465 617.803 444.844 613.337 444.844C608.871 444.844 605.25 448.465 605.25 452.931C605.25 457.397 608.871 461.018 613.337 461.018Z" fill="black"/>
<path d="M639.583 431.833L586.19 435.302C586.19 435.302 610.674 415.348 639.583 431.833Z" fill="black"/>
<path d="M570.1 351.627C578.338 351.627 585.015 348.747 585.015 345.194C585.015 341.641 578.338 338.761 570.1 338.761C561.863 338.761 555.186 341.641 555.186 345.194C555.186 348.747 561.863 351.627 570.1 351.627Z" fill="white"/>
<path d="M591.297 316.217C591.297 316.217 580.194 307.049 572.097 324.143C571.499 321.959 569.414 318.62 563.563 315.276C553.563 309.556 550.708 312.307 550.708 312.307C550.708 312.307 555.971 328.615 569.799 326.998C567.563 334.45 568.28 349.583 568.384 351.591L569.736 351.627H571.042C570.766 346.245 570.584 332.978 572.456 327.445C576.476 327.159 586.284 325.5 591.297 316.217Z" fill="#66B662"/>
<path d="M715.14 353.255C714.963 353.249 714.79 353.198 714.638 353.107C714.486 353.016 714.36 352.888 714.271 352.735C712.769 350.134 711.822 340.254 711.458 323.269C711.208 311.828 711.318 298.172 711.666 297.137C711.748 296.888 711.925 296.68 712.158 296.56C712.391 296.439 712.662 296.415 712.913 296.491C713.164 296.568 713.375 296.74 713.501 296.971C713.626 297.202 713.657 297.472 713.585 297.725C713.065 300.439 712.997 346.567 716.003 351.721C716.091 351.873 716.138 352.046 716.138 352.222C716.139 352.399 716.093 352.572 716.006 352.725C715.918 352.878 715.793 353.006 715.641 353.095C715.489 353.184 715.316 353.232 715.14 353.234V353.255ZM713.58 297.761C713.58 297.761 713.58 297.761 713.58 297.792C713.58 297.824 713.575 297.772 713.58 297.761Z" fill="black"/>
<path d="M693.745 299.899C693.564 299.896 693.388 299.846 693.233 299.752C693.079 299.658 692.953 299.524 692.868 299.365C692.783 299.205 692.742 299.026 692.75 298.845C692.758 298.665 692.814 298.49 692.913 298.338L709.627 273.449L709.981 273.35C711.125 273.028 721.255 270.194 724.245 270.693C724.508 270.737 724.743 270.884 724.897 271.101C725.052 271.318 725.114 271.587 725.07 271.85C725.026 272.113 724.879 272.347 724.662 272.502C724.445 272.657 724.175 272.719 723.913 272.674C722.041 272.357 715.233 273.969 710.88 275.181L694.562 299.451C694.47 299.584 694.348 299.694 694.206 299.771C694.064 299.849 693.907 299.893 693.745 299.899Z" fill="black"/>
<path d="M727.73 252.2H727.667C727.406 252.183 727.162 252.065 726.986 251.871C726.811 251.677 726.717 251.422 726.726 251.16L727.199 243.131C727.225 242.873 727.35 242.635 727.547 242.467C727.744 242.299 727.999 242.214 728.258 242.229C728.517 242.245 728.759 242.36 728.935 242.55C729.111 242.74 729.206 242.991 729.201 243.251L728.728 251.275C728.709 251.526 728.595 251.761 728.41 251.933C728.225 252.104 727.982 252.2 727.73 252.2Z" fill="black"/>
<path d="M734.828 262.097C734.573 262.098 734.327 262.001 734.141 261.826C733.748 261.549 733.302 261.356 732.831 261.259C732.146 261.111 731.502 260.814 730.943 260.391C730.837 260.297 730.751 260.181 730.691 260.053C730.631 259.924 730.599 259.784 730.595 259.642C730.595 257.858 731.728 256.428 732.675 255.279C732.966 254.92 733.237 254.582 733.445 254.27C733.593 254.049 733.823 253.895 734.084 253.844C734.346 253.792 734.617 253.846 734.838 253.995C735.06 254.143 735.213 254.373 735.265 254.634C735.316 254.896 735.262 255.167 735.114 255.388C734.859 255.768 734.557 256.142 734.245 256.538C733.575 257.364 732.893 258.217 732.685 259.096C732.899 259.185 733.153 259.257 733.413 259.335C734.194 259.506 734.922 259.863 735.535 260.375C735.632 260.466 735.709 260.574 735.764 260.694C735.818 260.814 735.849 260.944 735.853 261.076C735.857 261.207 735.836 261.339 735.789 261.462C735.743 261.586 735.672 261.699 735.582 261.795C735.485 261.896 735.367 261.975 735.237 262.027C735.107 262.079 734.968 262.103 734.828 262.097Z" fill="black"/>
<path d="M736.997 275.628C733.918 275.628 730.964 274.318 729.269 271.988C728.382 270.702 727.752 269.258 727.412 267.734C726.644 264.758 726.439 261.664 726.809 258.613C726.849 258.356 726.987 258.125 727.195 257.968C727.402 257.811 727.662 257.74 727.92 257.771C728.178 257.802 728.414 257.932 728.579 258.134C728.743 258.335 728.822 258.593 728.801 258.852C728.462 261.655 728.65 264.496 729.357 267.23C729.633 268.506 730.152 269.717 730.886 270.797C732.706 273.273 736.435 274.266 739.758 273.153C742.707 272.165 745.312 269.726 747.106 266.288C747.163 266.165 747.244 266.054 747.345 265.963C747.446 265.872 747.564 265.803 747.693 265.759C747.822 265.715 747.958 265.697 748.093 265.707C748.229 265.718 748.361 265.755 748.481 265.818C748.602 265.881 748.708 265.967 748.794 266.072C748.881 266.177 748.944 266.299 748.982 266.43C749.02 266.56 749.031 266.697 749.014 266.832C748.997 266.967 748.953 267.097 748.885 267.214C746.851 271.12 743.84 273.902 740.398 275.056C739.302 275.43 738.154 275.623 736.997 275.628Z" fill="black"/>
<path d="M736.752 269.435H736.69C736.424 269.431 736.17 269.322 735.984 269.131C735.798 268.941 735.696 268.684 735.699 268.418C735.703 268.152 735.812 267.898 736.002 267.712C736.193 267.526 736.45 267.424 736.716 267.427H736.752C737.209 267.413 737.658 267.302 738.069 267.101C738.479 266.9 738.842 266.614 739.134 266.262C739.444 265.918 739.684 265.517 739.841 265.082C737.292 265.93 734.611 266.313 731.926 266.21C731.66 266.2 731.409 266.084 731.228 265.889C731.047 265.693 730.951 265.434 730.962 265.168C730.972 264.901 731.088 264.65 731.283 264.469C731.479 264.288 731.738 264.193 732.004 264.203C734.947 264.313 737.879 263.78 740.596 262.643C740.737 262.582 740.89 262.555 741.044 262.564C741.197 262.573 741.347 262.618 741.48 262.695C741.617 262.769 741.736 262.873 741.826 263C741.916 263.128 741.976 263.274 742 263.428C742.072 264.167 741.994 264.913 741.768 265.621C741.543 266.328 741.176 266.982 740.689 267.543C740.202 268.104 739.606 268.559 738.938 268.882C738.269 269.204 737.541 269.387 736.799 269.419L736.752 269.435Z" fill="black"/>
<path d="M751.36 272.03C751.229 272.03 751.099 272.005 750.978 271.956C750.856 271.906 750.746 271.833 750.653 271.741C750.56 271.649 750.486 271.539 750.435 271.418C750.384 271.297 750.357 271.167 750.357 271.036L750.305 263.73C750.305 263.002 750.305 261.535 751.392 260.719C751.778 260.46 752.214 260.283 752.671 260.199C752.785 260.173 752.9 260.141 753.009 260.105C754.481 259.632 755.214 257.723 755.193 254.431C755.206 254.014 755.166 253.596 755.073 253.188C754.509 253.527 754.015 253.97 753.617 254.494C753.563 254.614 753.486 254.722 753.389 254.813C753.293 254.903 753.18 254.973 753.057 255.02C752.934 255.066 752.802 255.088 752.67 255.084C752.539 255.08 752.409 255.05 752.289 254.996C752.168 254.941 752.06 254.864 751.97 254.768C751.88 254.672 751.809 254.559 751.763 254.435C751.716 254.312 751.694 254.18 751.698 254.049C751.702 253.917 751.733 253.787 751.787 253.667C752.172 252.804 753.935 251.212 755.125 251.067C755.366 251.024 755.614 251.046 755.844 251.129C756.074 251.212 756.278 251.353 756.436 251.54C757.18 252.45 757.19 253.62 757.195 254.426C757.232 258.696 756.03 261.254 753.628 262.029L753.16 262.159C752.962 262.192 752.77 262.257 752.593 262.352C752.307 262.565 752.312 263.392 752.312 263.719L752.359 271.047C752.36 271.178 752.336 271.309 752.286 271.431C752.237 271.553 752.164 271.664 752.072 271.758C751.98 271.851 751.87 271.926 751.749 271.977C751.627 272.028 751.497 272.055 751.366 272.056L751.36 272.03Z" fill="black"/>
<path d="M731.994 243.526C728.806 243.526 725.821 242.169 724.152 239.886C724.067 239.78 724.004 239.658 723.968 239.528C723.931 239.397 723.922 239.261 723.939 239.126C723.957 238.992 724.002 238.863 724.071 238.746C724.14 238.629 724.232 238.528 724.341 238.448C724.45 238.368 724.575 238.31 724.707 238.28C724.839 238.249 724.976 238.245 725.109 238.269C725.242 238.292 725.37 238.343 725.483 238.417C725.597 238.491 725.694 238.587 725.769 238.7C727.236 240.697 730.07 241.779 733.008 241.451C735.447 241.181 738.001 240.047 740.809 237.982C740.915 237.904 741.036 237.848 741.164 237.816C741.292 237.785 741.425 237.778 741.555 237.798C741.685 237.818 741.811 237.863 741.923 237.932C742.036 238 742.135 238.089 742.213 238.196C742.291 238.302 742.348 238.422 742.379 238.55C742.411 238.678 742.417 238.811 742.397 238.942C742.377 239.072 742.332 239.197 742.264 239.31C742.196 239.423 742.106 239.522 742 239.6C738.879 241.878 736.03 243.136 733.227 243.448C732.818 243.497 732.406 243.523 731.994 243.526Z" fill="black"/>
<path d="M729.955 237.806C729.791 237.806 729.63 237.765 729.487 237.686C727.747 236.743 726.287 235.356 725.257 233.666C724.227 231.977 723.662 230.044 723.621 228.065C723.615 227.932 723.637 227.798 723.684 227.673C723.731 227.547 723.803 227.433 723.895 227.336C723.987 227.239 724.098 227.161 724.22 227.108C724.343 227.055 724.475 227.026 724.609 227.025C724.872 227.026 725.124 227.13 725.312 227.315C725.499 227.5 725.607 227.75 725.613 228.013C725.659 229.63 726.126 231.207 726.968 232.589C727.81 233.971 728.997 235.109 730.413 235.892C730.609 235.998 730.765 236.166 730.856 236.37C730.946 236.575 730.965 236.803 730.911 237.02C730.857 237.237 730.732 237.429 730.556 237.567C730.38 237.704 730.163 237.779 729.939 237.78L729.955 237.806Z" fill="black"/>
<path d="M756.036 252.601C755.825 252.601 755.619 252.534 755.448 252.411C755.277 252.287 755.149 252.113 755.083 251.912C755.017 251.712 755.015 251.495 755.079 251.294C755.143 251.093 755.268 250.917 755.438 250.791C757.264 249.38 758.595 247.426 759.242 245.211C759.888 242.996 759.816 240.633 759.037 238.461C758.371 236.724 757.055 235.206 755.766 234.68C755.452 234.536 755.11 234.462 754.765 234.462C754.419 234.462 754.078 234.536 753.763 234.68C753.626 234.745 753.475 234.777 753.323 234.774C753.171 234.772 753.021 234.734 752.886 234.665C752.75 234.596 752.632 234.496 752.541 234.375C752.45 234.253 752.388 234.112 752.359 233.963C751.886 231.513 748.719 230.229 746.056 230.447C744.385 230.646 742.741 231.026 741.152 231.581C739.813 232.014 738.448 232.361 737.065 232.621C733.617 233.198 729.431 232.314 727.829 229.017C727.717 228.778 727.703 228.505 727.79 228.256C727.878 228.007 728.06 227.803 728.298 227.687C728.535 227.572 728.808 227.554 729.058 227.639C729.308 227.723 729.515 227.902 729.634 228.138C730.772 230.489 734.111 231.082 736.727 230.64C738.026 230.388 739.308 230.054 740.565 229.641C742.294 229.042 744.083 228.634 745.9 228.424C749.12 228.164 752.781 229.615 754.003 232.496C754.852 232.351 755.726 232.452 756.52 232.787C758.704 233.677 760.222 235.908 760.909 237.707C761.833 240.29 761.917 243.098 761.148 245.732C760.38 248.365 758.798 250.687 756.629 252.367C756.463 252.509 756.254 252.591 756.036 252.601Z" fill="black"/>
<path d="M738.952 247.593C738.308 247.593 737.665 247.544 737.028 247.447C736.897 247.428 736.772 247.383 736.659 247.315C736.546 247.247 736.447 247.157 736.369 247.051C736.291 246.945 736.234 246.825 736.202 246.697C736.17 246.569 736.163 246.436 736.183 246.306C736.202 246.175 736.247 246.05 736.315 245.937C736.383 245.824 736.473 245.725 736.579 245.647C736.685 245.568 736.805 245.511 736.933 245.479C737.061 245.448 737.194 245.441 737.324 245.461C739.831 245.84 742.338 245.315 744.028 244.051C744.653 243.597 745.178 243.019 745.571 242.354C745.964 241.688 746.215 240.949 746.311 240.182C746.356 239.925 746.498 239.696 746.709 239.543C746.92 239.39 747.182 239.324 747.44 239.361C747.698 239.397 747.932 239.533 748.092 239.738C748.252 239.944 748.325 240.204 748.297 240.463C748.162 241.492 747.821 242.483 747.294 243.376C746.766 244.27 746.064 245.048 745.229 245.663C743.396 246.96 741.197 247.637 738.952 247.593Z" fill="black"/>
<path d="M729.842 345.215C729.59 345.214 729.348 345.12 729.163 344.949C728.978 344.779 728.864 344.545 728.843 344.294C727.298 325.624 727.928 306.837 730.72 288.312L730.772 287.948L751.163 270.111L751.683 270.267C754.013 270.932 774.523 276.944 776.791 281.707C778.933 286.227 792.423 327.138 793 328.875C793.084 329.128 793.063 329.404 792.943 329.642C792.824 329.88 792.614 330.061 792.361 330.144C792.108 330.228 791.832 330.207 791.594 330.087C791.356 329.967 791.175 329.758 791.092 329.504C790.952 329.083 777.051 286.976 774.971 282.566C773.582 279.638 760.155 274.801 751.647 272.321L732.639 288.962C729.92 307.206 729.315 325.703 730.835 344.086C730.846 344.218 730.83 344.35 730.79 344.476C730.749 344.601 730.684 344.718 730.599 344.818C730.513 344.919 730.409 345.001 730.291 345.061C730.174 345.121 730.046 345.158 729.914 345.168L729.842 345.215Z" fill="black"/>
<path d="M702.024 316.722L701.556 314.746C700.749 311.499 699.167 308.496 696.947 305.994C694.726 303.492 691.932 301.565 688.805 300.377C688.676 300.336 688.557 300.269 688.454 300.18C688.352 300.092 688.269 299.983 688.209 299.862C688.15 299.74 688.116 299.608 688.109 299.472C688.102 299.337 688.122 299.202 688.169 299.075C688.216 298.948 688.288 298.832 688.38 298.733C688.473 298.635 688.585 298.556 688.709 298.502C688.833 298.447 688.967 298.419 689.102 298.418C689.237 298.416 689.372 298.442 689.496 298.494C692.599 299.677 695.408 301.521 697.726 303.898C700.045 306.275 701.819 309.129 702.924 312.26C703.48 311.423 704.068 310.466 704.645 309.524C705.567 307.94 706.585 306.414 707.693 304.953C707.776 304.851 707.879 304.766 707.995 304.703C708.111 304.64 708.239 304.601 708.37 304.588C708.501 304.574 708.634 304.587 708.76 304.624C708.887 304.662 709.005 304.724 709.107 304.808C709.21 304.891 709.295 304.994 709.357 305.11C709.42 305.226 709.459 305.353 709.473 305.485C709.486 305.616 709.474 305.749 709.436 305.875C709.399 306.002 709.336 306.12 709.253 306.222C708.206 307.615 707.243 309.069 706.367 310.575C705.444 312.16 704.426 313.689 703.319 315.151L702.024 316.722Z" fill="black"/>
<path d="M697.952 324.455C697.69 324.455 697.437 324.352 697.25 324.168C697.062 323.985 696.954 323.735 696.949 323.472C696.812 319.876 695.656 316.394 693.616 313.43C691.575 310.466 688.735 308.143 685.425 306.732C685.178 306.631 684.981 306.437 684.877 306.191C684.774 305.945 684.773 305.668 684.873 305.421C684.974 305.175 685.169 304.978 685.414 304.874C685.66 304.771 685.937 304.77 686.184 304.87C689.851 306.437 692.998 309.013 695.257 312.299C697.517 315.585 698.796 319.445 698.945 323.43C698.95 323.564 698.929 323.696 698.882 323.821C698.835 323.946 698.763 324.06 698.672 324.156C698.58 324.253 698.471 324.331 698.349 324.385C698.227 324.439 698.096 324.468 697.963 324.471L697.952 324.455Z" fill="black"/>
<path d="M693.563 322.791C687.421 322.791 681.004 320.757 674.478 316.743C669.059 313.404 664.228 309.14 659.558 305.011L658.408 303.971C656.848 302.592 655.064 301.027 652.974 300.403C651.783 300.108 650.561 299.954 649.333 299.945C649.067 299.939 648.815 299.826 648.631 299.633C648.448 299.44 648.349 299.182 648.356 298.916C648.363 298.65 648.475 298.397 648.668 298.214C648.861 298.03 649.119 297.931 649.385 297.938H649.432C650.821 297.947 652.204 298.121 653.551 298.458C656.068 299.207 658.107 301.001 659.74 302.447L660.894 303.461C665.496 307.533 670.255 311.745 675.538 314.99C681.961 318.943 688.248 320.877 694.187 320.711H694.213C694.479 320.711 694.735 320.816 694.923 321.005C695.111 321.193 695.217 321.448 695.217 321.714C695.217 321.981 695.111 322.236 694.923 322.424C694.735 322.612 694.479 322.718 694.213 322.718L693.563 322.791Z" fill="black"/>
<path d="M685.565 307.975C684.663 307.93 683.794 307.629 683.058 307.106C675.866 302.426 668.7 297.47 661.736 292.415L661.445 292.202L661.357 291.859C660.566 288.806 657.425 285.566 654.773 283.086C654.579 282.904 654.464 282.652 654.456 282.385C654.447 282.119 654.544 281.86 654.726 281.666C654.908 281.471 655.16 281.357 655.426 281.348C655.693 281.34 655.951 281.437 656.146 281.619C659.069 284.36 662.168 287.6 663.203 290.98C670.021 295.946 677.062 300.798 684.129 305.411C684.93 305.931 685.627 306.045 685.731 305.895C685.884 305.677 686.117 305.529 686.38 305.483C686.642 305.437 686.912 305.497 687.13 305.65C687.348 305.803 687.496 306.037 687.542 306.299C687.588 306.561 687.527 306.831 687.374 307.049C687.173 307.341 686.902 307.578 686.586 307.74C686.27 307.901 685.919 307.982 685.565 307.975Z" fill="black"/>
<path d="M650.311 295.379C650.055 295.386 649.806 295.294 649.616 295.123C649.426 294.952 649.308 294.714 649.286 294.459C649.265 294.204 649.342 293.951 649.502 293.751C649.661 293.55 649.891 293.419 650.145 293.382C651.145 293.207 652.047 292.672 652.68 291.877C653.313 291.083 653.633 290.084 653.581 289.07C653.528 288.055 653.107 287.095 652.395 286.37C651.683 285.645 650.731 285.206 649.718 285.135C649.584 285.13 649.452 285.099 649.33 285.042C649.208 284.986 649.098 284.905 649.008 284.805C648.918 284.706 648.848 284.589 648.804 284.462C648.76 284.335 648.741 284.201 648.75 284.066C648.759 283.932 648.794 283.801 648.855 283.681C648.915 283.561 648.999 283.454 649.101 283.367C649.204 283.28 649.323 283.214 649.451 283.174C649.579 283.134 649.714 283.12 649.848 283.132C651.353 283.234 652.769 283.884 653.828 284.959C654.886 286.034 655.514 287.46 655.592 288.967C655.67 290.473 655.194 291.956 654.252 293.135C653.31 294.314 651.969 295.107 650.483 295.364L650.311 295.379Z" fill="black"/>
<path d="M633.457 310.019C630.828 310.096 628.225 309.479 625.911 308.23C624.758 307.695 623.763 306.871 623.025 305.837C622.443 304.784 622.099 303.616 622.016 302.416L619.415 283.465C619.398 283.335 619.406 283.202 619.439 283.074C619.473 282.946 619.532 282.827 619.611 282.721C619.691 282.616 619.791 282.528 619.905 282.462C620.019 282.395 620.145 282.352 620.276 282.334C620.407 282.316 620.54 282.325 620.667 282.358C620.795 282.392 620.915 282.45 621.02 282.53C621.125 282.61 621.213 282.71 621.28 282.824C621.346 282.938 621.389 283.064 621.407 283.195L623.976 302.145C624.03 303.053 624.274 303.939 624.694 304.745C625.255 305.484 625.991 306.072 626.836 306.456C630.289 308.318 633.285 308.1 637.43 307.798C641.762 307.486 645.75 305.671 648.075 302.951C648.159 302.846 648.264 302.76 648.382 302.696C648.5 302.632 648.63 302.593 648.764 302.581C648.898 302.568 649.033 302.583 649.161 302.624C649.289 302.664 649.408 302.73 649.51 302.818C649.612 302.905 649.696 303.012 649.756 303.133C649.816 303.253 649.851 303.384 649.859 303.518C649.867 303.653 649.849 303.787 649.804 303.914C649.759 304.041 649.689 304.157 649.599 304.257C646.926 307.377 642.432 309.457 637.575 309.8C636.135 309.92 634.772 310.019 633.457 310.019Z" fill="black"/>
<path d="M647.951 299.899C647.685 299.896 647.431 299.788 647.244 299.599C647.057 299.411 646.952 299.155 646.952 298.89C646.985 292.622 646.638 286.358 645.912 280.132C645.881 279.867 645.956 279.601 646.122 279.392C646.287 279.182 646.529 279.047 646.794 279.016C647.058 278.985 647.325 279.061 647.534 279.226C647.743 279.391 647.878 279.633 647.909 279.898C648.638 286.205 648.985 292.551 648.949 298.9C648.948 299.165 648.842 299.418 648.655 299.605C648.468 299.792 648.215 299.897 647.951 299.899Z" fill="black"/>
<path d="M634.242 282.93C634.012 282.929 633.789 282.849 633.61 282.703C633.432 282.558 633.31 282.354 633.264 282.129C632.207 276.739 630.849 271.412 629.198 266.174C629.125 265.884 628.994 265.611 628.813 265.373C628.677 265.675 628.607 266.004 628.61 266.335C628.558 268.098 628.844 271.125 629.073 273.558C629.166 274.536 629.25 275.431 629.302 276.159C629.321 276.295 629.313 276.434 629.277 276.566C629.241 276.699 629.177 276.823 629.091 276.93C629.005 277.038 628.898 277.126 628.776 277.19C628.655 277.255 628.521 277.293 628.384 277.303C628.247 277.314 628.109 277.296 627.979 277.251C627.849 277.205 627.729 277.134 627.628 277.041C627.527 276.948 627.446 276.835 627.39 276.709C627.335 276.583 627.306 276.447 627.305 276.309C627.247 275.607 627.164 274.723 627.076 273.761C626.792 271.28 626.634 268.786 626.603 266.288C626.66 264.541 627.455 263.407 628.683 263.34C629.317 263.303 630.477 263.548 631.111 265.591C632.778 270.885 634.15 276.267 635.22 281.713C635.244 281.858 635.237 282.007 635.2 282.15C635.162 282.293 635.095 282.426 635.002 282.54C634.909 282.655 634.792 282.748 634.661 282.815C634.529 282.881 634.384 282.918 634.237 282.924L634.242 282.93Z" fill="black"/>
<path d="M639.51 281.931C639.284 281.932 639.065 281.856 638.888 281.716C638.71 281.576 638.585 281.381 638.532 281.161C638.194 279.747 637.908 278.41 637.622 277.121C636.645 272.633 635.802 268.758 633.582 264.307C633.523 264.189 633.488 264.06 633.479 263.929C633.47 263.797 633.487 263.665 633.529 263.54C633.614 263.287 633.795 263.079 634.034 262.96C634.273 262.841 634.549 262.822 634.801 262.907C635.054 262.992 635.262 263.174 635.381 263.412C637.711 268.093 638.579 272.076 639.588 276.694C639.864 277.974 640.155 279.295 640.488 280.693C640.549 280.952 640.505 281.224 640.365 281.45C640.226 281.677 640.003 281.838 639.744 281.9C639.668 281.921 639.589 281.931 639.51 281.931Z" fill="black"/>
<path d="M653.093 283.46C653 283.46 652.907 283.448 652.818 283.424C652.691 283.387 652.573 283.326 652.47 283.244C652.366 283.162 652.281 283.06 652.217 282.944C652.153 282.829 652.113 282.702 652.098 282.571C652.083 282.44 652.095 282.307 652.131 282.181C652.812 279.794 653.358 277.5 652.516 275.618C652.26 275.123 651.885 274.7 651.425 274.386C650.964 274.072 650.433 273.877 649.879 273.818C649.582 273.768 649.277 273.799 648.996 273.908C648.715 274.017 648.468 274.2 648.283 274.437C648.13 274.655 647.896 274.803 647.634 274.849C647.372 274.895 647.102 274.835 646.884 274.682C646.666 274.529 646.518 274.295 646.472 274.033C646.426 273.771 646.486 273.501 646.64 273.283C647.026 272.751 647.549 272.334 648.153 272.076C648.758 271.818 649.421 271.728 650.072 271.816C650.979 271.907 651.847 272.228 652.595 272.749C653.344 273.269 653.946 273.972 654.347 274.791C655.47 277.287 654.867 279.991 654.06 282.732C654 282.942 653.874 283.127 653.699 283.258C653.524 283.39 653.312 283.46 653.093 283.46Z" fill="black"/>
<path d="M631.601 288.213C629.86 288.218 628.126 288.019 626.432 287.62C626.303 287.59 626.182 287.535 626.075 287.457C625.968 287.38 625.877 287.283 625.808 287.17C625.739 287.058 625.692 286.933 625.671 286.803C625.65 286.673 625.655 286.54 625.685 286.411C625.716 286.283 625.771 286.162 625.848 286.055C625.925 285.948 626.023 285.857 626.135 285.788C626.248 285.719 626.372 285.672 626.503 285.651C626.633 285.63 626.766 285.635 626.894 285.665C629.645 286.293 632.492 286.371 635.273 285.896C638.054 285.42 640.713 284.4 643.099 282.893C643.323 282.758 643.591 282.716 643.845 282.775C644.1 282.835 644.321 282.992 644.462 283.212C644.603 283.432 644.653 283.699 644.6 283.955C644.548 284.211 644.397 284.437 644.181 284.583C640.417 286.964 636.054 288.223 631.601 288.213Z" fill="black"/>
<path d="M619.748 278.358C619.748 278.358 617.372 281.687 629.494 282.872L634.959 282.399L632.583 274.318C632.583 274.318 619.748 275.269 619.748 278.358Z" fill="black"/>
<path d="M638.282 274.078C638.282 274.078 646.603 274.078 647.076 275.982C647.549 277.885 641.137 280.023 640.186 280.023C639.234 280.023 638.282 274.078 638.282 274.078Z" fill="black"/>
<path d="M622.359 300.491C622.174 300.486 621.995 300.43 621.839 300.33C620.799 299.654 596.961 284.126 595.317 283.028C595.146 282.992 594.319 282.888 591.521 283.19C591.184 283.226 590.843 283.175 590.532 283.04C590.221 282.905 589.951 282.691 589.747 282.42C589.544 282.148 589.415 281.828 589.373 281.492C589.331 281.155 589.378 280.814 589.508 280.501C591.375 276.034 593.331 273.772 595.322 273.772H595.842L598.859 278.046L621.709 290.527C621.943 290.656 622.116 290.871 622.191 291.127C622.265 291.383 622.235 291.659 622.107 291.892C621.979 292.126 621.763 292.299 621.507 292.374C621.251 292.449 620.976 292.418 620.742 292.29L597.486 279.58L594.886 275.899C594.017 276.351 592.717 278.041 591.386 281.213C595.515 280.745 596.019 281.083 596.352 281.307C597.054 281.77 622.703 298.468 622.963 298.65C623.142 298.769 623.279 298.943 623.353 299.145C623.426 299.348 623.432 299.569 623.371 299.776C623.309 299.982 623.182 300.163 623.009 300.292C622.837 300.421 622.627 300.491 622.411 300.491H622.359Z" fill="black"/>
<path d="M608.817 285.306C608.572 285.308 608.335 285.22 608.15 285.058C607.965 284.897 607.846 284.674 607.815 284.431C607.784 284.188 607.842 283.942 607.98 283.739C608.118 283.536 608.325 283.391 608.562 283.33L617.59 280.953C617.717 280.919 617.85 280.911 617.981 280.928C618.112 280.945 618.238 280.988 618.352 281.054C618.466 281.12 618.566 281.207 618.647 281.312C618.727 281.417 618.786 281.536 618.82 281.663C618.854 281.791 618.863 281.923 618.846 282.054C618.828 282.185 618.786 282.311 618.72 282.425C618.654 282.539 618.566 282.64 618.461 282.72C618.357 282.8 618.237 282.859 618.11 282.893L609.082 285.27C608.996 285.295 608.907 285.307 608.817 285.306Z" fill="black"/>
<path d="M776.717 330.654C776.509 330.654 776.305 330.589 776.135 330.468C775.966 330.347 775.838 330.175 775.771 329.978C772.279 320.051 767.664 310.556 762.016 301.677C761.945 301.566 761.897 301.442 761.874 301.312C761.852 301.182 761.855 301.049 761.883 300.92C761.912 300.791 761.966 300.67 762.042 300.562C762.118 300.454 762.214 300.362 762.325 300.291C762.437 300.221 762.561 300.172 762.691 300.15C762.82 300.127 762.954 300.13 763.082 300.159C763.211 300.188 763.333 300.241 763.441 300.317C763.549 300.393 763.64 300.489 763.711 300.601C769.44 309.611 774.121 319.245 777.664 329.317C777.751 329.568 777.735 329.844 777.62 330.083C777.505 330.323 777.3 330.507 777.05 330.597C776.943 330.633 776.831 330.653 776.717 330.654Z" fill="black"/>
<path d="M731.823 289.623C731.62 289.623 731.423 289.562 731.256 289.448C731.089 289.333 730.96 289.172 730.887 288.983C730.783 288.718 730.679 288.463 730.569 288.156C729.753 285.993 728.734 283.299 726.809 282.664L726.321 282.503C723.939 281.713 723.632 281.609 721.375 282.394C721.123 282.482 720.847 282.466 720.607 282.35C720.367 282.233 720.183 282.027 720.096 281.775C720.008 281.523 720.024 281.247 720.14 281.007C720.256 280.767 720.463 280.583 720.715 280.496C723.616 279.492 724.391 279.747 726.955 280.6L727.439 280.756C730.273 281.692 731.479 284.885 732.447 287.449L732.753 288.255C732.814 288.407 732.836 288.571 732.818 288.733C732.8 288.895 732.743 289.051 732.651 289.186C732.559 289.321 732.436 289.431 732.291 289.507C732.147 289.584 731.986 289.623 731.823 289.623Z" fill="black"/>
<path d="M752.203 290.278L750.97 288.499C748.873 285.487 746.053 283.05 742.769 281.411C742.644 281.357 742.532 281.277 742.439 281.178C742.346 281.079 742.274 280.962 742.227 280.834C742.181 280.706 742.161 280.57 742.169 280.434C742.176 280.298 742.212 280.165 742.272 280.043C742.333 279.922 742.418 279.813 742.522 279.725C742.626 279.637 742.746 279.571 742.877 279.532C743.007 279.492 743.144 279.479 743.279 279.493C743.414 279.508 743.545 279.55 743.664 279.617C746.618 281.088 749.235 283.157 751.35 285.691L754.99 272.097C755.059 271.84 755.227 271.621 755.458 271.488C755.689 271.354 755.963 271.318 756.22 271.387C756.477 271.456 756.697 271.625 756.83 271.855C756.963 272.086 756.999 272.36 756.93 272.617L752.203 290.278Z" fill="black"/>
<path d="M732.087 287.308C731.848 287.308 731.616 287.222 731.435 287.066C731.253 286.909 731.134 286.693 731.099 286.455C730.964 285.566 730.688 284.412 730.402 283.19C729.482 279.294 728.447 274.869 729.789 272.186C729.848 272.067 729.929 271.962 730.028 271.875C730.128 271.789 730.243 271.722 730.369 271.68C730.494 271.638 730.626 271.621 730.757 271.63C730.889 271.639 731.018 271.674 731.136 271.733C731.254 271.792 731.359 271.873 731.446 271.973C731.533 272.072 731.599 272.188 731.641 272.313C731.683 272.438 731.7 272.57 731.691 272.702C731.682 272.833 731.647 272.962 731.588 273.08C730.548 275.129 731.588 279.523 732.358 282.727C732.654 283.99 732.935 285.187 733.081 286.154C733.121 286.417 733.056 286.685 732.899 286.899C732.742 287.113 732.506 287.257 732.243 287.298L732.087 287.308Z" fill="black"/>
<path d="M720.876 282.779C720.692 282.778 720.512 282.725 720.356 282.628C720.243 282.558 720.146 282.466 720.069 282.359C719.992 282.251 719.938 282.129 719.908 282C719.879 281.871 719.875 281.737 719.897 281.607C719.92 281.476 719.968 281.351 720.038 281.239C720.928 279.767 721.671 278.212 722.259 276.595C722.984 274.542 723.994 272.6 725.26 270.828C725.473 270.487 725.76 270.197 726.1 269.982C726.441 269.767 726.825 269.631 727.225 269.585C727.549 269.545 727.861 269.437 728.141 269.268C728.254 269.2 728.38 269.154 728.51 269.135C728.641 269.115 728.775 269.121 728.903 269.153C729.032 269.185 729.153 269.242 729.259 269.321C729.366 269.399 729.456 269.498 729.524 269.611C729.592 269.725 729.637 269.85 729.657 269.981C729.677 270.112 729.671 270.246 729.639 270.374C729.607 270.502 729.55 270.623 729.471 270.73C729.393 270.836 729.294 270.926 729.181 270.995C728.69 271.293 728.143 271.487 727.574 271.567C727.231 271.624 727.179 271.634 726.887 272.024C725.73 273.657 724.807 275.444 724.147 277.334C723.515 279.067 722.716 280.733 721.76 282.311C721.664 282.457 721.532 282.576 721.378 282.658C721.223 282.74 721.05 282.781 720.876 282.779Z" fill="black"/>
<path d="M773.774 339.962L773.384 339.073C772.734 337.678 772.421 336.15 772.469 334.611C772.468 333.755 772.723 332.918 773.202 332.209C773.717 331.595 774.379 331.123 775.126 330.836C780.466 328.441 786.367 327.582 792.168 328.355C792.421 328.403 792.646 328.545 792.797 328.754C792.948 328.963 793.012 329.222 792.978 329.477C792.943 329.732 792.811 329.964 792.61 330.125C792.409 330.286 792.154 330.364 791.897 330.342C786.47 329.62 780.948 330.425 775.953 332.666C775.52 332.824 775.128 333.078 774.809 333.41C774.575 333.8 774.457 334.25 774.471 334.705C774.441 335.612 774.578 336.516 774.876 337.373C780.192 335.415 785.875 334.657 791.518 335.152C792.498 335.205 793.466 335.396 794.394 335.719C794.517 335.766 794.63 335.837 794.726 335.928C794.821 336.018 794.898 336.127 794.952 336.248C795.006 336.368 795.036 336.498 795.039 336.63C795.043 336.762 795.021 336.893 794.973 337.016C794.926 337.14 794.855 337.253 794.765 337.348C794.674 337.444 794.565 337.521 794.445 337.575C794.324 337.629 794.194 337.659 794.062 337.662C793.931 337.666 793.799 337.643 793.676 337.596C792.922 337.34 792.136 337.189 791.341 337.149C785.678 336.654 779.978 337.495 774.7 339.604L773.774 339.962Z" fill="black"/>
<path d="M764.101 352.792C763.846 352.792 763.601 352.696 763.414 352.522C763.228 352.348 763.114 352.11 763.097 351.856C762.161 337.892 763.233 323.865 766.28 310.206C766.309 310.077 766.363 309.955 766.439 309.847C766.515 309.74 766.612 309.648 766.723 309.577C766.835 309.507 766.959 309.459 767.089 309.437C767.219 309.414 767.353 309.417 767.481 309.446C767.61 309.475 767.732 309.53 767.84 309.606C767.947 309.682 768.039 309.778 768.11 309.89C768.18 310.001 768.228 310.126 768.251 310.256C768.273 310.386 768.27 310.519 768.241 310.648C765.237 324.122 764.186 337.958 765.12 351.731C765.13 351.863 765.114 351.995 765.072 352.12C765.031 352.245 764.965 352.361 764.878 352.461C764.792 352.56 764.686 352.642 764.568 352.701C764.45 352.759 764.321 352.794 764.189 352.802L764.101 352.792Z" fill="black"/>
<path d="M744.621 506.464C744.359 506.463 744.108 506.359 743.922 506.176C743.735 505.992 743.628 505.743 743.622 505.481C742.967 476.478 736.472 392.273 735.557 389.184C735.032 388.146 734.36 387.189 733.56 386.345C732.928 385.64 732.353 384.887 731.838 384.093C729.103 379.59 728.858 377.078 728.422 372.517C728.37 371.997 728.317 371.435 728.26 370.843C728.233 370.578 728.311 370.313 728.479 370.106C728.647 369.899 728.89 369.768 729.155 369.74C729.42 369.712 729.685 369.791 729.891 369.959C730.098 370.127 730.23 370.37 730.257 370.635C730.314 371.233 730.372 371.794 730.424 372.33C730.845 376.729 731.053 378.94 733.544 383.053C734.013 383.755 734.535 384.421 735.104 385.045C736.065 386.056 736.857 387.215 737.449 388.477C738.438 390.963 745.011 477.404 745.64 505.44C745.645 505.572 745.623 505.705 745.577 505.829C745.53 505.953 745.459 506.067 745.368 506.164C745.278 506.26 745.168 506.338 745.047 506.392C744.926 506.447 744.795 506.476 744.662 506.48L744.621 506.464Z" fill="black"/>
<path d="M790.904 523.776H691.384C691.117 523.776 690.862 523.671 690.674 523.482C690.486 523.294 690.38 523.039 690.38 522.773C690.38 522.506 690.486 522.251 690.674 522.063C690.862 521.875 691.117 521.769 691.384 521.769H789.016C789.047 519.528 788.652 516.818 787.659 516.418C787.533 516.371 787.418 516.299 787.321 516.208C787.224 516.116 787.145 516.005 787.091 515.883C787.037 515.76 787.008 515.628 787.006 515.494C787.004 515.36 787.028 515.227 787.078 515.103C787.128 514.978 787.203 514.865 787.297 514.77C787.391 514.675 787.504 514.6 787.628 514.549C787.752 514.498 787.884 514.472 788.018 514.474C788.152 514.475 788.285 514.503 788.408 514.556C791.367 515.742 791.065 521.675 790.977 522.877L790.904 523.776Z" fill="black"/>
<path d="M794.878 524.052C794.746 524.052 794.615 524.027 794.493 523.977C794.371 523.927 794.26 523.853 794.167 523.759C794.073 523.666 793.999 523.555 793.949 523.433C793.899 523.311 793.873 523.18 793.874 523.048C793.865 518.598 793.14 514.178 791.726 509.959C791.68 509.832 791.659 509.698 791.665 509.564C791.671 509.429 791.705 509.298 791.763 509.176C791.821 509.055 791.903 508.947 792.004 508.858C792.105 508.769 792.223 508.701 792.35 508.658C792.478 508.616 792.613 508.599 792.747 508.61C792.881 508.621 793.012 508.658 793.131 508.72C793.25 508.782 793.356 508.868 793.442 508.972C793.527 509.075 793.591 509.195 793.63 509.324C795.112 513.748 795.872 518.382 795.882 523.048C795.882 523.314 795.776 523.57 795.588 523.758C795.399 523.946 795.144 524.052 794.878 524.052Z" fill="black"/>
<path d="M809.538 524.249H809.512L798.674 524.005L799.194 522.674C800.125 520.276 801.149 517.889 802.247 515.58C802.361 515.34 802.566 515.154 802.818 515.065C803.069 514.976 803.345 514.99 803.586 515.105C803.826 515.219 804.012 515.424 804.101 515.676C804.19 515.927 804.176 516.203 804.061 516.444C803.188 518.279 802.361 520.162 801.596 522.065L809.569 522.242C809.835 522.242 810.09 522.348 810.278 522.536C810.467 522.724 810.572 522.979 810.572 523.246C810.572 523.512 810.467 523.767 810.278 523.955C810.09 524.144 809.835 524.249 809.569 524.249H809.538Z" fill="black"/>
<path d="M709.289 522.408C709.289 522.408 707.209 517.13 710.251 516.012C713.293 514.894 718.883 513.136 718.883 513.136L728.795 505.939C728.795 505.939 740.788 508.659 744.303 507.379C744.303 507.379 753.258 511.217 759.972 508.82C759.972 508.82 762.208 517.291 760.45 521.608L709.289 522.408Z" fill="black"/>
<path d="M732.633 520.989C732.471 520.989 732.313 520.93 732.191 520.823C732.068 520.716 731.989 520.568 731.968 520.406C731.572 517.432 735.166 515.996 736.7 515.383C737.787 514.946 741.38 511.779 743.523 509.761C743.654 509.652 743.822 509.597 743.992 509.607C744.162 509.617 744.322 509.691 744.44 509.815C744.557 509.939 744.623 510.103 744.623 510.274C744.624 510.444 744.56 510.609 744.443 510.733C743.877 511.253 738.863 515.934 737.199 516.625C735.26 517.4 733.039 518.508 733.294 520.229C733.317 520.405 733.271 520.583 733.163 520.724C733.056 520.866 732.897 520.959 732.722 520.983L732.633 520.989Z" fill="white"/>
<path d="M711.847 518.123C711.687 518.123 711.532 518.066 711.41 517.962C711.289 517.858 711.208 517.713 711.184 517.555C711.159 517.397 711.192 517.235 711.277 517.099C711.361 516.962 711.492 516.861 711.644 516.813L720.485 513.973L726.627 509.246C726.692 509.174 726.773 509.116 726.863 509.078C726.953 509.04 727.05 509.022 727.148 509.026C727.245 509.029 727.341 509.054 727.428 509.098C727.515 509.142 727.592 509.205 727.652 509.282C727.713 509.359 727.755 509.448 727.778 509.543C727.8 509.638 727.801 509.737 727.781 509.833C727.761 509.928 727.721 510.018 727.662 510.097C727.604 510.175 727.529 510.24 727.443 510.286L721.203 515.081C721.141 515.128 721.073 515.164 721 515.19L712.045 518.066C711.982 518.095 711.916 518.114 711.847 518.123Z" fill="white"/>
<path d="M736.316 362.418C736.316 362.418 753.155 360.905 765.958 356.635L765.23 349.401C755.8 353.161 745.782 355.231 735.635 355.517L736.316 362.418Z" fill="black"/>
<path d="M713.663 354.945C713.663 354.945 719.685 356.635 723.782 355.673L724.027 357.119L732.223 357.358L732.462 361.456L724.266 361.695V362.896C724.266 362.896 715.108 363.38 714.141 361.451C713.174 359.521 713.663 354.945 713.663 354.945Z" fill="black"/>
<path d="M773.832 250.406H773.775C773.05 250.378 772.327 250.307 771.611 250.193C770.962 250.092 770.307 250.03 769.651 250.006C769.515 250.004 769.381 249.975 769.257 249.92C769.134 249.865 769.022 249.786 768.93 249.687C768.837 249.587 768.766 249.471 768.72 249.343C768.674 249.216 768.654 249.08 768.662 248.945C768.67 248.81 768.705 248.677 768.765 248.556C768.825 248.435 768.909 248.327 769.012 248.239C769.115 248.151 769.235 248.085 769.365 248.044C769.494 248.004 769.63 247.99 769.765 248.004C770.488 248.031 771.208 248.1 771.923 248.212C772.574 248.313 773.231 248.375 773.889 248.399C774.021 248.403 774.151 248.432 774.271 248.486C774.391 248.54 774.5 248.617 774.59 248.713C774.681 248.809 774.752 248.922 774.799 249.045C774.846 249.168 774.868 249.299 774.864 249.431C774.86 249.563 774.831 249.693 774.777 249.813C774.723 249.933 774.646 250.042 774.55 250.133C774.454 250.223 774.341 250.294 774.218 250.341C774.095 250.388 773.964 250.41 773.832 250.406Z" fill="black"/>
<path d="M753.752 252.445C753.661 252.443 753.57 252.431 753.482 252.408C751.87 251.961 750.908 250.593 750.055 249.236L747.574 245.253C746.784 243.989 746.014 242.652 746.363 241.092C746.389 240.963 746.442 240.841 746.516 240.732C746.59 240.623 746.685 240.53 746.796 240.457C746.906 240.385 747.029 240.335 747.159 240.311C747.289 240.287 747.422 240.288 747.551 240.315C747.68 240.342 747.802 240.394 747.911 240.468C748.02 240.543 748.113 240.638 748.186 240.748C748.258 240.858 748.308 240.982 748.332 241.111C748.357 241.241 748.355 241.374 748.328 241.503C748.157 242.314 748.677 243.24 749.275 244.197L751.761 248.18C752.426 249.252 753.097 250.229 754.018 250.484C754.251 250.549 754.454 250.696 754.587 250.899C754.721 251.101 754.777 251.345 754.745 251.585C754.712 251.826 754.594 252.046 754.411 252.206C754.229 252.366 753.995 252.455 753.752 252.455V252.445Z" fill="black"/>
<path d="M762.24 228.008C762.052 228.007 761.867 227.953 761.708 227.853C761.549 227.752 761.421 227.609 761.339 227.44C761.256 227.271 761.223 227.082 761.243 226.894C761.262 226.707 761.334 226.529 761.449 226.38L764.57 222.449C764.744 222.274 764.977 222.17 765.223 222.156C765.469 222.142 765.712 222.22 765.905 222.373C766.098 222.527 766.227 222.746 766.269 222.99C766.31 223.233 766.261 223.483 766.13 223.692L763.009 227.623C762.919 227.741 762.802 227.837 762.669 227.904C762.536 227.971 762.389 228.006 762.24 228.008Z" fill="black"/>
<path d="M745.463 223.66C745.251 223.66 745.044 223.592 744.872 223.467C744.7 223.342 744.572 223.166 744.506 222.964C744.138 221.807 743.918 220.608 743.851 219.396C743.844 219.264 743.863 219.132 743.907 219.008C743.952 218.884 744.02 218.769 744.108 218.671C744.197 218.573 744.303 218.494 744.422 218.437C744.542 218.38 744.671 218.347 744.803 218.34C744.934 218.334 745.066 218.353 745.191 218.397C745.315 218.441 745.43 218.509 745.528 218.598C745.626 218.686 745.705 218.793 745.762 218.912C745.819 219.031 745.852 219.16 745.858 219.292C745.914 220.331 746.103 221.359 746.42 222.35C746.5 222.604 746.477 222.879 746.355 223.116C746.233 223.352 746.023 223.531 745.77 223.614C745.671 223.645 745.567 223.66 745.463 223.66Z" fill="black"/>
<path d="M556.506 310.726C556.41 310.725 556.313 310.711 556.22 310.684C555.966 310.607 555.752 310.433 555.626 310.199C555.499 309.965 555.47 309.691 555.544 309.436C557.89 301.531 560.386 293.902 565.077 287.412C570.433 280.012 578.124 275.529 585.66 275.42C585.926 275.42 586.181 275.526 586.369 275.714C586.558 275.902 586.663 276.158 586.663 276.424C586.663 276.69 586.558 276.945 586.369 277.134C586.181 277.322 585.926 277.428 585.66 277.428C578.759 277.526 571.66 281.697 566.678 288.593C562.17 294.833 559.736 302.275 557.442 310.003C557.382 310.207 557.26 310.386 557.091 310.516C556.923 310.646 556.719 310.719 556.506 310.726Z" fill="black"/>
<path d="M580.969 310.715C580.737 310.715 580.513 310.635 580.333 310.488C580.154 310.341 580.032 310.136 579.986 309.909C579.198 305.913 579.257 301.796 580.159 297.825C581.061 293.853 582.786 290.114 585.223 286.851C585.302 286.746 585.402 286.657 585.516 286.59C585.629 286.524 585.755 286.48 585.886 286.462C586.016 286.444 586.149 286.452 586.277 286.485C586.405 286.518 586.524 286.576 586.629 286.656C586.735 286.735 586.823 286.835 586.89 286.949C586.957 287.062 587 287.188 587.018 287.319C587.036 287.449 587.029 287.582 586.995 287.71C586.962 287.837 586.904 287.957 586.825 288.062C584.56 291.099 582.956 294.576 582.117 298.27C581.277 301.963 581.221 305.792 581.952 309.509C581.979 309.638 581.981 309.771 581.956 309.901C581.932 310.031 581.882 310.154 581.809 310.264C581.736 310.375 581.643 310.47 581.533 310.543C581.424 310.617 581.301 310.669 581.172 310.695C581.105 310.709 581.037 310.716 580.969 310.715Z" fill="black"/>
<path d="M762.947 335.823L762.692 301.453L767.529 309.852L762.947 335.823Z" fill="black"/>
<path d="M782.573 396.387C782.187 396.401 781.805 396.296 781.481 396.085C780.961 395.752 780.483 395.045 780.857 393.522C781.408 391.322 782.037 386.35 782.417 382.829C781.989 383.311 781.455 383.687 780.857 383.927C780.566 384.033 780.256 384.079 779.947 384.061C779.637 384.043 779.335 383.962 779.058 383.823C778.849 383.718 778.664 383.572 778.513 383.393C778.363 383.214 778.251 383.006 778.184 382.783C777.404 380.364 780.743 373.542 782.027 371.056C781.777 369.459 780.665 362.215 779.656 354.992C777.305 338.012 777.784 337.477 778.246 336.951C778.408 336.767 778.633 336.648 778.876 336.617C779.12 336.586 779.367 336.646 779.569 336.785C779.772 336.925 779.917 337.133 779.976 337.372C780.035 337.61 780.004 337.862 779.89 338.08C779.5 340.243 782.23 359.402 784.05 371.071L784.102 371.399L783.946 371.695C781.58 376.22 779.817 380.947 780.056 382.096C780.102 382.096 780.148 382.087 780.191 382.07C780.899 381.831 781.991 380.401 782.849 378.602L783.202 377.868L784.024 378.04C784.257 378.095 784.463 378.228 784.609 378.418C784.755 378.607 784.831 378.841 784.825 379.08C784.799 379.938 783.696 390.484 782.807 394.047C782.775 394.175 782.751 394.305 782.734 394.437C783.483 394.348 785.36 393.397 786.962 392.242L787.056 392.175L787.165 392.128C794.446 389.179 790.774 372.663 790.738 372.496V372.283L790.436 336.197C790.436 335.931 790.542 335.676 790.73 335.488C790.918 335.299 791.174 335.194 791.44 335.194C791.706 335.194 791.961 335.299 792.149 335.488C792.338 335.676 792.443 335.931 792.443 336.197L792.745 372.174C793.104 373.828 796.495 390.375 788.065 393.958C786.572 394.941 784.232 396.387 782.573 396.387Z" fill="black"/>
<path d="M785.215 395.451C785.032 395.455 784.851 395.408 784.692 395.316C784.533 395.224 784.403 395.091 784.315 394.929C784.228 394.768 784.186 394.586 784.196 394.403C784.205 394.22 784.264 394.042 784.367 393.891C785.111 392.726 785.928 388.69 786.073 386.943C786.082 386.809 786.117 386.677 786.177 386.557C786.237 386.436 786.321 386.329 786.423 386.242C786.526 386.154 786.645 386.089 786.773 386.048C786.902 386.008 787.037 385.993 787.171 386.006C787.305 386.019 787.435 386.059 787.554 386.123C787.672 386.187 787.776 386.275 787.86 386.38C787.944 386.486 788.006 386.607 788.042 386.736C788.078 386.866 788.088 387.002 788.07 387.135C787.951 388.358 787.181 393.215 786.063 394.967C785.975 395.114 785.85 395.235 785.702 395.32C785.554 395.404 785.386 395.45 785.215 395.451Z" fill="black"/>
<path d="M742.884 273.475C742.884 273.475 734.766 280.714 731.058 279.83C731.058 279.83 729.274 272.264 730.881 272.945C735.473 274.89 742.884 273.475 742.884 273.475Z" fill="black"/>
<path d="M664.669 523.204H458.915L458.686 522.518C458.561 522.159 455.805 513.677 461.026 509.179C461.126 509.088 461.242 509.018 461.369 508.974C461.496 508.929 461.63 508.91 461.765 508.918C461.899 508.927 462.03 508.962 462.15 509.022C462.271 509.082 462.378 509.165 462.465 509.267C462.553 509.369 462.619 509.488 462.659 509.616C462.7 509.744 462.715 509.879 462.702 510.013C462.69 510.147 462.651 510.277 462.587 510.395C462.523 510.514 462.437 510.618 462.332 510.702C458.889 513.656 459.908 519.252 460.397 521.197H664.669C664.935 521.197 665.191 521.303 665.379 521.491C665.567 521.679 665.673 521.935 665.673 522.201C665.673 522.467 665.567 522.722 665.379 522.91C665.191 523.099 664.935 523.204 664.669 523.204Z" fill="black"/>
<path d="M453.346 523.121C453.099 523.12 452.861 523.028 452.677 522.863C452.493 522.698 452.375 522.472 452.347 522.226C451.906 518.299 450.989 514.44 449.617 510.733C449.525 510.484 449.535 510.208 449.646 509.966C449.758 509.724 449.96 509.536 450.21 509.444C450.46 509.351 450.736 509.362 450.978 509.473C451.219 509.584 451.407 509.787 451.5 510.037C452.93 513.893 453.885 517.91 454.344 521.997C454.372 522.262 454.294 522.527 454.128 522.734C453.961 522.942 453.719 523.075 453.455 523.105L453.346 523.121Z" fill="black"/>
<path d="M448.894 523.376H303.511C303.245 523.376 302.99 523.27 302.802 523.082C302.614 522.894 302.508 522.638 302.508 522.372C302.508 522.106 302.614 521.851 302.802 521.662C302.99 521.474 303.245 521.368 303.511 521.368H445.41L441.437 514.525C441.303 514.294 441.266 514.02 441.334 513.763C441.403 513.505 441.57 513.286 441.801 513.152C442.031 513.018 442.305 512.981 442.563 513.049C442.82 513.118 443.04 513.285 443.174 513.516L448.894 523.376Z" fill="black"/>
<path d="M891.105 192.333C903.01 192.333 912.661 182.683 912.661 170.778C912.661 158.873 903.01 149.222 891.105 149.222C879.201 149.222 869.55 158.873 869.55 170.778C869.55 182.683 879.201 192.333 891.105 192.333Z" fill="white"/>
<path d="M739.576 255.118C739.31 255.118 739.055 255.012 738.867 254.824C738.678 254.636 738.573 254.38 738.573 254.114C738.56 253.52 738.603 252.926 738.703 252.341C738.78 251.858 738.813 251.369 738.801 250.88C738.801 250.613 738.907 250.358 739.095 250.17C739.284 249.982 739.539 249.876 739.805 249.876C740.071 249.876 740.327 249.982 740.515 250.17C740.703 250.358 740.809 250.613 740.809 250.88C740.82 251.473 740.778 252.067 740.684 252.653C740.604 253.136 740.569 253.625 740.58 254.114C740.58 254.38 740.474 254.636 740.286 254.824C740.098 255.012 739.842 255.118 739.576 255.118Z" fill="black"/>
<path d="M731.037 255.347C730.905 255.347 730.775 255.321 730.653 255.27C730.531 255.22 730.42 255.146 730.327 255.053C730.234 254.959 730.16 254.849 730.11 254.727C730.059 254.605 730.033 254.475 730.033 254.343V250.422C730.033 250.156 730.139 249.9 730.327 249.712C730.515 249.524 730.771 249.418 731.037 249.418C731.303 249.418 731.558 249.524 731.747 249.712C731.935 249.9 732.041 250.156 732.041 250.422V254.343C732.041 254.475 732.016 254.606 731.966 254.728C731.915 254.85 731.841 254.961 731.748 255.054C731.655 255.148 731.544 255.221 731.422 255.272C731.3 255.322 731.169 255.347 731.037 255.347Z" fill="black"/>
<path d="M645.917 -0.22229H404.576V19.4041H645.917V-0.22229Z" fill="#ACCD6A"/>
<path d="M995.821 507.702C982.862 507.91 969.96 508.154 957.266 508.393C924.597 509.002 890.81 509.641 857.579 509.688C837.152 509.719 816.381 509.688 796.297 509.621C755.802 509.517 713.928 509.418 672.741 509.974C672.574 509.989 672.418 510.066 672.305 510.189C672.192 510.313 672.129 510.475 672.129 510.642C672.129 510.81 672.192 510.972 672.305 511.095C672.418 511.219 672.574 511.296 672.741 511.311C713.918 510.754 755.786 510.858 796.282 510.957C816.366 511.004 837.136 511.061 857.563 511.025C890.81 510.978 924.597 510.343 957.276 509.73C969.965 509.491 982.857 509.251 995.806 509.038L995.821 507.702Z" fill="white"/>
<path d="M695.825 457.7C696.122 457.497 705.873 451.199 720.636 441.662C773.124 407.771 895.651 328.652 921.58 311.392C925.902 315.131 958.503 344.05 995.8 377.151V375.377C957.395 341.283 924.17 311.823 922.059 310.055C921.948 309.962 921.81 309.908 921.665 309.9C921.521 309.893 921.378 309.932 921.258 310.013C896.296 326.655 772.687 406.476 719.914 440.544C695.05 456.597 695.05 456.597 694.952 456.665C694.82 456.792 694.742 456.965 694.734 457.148C694.726 457.331 694.789 457.51 694.91 457.648C694.964 457.716 695.031 457.771 695.108 457.811C695.185 457.851 695.27 457.874 695.356 457.879C695.442 457.884 695.529 457.871 695.61 457.84C695.691 457.809 695.764 457.761 695.825 457.7Z" fill="white"/>
<path d="M953.567 559.534C951.128 556.414 948.851 553.164 946.412 550.038C945.569 548.962 943.749 549.175 942.865 550.038C941.794 551.078 942.033 552.524 942.865 553.585C945.086 556.44 947.192 559.383 949.391 562.254H954.124C954.275 561.791 954.303 561.297 954.205 560.82C954.108 560.344 953.888 559.9 953.567 559.534Z" fill="black"/>
<path d="M892.426 257.058C929.705 257.101 966.157 246.071 997.157 225.366V215.636C966.572 237.391 929.959 249.057 892.426 249.007C792.459 249.007 711.135 167.683 711.135 67.7159C711.113 43.7791 715.858 20.0776 725.093 -2.00598H716.419C707.599 20.1873 703.082 43.8554 703.106 67.7367C703.106 172.13 788.033 257.058 892.426 257.058Z" fill="#E95657"/>
<path d="M698.462 160.803C699.647 160.803 700.838 161.729 700.714 163.58L682.335 180.95C681.004 182.203 678.378 181.47 678.56 178.771L696.943 161.401C697.353 161.013 697.897 160.799 698.462 160.803Z" fill="#222323"/>
<path d="M680.999 160.803C682.189 160.803 683.375 161.729 683.25 163.58L664.872 180.95C663.546 182.203 660.92 181.47 661.102 178.771L679.48 161.401C679.89 161.014 680.434 160.799 680.999 160.803Z" fill="#222323"/>
<path d="M662.423 161.245C663.614 161.245 664.8 162.171 664.675 164.017L646.297 181.402C644.971 182.655 642.345 181.922 642.527 179.223L660.905 161.854C661.314 161.464 661.858 161.246 662.423 161.245Z" fill="#222323"/>
<path d="M645.516 161.245C646.707 161.245 647.893 162.171 647.768 164.017L629.39 181.402C628.064 182.655 625.437 181.922 625.619 179.223L643.998 161.854C644.408 161.465 644.951 161.247 645.516 161.245Z" fill="#222323"/>
<path d="M628.058 161.245C629.244 161.245 630.43 162.171 630.31 164.017L611.927 181.402C610.601 182.655 607.974 181.922 608.156 179.223L626.54 161.854C626.949 161.463 627.493 161.245 628.058 161.245Z" fill="#222323"/>
<path d="M609.498 161.682C610.684 161.682 611.869 162.608 611.75 164.459L593.377 181.828C592.051 183.082 589.425 182.348 589.607 179.644L607.985 162.275C608.396 161.893 608.937 161.681 609.498 161.682Z" fill="#222323"/>
<path d="M803.671 160.803C804.856 160.803 806.042 161.729 805.923 163.58L787.539 180.95C786.213 182.203 783.587 181.47 783.769 178.771L802.147 161.401C802.559 161.014 803.105 160.8 803.671 160.803Z" fill="#222323"/>
<path d="M786.208 160.803C787.394 160.803 788.584 161.729 788.46 163.58L770.082 180.95C768.755 182.203 766.124 181.47 766.311 178.771L784.689 161.401C785.1 161.014 785.644 160.799 786.208 160.803Z" fill="#222323"/>
<path d="M767.633 161.245C768.819 161.245 770.01 162.171 769.885 164.017L751.506 181.402C750.18 182.655 747.549 181.922 747.736 179.223L766.114 161.854C766.524 161.463 767.067 161.245 767.633 161.245Z" fill="#222323"/>
<path d="M750.726 161.245C751.917 161.245 753.103 162.171 752.978 164.017L734.6 181.402C733.274 182.655 730.647 181.922 730.829 179.223L749.208 161.854C749.617 161.464 750.161 161.246 750.726 161.245Z" fill="#222323"/>
<path d="M733.268 161.245C734.459 161.245 735.644 162.171 735.525 164.017L717.146 181.402C715.82 182.655 713.194 181.922 713.376 179.223L731.754 161.854C732.163 161.466 732.704 161.249 733.268 161.245Z" fill="#222323"/>
<path d="M714.687 161.682C715.878 161.682 717.064 162.608 716.939 164.459L698.561 181.828C697.234 183.082 694.608 182.348 694.79 179.644L713.168 162.275C713.581 161.892 714.124 161.68 714.687 161.682Z" fill="#222323"/>
</g>
<defs>
<clipPath id="clip0">
<rect width="996" height="561.692" fill="white"/>
</clipPath>
</defs>
</svg>
