<svg width="994" height="563" viewBox="0 0 994 563" fill="none" xmlns="http://www.w3.org/2000/svg">
<g clip-path="url(#clip0)">
<path d="M940.683 372.56H993.687" stroke="#232323" stroke-width="2.58" stroke-miterlimit="10"/>
<path d="M941.002 389.699H994.006" stroke="#232323" stroke-width="2.58" stroke-miterlimit="10"/>
<path d="M940.683 406.838H993.687" stroke="#232323" stroke-width="2.58" stroke-miterlimit="10"/>
<path d="M940.683 423.024H993.687" stroke="#232323" stroke-width="2.58" stroke-miterlimit="10"/>
<path d="M941.002 440.164H994.006" stroke="#232323" stroke-width="2.58" stroke-miterlimit="10"/>
<path d="M940.683 457.308H993.687" stroke="#232323" stroke-width="2.58" stroke-miterlimit="10"/>
<path d="M941.002 323.043H994.006" stroke="#232323" stroke-width="2.58" stroke-miterlimit="10"/>
<path d="M941.002 308.763H994.006" stroke="#232323" stroke-width="2.58" stroke-miterlimit="10"/>
<path d="M941.321 340.182H994.326" stroke="#232323" stroke-width="2.58" stroke-miterlimit="10"/>
<path d="M941.002 357.322H994.006" stroke="#232323" stroke-width="2.58" stroke-miterlimit="10"/>
<path d="M659.197 563.332L488.16 182.674C546.981 195.378 921.967 276.375 979.52 288.796L688.973 563.311H700.605L996 284.231L988.628 282.614C985.465 281.923 487.156 174.287 482.123 173.2L474.396 171.531L650.434 563.332H659.197Z" fill="#F5AAAD"/>
<g style="mix-blend-mode:multiply">
<path d="M475.617 379.54L474.85 399.843C474.858 402.046 475.495 404.201 476.686 406.054C477.877 407.907 479.572 409.382 481.572 410.305L613.581 471.233C615.136 471.951 616.831 472.314 618.543 472.296C620.255 472.278 621.943 471.88 623.482 471.13L756.68 406.354C758.642 405.4 760.293 403.911 761.444 402.059C762.596 400.207 763.2 398.067 763.187 395.886L763.553 374.636C763.544 372.493 762.94 370.395 761.809 368.576C760.677 366.757 759.062 365.288 757.144 364.333L623.137 297.548C621.468 296.716 619.622 296.3 617.757 296.336C615.892 296.372 614.063 296.858 612.427 297.754L481.629 369.366C479.805 370.365 478.283 371.837 477.225 373.627C476.167 375.418 475.612 377.461 475.617 379.54Z" fill="#E0E0E0"/>
</g>
<path d="M922.869 133.94C922.86 131.799 922.257 129.701 921.126 127.882C919.995 126.063 918.382 124.594 916.466 123.637L782.459 56.8371C780.788 56.0048 778.942 55.5888 777.076 55.6247C775.21 55.6606 773.38 56.1472 771.743 57.0432L679.953 107.291C684.131 109.285 688.639 110.563 692.945 112.443C699.812 115.41 706.509 118.851 713.212 122.159C727.723 129.319 742.843 135.12 757.139 142.713C767.591 148.267 777.503 154.273 788.419 158.889C797.651 162.794 807.428 166.653 815.14 173.236C822.733 179.717 822.867 187.202 824.093 196.537C826.097 211.523 828.003 226.534 829.302 241.597C830.579 256.418 830.559 271.177 830.672 286.035C830.78 300.634 831.883 315.203 833.073 329.751C833.181 331.105 833.294 332.46 833.402 333.81L917.249 293.036C919.21 292.082 920.861 290.593 922.013 288.74C923.164 286.888 923.768 284.748 923.755 282.568L922.869 133.94Z" fill="#67B762"/>
<path d="M830.717 296.384C831.336 272.3 832.036 248.057 830.553 223.984C829.919 213.712 828.708 203.177 824.855 193.549C820.636 183.003 812.718 176.77 803.734 170.269C782.576 154.922 758.781 144.099 734.62 134.409C722.205 129.427 709.512 125.183 697.112 120.16C690.755 117.584 684.022 114.905 677.763 111.603L666.574 117.728L663.802 119.305C660.083 121.339 665.059 122.396 665.075 126.615L658.29 277.153C658.29 281.65 672.328 276.452 676.408 278.338L800.194 337.581C803.347 339.039 802.399 341.764 805.521 340.244L813.764 346.477L829.842 338.657C829.96 324.547 830.357 310.473 830.717 296.384Z" fill="#EB5758"/>
<path d="M716.467 87.6638L859.34 156.633C861.309 157.589 862.965 159.087 864.113 160.951C865.261 162.815 865.853 164.968 865.82 167.157L868.092 311.617C867.969 320.637 873.692 316.351 881.425 311.705L895.442 303.277C895.729 303.103 895.967 302.858 896.132 302.566C896.297 302.273 896.384 301.943 896.385 301.608L896.354 151.1C896.353 148.897 895.721 146.739 894.531 144.885C893.341 143.03 891.644 141.556 889.641 140.637L743.214 72.4719L716.467 87.6638Z" fill="#232323"/>
<path d="M670.061 116.682L812.378 186.393C812.841 186.62 813.231 186.971 813.504 187.408C813.778 187.846 813.923 188.35 813.923 188.866V341.79C813.923 342.288 814.058 342.776 814.313 343.204C814.569 343.631 814.935 343.981 815.374 344.217C815.813 344.452 816.308 344.564 816.805 344.54C817.303 344.516 817.785 344.358 818.199 344.082L840.964 328.967C841.344 328.714 841.656 328.37 841.871 327.966C842.086 327.562 842.197 327.112 842.195 326.654L840.928 172.623C840.923 172.102 840.771 171.593 840.488 171.155C840.205 170.717 839.804 170.369 839.331 170.15L692.599 102.191C692.235 102.021 691.837 101.932 691.435 101.932C691.033 101.932 690.635 102.021 690.271 102.191L670.092 111.716C669.622 111.937 669.223 112.287 668.943 112.724C668.663 113.162 668.513 113.67 668.51 114.19C668.507 114.709 668.651 115.219 668.925 115.66C669.2 116.102 669.594 116.456 670.061 116.682Z" fill="#232323"/>
<path d="M920.551 134.893L820.096 183.163C818.547 183.903 816.852 184.287 815.135 184.287C813.418 184.287 811.723 183.903 810.174 183.163L668.723 116.033L806.418 182.406C808.37 183.345 810.016 184.816 811.168 186.65C812.32 188.484 812.931 190.605 812.93 192.771V344.278L916.842 294.823" stroke="#010101" stroke-width="7.75" stroke-linecap="round" stroke-linejoin="round"/>
<path d="M667.058 114.308C661.696 119.021 742.822 72.3585 770.089 57.0687C771.874 56.0691 773.875 55.5178 775.92 55.4622C777.965 55.4066 779.993 55.8482 781.83 56.7493L905.111 117.022" stroke="#010101" stroke-width="7.75" stroke-linecap="round" stroke-linejoin="round"/>
<path d="M654.438 357.224L680.963 384.872" stroke="#010101" stroke-width="2.58" stroke-linecap="round" stroke-linejoin="round"/>
<path d="M627.351 364.56L607.6 409.141" stroke="#010101" stroke-width="2.58" stroke-linecap="round" stroke-linejoin="round"/>
<path d="M489.057 493.467L490.87 492.632" stroke="#010101" stroke-width="2.58" stroke-linecap="round" stroke-linejoin="round"/>
<path d="M494.472 490.973L809.319 345.942" stroke="#010101" stroke-width="2.58" stroke-linecap="round" stroke-linejoin="round" stroke-dasharray="7.69 7.69"/>
<path d="M811.116 345.112L812.93 344.278" stroke="#010101" stroke-width="2.58" stroke-linecap="round" stroke-linejoin="round"/>
<path d="M339.203 267.849L341.016 267.015" stroke="#010101" stroke-width="2.58" stroke-linecap="round" stroke-linejoin="round"/>
<path d="M344.618 265.361L659.465 120.325" stroke="#010101" stroke-width="2.58" stroke-linecap="round" stroke-linejoin="round" stroke-dasharray="7.69 7.69"/>
<path d="M661.263 119.495L663.076 118.661" stroke="#010101" stroke-width="2.58" stroke-linecap="round" stroke-linejoin="round"/>
<path d="M812.398 340.002C812.398 344.731 806.18 347.977 801.92 345.921L664.827 279.806L663.797 120.922C663.794 120.373 663.93 119.833 664.194 119.351C664.457 118.87 664.838 118.463 665.301 118.169C665.765 117.875 666.295 117.703 666.843 117.67C667.391 117.637 667.938 117.744 668.433 117.981L805.748 180.613C807.858 181.575 809.644 183.128 810.889 185.085C812.133 187.042 812.783 189.318 812.759 191.638L812.398 340.002Z" fill="white" stroke="#010101" stroke-width="7.75" stroke-miterlimit="10"/>
<path d="M679.567 270.827L678.737 142.904C678.735 142.502 678.836 142.105 679.029 141.753C679.222 141.4 679.502 141.102 679.842 140.886C680.181 140.671 680.57 140.546 680.972 140.522C681.373 140.498 681.774 140.577 682.137 140.75L790.042 192.781C792.079 193.763 793.798 195.298 795.002 197.211C796.207 199.125 796.848 201.338 796.852 203.599L797.012 321.173C797.016 321.844 796.849 322.505 796.528 323.094C796.206 323.684 795.741 324.182 795.175 324.542C794.609 324.902 793.96 325.113 793.29 325.154C792.621 325.196 791.951 325.067 791.345 324.779L679.567 270.827Z" fill="#EB5758" stroke="#010101" stroke-width="5.17" stroke-miterlimit="10"/>
<path d="M695.82 176.245L689.159 164.607C687.031 160.893 681.277 164.242 683.41 167.966L690.071 179.603C692.198 183.318 697.952 179.969 695.82 176.245Z" fill="#010101"/>
<path d="M731.912 185.399L721.681 176.734C718.43 173.983 713.701 178.666 716.972 181.443L727.203 190.092C730.454 192.843 735.183 188.16 731.912 185.383V185.399Z" fill="#010101"/>
<path d="M755.624 294.045C756.331 289.632 757.039 285.219 757.746 280.806C758.416 276.617 752.007 274.809 751.327 279.034C750.623 283.45 749.916 287.863 749.205 292.273C748.53 296.461 754.944 298.264 755.624 294.045Z" fill="#010101"/>
<path d="M735.94 262.579L729.304 250.942C727.177 247.228 721.422 250.576 723.555 254.301L730.216 265.938C732.344 269.658 738.098 266.309 735.965 262.579H735.94Z" fill="#010101"/>
<path d="M756.056 246.12C759.147 244.348 762.25 242.573 765.365 240.794C769.085 238.666 765.736 232.917 762.006 235.05L752.697 240.376C748.983 242.504 752.332 248.258 756.056 246.12Z" fill="#010101"/>
<path d="M744.074 225.638C744.194 221.173 744.315 216.708 744.435 212.244C744.548 207.963 737.892 207.963 737.779 212.244C737.659 216.708 737.539 221.173 737.418 225.638C737.305 229.919 743.961 229.919 744.074 225.638Z" fill="#010101"/>
<path d="M785.245 274.84L785.601 261.446C785.714 257.165 779.058 257.165 778.945 261.446L778.589 274.84C778.471 279.126 785.127 279.121 785.245 274.84Z" fill="#010101"/>
<path d="M781.186 208.179C778.61 206.52 775.973 205.037 773.418 203.378C769.812 201.044 766.473 206.804 770.059 209.127C772.635 210.781 775.272 212.269 777.827 213.928C781.433 216.262 784.772 210.502 781.186 208.179Z" fill="#010101"/>
<path d="M702.341 257.263C699.766 255.604 697.123 254.121 694.568 252.462C690.962 250.123 687.629 255.883 691.209 258.211C693.785 259.865 696.427 261.353 698.983 263.007C702.589 265.346 705.927 259.587 702.341 257.263Z" fill="#010101"/>
<path d="M712.763 214.917C708.127 213.933 703.557 212.718 698.926 211.734C694.748 210.848 692.96 217.261 697.154 218.153C701.79 219.136 706.36 220.352 710.991 221.336C715.169 222.227 716.956 215.814 712.763 214.917Z" fill="#010101"/>
<path d="M514.676 335.963C514.676 335.963 591.047 373.57 602.334 370.577C613.622 367.583 682.091 350.259 682.843 347.25C683.595 344.242 721.593 226.488 719.336 224.978C717.08 223.469 657.26 204.29 655.004 204.29C652.748 204.29 633.934 205.794 633.934 205.794C633.934 205.794 597.904 267.097 598.801 269.189C599.697 271.28 566.969 319.787 565.831 319.411C564.692 319.035 548.145 299.094 547.017 299.836C545.889 300.577 507.525 304.364 514.676 335.963Z" fill="#EB5758"/>
<path d="M626.031 322.42C626.031 322.42 645.313 321.389 646.725 318.299C648.136 315.208 655.483 301.649 655.483 301.649L661.664 298.558L687.937 243.668C688.661 242.154 689.072 240.509 689.145 238.832C689.218 237.155 688.951 235.48 688.361 233.909C687.77 232.338 686.869 230.902 685.71 229.688C684.551 228.474 683.159 227.506 681.616 226.843L657.404 216.447L656.559 220.96L623.832 246.074C623.832 246.074 622.137 216.71 622.137 217.575C622.137 218.441 608.877 217.859 605.77 222.372C604.276 224.545 595.184 236.245 584.608 246.733C577.452 253.827 568.813 259.813 564.481 264.042C563.977 264.535 563.588 265.134 563.341 265.795C563.095 266.455 562.998 267.162 563.057 267.865C563.115 268.567 563.328 269.249 563.68 269.859C564.032 270.47 564.515 270.996 565.094 271.399C567.262 272.912 569.84 273.727 572.484 273.735C575.128 273.743 577.711 272.944 579.889 271.445L594.2 261.595L584.324 278.24L577.627 280.496L626.031 322.42Z" fill="#010101"/>
<path d="M545.714 410.831L566.026 414.952L591.784 330.302L626.016 322.399C626.016 322.399 632.79 300.201 615.11 292.68C597.43 285.159 587.637 283.294 587.637 283.294L560.55 315.651L545.714 410.831Z" fill="white"/>
<path d="M514.954 397.854L535.272 401.975L561.03 317.325L595.262 309.428C595.262 309.428 616.141 294.488 598.461 286.946C580.781 279.405 574.475 280.455 574.475 280.455L535.473 299.836C533.754 300.689 532.297 301.988 531.253 303.598C530.209 305.207 529.617 307.068 529.538 308.985L514.954 397.854Z" fill="white"/>
<path d="M544.956 416.477L566.026 417.229C566.026 417.229 564.522 430.02 563.393 430.396C562.265 430.772 559.272 435.661 559.272 435.661L514.124 434.909L514.639 429.562C514.711 428.799 515 428.074 515.472 427.471C515.944 426.868 516.58 426.414 517.303 426.162L544.956 416.477Z" fill="#010101"/>
<path d="M513.923 401.821L534.988 402.573C534.988 402.573 533.484 415.364 532.356 415.74C531.227 416.116 528.234 421.005 528.234 421.005L483.061 420.237L483.576 414.89C483.647 414.128 483.937 413.402 484.409 412.799C484.881 412.197 485.516 411.742 486.239 411.49L513.923 401.821Z" fill="#010101"/>
<path d="M570.446 230.789C570.272 231.11 570.154 231.459 570.096 231.82C568.751 237.43 563.517 262.775 563.77 263.79C564.053 264.918 569.132 269.972 569.132 269.972C569.132 269.972 582.011 268.56 582.578 263.481C583.144 258.401 582.578 249.654 582.578 249.654L584.839 246.27C584.839 246.27 579.477 244.858 576.937 244.575C574.397 244.291 574.68 233.288 574.68 233.288C574.68 233.288 574.114 227.992 570.446 230.789Z" fill="white"/>
<path d="M576.561 228.085C575.083 227.91 573.47 229.842 573.316 231.32C572.873 234.972 572.285 241.582 573.929 242.195C576.185 243.04 580.981 243.323 582.109 243.323C583.238 243.323 598.476 260.91 602.144 260.066C605.812 259.221 601.861 245.672 601.861 245.672L600.83 240.32C600.543 238.388 599.705 236.581 598.417 235.113C597.129 233.646 595.445 232.581 593.567 232.046C588.322 230.547 581.007 228.615 576.561 228.085Z" fill="#EB5758"/>
<path d="M600.356 251.128C599.228 251.128 593.963 251.128 593.963 253.384C593.963 255.64 596.781 268.323 596.781 268.323C596.781 268.323 608.351 271.146 609.479 271.414C610.608 271.682 626.691 293.983 628.947 295.395C631.203 296.806 646.462 301.886 647.292 301.577C648.121 301.268 644.752 277.313 644.752 277.313L617.964 261.23C617.964 261.23 614.579 250.226 608.938 249.943C603.297 249.659 602.757 249.474 602.757 249.474L603.694 256.171L600.969 256.454L600.356 251.128Z" fill="white"/>
<path d="M663.091 218.941L623.873 246.028L621.519 217.998L625.001 214.989C625.001 214.989 633.759 214.706 635.721 213.016C637.684 211.327 641.388 209.627 641.388 209.627H653.237V214.428L663.091 218.941Z" fill="white"/>
<path d="M617.099 201.75C617.382 203.161 618.511 214.165 618.511 214.165L630.359 214.727L650.301 210.683L650.11 194.713C650.11 194.713 652.933 190.195 651.805 188.222C650.963 186.667 650.21 185.066 649.549 183.426L650.11 170.727C650.11 170.727 629.231 172.422 628.386 172.422C627.541 172.422 615.126 176.935 615.126 176.935L617.099 201.75Z" fill="white"/>
<path d="M602.71 181.334C603.364 181.17 633.181 178.887 634.31 180.392C635.438 181.896 635.252 197.701 634.686 198.262C634.119 198.824 624.151 201.652 619.071 200.143C613.992 198.633 604.966 199.205 603.272 199.205C601.577 199.205 601.201 181.716 602.71 181.334Z" fill="#010101"/>
<path d="M605.858 182.597L625.506 181.777C625.923 181.758 626.333 181.889 626.662 182.146C626.991 182.403 627.217 182.769 627.299 183.179C627.979 186.532 629.22 194.595 625.655 195.635C621.143 196.954 613.24 193.94 611.746 194.131C610.896 194.239 608.604 195.063 606.77 195.764C606.488 195.873 606.184 195.911 605.884 195.875C605.584 195.838 605.297 195.729 605.049 195.556C604.801 195.383 604.6 195.152 604.463 194.882C604.325 194.613 604.256 194.315 604.261 194.012L604.39 184.116C604.396 183.724 604.551 183.349 604.824 183.066C605.096 182.784 605.466 182.616 605.858 182.597Z" fill="white"/>
<path d="M644.819 184.353L646.452 183.323C646.853 183.03 647.309 182.822 647.792 182.71C648.146 182.679 648.503 182.721 648.841 182.831C649.179 182.942 649.492 183.12 649.76 183.354C651.418 184.642 652.057 186.96 651.738 189.02C651.419 191.081 650.275 192.972 648.935 194.594C647.982 195.738 646.674 196.882 645.201 196.655L645.35 196.181" stroke="#010101" stroke-width="2.58" stroke-linecap="round" stroke-linejoin="round"/>
<path d="M624.913 206.423C626.099 206.258 627.232 205.826 628.226 205.161C629.221 204.495 630.052 203.613 630.657 202.579C631.355 201.2 631.845 199.724 632.11 198.201C632.169 198.025 632.169 197.835 632.11 197.66C632.027 197.49 631.77 197.407 631.656 197.557" stroke="#010101" stroke-width="2.58" stroke-linecap="round" stroke-linejoin="round"/>
<path d="M645.973 204.851C645.973 204.851 640.894 215.01 629.045 215.201C617.197 215.391 618.51 215.386 618.51 215.386L617.191 200.148" stroke="#010101" stroke-width="2.58" stroke-linecap="round" stroke-linejoin="round"/>
<path d="M645.974 215.201L653.309 214.634C653.309 214.634 654.154 210.029 651.614 209.555C649.075 209.081 642.774 209.555 642.774 209.555" stroke="#010101" stroke-width="2.58" stroke-linecap="round" stroke-linejoin="round"/>
<path d="M624.528 215.762L619.263 220.09" stroke="#010101" stroke-width="2.58" stroke-linecap="round" stroke-linejoin="round"/>
<path d="M573.177 246.141C573.177 246.141 579.359 248.402 583.897 246.517C583.897 246.517 584.088 251.035 573.362 252.725" stroke="#010101" stroke-width="2.58" stroke-linecap="round" stroke-linejoin="round"/>
<path d="M594.432 252.256C594.432 252.256 601.201 250 601.015 252.07C600.83 254.141 600.263 256.583 601.391 256.769C602.398 256.848 603.411 256.785 604.4 256.583" stroke="#010101" stroke-width="2.58" stroke-linecap="round" stroke-linejoin="round"/>
<path d="M593.489 254.512L595.622 265.933C595.774 266.728 596.156 267.461 596.721 268.039C597.286 268.618 598.01 269.018 598.801 269.189L609.48 271.445L624.718 291.382" stroke="#010101" stroke-width="2.58" stroke-linecap="round" stroke-linejoin="round"/>
<path d="M602.52 261.287L594.241 258.654" stroke="#010101" stroke-width="2.58" stroke-linecap="round" stroke-linejoin="round"/>
<path d="M602.52 266.551L595.369 264.109" stroke="#010101" stroke-width="2.58" stroke-linecap="round" stroke-linejoin="round"/>
<path d="M615.126 176.92L634.125 174.941L635.629 180.608C635.629 180.608 643.15 183.807 643.903 183.617C644.655 183.426 648.606 182.679 648.606 182.679L649.781 183.364L650.11 170.733C650.11 170.733 642.022 158.41 626.789 162.928C626.789 162.928 617.382 160.105 611.551 166.498C611.551 166.477 610.047 170.243 615.126 176.92Z" fill="#010101"/>
<path d="M627.68 163.933C630.874 165.365 634.305 167.024 635.85 170.166C635.783 170.001 635.716 169.836 635.644 169.651" stroke="white" stroke-width="2.58" stroke-linecap="round" stroke-linejoin="round"/>
<path d="M636.227 175.08L650.043 171.737H649.528" stroke="white" stroke-width="2.58" stroke-linecap="round" stroke-linejoin="round"/>
<path d="M647.57 273.418L652.464 271.914L651.712 267.025L655.663 264.578L662.623 240.124" stroke="white" stroke-width="2.58" stroke-linecap="round" stroke-linejoin="round"/>
<path d="M561.045 317.335C560.782 317.232 561.467 314.96 562.132 312.941C562.794 310.942 564.17 309.257 565.995 308.207L593.299 292.505" stroke="#010101" stroke-width="2.58" stroke-linecap="round" stroke-linejoin="round"/>
<path d="M566.026 414.972C565.65 413.844 590.856 330.487 591.783 330.322C592.711 330.157 612.096 325.619 612.096 325.619" stroke="#010101" stroke-width="2.58" stroke-linecap="round" stroke-linejoin="round"/>
<path d="M486.079 416.286H529.156" stroke="white" stroke-width="2.58" stroke-linecap="round" stroke-linejoin="round"/>
<path d="M516.556 430.958H559.633" stroke="white" stroke-width="2.58" stroke-linecap="round" stroke-linejoin="round"/>
<path d="M711.058 227.616C711.058 227.616 682.843 342.362 677.202 340.481C673.787 339.343 669.408 332.007 666.482 326.392C665.494 324.509 663.906 323.011 661.969 322.134C660.033 321.258 657.858 321.054 655.792 321.554C640.817 325.161 608.398 333.341 606.095 337.091C603.087 341.985 599.697 360.789 599.697 360.789" stroke="#010101" stroke-width="2.58" stroke-linecap="round" stroke-linejoin="round"/>
<path d="M650.023 209.41C650.258 208.239 650.355 207.044 650.311 205.851V199.2C650.397 197.548 650.223 195.893 649.796 194.296" stroke="#010101" stroke-width="2.58" stroke-linecap="round" stroke-linejoin="round"/>
<path d="M648.23 182.844L634.501 188.866L634.311 182.658L644.469 181.34L648.23 182.844Z" fill="#010101"/>
<path d="M572.234 229.965C572.234 229.965 570.729 228.837 569.411 234.086C568.092 239.336 568.849 248.196 568.849 248.196C568.849 248.196 562.451 261.178 563.394 263.811C564.336 266.443 567.154 269.828 567.154 269.828C567.154 269.828 578.817 270.858 583.897 265.408" stroke="#010101" stroke-width="2.58" stroke-linecap="round" stroke-linejoin="round"/>
<path d="M574.866 253.667C575.057 254.234 575.943 257.526 576.561 257.243C579.008 256.114 581.826 252.163 581.265 252.163C580.703 252.163 574.866 253.667 574.866 253.667Z" fill="#EB5758"/>
<path d="M574.491 280.471L535.488 299.851" stroke="#010101" stroke-width="2.58" stroke-linecap="round" stroke-linejoin="round"/>
<path d="M486.749 489.84V341.084C486.749 340.255 486.516 339.443 486.077 338.74C485.638 338.037 485.011 337.471 484.266 337.107L346.03 269.395C343.573 268.189 339.956 266.938 341.146 264.856L313.786 279.796C311.961 280.794 310.438 282.267 309.38 284.059C308.322 285.85 307.767 287.895 307.774 289.975L308.259 437.655C308.263 439.855 308.895 442.009 310.082 443.863C311.268 445.716 312.959 447.192 314.956 448.118L447 509.071C448.555 509.788 450.25 510.151 451.962 510.134C453.674 510.117 455.361 509.721 456.901 508.973L488.717 493.518C488.108 493.118 487.609 492.572 487.265 491.929C486.922 491.287 486.744 490.569 486.749 489.84Z" fill="#67B762"/>
<path d="M462.295 506.851C458.743 506.851 455.336 505.439 452.824 502.927C450.312 500.416 448.901 497.009 448.901 493.456V360.181C448.894 358.369 448.38 356.594 447.415 355.06C446.451 353.526 445.075 352.292 443.445 351.5L305.77 285.128C305.344 284.9 305.023 284.517 304.873 284.058C304.722 283.599 304.755 283.1 304.963 282.665C305.172 282.229 305.54 281.891 305.992 281.72C306.443 281.549 306.943 281.56 307.388 281.748L448.839 348.899C450.135 349.522 451.554 349.845 452.991 349.845C454.429 349.845 455.848 349.522 457.143 348.899L485.121 335.448C485.569 335.233 486.083 335.204 486.552 335.369C487.021 335.533 487.405 335.877 487.62 336.324C487.835 336.771 487.864 337.286 487.699 337.755C487.535 338.223 487.192 338.607 486.744 338.823L458.776 352.258C456.303 353.452 453.521 353.85 450.812 353.396C452.022 355.449 452.662 357.788 452.667 360.171V493.456C452.667 495.083 453.079 496.684 453.865 498.108C454.65 499.533 455.784 500.736 457.159 501.604C458.535 502.473 460.108 502.979 461.732 503.076C463.356 503.172 464.978 502.857 466.447 502.157L486.538 492.581C486.76 492.475 487.001 492.414 487.246 492.402C487.491 492.389 487.737 492.425 487.968 492.507C488.2 492.59 488.413 492.717 488.595 492.881C488.778 493.046 488.926 493.245 489.031 493.467C489.137 493.689 489.198 493.929 489.21 494.175C489.223 494.42 489.187 494.665 489.105 494.897C489.023 495.128 488.895 495.342 488.731 495.524C488.566 495.706 488.367 495.855 488.145 495.96L468.054 505.542C466.255 506.399 464.288 506.846 462.295 506.851Z" fill="#232323"/>
<path d="M348.559 324.115L423.617 359.351C426.979 360.931 429.817 363.442 431.793 366.587C433.77 369.732 434.801 373.379 434.765 377.093L434.065 451.1C434.034 454.233 433.22 457.309 431.697 460.047C430.174 462.785 427.991 465.099 425.345 466.777C422.699 468.456 419.676 469.446 416.55 469.657C413.423 469.868 410.294 469.294 407.447 467.987L338.818 436.47C335.004 434.717 331.768 431.915 329.487 428.391C327.206 424.867 325.976 420.767 325.939 416.569L325.213 339.106C325.188 336.334 325.866 333.602 327.183 331.164C328.501 328.726 330.415 326.662 332.747 325.165C335.079 323.667 337.753 322.786 340.518 322.602C343.283 322.418 346.05 322.939 348.559 324.115Z" fill="#232323"/>
<path d="M343.907 353.782L344.335 409.466C344.351 411.657 344.986 413.799 346.167 415.645C347.347 417.492 349.024 418.967 351.006 419.903L398.576 442.332C400.349 443.168 402.305 443.542 404.262 443.42C406.218 443.298 408.113 442.683 409.768 441.634C411.424 440.584 412.788 439.132 413.733 437.415C414.678 435.697 415.173 433.768 415.174 431.808V382.76C415.175 380.535 414.537 378.357 413.338 376.483C412.138 374.609 410.426 373.119 408.405 372.189L354.087 347.214C352.99 346.709 351.782 346.488 350.577 346.573C349.372 346.659 348.208 347.047 347.193 347.702C346.177 348.357 345.344 349.258 344.77 350.321C344.195 351.384 343.899 352.574 343.907 353.782Z" fill="#67B762"/>
<path d="M357.167 384.305L357.312 403.175C357.33 405.339 357.959 407.454 359.126 409.276C360.292 411.099 361.949 412.555 363.906 413.478L383.002 422.504C384.755 423.331 386.688 423.703 388.622 423.584C390.556 423.465 392.429 422.86 394.067 421.825C395.705 420.79 397.056 419.358 397.993 417.662C398.931 415.967 399.425 414.061 399.431 412.124V393.089C399.43 390.888 398.799 388.735 397.612 386.882C396.425 385.029 394.732 383.556 392.734 382.636L373.493 373.76C371.732 372.95 369.795 372.598 367.862 372.735C365.929 372.873 364.061 373.497 362.433 374.549C360.805 375.6 359.469 377.046 358.549 378.751C357.628 380.457 357.153 382.367 357.167 384.305Z" fill="#232323"/>
<path d="M373.74 393.063C361.293 407.487 342.938 417.471 323.466 415.962C305.255 414.555 291.655 402.501 287.817 384.821C286.421 378.381 285.834 369.721 290.238 364.214C294.643 358.707 299.181 360.541 302.55 365.724C308.629 375.074 311.772 389.117 311.143 400.208C309.788 424.014 291.511 440.56 274.34 454.959C271.25 457.535 275.695 461.939 278.755 459.374C288.991 450.791 299.083 441.302 307.12 430.582C313.539 422.025 316.578 411.197 317.361 400.62C317.876 393.434 316.367 385.799 314.533 378.896C312.668 371.88 310.046 363.9 304.884 358.548C300.603 354.112 294.952 353.092 289.63 356.436C283.175 360.495 280.831 368.284 280.646 375.496C280.167 394.557 291.428 412.587 309.422 419.248C334.181 428.418 361.716 416.544 378.144 397.457C380.756 394.428 376.357 389.993 373.729 393.042L373.74 393.063Z" fill="#232323"/>
<path d="M306.085 285.53C305.42 285.53 305.183 285.19 304.874 284.746C304.583 284.322 304.47 283.8 304.559 283.293C304.647 282.785 304.931 282.333 305.348 282.032C305.544 281.859 305.774 281.729 306.024 281.651C306.273 281.573 306.536 281.548 306.796 281.578C308.99 280.605 316.455 276.803 340.209 263.795C340.425 263.668 340.665 263.586 340.913 263.553C341.162 263.521 341.415 263.538 341.656 263.605C341.898 263.672 342.124 263.786 342.321 263.942C342.518 264.097 342.681 264.291 342.802 264.511C342.922 264.73 342.998 264.972 343.023 265.222C343.049 265.471 343.024 265.723 342.95 265.963C342.876 266.203 342.755 266.425 342.594 266.618C342.433 266.81 342.235 266.968 342.012 267.082C314.724 282.021 308.213 285.53 306.085 285.53ZM306.6 283.469L307.831 284.88L306.6 283.469Z" fill="#232323"/>
<path d="M484.065 339.451L485.879 338.611" stroke="#010101" stroke-width="2.58" stroke-linecap="round" stroke-linejoin="round"/>
<path d="M489.475 336.958L804.327 191.921" stroke="#010101" stroke-width="2.58" stroke-linecap="round" stroke-linejoin="round" stroke-dasharray="7.69 7.69"/>
<path d="M806.124 191.097L807.937 190.257" stroke="#010101" stroke-width="2.58" stroke-linecap="round" stroke-linejoin="round"/>
<path d="M135.97 136.366C136.408 136.364 136.839 136.474 137.223 136.685C137.608 136.896 137.931 137.201 138.164 137.572C138.475 138.098 138.598 138.715 138.513 139.32C138.428 139.926 138.14 140.485 137.696 140.905L116.487 162.114C116.223 162.383 115.905 162.591 115.552 162.723C115.2 162.855 114.823 162.909 114.448 162.88C114.073 162.851 113.709 162.74 113.381 162.555C113.053 162.371 112.77 162.116 112.551 161.81C112.191 161.277 112.033 160.634 112.103 159.995C112.174 159.356 112.47 158.763 112.937 158.322L134.136 137.124C134.376 136.883 134.662 136.691 134.977 136.561C135.292 136.431 135.629 136.365 135.97 136.366Z" fill="#EB5758"/>
<path d="M114.874 136.366C115.312 136.364 115.744 136.474 116.128 136.685C116.512 136.896 116.836 137.201 117.069 137.572C117.38 138.098 117.503 138.715 117.417 139.32C117.332 139.926 117.044 140.485 116.6 140.905L95.391 162.114C95.1278 162.383 94.8088 162.591 94.4566 162.723C94.1044 162.855 93.7274 162.909 93.3523 162.88C92.9771 162.851 92.6128 162.74 92.2851 162.555C91.9574 162.371 91.6741 162.116 91.4553 161.81C91.0956 161.277 90.9369 160.634 91.0077 159.995C91.0785 159.356 91.374 158.763 91.8416 158.322L113.04 137.124C113.281 136.883 113.567 136.691 113.881 136.561C114.196 136.431 114.534 136.365 114.874 136.366Z" fill="#EB5758"/>
<path d="M92.4344 136.928C92.8725 136.926 93.3039 137.035 93.688 137.246C94.072 137.457 94.3958 137.763 94.6289 138.133C94.9401 138.66 95.0628 139.277 94.9766 139.883C94.8905 140.489 94.6007 141.047 94.155 141.467L72.946 162.675C72.6553 162.967 72.2998 163.185 71.9085 163.312C71.5172 163.439 71.1014 163.471 70.6951 163.406C70.2889 163.341 69.9038 163.181 69.5715 162.938C69.2392 162.696 68.9692 162.378 68.7836 162.011C68.5444 161.499 68.4729 160.924 68.5792 160.369C68.6856 159.814 68.9645 159.307 69.376 158.92L90.5953 137.696C91.0824 137.206 91.7438 136.93 92.4344 136.928Z" fill="#EB5758"/>
<path d="M72.0084 136.928C72.4468 136.928 72.8783 137.038 73.2628 137.249C73.6473 137.46 73.9724 137.764 74.2081 138.134C74.5165 138.661 74.6376 139.278 74.5515 139.883C74.4655 140.488 74.1774 141.046 73.7341 141.467L52.5252 162.676C52.262 162.945 51.943 163.152 51.5908 163.285C51.2386 163.417 50.8616 163.471 50.4864 163.442C50.1113 163.413 49.747 163.302 49.4193 163.117C49.0915 162.932 48.8083 162.678 48.5894 162.372C48.2307 161.839 48.0727 161.196 48.1435 160.557C48.2142 159.919 48.5091 159.326 48.9758 158.884L70.1744 137.686C70.4149 137.444 70.7008 137.253 71.0156 137.123C71.3304 136.993 71.6678 136.927 72.0084 136.928Z" fill="#EB5758"/>
<path d="M50.9131 136.928C51.3515 136.928 51.783 137.038 52.1675 137.249C52.552 137.46 52.8771 137.764 53.1128 138.134C53.4221 138.661 53.5437 139.278 53.4576 139.883C53.3716 140.488 53.0829 141.047 52.6388 141.467L31.4299 162.676C31.1667 162.945 30.8477 163.152 30.4955 163.285C30.1432 163.417 29.7663 163.471 29.3911 163.442C29.016 163.413 28.6517 163.302 28.324 163.117C27.9962 162.932 27.713 162.678 27.4941 162.372C27.1365 161.838 26.979 161.196 27.0497 160.557C27.1205 159.919 27.4147 159.326 27.8805 158.884L49.0791 137.686C49.3196 137.444 49.6055 137.253 49.9203 137.123C50.235 136.993 50.5725 136.927 50.9131 136.928Z" fill="#EB5758"/>
<path d="M28.4728 137.484C28.9108 137.486 29.3415 137.597 29.7251 137.809C30.1087 138.02 30.4327 138.325 30.6673 138.695C30.9783 139.222 31.1012 139.838 31.016 140.444C30.9309 141.049 30.6426 141.608 30.1985 142.028L8.98963 163.237C8.72639 163.506 8.40743 163.714 8.0552 163.846C7.70296 163.978 7.32601 164.032 6.95084 164.003C6.57568 163.974 6.21142 163.863 5.88369 163.678C5.55595 163.494 5.2727 163.239 5.05385 162.933C4.69452 162.401 4.53564 161.758 4.60544 161.119C4.67523 160.481 4.96919 159.888 5.43507 159.445L26.6337 138.247C27.122 137.76 27.7831 137.486 28.4728 137.484Z" fill="#EB5758"/>
<path d="M263.09 136.366C263.528 136.364 263.959 136.474 264.343 136.685C264.727 136.896 265.051 137.201 265.284 137.572C265.595 138.099 265.718 138.716 265.632 139.322C265.546 139.927 265.256 140.486 264.81 140.905L243.601 162.114C243.313 162.409 242.959 162.631 242.567 162.761C242.175 162.891 241.758 162.924 241.35 162.859C240.943 162.794 240.557 162.632 240.225 162.387C239.894 162.141 239.626 161.82 239.444 161.449C239.203 160.938 239.129 160.364 239.235 159.808C239.34 159.253 239.619 158.745 240.031 158.358L261.251 137.134C261.738 136.645 262.399 136.369 263.09 136.366Z" fill="#EB5758"/>
<path d="M241.968 136.366C242.406 136.364 242.838 136.474 243.222 136.685C243.606 136.896 243.93 137.201 244.163 137.572C244.474 138.098 244.597 138.715 244.512 139.32C244.426 139.926 244.138 140.485 243.694 140.905L222.495 162.114C222.232 162.383 221.913 162.591 221.561 162.723C221.209 162.855 220.832 162.909 220.457 162.88C220.082 162.851 219.717 162.74 219.39 162.555C219.062 162.371 218.779 162.116 218.56 161.81C218.2 161.278 218.041 160.635 218.111 159.996C218.181 159.358 218.475 158.765 218.941 158.322L240.14 137.124C240.626 136.641 241.283 136.369 241.968 136.366Z" fill="#EB5758"/>
<path d="M219.533 136.928C219.972 136.928 220.403 137.038 220.788 137.249C221.172 137.46 221.497 137.764 221.733 138.134C222.042 138.661 222.164 139.278 222.078 139.883C221.992 140.488 221.703 141.047 221.259 141.467L200.05 162.676C199.787 162.945 199.468 163.152 199.116 163.285C198.763 163.417 198.386 163.471 198.011 163.442C197.636 163.413 197.272 163.302 196.944 163.117C196.616 162.932 196.333 162.678 196.114 162.372C195.757 161.838 195.599 161.196 195.67 160.557C195.741 159.919 196.035 159.326 196.501 158.884L217.699 137.686C217.94 137.444 218.226 137.253 218.54 137.123C218.855 136.993 219.193 136.927 219.533 136.928Z" fill="#EB5758"/>
<path d="M199.113 136.928C199.551 136.926 199.982 137.035 200.366 137.246C200.75 137.457 201.074 137.763 201.307 138.133C201.618 138.66 201.741 139.277 201.656 139.882C201.571 140.488 201.283 141.046 200.838 141.467L179.635 162.675C179.371 162.944 179.052 163.152 178.7 163.285C178.348 163.417 177.971 163.47 177.596 163.442C177.221 163.413 176.856 163.302 176.529 163.117C176.201 162.932 175.918 162.678 175.699 162.371C175.339 161.839 175.181 161.196 175.251 160.557C175.322 159.918 175.618 159.325 176.085 158.884L197.284 137.685C197.524 137.445 197.809 137.254 198.123 137.124C198.437 136.994 198.773 136.927 199.113 136.928Z" fill="#EB5758"/>
<path d="M178.017 136.928C178.455 136.926 178.886 137.035 179.27 137.246C179.655 137.457 179.978 137.763 180.211 138.134C180.522 138.66 180.645 139.277 180.56 139.882C180.475 140.488 180.187 141.046 179.743 141.467L158.513 162.676C158.25 162.944 157.931 163.152 157.579 163.285C157.226 163.417 156.85 163.471 156.474 163.442C156.099 163.413 155.735 163.302 155.407 163.117C155.079 162.932 154.796 162.678 154.577 162.372C154.218 161.839 154.059 161.196 154.13 160.557C154.201 159.918 154.496 159.325 154.964 158.884L176.162 137.685C176.405 137.442 176.694 137.249 177.013 137.119C177.332 136.989 177.673 136.924 178.017 136.928Z" fill="#EB5758"/>
<path d="M155.577 137.484C156.015 137.486 156.446 137.597 156.829 137.809C157.213 138.02 157.537 138.325 157.771 138.695C158.083 139.222 158.205 139.839 158.119 140.445C158.033 141.05 157.743 141.609 157.298 142.028L136.089 163.237C135.797 163.527 135.442 163.744 135.051 163.87C134.66 163.997 134.244 164.029 133.838 163.964C133.432 163.899 133.048 163.739 132.715 163.498C132.383 163.256 132.113 162.939 131.926 162.572C131.687 162.06 131.615 161.486 131.722 160.931C131.828 160.376 132.107 159.869 132.519 159.481L153.738 138.257C154.224 137.766 154.886 137.488 155.577 137.484Z" fill="#EB5758"/>
<path d="M443.817 73.0592L412.614 0H406.823L440.447 78.7362L441.977 82.3166L526.004 0H518.395L443.817 73.0592Z" fill="#86C490"/>
</g>
<defs>
<clipPath id="clip0">
<rect width="994" height="563" fill="white"/>
</clipPath>
</defs>
</svg>
