<svg width="247" height="254" viewBox="0 0 247 254" fill="none" xmlns="http://www.w3.org/2000/svg">
<rect width="247" height="254" fill="#131313"/>
<path d="M124.372 210C168.76 210 204.744 173.735 204.744 129C204.744 84.2649 168.76 48 124.372 48C79.9837 48 44 84.2649 44 129C44 173.735 79.9837 210 124.372 210Z" fill="#1B1B1B"/>
<path d="M176.938 80.415H71.0619C68.531 80.415 66.4219 82.4904 66.4219 84.9809V102.746V147.492V165.174C66.4219 167.665 68.531 169.74 71.0619 169.74H176.938C179.469 169.74 181.578 167.665 181.578 165.174V147.492V102.746V84.9809C181.578 82.4904 179.553 80.415 176.938 80.415Z" fill="#5CC560"/>
<path d="M176.938 170.155H71.0618C68.2778 170.155 66 167.914 66 165.174V84.981C66 82.2414 68.2778 80 71.0618 80H176.938C179.722 80 182 82.2414 182 84.981V165.174C182 167.914 179.722 170.155 176.938 170.155ZM71.0618 80.8302C68.6996 80.8302 66.8436 82.6565 66.8436 84.981V165.174C66.8436 167.499 68.6996 169.325 71.0618 169.325H176.938C179.3 169.325 181.156 167.499 181.156 165.174V84.981C181.156 82.6565 179.3 80.8302 176.938 80.8302H71.0618Z" fill="#231F20"/>
<path d="M181.578 152.307C181.578 154.797 179.469 156.873 176.938 156.873H71.0619C68.531 156.873 66.4219 154.797 66.4219 152.307V89.7959C66.4219 87.3054 68.531 85.23 71.0619 85.23H176.938C179.469 85.23 181.578 87.3054 181.578 89.7959V152.307Z" fill="white"/>
<path d="M176.938 157.288H71.0618C68.2778 157.288 66 155.046 66 152.307V89.7959C66 87.0564 68.2778 84.8149 71.0618 84.8149H176.938C179.722 84.8149 182 87.0564 182 89.7959V152.224C182 155.046 179.722 157.288 176.938 157.288ZM71.0618 85.6451C68.6996 85.6451 66.8436 87.4715 66.8436 89.7959V152.224C66.8436 154.548 68.6996 156.375 71.0618 156.375H176.938C179.3 156.375 181.156 154.548 181.156 152.224V89.7959C181.156 87.4715 179.3 85.6451 176.938 85.6451H71.0618Z" fill="#231F20"/>
<path d="M97.3833 130.889C97.3833 133.047 95.6117 134.791 93.4182 134.791C91.2248 134.791 89.4531 133.047 89.4531 130.889C89.4531 128.73 91.2248 126.987 93.4182 126.987C95.5273 126.987 97.3833 128.73 97.3833 130.889Z" fill="#F85453"/>
<path d="M131.888 141.847C133.705 141.847 135.178 140.397 135.178 138.609C135.178 136.821 133.705 135.372 131.888 135.372C130.071 135.372 128.598 136.821 128.598 138.609C128.598 140.397 130.071 141.847 131.888 141.847Z" fill="#F85453"/>
<path d="M138.215 98.5126C140.032 98.5126 141.505 97.0631 141.505 95.275C141.505 93.4869 140.032 92.0374 138.215 92.0374C136.398 92.0374 134.925 93.4869 134.925 95.275C134.925 97.0631 136.398 98.5126 138.215 98.5126Z" fill="#F85453"/>
<path d="M154.582 132.881C156.399 132.881 157.872 131.432 157.872 129.644C157.872 127.856 156.399 126.406 154.582 126.406C152.765 126.406 151.292 127.856 151.292 129.644C151.292 131.432 152.765 132.881 154.582 132.881Z" fill="#F85453"/>
<path d="M101.77 118.436C101.601 118.436 101.433 118.27 101.348 118.104L98.9018 105.735C98.8175 105.486 98.9862 105.32 99.2393 105.237C99.4924 105.154 99.6611 105.32 99.7455 105.569L102.192 117.938C102.276 118.187 102.108 118.353 101.77 118.436C101.855 118.436 101.855 118.436 101.77 118.436Z" fill="black"/>
<path d="M96.7082 128.398C96.6239 128.398 96.5395 128.398 96.4551 128.315C96.2864 128.149 96.2021 127.9 96.3708 127.734L100.42 122.504C100.589 122.338 100.842 122.255 101.011 122.421C101.18 122.587 101.264 122.836 101.095 123.002L97.0457 128.232C96.9613 128.398 96.877 128.398 96.7082 128.398Z" fill="black"/>
<path d="M117.04 124.082C116.787 124.082 116.618 123.915 116.618 123.666L116.028 112.21C116.028 111.961 116.196 111.795 116.449 111.795C116.702 111.795 116.871 111.961 116.871 112.21L117.462 123.666C117.462 123.915 117.293 124.082 117.04 124.082Z" fill="black"/>
<path d="M119.233 106.814C119.065 106.814 118.896 106.731 118.811 106.482C118.727 106.233 118.896 106.067 119.149 105.984L126.657 104.075C126.91 103.992 127.079 104.158 127.163 104.407C127.248 104.656 127.079 104.822 126.826 104.905L119.318 106.814C119.318 106.814 119.318 106.814 119.233 106.814Z" fill="black"/>
<path d="M141.421 113.289C141.337 113.289 141.252 113.289 141.168 113.206L132.057 105.735C131.888 105.569 131.888 105.32 131.972 105.154C132.141 104.988 132.394 104.988 132.563 105.071L141.674 112.542C141.843 112.708 141.843 112.957 141.759 113.123C141.674 113.206 141.506 113.289 141.421 113.289Z" fill="black"/>
<path d="M134.334 124.414C134.25 124.414 134.081 124.414 134.081 124.331C133.913 124.165 133.913 123.916 134.081 123.75L141.758 115.946C141.927 115.78 142.18 115.78 142.349 115.946C142.518 116.112 142.518 116.361 142.349 116.527L134.672 124.331C134.588 124.414 134.503 124.414 134.334 124.414Z" fill="black"/>
<path d="M128.935 127.236L120.246 127.153C119.993 127.153 119.824 126.987 119.824 126.738C119.824 126.489 119.993 126.323 120.246 126.323L128.935 126.406C129.188 126.406 129.357 126.572 129.357 126.821C129.357 126.987 129.188 127.236 128.935 127.236Z" fill="black"/>
<path d="M91.8996 129.062C91.7309 129.062 91.5621 128.979 91.5621 128.813L87.7658 121.757C87.6814 121.591 87.7658 121.342 87.9345 121.176C88.1032 121.093 88.3563 121.176 88.525 121.342L92.3214 128.398C92.4058 128.564 92.3214 128.813 92.1527 128.979C91.9839 129.062 91.9839 129.062 91.8996 129.062Z" fill="black"/>
<path d="M105.819 135.621C105.735 135.621 105.651 135.621 105.566 135.538L103.035 133.794L97.9737 133.296C97.7206 133.296 97.5518 133.047 97.6362 132.881C97.6362 132.632 97.8893 132.466 98.058 132.549L103.204 133.047C103.289 133.047 103.373 133.047 103.373 133.13L105.988 134.957C106.157 135.123 106.241 135.372 106.073 135.538C106.073 135.538 105.988 135.621 105.819 135.621Z" fill="black"/>
<path d="M108.688 145.749C108.435 145.749 108.266 145.583 108.266 145.334L107.844 139.772C107.844 139.522 108.013 139.356 108.266 139.356C108.519 139.356 108.688 139.522 108.688 139.772L109.11 145.334C109.11 145.5 108.941 145.749 108.688 145.749Z" fill="black"/>
<path d="M112.484 147.243C112.4 147.243 112.231 147.243 112.147 147.16C111.978 146.994 111.978 146.745 112.147 146.579L117.968 140.768C118.137 140.602 118.39 140.602 118.558 140.768C118.727 140.934 118.727 141.183 118.558 141.349L112.737 147.16C112.737 147.16 112.653 147.243 112.484 147.243Z" fill="black"/>
<path d="M128.851 140.934L123.789 140.021C123.536 140.021 123.367 139.772 123.452 139.523C123.452 139.274 123.705 139.108 123.958 139.191L128.935 140.021C129.188 140.021 129.357 140.27 129.273 140.519C129.273 140.768 129.104 140.934 128.851 140.934Z" fill="black"/>
<path d="M135.937 138.858C135.769 138.858 135.684 138.775 135.6 138.609C135.516 138.443 135.6 138.194 135.769 138.028L140.409 135.538C140.577 135.455 140.831 135.538 140.999 135.704C141.084 135.87 140.999 136.119 140.831 136.285L136.191 138.775C136.022 138.858 136.022 138.858 135.937 138.858Z" fill="black"/>
<path d="M144.205 132.134C143.952 132.134 143.783 131.968 143.783 131.719C143.783 131.47 143.952 131.304 144.205 131.304L152.641 131.138C152.81 131.138 153.063 131.304 153.063 131.553C153.063 131.802 152.894 131.968 152.641 131.968L144.205 132.134Z" fill="black"/>
<path d="M155.763 127.236C155.678 127.236 155.678 127.236 155.594 127.236C155.341 127.153 155.257 126.904 155.341 126.738L157.956 120.097C158.041 119.848 158.294 119.765 158.462 119.848C158.716 119.931 158.8 120.18 158.716 120.346L156.1 126.987C156.1 127.153 155.932 127.236 155.763 127.236Z" fill="black"/>
<path d="M158.8 115.614C158.716 115.614 158.547 115.531 158.462 115.448L152.304 107.727C152.135 107.561 152.22 107.312 152.388 107.146C152.557 106.98 152.81 107.063 152.979 107.229L159.137 114.95C159.306 115.116 159.222 115.365 159.053 115.531C158.969 115.614 158.884 115.614 158.8 115.614Z" fill="black"/>
<path d="M148.845 103.826C148.761 103.826 148.676 103.826 148.592 103.743L140.999 97.2674C140.83 97.1014 140.83 96.8523 140.999 96.6863C141.168 96.5203 141.421 96.5203 141.59 96.6863L149.182 103.162C149.351 103.328 149.351 103.577 149.182 103.743C149.098 103.826 148.929 103.826 148.845 103.826Z" fill="black"/>
<path d="M136.106 95.8561C136.106 95.8561 136.022 95.8561 136.106 95.8561L120.921 93.0335C120.668 92.9505 120.499 92.7845 120.583 92.5354C120.668 92.2864 120.836 92.2034 121.089 92.2034L136.19 95.0259C136.444 95.1089 136.612 95.275 136.528 95.524C136.444 95.69 136.275 95.8561 136.106 95.8561Z" fill="black"/>
<path d="M101.433 102.414C101.264 102.414 101.179 102.331 101.095 102.165C101.011 101.999 101.011 101.75 101.264 101.584L115.521 93.5316C115.69 93.4486 115.943 93.4486 116.112 93.6976C116.196 93.8636 116.196 94.1127 115.943 94.2787L101.686 102.331C101.517 102.331 101.433 102.414 101.433 102.414Z" fill="black"/>
<path d="M90.9717 114.369C90.8873 114.369 90.8029 114.369 90.7186 114.286C90.5498 114.12 90.4655 113.871 90.6342 113.705L96.3709 105.071C96.5397 104.905 96.7928 104.822 96.9615 104.988C97.1302 105.154 97.2146 105.403 97.0458 105.569L91.3091 114.12C91.2248 114.286 91.056 114.369 90.9717 114.369Z" fill="black"/>
<path d="M94.5993 135.372C92.3214 135.372 90.5498 133.545 90.5498 131.387C90.5498 129.145 92.4058 127.402 94.5993 127.402C96.8771 127.402 98.6487 129.228 98.6487 131.387C98.6487 133.545 96.8771 135.372 94.5993 135.372ZM94.5993 128.149C92.8276 128.149 91.3934 129.561 91.3934 131.304C91.3934 133.047 92.8276 134.458 94.5993 134.458C96.3709 134.458 97.8051 133.047 97.8051 131.304C97.8051 129.644 96.3709 128.149 94.5993 128.149Z" fill="black"/>
<path d="M89.7061 122.255C87.3439 122.255 85.4036 120.346 85.4036 118.021C85.4036 115.697 87.3439 113.788 89.7061 113.788C92.0683 113.788 94.0087 115.697 94.0087 118.021C94.0087 120.346 92.0683 122.255 89.7061 122.255ZM89.7061 114.618C87.7657 114.618 86.2472 116.195 86.2472 118.021C86.2472 119.931 87.8501 121.425 89.7061 121.425C91.6465 121.425 93.165 119.848 93.165 118.021C93.165 116.112 91.5621 114.618 89.7061 114.618Z" fill="black"/>
<path d="M109.869 151.145C108.182 151.145 106.748 149.816 106.748 148.073C106.748 146.413 108.097 145.001 109.869 145.001C111.641 145.001 112.99 146.33 112.99 148.073C112.906 149.816 111.556 151.145 109.869 151.145ZM109.869 145.915C108.604 145.915 107.591 146.911 107.591 148.156C107.591 149.401 108.604 150.398 109.869 150.398C111.134 150.398 112.147 149.401 112.147 148.156C112.062 146.911 111.05 145.915 109.869 145.915Z" fill="black"/>
<path d="M145.47 112.625C145.386 112.625 145.302 112.625 145.217 112.542C145.049 112.376 144.964 112.127 145.133 111.961L148.845 107.312C149.014 107.146 149.267 107.063 149.436 107.229C149.604 107.395 149.689 107.644 149.52 107.81L145.808 112.459C145.724 112.625 145.639 112.625 145.47 112.625Z" fill="black"/>
<path d="M143.193 111.712C143.024 111.712 142.855 111.629 142.771 111.38L139.228 98.0976C139.143 97.8485 139.312 97.6825 139.565 97.5995C139.818 97.5165 139.987 97.6825 140.071 97.9315L143.614 111.214C143.699 111.463 143.53 111.629 143.277 111.712H143.193Z" fill="black"/>
<path d="M132.225 102.58C132.141 102.58 131.972 102.497 131.888 102.414C131.719 102.248 131.719 101.999 131.888 101.833L136.865 97.2673C137.034 97.1013 137.287 97.1013 137.456 97.2673C137.625 97.4334 137.625 97.6824 137.456 97.8485L132.479 102.414C132.394 102.497 132.31 102.58 132.225 102.58Z" fill="black"/>
<path d="M127.501 102.331C127.417 102.331 127.248 102.248 127.164 102.165L119.993 94.7769C119.824 94.6109 119.824 94.3618 119.993 94.1958C120.161 94.0298 120.415 94.0298 120.583 94.1958L127.754 101.584C127.923 101.75 127.923 101.999 127.754 102.165C127.754 102.331 127.585 102.331 127.501 102.331Z" fill="black"/>
<path d="M115.943 104.324C115.943 104.324 115.859 104.324 115.943 104.324C115.606 104.241 115.521 104.075 115.521 103.826L117.293 95.2749C117.377 95.0259 117.546 94.9429 117.799 94.9429C118.052 95.0259 118.137 95.1919 118.137 95.441L116.365 103.992C116.281 104.158 116.112 104.324 115.943 104.324Z" fill="black"/>
<path d="M111.219 107.312H111.135L101.264 104.656C101.011 104.573 100.927 104.407 100.927 104.158C101.011 103.909 101.18 103.826 101.433 103.826L111.303 106.482C111.556 106.565 111.641 106.731 111.641 106.98C111.556 107.146 111.388 107.312 111.219 107.312Z" fill="black"/>
<path d="M139.565 132.217C139.481 132.217 139.396 132.217 139.312 132.134L133.66 127.9C133.491 127.817 133.491 127.485 133.66 127.319C133.828 127.153 134.081 127.07 134.25 127.236L139.902 131.47C140.071 131.636 140.156 131.885 139.987 132.051C139.818 132.134 139.734 132.217 139.565 132.217Z" fill="black"/>
<path d="M152.22 129.81C152.135 129.81 152.135 129.81 152.22 129.81L134.503 126.821C134.25 126.821 134.081 126.572 134.166 126.323C134.166 126.074 134.419 125.908 134.672 125.991L152.388 128.979C152.641 128.979 152.81 129.228 152.726 129.478C152.557 129.727 152.388 129.81 152.22 129.81Z" fill="black"/>
<path d="M153.316 127.9C153.148 127.9 153.063 127.817 152.979 127.734L144.88 116.61C144.711 116.444 144.796 116.195 144.964 116.029C145.133 115.863 145.386 115.946 145.555 116.112L153.654 127.236C153.823 127.402 153.738 127.651 153.57 127.817C153.485 127.817 153.401 127.9 153.316 127.9Z" fill="black"/>
<path d="M157.113 117.689H157.028L146.567 115.199C146.314 115.116 146.23 114.95 146.23 114.701C146.314 114.452 146.483 114.369 146.736 114.369L157.197 116.859C157.45 116.942 157.534 117.108 157.534 117.357C157.45 117.523 157.281 117.689 157.113 117.689Z" fill="black"/>
<path d="M132.141 136.949C131.888 136.949 131.719 136.783 131.719 136.534L131.382 128.398C131.382 128.149 131.551 127.983 131.804 127.983C132.057 127.983 132.225 128.149 132.225 128.398L132.563 136.534C132.563 136.7 132.394 136.949 132.141 136.949Z" fill="black"/>
<path d="M122.861 137.53C122.777 137.53 122.692 137.53 122.608 137.447C122.439 137.281 122.355 137.032 122.524 136.866L129.273 127.485C129.441 127.319 129.695 127.236 129.863 127.402C130.032 127.568 130.116 127.817 129.948 127.983L123.199 137.364C123.114 137.53 122.945 137.53 122.861 137.53Z" fill="black"/>
<path d="M120.752 136.451C120.583 136.451 120.414 136.368 120.33 136.202L117.715 129.311C117.63 129.062 117.715 128.896 117.968 128.813C118.221 128.73 118.39 128.813 118.474 129.062L121.089 135.953C121.174 136.202 121.089 136.368 120.836 136.451C120.836 136.451 120.836 136.451 120.752 136.451Z" fill="black"/>
<path d="M104.47 119.184C104.385 119.184 104.217 119.101 104.132 119.018C103.964 118.852 103.964 118.603 104.132 118.437L112.484 111.048C112.653 110.882 112.906 110.882 113.075 111.048C113.244 111.214 113.244 111.463 113.075 111.629L104.807 119.101C104.723 119.184 104.639 119.184 104.47 119.184Z" fill="black"/>
<path d="M107.422 134.957C107.254 134.957 107.085 134.874 107.001 134.708L102.782 123.334C102.698 123.085 102.782 122.919 103.035 122.836C103.289 122.753 103.457 122.836 103.542 123.085L107.76 134.459C107.844 134.708 107.76 134.874 107.507 134.957C107.507 134.957 107.507 134.957 107.422 134.957Z" fill="black"/>
<path d="M110.122 135.372C110.038 135.372 109.953 135.372 109.869 135.289C109.7 135.123 109.616 134.874 109.785 134.708L114.931 128.232C115.1 128.066 115.353 127.983 115.521 128.149C115.69 128.315 115.774 128.564 115.606 128.73L110.46 135.206C110.375 135.289 110.206 135.372 110.122 135.372Z" fill="black"/>
<path d="M131.888 123.5C131.635 123.5 131.466 123.334 131.466 123.168L129.526 106.648C129.526 106.399 129.694 106.233 129.863 106.15C130.116 106.15 130.285 106.316 130.369 106.482L132.31 123.002C132.31 123.251 132.141 123.5 131.888 123.5Z" fill="black"/>
<path d="M129.61 124.081C129.526 124.081 129.357 123.998 129.273 123.915L117.799 111.38C117.63 111.214 117.63 110.965 117.799 110.799C117.968 110.633 118.221 110.633 118.39 110.799L129.863 123.334C130.032 123.5 130.032 123.749 129.863 123.915C129.779 124.081 129.694 124.081 129.61 124.081Z" fill="black"/>
<path d="M98.733 106.067C97.0458 106.067 95.6116 104.739 95.6116 102.995C95.6116 101.252 96.9614 99.9238 98.733 99.9238C100.42 99.9238 101.854 101.252 101.854 102.995C101.854 104.739 100.42 106.067 98.733 106.067ZM98.733 100.837C97.4676 100.837 96.4552 101.833 96.4552 103.078C96.4552 104.324 97.4676 105.32 98.733 105.32C99.9985 105.32 101.011 104.324 101.011 103.078C101.011 101.833 99.9985 100.837 98.733 100.837Z" fill="black"/>
<path d="M118.305 95.6901C116.618 95.6901 115.184 94.3618 115.184 92.6185C115.184 90.9581 116.534 89.5469 118.305 89.5469C119.993 89.5469 121.427 90.8751 121.427 92.6185C121.427 94.3618 119.993 95.6901 118.305 95.6901ZM118.305 90.4601C117.04 90.4601 116.027 91.4562 116.027 92.7015C116.027 93.9467 117.04 94.9429 118.305 94.9429C119.571 94.9429 120.583 93.9467 120.583 92.7015C120.583 91.4562 119.571 90.4601 118.305 90.4601Z" fill="black"/>
<path d="M139.059 98.3465C137.372 98.3465 135.938 97.0183 135.938 95.275C135.938 93.6146 137.287 92.2034 139.059 92.2034C140.831 92.2034 142.18 93.5316 142.18 95.275C142.096 96.9353 140.746 98.3465 139.059 98.3465ZM139.059 93.0335C137.794 93.0335 136.781 94.0297 136.781 95.275C136.781 96.5202 137.794 97.5164 139.059 97.5164C140.324 97.5164 141.337 96.5202 141.337 95.275C141.252 94.0297 140.24 93.0335 139.059 93.0335Z" fill="black"/>
<path d="M151.292 108.391C149.604 108.391 148.17 107.063 148.17 105.32C148.17 103.577 149.52 102.248 151.292 102.248C153.063 102.248 154.413 103.577 154.413 105.32C154.413 107.063 152.979 108.391 151.292 108.391ZM151.292 103.078C150.026 103.078 149.014 104.075 149.014 105.32C149.014 106.565 150.026 107.561 151.292 107.561C152.557 107.561 153.569 106.565 153.569 105.32C153.485 104.075 152.473 103.078 151.292 103.078Z" fill="black"/>
<path d="M159.728 120.761C158.041 120.761 156.606 119.433 156.606 117.689C156.606 116.029 157.956 114.618 159.728 114.618C161.415 114.618 162.849 115.946 162.849 117.689C162.849 119.35 161.415 120.761 159.728 120.761ZM159.728 115.448C158.462 115.448 157.45 116.444 157.45 117.689C157.45 118.935 158.462 119.931 159.728 119.931C160.993 119.931 162.006 118.935 162.006 117.689C162.006 116.444 160.993 115.448 159.728 115.448Z" fill="black"/>
<path d="M155.004 132.964C153.316 132.964 151.882 131.636 151.882 129.893C151.882 128.232 153.232 126.821 155.004 126.821C156.691 126.821 158.125 128.149 158.125 129.893C158.125 131.636 156.775 132.964 155.004 132.964ZM155.004 127.734C153.738 127.734 152.726 128.73 152.726 129.976C152.726 131.221 153.738 132.217 155.004 132.217C156.269 132.217 157.281 131.221 157.281 129.976C157.281 128.73 156.269 127.734 155.004 127.734Z" fill="black"/>
<path d="M141.674 136.451C139.987 136.451 138.553 135.123 138.553 133.379C138.553 131.719 139.903 130.308 141.674 130.308C143.361 130.308 144.796 131.636 144.796 133.379C144.796 135.123 143.446 136.451 141.674 136.451ZM141.674 131.221C140.409 131.221 139.396 132.217 139.396 133.462C139.396 134.708 140.409 135.704 141.674 135.704C142.94 135.704 143.952 134.708 143.952 133.462C143.952 132.217 142.94 131.221 141.674 131.221Z" fill="black"/>
<path d="M108.013 140.187C106.326 140.187 104.892 138.858 104.892 137.115C104.892 135.455 106.241 134.043 108.013 134.043C109.7 134.043 111.135 135.372 111.135 137.115C111.05 138.858 109.7 140.187 108.013 140.187ZM108.013 134.957C106.748 134.957 105.735 135.953 105.735 137.198C105.735 138.443 106.748 139.439 108.013 139.439C109.279 139.439 110.291 138.443 110.291 137.198C110.207 135.953 109.194 134.957 108.013 134.957Z" fill="black"/>
<path d="M121.005 142.262C119.318 142.262 117.884 140.934 117.884 139.19C117.884 137.53 119.233 136.119 121.005 136.119C122.692 136.119 124.126 137.447 124.126 139.19C124.042 140.851 122.692 142.262 121.005 142.262ZM121.005 137.032C119.74 137.032 118.727 138.028 118.727 139.274C118.727 140.519 119.74 141.515 121.005 141.515C122.27 141.515 123.283 140.519 123.283 139.274C123.198 137.945 122.186 137.032 121.005 137.032Z" fill="black"/>
<path d="M102.361 123.666C100.673 123.666 99.2393 122.338 99.2393 120.595C99.2393 118.934 100.589 117.523 102.361 117.523C104.048 117.523 105.482 118.851 105.482 120.595C105.482 122.338 104.048 123.666 102.361 123.666ZM102.361 118.436C101.095 118.436 100.083 119.433 100.083 120.678C100.083 121.923 101.095 122.919 102.361 122.919C103.626 122.919 104.639 121.923 104.639 120.678C104.639 119.433 103.626 118.436 102.361 118.436Z" fill="black"/>
<path d="M143.783 117.191C142.096 117.191 140.662 115.863 140.662 114.12C140.662 112.459 142.011 111.048 143.783 111.048C145.47 111.048 146.905 112.376 146.905 114.12C146.905 115.863 145.47 117.191 143.783 117.191ZM143.783 111.961C142.518 111.961 141.505 112.957 141.505 114.203C141.505 115.448 142.518 116.444 143.783 116.444C145.049 116.444 146.061 115.448 146.061 114.203C146.061 112.957 145.049 111.961 143.783 111.961Z" fill="black"/>
<path d="M115.268 112.542C112.822 112.542 110.797 110.55 110.797 108.143C110.797 105.735 112.822 103.743 115.268 103.743C117.715 103.743 119.74 105.735 119.74 108.143C119.655 110.633 117.715 112.542 115.268 112.542ZM115.268 104.656C113.328 104.656 111.641 106.233 111.641 108.226C111.641 110.135 113.244 111.795 115.268 111.795C117.209 111.795 118.896 110.218 118.896 108.226C118.812 106.233 117.209 104.656 115.268 104.656Z" fill="black"/>
<path d="M117.209 129.727C115.521 129.727 114.087 128.398 114.087 126.655C114.087 124.995 115.437 123.583 117.209 123.583C118.896 123.583 120.33 124.912 120.33 126.655C120.33 128.315 118.896 129.727 117.209 129.727ZM117.209 124.414C115.943 124.414 114.931 125.41 114.931 126.655C114.931 127.9 115.943 128.897 117.209 128.897C118.474 128.897 119.486 127.9 119.486 126.655C119.486 125.41 118.474 124.414 117.209 124.414Z" fill="black"/>
<path d="M129.863 106.731C128.176 106.731 126.742 105.403 126.742 103.659C126.742 101.999 128.092 100.588 129.863 100.588C131.55 100.588 132.985 101.916 132.985 103.659C132.985 105.32 131.635 106.731 129.863 106.731ZM129.863 101.418C128.598 101.418 127.585 102.414 127.585 103.659C127.585 104.905 128.598 105.901 129.863 105.901C131.129 105.901 132.141 104.905 132.141 103.659C132.141 102.414 131.129 101.418 129.863 101.418Z" fill="black"/>
<path d="M131.888 128.813C130.201 128.813 128.766 127.485 128.766 125.742C128.766 124.081 130.116 122.67 131.888 122.67C133.659 122.67 135.009 123.998 135.009 125.742C134.925 127.402 133.575 128.813 131.888 128.813ZM131.888 123.5C130.622 123.5 129.61 124.497 129.61 125.742C129.61 126.987 130.622 127.983 131.888 127.983C133.153 127.983 134.166 126.987 134.166 125.742C134.081 124.497 133.069 123.5 131.888 123.5Z" fill="black"/>
<path d="M132.394 143.258C130.369 143.258 128.766 141.681 128.766 139.689C128.766 137.696 130.369 136.119 132.394 136.119C134.419 136.119 136.022 137.696 136.022 139.689C136.022 141.598 134.419 143.258 132.394 143.258ZM132.394 136.949C130.875 136.949 129.61 138.194 129.61 139.689C129.61 141.183 130.875 142.428 132.394 142.428C133.913 142.428 135.178 141.183 135.178 139.689C135.178 138.194 133.913 136.949 132.394 136.949Z" fill="black"/>
<path d="M81.8603 150.564C81.6916 150.564 81.5228 150.398 81.5228 150.232V148.737C81.101 148.571 80.5948 148.405 80.2574 148.239L79.1606 149.318C79.0763 149.401 78.9919 149.401 78.9076 149.401C78.8232 149.401 78.7388 149.401 78.6545 149.318L76.461 147.243C76.3766 147.16 76.3766 147.077 76.3766 146.994C76.3766 146.911 76.3766 146.828 76.461 146.745L77.5577 145.666C77.3046 145.251 77.1359 144.835 77.0516 144.42H75.533C75.4486 144.42 75.3643 144.42 75.2799 144.337C75.1956 144.254 75.1956 144.171 75.1956 144.088V141.183C75.1956 141.017 75.3643 140.851 75.533 140.851H77.0516C77.2203 140.436 77.389 139.938 77.5577 139.605L76.461 138.526C76.3766 138.443 76.3766 138.36 76.3766 138.277C76.3766 138.194 76.3766 138.111 76.461 138.028L78.5701 135.953C78.6545 135.87 78.7388 135.87 78.8232 135.87C78.9076 135.87 78.9919 135.87 79.0763 135.953L80.173 137.032C80.5948 136.783 81.0166 136.617 81.4385 136.534V135.04C81.4385 134.957 81.4385 134.874 81.5228 134.791C81.6072 134.708 81.6916 134.708 81.7759 134.708H84.7286C84.813 134.708 84.8974 134.791 84.9817 134.791C85.0661 134.874 85.0661 134.957 85.0661 135.04V136.534C85.4879 136.7 85.9941 136.866 86.3316 137.032L87.4283 135.953C87.5126 135.87 87.597 135.87 87.6814 135.87C87.7657 135.87 87.8501 135.87 87.9345 135.953L90.0436 138.028C90.2123 138.194 90.2123 138.443 90.0436 138.526L88.9468 139.605C89.1999 140.021 89.3686 140.436 89.453 140.851H90.9716C91.1403 140.851 91.309 141.017 91.309 141.183V144.088C91.309 144.171 91.309 144.254 91.2246 144.337C91.1403 144.42 91.0559 144.42 90.9716 144.42H89.453C89.2843 144.835 89.1156 145.334 88.9468 145.666L90.0436 146.745C90.1279 146.828 90.1279 146.911 90.1279 146.994C90.1279 147.077 90.1279 147.16 90.0436 147.243L87.9345 149.318C87.7657 149.484 87.5126 149.484 87.4283 149.318L86.3316 148.239C85.9097 148.488 85.4879 148.654 85.0661 148.737V150.232C85.0661 150.315 85.0661 150.398 84.9817 150.481C84.9817 150.564 84.8974 150.564 84.813 150.564H81.8603ZM80.0886 147.326C80.173 147.326 80.2574 147.326 80.2574 147.409C80.7636 147.741 81.3541 147.907 81.8603 148.073C82.029 148.073 82.1134 148.239 82.1134 148.405V149.816H84.3068V148.405C84.3068 148.239 84.3912 148.073 84.5599 148.073C85.1505 147.907 85.6566 147.741 86.1628 147.409C86.3316 147.326 86.5003 147.326 86.5846 147.492L87.597 148.488L89.1156 146.994L88.1032 145.998C88.0188 145.915 87.9345 145.666 88.0188 145.583C88.3563 145.085 88.525 144.503 88.6937 144.005C88.6937 143.839 88.8625 143.756 89.0312 143.756H90.4654V141.598H89.0312C88.8625 141.598 88.6937 141.515 88.6937 141.349C88.525 140.768 88.3563 140.27 88.0188 139.771C87.9345 139.605 87.9345 139.439 88.1032 139.356L89.1156 138.36L87.597 136.866L86.5846 137.862C86.5003 137.945 86.2472 138.028 86.1628 137.945C85.6566 137.613 85.0661 137.447 84.5599 137.281C84.3912 137.281 84.3068 137.115 84.3068 136.949V135.538H82.1134V136.949C82.1134 137.115 82.029 137.281 81.8603 137.281C81.2697 137.447 80.7636 137.613 80.2574 137.945C80.0886 138.028 79.9199 138.028 79.8356 137.862L78.8232 136.866L77.2203 138.111L78.2326 139.107C78.317 139.19 78.4014 139.439 78.317 139.522C77.9796 140.021 77.8108 140.602 77.6421 141.1C77.6421 141.266 77.4734 141.349 77.3046 141.349H75.8705V143.507H77.3046C77.4734 143.507 77.6421 143.59 77.6421 143.756C77.8108 144.337 77.9796 144.835 78.317 145.334C78.4014 145.5 78.4014 145.666 78.2326 145.749L77.2203 146.745L78.7388 148.239L79.7512 147.243C79.9199 147.409 80.0043 147.326 80.0886 147.326ZM83.2945 147.575C80.4261 147.575 78.1483 145.334 78.0639 142.511C78.0639 141.183 78.5701 139.855 79.5825 138.941C80.5948 137.945 81.8603 137.447 83.2101 137.447C86.0785 137.447 88.3563 139.688 88.4406 142.511C88.4406 145.251 86.1628 147.575 83.2945 147.575ZM83.2945 138.194C80.8479 138.194 78.9076 140.187 78.9076 142.594C78.9076 145.002 80.9323 146.911 83.2945 146.911C84.4756 146.911 85.5723 146.413 86.4159 145.583C87.2596 144.752 87.6814 143.673 87.6814 142.511C87.6814 140.104 85.741 138.194 83.2945 138.194Z" fill="white"/>
<path d="M169.936 113.04C169.767 113.04 169.599 112.874 169.599 112.708V111.629C169.261 111.546 169.008 111.463 168.755 111.297L167.996 112.044C167.911 112.127 167.827 112.127 167.743 112.127C167.658 112.127 167.574 112.127 167.49 112.044L165.887 110.55C165.802 110.467 165.802 110.384 165.802 110.301C165.802 110.218 165.802 110.135 165.887 110.052L166.646 109.305C166.477 109.055 166.393 108.723 166.308 108.474H165.212C165.127 108.474 165.043 108.474 164.959 108.391C164.874 108.308 164.874 108.225 164.874 108.142V105.984C164.874 105.818 165.043 105.652 165.212 105.652H166.308C166.393 105.32 166.477 105.071 166.646 104.822L165.887 104.075C165.802 103.992 165.802 103.908 165.802 103.825C165.802 103.742 165.802 103.659 165.887 103.576L167.405 101.999C167.49 101.916 167.574 101.916 167.658 101.916C167.743 101.916 167.827 101.916 167.911 101.999L168.671 102.746C168.924 102.58 169.261 102.497 169.514 102.414V101.335C169.514 101.169 169.683 101.003 169.852 101.003H172.045C172.045 101.003 172.214 101.003 172.298 101.086C172.383 101.169 172.383 101.252 172.383 101.335V102.414C172.72 102.497 172.973 102.58 173.226 102.746L173.986 101.999C174.154 101.833 174.407 101.833 174.492 101.999L176.095 103.493C176.263 103.659 176.263 103.908 176.095 103.992L175.335 104.739C175.504 104.988 175.588 105.32 175.673 105.569H176.77C176.854 105.569 176.938 105.569 176.938 105.652C177.023 105.735 177.023 105.818 177.023 105.901V108.059C177.023 108.142 177.023 108.225 176.938 108.308C176.854 108.391 176.77 108.391 176.685 108.391H175.588C175.504 108.723 175.42 108.972 175.251 109.222L176.01 109.969C176.179 110.135 176.179 110.384 176.01 110.467L174.492 112.044C174.407 112.127 174.323 112.127 174.239 112.127C174.154 112.127 174.07 112.127 173.986 112.044L173.226 111.297C172.973 111.463 172.636 111.546 172.383 111.629V112.708C172.383 112.791 172.383 112.874 172.298 112.957C172.214 113.04 172.13 113.04 172.045 113.04H169.936ZM168.586 110.467C168.671 110.467 168.755 110.467 168.755 110.55C169.092 110.799 169.514 110.965 169.936 111.048C170.105 111.048 170.189 111.214 170.189 111.38V112.376H171.623V111.38C171.623 111.214 171.708 111.048 171.876 111.048C172.298 110.965 172.72 110.799 173.058 110.55C173.226 110.467 173.395 110.467 173.479 110.633L174.154 111.297L175.167 110.301L174.492 109.637C174.407 109.554 174.323 109.305 174.407 109.222C174.66 108.889 174.829 108.474 174.914 108.059C174.914 107.893 175.082 107.81 175.251 107.81H176.263V106.399H175.251C175.082 106.399 174.914 106.316 174.914 106.15C174.829 105.735 174.66 105.32 174.407 104.988C174.323 104.822 174.323 104.656 174.492 104.573L175.167 103.908L174.154 102.912L173.479 103.576C173.395 103.659 173.142 103.742 173.058 103.659C172.72 103.41 172.298 103.244 171.876 103.161C171.708 103.161 171.623 102.995 171.623 102.829V101.833H170.189V102.829C170.189 102.995 170.105 103.161 169.936 103.161C169.514 103.244 169.092 103.41 168.755 103.659C168.586 103.742 168.418 103.742 168.333 103.576L167.658 102.912L166.646 103.908L167.321 104.573C167.405 104.656 167.49 104.905 167.405 104.988C167.152 105.32 166.983 105.735 166.899 106.15C166.899 106.316 166.73 106.399 166.562 106.399H165.549V107.81H166.562C166.73 107.81 166.899 107.893 166.899 108.059C166.983 108.474 167.152 108.889 167.405 109.222C167.49 109.388 167.49 109.554 167.321 109.637L166.646 110.301L167.658 111.297L168.333 110.633C168.418 110.467 168.502 110.467 168.586 110.467ZM170.948 110.799C169.936 110.799 168.924 110.384 168.164 109.637C167.405 108.889 166.983 107.893 166.983 106.897C166.983 105.818 167.405 104.905 168.164 104.158C168.924 103.41 169.936 102.995 170.948 102.995C171.961 102.995 172.973 103.41 173.732 104.158C175.251 105.652 175.335 108.142 173.732 109.72C173.058 110.384 172.045 110.799 170.948 110.799ZM170.948 103.742C170.105 103.742 169.261 104.075 168.671 104.656C168.08 105.237 167.743 106.067 167.743 106.897C167.743 107.727 168.08 108.557 168.671 109.138C169.261 109.72 170.105 110.052 170.948 110.052C171.792 110.052 172.636 109.72 173.226 109.138C174.492 107.893 174.492 105.901 173.226 104.656C172.636 104.075 171.792 103.742 170.948 103.742Z" fill="white"/>
<path d="M170.948 108.807C169.852 108.807 169.008 107.976 169.008 106.897C169.008 105.818 169.852 104.988 170.948 104.988C172.045 104.988 172.889 105.818 172.889 106.897C172.889 107.976 172.045 108.807 170.948 108.807ZM170.948 105.403C170.105 105.403 169.43 106.067 169.43 106.897C169.43 107.727 170.105 108.391 170.948 108.391C171.792 108.391 172.467 107.727 172.467 106.897C172.467 106.067 171.792 105.403 170.948 105.403Z" fill="white"/>
<path d="M136.697 169.823H112.4V179.453H136.697V169.823Z" fill="#ABEC6C"/>
<path d="M136.697 179.951C136.444 179.951 136.275 179.785 136.275 179.536V170.321H112.822V179.536C112.822 179.785 112.653 179.951 112.4 179.951C112.147 179.951 111.978 179.785 111.978 179.536V169.906C111.978 169.657 112.147 169.491 112.4 169.491H136.697C136.95 169.491 137.119 169.657 137.119 169.906V179.536C137.119 179.702 136.866 179.951 136.697 179.951Z" fill="#231F20"/>
<path d="M136.697 179.536H112.4L95.3587 182.94C92.406 184.766 94.1776 189.083 97.6365 188.585L123.958 186.177C124.295 186.094 124.633 186.094 124.97 186.177L151.292 188.585C154.751 189.083 156.522 184.766 153.57 182.94L136.697 179.536Z" fill="#ABEC6C"/>
<path d="M97.0459 189C95.3587 189 94.1776 187.921 93.6714 186.676C93.1652 185.347 93.4183 183.604 95.1056 182.525C95.1899 182.525 95.1899 182.442 95.2743 182.442L112.316 179.038H112.4H136.697H136.781L153.654 182.442C153.738 182.442 153.738 182.442 153.823 182.525C155.51 183.604 155.763 185.347 155.257 186.676C154.751 188.004 153.316 189.249 151.207 188.917L124.97 186.51C124.633 186.427 124.38 186.427 124.042 186.51L97.7208 188.917C97.4677 189 97.2147 189 97.0459 189ZM95.5274 183.272C94.1776 184.102 94.0932 185.43 94.4307 186.344C94.8525 187.423 95.9492 188.336 97.5521 188.087L123.874 185.679C124.211 185.596 124.633 185.596 124.97 185.679L151.207 188.087C152.81 188.336 153.907 187.423 154.329 186.344C154.666 185.43 154.582 184.102 153.232 183.272L136.528 179.868H112.4L95.5274 183.272Z" fill="#231F20"/>
<path d="M128.682 165.257H121.765C120.921 165.257 120.162 164.593 120.162 163.68C120.162 162.85 120.837 162.103 121.765 162.103H128.682C129.526 162.103 130.285 162.767 130.285 163.68C130.285 164.51 129.526 165.257 128.682 165.257Z" fill="#F85453"/>
<path d="M128.682 165.673H121.764C120.668 165.673 119.74 164.759 119.74 163.68C119.74 162.601 120.668 161.688 121.764 161.688H128.682C129.779 161.688 130.707 162.601 130.707 163.68C130.707 164.759 129.779 165.673 128.682 165.673ZM121.764 162.518C121.09 162.518 120.583 163.016 120.583 163.68C120.583 164.344 121.09 164.842 121.764 164.842H128.682C129.357 164.842 129.863 164.344 129.863 163.68C129.863 163.016 129.357 162.518 128.682 162.518H121.764Z" fill="#FFABAB"/>
</svg>
