<svg width="247" height="254" viewBox="0 0 247 254" fill="none" xmlns="http://www.w3.org/2000/svg">
<rect width="247" height="254" fill="#131313"/>
<path d="M123.5 205.726C165.197 205.726 199 171.66 199 129.636C199 87.613 165.197 53.5464 123.5 53.5464C81.8025 53.5464 48 87.613 48 129.636C48 171.66 81.8025 205.726 123.5 205.726Z" fill="#1B1B1B"/>
<g clip-path="url(#clip0)">
<path d="M165.359 72.4919L69.4968 83.3508L81.6305 190.467L177.493 179.608L165.359 72.4919Z" fill="#ABEC6C"/>
<path d="M171.733 77.5791H75.2571V185.38H171.733V77.5791Z" fill="white"/>
<path d="M151.262 93.9104H94.8486V100.681H151.262V93.9104Z" fill="#ABEC6C"/>
<path d="M107.839 97.4845H112.902V98.6367H106.422V87.9512H107.839V97.4845Z" fill="#F85453"/>
<path d="M122.245 93.6389C122.245 94.6859 122.069 95.6008 121.716 96.3836C121.364 97.1616 120.865 97.756 120.219 98.167C119.573 98.578 118.82 98.7835 117.959 98.7835C117.117 98.7835 116.371 98.578 115.721 98.167C115.07 97.7511 114.563 97.1616 114.201 96.3983C113.844 95.6302 113.661 94.7422 113.651 93.7343V92.9637C113.651 91.9363 113.83 91.0287 114.187 90.241C114.544 89.4533 115.048 88.8515 115.699 88.4356C116.354 88.0148 117.103 87.8044 117.944 87.8044C118.8 87.8044 119.554 88.0124 120.205 88.4283C120.86 88.8392 121.364 89.4386 121.716 90.2263C122.069 91.0091 122.245 91.9216 122.245 92.9637V93.6389ZM120.843 92.949C120.843 91.6818 120.589 90.7107 120.08 90.0355C119.571 89.3554 118.859 89.0154 117.944 89.0154C117.054 89.0154 116.352 89.3554 115.838 90.0355C115.329 90.7107 115.067 91.65 115.053 92.8536V93.6389C115.053 94.8669 115.31 95.8332 115.823 96.5378C116.342 97.2374 117.054 97.5872 117.959 97.5872C118.869 97.5872 119.573 97.257 120.073 96.5965C120.572 95.9311 120.828 94.9795 120.843 93.7416V92.949Z" fill="#F85453"/>
<path d="M131.536 89.1108H128.101V98.6367H126.7V89.1108H123.272V87.9512H131.536V89.1108Z" fill="#F85453"/>
<path d="M141.135 93.6389C141.135 94.6859 140.959 95.6008 140.607 96.3836C140.255 97.1616 139.756 97.756 139.11 98.167C138.464 98.578 137.71 98.7835 136.849 98.7835C136.008 98.7835 135.262 98.578 134.611 98.167C133.96 97.7511 133.454 97.1616 133.092 96.3983C132.735 95.6302 132.551 94.7422 132.541 93.7343V92.9637C132.541 91.9363 132.72 91.0287 133.077 90.241C133.434 89.4533 133.938 88.8515 134.589 88.4356C135.245 88.0148 135.993 87.8044 136.835 87.8044C137.691 87.8044 138.444 88.0124 139.095 88.4283C139.751 88.8392 140.255 89.4386 140.607 90.2263C140.959 91.0091 141.135 91.9216 141.135 92.9637V93.6389ZM139.733 92.949C139.733 91.6818 139.479 90.7107 138.97 90.0355C138.461 89.3554 137.75 89.0154 136.835 89.0154C135.944 89.0154 135.242 89.3554 134.728 90.0355C134.22 90.7107 133.958 91.65 133.943 92.8536V93.6389C133.943 94.8669 134.2 95.8332 134.714 96.5378C135.232 97.2374 135.944 97.5872 136.849 97.5872C137.759 97.5872 138.464 97.257 138.963 96.5965C139.462 95.9311 139.719 94.9795 139.733 93.7416V92.949Z" fill="#F85453"/>
<path d="M166.117 179.387H83.7857C83.6244 179.387 83.4934 179.256 83.4934 179.094C83.4934 178.932 83.6244 178.801 83.7857 178.801H165.825V84.1579H81.1848V165.289C81.1848 165.451 81.0537 165.582 80.8924 165.582C80.7312 165.582 80.6001 165.451 80.6001 165.289V83.8649C80.6001 83.7032 80.7312 83.5718 80.8924 83.5718H166.117C166.279 83.5718 166.41 83.7032 166.41 83.8649V179.094C166.41 179.256 166.279 179.387 166.117 179.387Z" fill="black"/>
<path d="M95.1772 105.947H90.3887V110.747H95.1772V105.947Z" fill="#5CC560"/>
<path d="M103.05 105.947H98.262V110.747H103.05V105.947Z" fill="#5CC560"/>
<path d="M110.914 105.947H106.125V110.747H110.914V105.947Z" fill="#5CC560"/>
<path d="M118.787 105.947H113.999V110.747H118.787V105.947Z" fill="#5CC560"/>
<path d="M95.1772 113.87H90.3887V118.67H95.1772V113.87Z" fill="#5CC560"/>
<path d="M103.05 113.87H98.262V118.67H103.05V113.87Z" fill="#5CC560"/>
<path d="M110.914 113.87H106.125V118.67H110.914V113.87Z" fill="#5CC560"/>
<path d="M118.787 113.87H113.999V118.67H118.787V113.87Z" fill="#5CC560"/>
<path d="M95.1772 121.793H90.3887V126.593H95.1772V121.793Z" fill="#5CC560"/>
<path d="M103.05 121.793H98.262V126.593H103.05V121.793Z" fill="#5CC560"/>
<path d="M110.914 121.793H106.125V126.593H110.914V121.793Z" fill="#5CC560"/>
<path d="M118.787 121.793H113.999V126.593H118.787V121.793Z" fill="#5CC560"/>
<path d="M95.1772 129.716H90.3887V134.516H95.1772V129.716Z" fill="#5CC560"/>
<path d="M103.05 129.716H98.262V134.516H103.05V129.716Z" fill="#5CC560"/>
<path d="M110.914 129.716H106.125V134.516H110.914V129.716Z" fill="#5CC560"/>
<path d="M118.787 129.716H113.999V134.516H118.787V129.716Z" fill="#5CC560"/>
<path d="M133.001 105.947H128.213V110.747H133.001V105.947Z" fill="#5CC560"/>
<path d="M140.874 105.947H136.086V110.747H140.874V105.947Z" fill="#5CC560"/>
<path d="M148.738 105.947H143.949V110.747H148.738V105.947Z" fill="#5CC560"/>
<path d="M156.601 105.947H151.812V110.747H156.601V105.947Z" fill="#5CC560"/>
<path d="M133.001 113.87H128.213V118.67H133.001V113.87Z" fill="#5CC560"/>
<path d="M140.874 113.87H136.086V118.67H140.874V113.87Z" fill="#5CC560"/>
<path d="M148.738 113.87H143.949V118.67H148.738V113.87Z" fill="#5CC560"/>
<path d="M156.601 113.87H151.812V118.67H156.601V113.87Z" fill="#5CC560"/>
<path d="M133.001 121.793H128.213V126.593H133.001V121.793Z" fill="#5CC560"/>
<path d="M140.874 121.793H136.086V126.593H140.874V121.793Z" fill="#5CC560"/>
<path d="M148.738 121.793H143.949V126.593H148.738V121.793Z" fill="#5CC560"/>
<path d="M156.601 121.793H151.812V126.593H156.601V121.793Z" fill="#5CC560"/>
<path d="M133.001 129.716H128.213V134.516H133.001V129.716Z" fill="#5CC560"/>
<path d="M140.874 129.716H136.086V134.516H140.874V129.716Z" fill="#5CC560"/>
<path d="M148.738 129.716H143.949V134.516H148.738V129.716Z" fill="#5CC560"/>
<path d="M156.601 129.716H151.812V134.516H156.601V129.716Z" fill="#5CC560"/>
<path d="M95.1772 143.48H90.3887V148.281H95.1772V143.48Z" fill="#5CC560"/>
<path d="M103.05 143.48H98.262V148.281H103.05V143.48Z" fill="#5CC560"/>
<path d="M110.914 143.48H106.125V148.281H110.914V143.48Z" fill="#5CC560"/>
<path d="M118.787 143.48H113.999V148.281H118.787V143.48Z" fill="#5CC560"/>
<path d="M95.1772 151.403H90.3887V156.204H95.1772V151.403Z" fill="#5CC560"/>
<path d="M103.05 151.403H98.262V156.204H103.05V151.403Z" fill="#5CC560"/>
<path d="M110.914 151.403H106.125V156.204H110.914V151.403Z" fill="#5CC560"/>
<path d="M118.787 151.403H113.999V156.204H118.787V151.403Z" fill="#5CC560"/>
<path d="M95.1772 159.316H90.3887V164.117H95.1772V159.316Z" fill="#5CC560"/>
<path d="M103.05 159.316H98.262V164.117H103.05V159.316Z" fill="#5CC560"/>
<path d="M110.914 159.316H106.125V164.117H110.914V159.316Z" fill="#5CC560"/>
<path d="M118.787 159.316H113.999V164.117H118.787V159.316Z" fill="#5CC560"/>
<path d="M95.1772 167.24H90.3887V172.04H95.1772V167.24Z" fill="#5CC560"/>
<path d="M103.05 167.24H98.262V172.04H103.05V167.24Z" fill="#5CC560"/>
<path d="M110.914 167.24H106.125V172.04H110.914V167.24Z" fill="#5CC560"/>
<path d="M118.787 167.24H113.999V172.04H118.787V167.24Z" fill="#5CC560"/>
<path d="M133.001 143.48H128.213V148.281H133.001V143.48Z" fill="#5CC560"/>
<path d="M140.874 143.48H136.086V148.281H140.874V143.48Z" fill="#5CC560"/>
<path d="M148.738 143.48H143.949V148.281H148.738V143.48Z" fill="#5CC560"/>
<path d="M156.601 143.48H151.812V148.281H156.601V143.48Z" fill="#5CC560"/>
<path d="M133.001 151.403H128.213V156.204H133.001V151.403Z" fill="#5CC560"/>
<path d="M140.874 151.403H136.086V156.204H140.874V151.403Z" fill="#5CC560"/>
<path d="M148.738 151.403H143.949V156.204H148.738V151.403Z" fill="#5CC560"/>
<path d="M156.601 151.403H151.812V156.204H156.601V151.403Z" fill="#5CC560"/>
<path d="M133.001 159.316H128.213V164.117H133.001V159.316Z" fill="#5CC560"/>
<path d="M140.874 159.316H136.086V164.117H140.874V159.316Z" fill="#5CC560"/>
<path d="M148.738 159.316H143.949V164.117H148.738V159.316Z" fill="#5CC560"/>
<path d="M156.601 159.316H151.812V164.117H156.601V159.316Z" fill="#5CC560"/>
<path d="M133.001 167.24H128.213V172.04H133.001V167.24Z" fill="#5CC560"/>
<path d="M140.874 167.24H136.086V172.04H140.874V167.24Z" fill="#5CC560"/>
<path d="M148.738 167.24H143.949V172.04H148.738V167.24Z" fill="#5CC560"/>
<path d="M156.601 167.24H151.812V172.04H156.601V167.24Z" fill="#5CC560"/>
<path d="M109.644 155.274C109.563 155.274 109.492 155.244 109.432 155.183L107.184 152.839C107.073 152.717 107.073 152.535 107.194 152.424C107.315 152.313 107.496 152.313 107.607 152.434L109.855 154.779C109.966 154.9 109.966 155.082 109.845 155.193C109.795 155.244 109.714 155.274 109.644 155.274Z" fill="white"/>
<path d="M107.355 155.223C107.275 155.223 107.204 155.193 107.143 155.132C107.033 155.011 107.033 154.829 107.154 154.718L109.492 152.464C109.613 152.353 109.795 152.353 109.906 152.474C110.017 152.596 110.017 152.778 109.896 152.889L107.557 155.142C107.496 155.193 107.426 155.223 107.355 155.223Z" fill="white"/>
<path d="M139.604 163.197C139.524 163.197 139.453 163.167 139.393 163.106L137.144 160.762C137.034 160.64 137.034 160.458 137.155 160.347C137.276 160.236 137.457 160.236 137.568 160.357L139.816 162.702C139.927 162.823 139.927 163.005 139.806 163.116C139.745 163.167 139.675 163.197 139.604 163.197Z" fill="white"/>
<path d="M137.306 163.146C137.225 163.146 137.155 163.116 137.094 163.056C136.983 162.934 136.983 162.752 137.104 162.641L139.443 160.388C139.564 160.276 139.745 160.276 139.856 160.398C139.967 160.519 139.967 160.701 139.846 160.812L137.507 163.066C137.447 163.116 137.376 163.146 137.306 163.146Z" fill="white"/>
<path d="M155.331 163.197C155.25 163.197 155.18 163.167 155.119 163.106L152.871 160.762C152.76 160.64 152.76 160.458 152.881 160.347C153.002 160.236 153.184 160.236 153.294 160.357L155.542 162.702C155.653 162.823 155.653 163.005 155.532 163.116C155.482 163.167 155.411 163.197 155.331 163.197Z" fill="white"/>
<path d="M153.042 163.146C152.962 163.146 152.891 163.116 152.831 163.056C152.72 162.934 152.72 162.752 152.841 162.641L155.18 160.388C155.301 160.276 155.482 160.276 155.593 160.398C155.704 160.519 155.704 160.701 155.583 160.812L153.244 163.066C153.184 163.116 153.113 163.146 153.042 163.146Z" fill="white"/>
<path d="M117.517 147.351C117.436 147.351 117.365 147.321 117.305 147.26L115.057 144.915C114.946 144.794 114.946 144.612 115.067 144.501C115.188 144.39 115.369 144.39 115.48 144.511L117.728 146.856C117.839 146.977 117.839 147.159 117.718 147.27C117.658 147.321 117.587 147.351 117.517 147.351Z" fill="white"/>
<path d="M115.218 147.301C115.138 147.301 115.067 147.27 115.007 147.21C114.896 147.088 114.896 146.906 115.017 146.795L117.355 144.542C117.476 144.43 117.658 144.43 117.769 144.552C117.88 144.673 117.88 144.855 117.759 144.966L115.42 147.22C115.369 147.27 115.289 147.301 115.218 147.301Z" fill="white"/>
<path d="M131.731 125.663C131.65 125.663 131.58 125.633 131.519 125.573L129.271 123.228C129.16 123.107 129.16 122.925 129.281 122.814C129.402 122.702 129.584 122.702 129.695 122.824L131.943 125.168C132.054 125.29 132.054 125.471 131.933 125.583C131.882 125.633 131.801 125.663 131.731 125.663Z" fill="white"/>
<path d="M129.433 125.613C129.352 125.613 129.281 125.583 129.221 125.522C129.11 125.401 129.11 125.219 129.231 125.108L131.57 122.854C131.691 122.743 131.872 122.743 131.983 122.864C132.094 122.986 132.094 123.167 131.973 123.279L129.634 125.532C129.584 125.593 129.513 125.613 129.433 125.613Z" fill="white"/>
<path d="M131.731 133.586C131.65 133.586 131.58 133.556 131.519 133.495L129.271 131.151C129.16 131.03 129.16 130.848 129.281 130.736C129.402 130.625 129.584 130.625 129.695 130.747L131.943 133.091C132.054 133.212 132.054 133.394 131.933 133.506C131.882 133.556 131.801 133.586 131.731 133.586Z" fill="white"/>
<path d="M129.433 133.535C129.352 133.535 129.281 133.505 129.221 133.444C129.11 133.323 129.11 133.141 129.231 133.03L131.57 130.776C131.691 130.665 131.872 130.665 131.983 130.786C132.094 130.908 132.094 131.09 131.973 131.201L129.634 133.454C129.584 133.515 129.513 133.535 129.433 133.535Z" fill="white"/>
<path d="M131.731 117.74C131.65 117.74 131.58 117.71 131.519 117.649L129.271 115.305C129.16 115.183 129.16 115.001 129.281 114.89C129.402 114.779 129.584 114.779 129.695 114.9L131.943 117.245C132.054 117.366 132.054 117.548 131.933 117.659C131.882 117.72 131.801 117.74 131.731 117.74Z" fill="white"/>
<path d="M129.433 117.69C129.352 117.69 129.281 117.659 129.221 117.599C129.11 117.478 129.11 117.296 129.231 117.184L131.57 114.931C131.691 114.82 131.872 114.82 131.983 114.941C132.094 115.062 132.094 115.244 131.973 115.355L129.644 117.609C129.584 117.67 129.513 117.69 129.433 117.69Z" fill="white"/>
<path d="M131.731 109.817C131.65 109.817 131.58 109.787 131.519 109.726L129.271 107.382C129.16 107.26 129.16 107.078 129.281 106.967C129.402 106.856 129.584 106.856 129.695 106.977L131.943 109.322C132.054 109.443 132.054 109.625 131.933 109.736C131.882 109.797 131.801 109.817 131.731 109.817Z" fill="white"/>
<path d="M129.433 109.776C129.352 109.776 129.281 109.746 129.221 109.685C129.11 109.564 129.11 109.382 129.231 109.271L131.57 107.017C131.691 106.906 131.872 106.906 131.983 107.027C132.094 107.148 132.094 107.33 131.973 107.441L129.634 109.695C129.584 109.746 129.513 109.776 129.433 109.776Z" fill="white"/>
<path d="M101.78 117.74C101.7 117.74 101.629 117.71 101.569 117.649L99.3205 115.305C99.2096 115.183 99.2096 115.001 99.3306 114.89C99.4515 114.779 99.633 114.779 99.7439 114.9L101.992 117.245C102.103 117.366 102.103 117.548 101.982 117.659C101.921 117.72 101.851 117.74 101.78 117.74Z" fill="white"/>
<path d="M99.4819 117.69C99.4012 117.69 99.3307 117.659 99.2702 117.599C99.1593 117.478 99.1593 117.296 99.2803 117.184L101.619 114.931C101.74 114.82 101.922 114.82 102.032 114.941C102.143 115.062 102.143 115.244 102.022 115.355L99.6835 117.609C99.6331 117.67 99.5525 117.69 99.4819 117.69Z" fill="white"/>
<path d="M101.78 125.663C101.7 125.663 101.629 125.633 101.569 125.573L99.3205 123.228C99.2096 123.107 99.2096 122.925 99.3306 122.814C99.4515 122.702 99.633 122.702 99.7439 122.824L101.992 125.168C102.103 125.29 102.103 125.471 101.982 125.583C101.921 125.633 101.851 125.663 101.78 125.663Z" fill="white"/>
<path d="M99.4819 125.613C99.4012 125.613 99.3307 125.583 99.2702 125.522C99.1593 125.401 99.1593 125.219 99.2803 125.108L101.619 122.854C101.74 122.743 101.922 122.743 102.032 122.864C102.143 122.986 102.143 123.167 102.022 123.279L99.6835 125.532C99.6331 125.593 99.5525 125.613 99.4819 125.613Z" fill="white"/>
<g clip-path="url(#clip1)">
<path d="M162.988 78.5434C162.927 80.3785 162.541 82.2257 161.779 84H154.016C154.632 83.3681 155.164 82.6146 155.576 81.7639C157.607 77.5591 155.866 72.4914 151.682 70.4497C147.498 68.4202 142.456 70.1702 140.424 74.375C138.828 77.6806 139.566 81.5087 141.972 83.9879H134.209C133.363 81.9827 132.94 79.8073 133.012 77.6077C133.073 75.5539 133.556 73.4757 134.512 71.4948C135.467 69.5261 136.785 67.849 138.357 66.5243C141.307 64.0452 145.116 62.7813 148.961 63.0365C150.848 63.158 152.746 63.6441 154.548 64.5191C156.362 65.4063 157.909 66.5973 159.167 68.0191C161.742 70.8993 163.109 74.691 162.988 78.5434Z" fill="#F85453"/>
<path d="M149.628 86.8199C154.33 85.9486 157.443 81.3825 156.583 76.6212C155.723 71.8598 151.214 68.7063 146.513 69.5775C141.811 70.4487 138.697 75.0149 139.558 79.7762C140.418 84.5376 144.927 87.6911 149.628 86.8199Z" fill="white"/>
<path d="M159.167 68.0069C157.22 68.4565 155.116 68.2621 153.194 67.3263C151.259 66.3784 149.808 64.8471 148.961 63.0364C150.848 63.1579 152.746 63.644 154.548 64.519C156.35 65.394 157.909 66.5971 159.167 68.0069Z" fill="#F85453"/>
<path d="M137.825 73.111C136.797 75.2499 135.044 76.7933 133 77.6075C133.06 75.5537 133.544 73.4634 134.499 71.4947C135.455 69.5259 136.773 67.8488 138.345 66.5242C138.985 68.6388 138.865 70.9721 137.825 73.111Z" fill="#F85453"/>
<path d="M162.988 78.5432C162.927 80.3783 162.54 82.2255 161.779 83.9998H157.764C157.873 83.6717 158.006 83.3557 158.163 83.0397C159.203 80.9009 160.956 79.3574 162.988 78.5432Z" fill="#F85453"/>
<path d="M142.674 76.0277C143.242 74.8367 143.919 74.0832 144.705 73.7429C145.479 73.4027 146.374 73.4877 147.365 73.9617C147.704 74.1318 147.958 74.2777 148.139 74.4113L147.655 75.42C147.438 75.2499 147.208 75.1041 146.978 74.9825C146.543 74.7759 146.156 74.6666 145.829 74.6666C145.491 74.6666 145.189 74.7638 144.935 74.9461C144.669 75.1405 144.415 75.4686 144.161 75.9183L144.209 75.9426C144.705 75.6145 145.249 75.5902 145.842 75.8818C146.374 76.137 146.712 76.5138 146.845 76.9999C146.99 77.486 146.906 78.0207 146.628 78.6162C146.313 79.2603 145.89 79.6735 145.358 79.8679C144.814 80.0624 144.233 80.0138 143.592 79.6978C143.157 79.4791 142.819 79.1874 142.589 78.8228C142.359 78.4582 142.25 78.0329 142.262 77.5589C142.262 77.0971 142.407 76.5745 142.674 76.0277ZM144.04 78.6891C144.306 78.8228 144.56 78.835 144.79 78.7134C145.019 78.6041 145.213 78.3731 145.382 78.045C145.527 77.7534 145.563 77.486 145.515 77.2551C145.467 77.0242 145.297 76.8419 145.031 76.7082C144.777 76.5867 144.511 76.5624 144.258 76.6353C143.992 76.7082 143.81 76.8662 143.701 77.085C143.544 77.4131 143.496 77.7291 143.556 78.0329C143.629 78.3488 143.786 78.5676 144.04 78.6891Z" fill="black"/>
<path d="M152.444 78.1908C152.263 78.5676 151.997 78.8228 151.646 78.9808C151.295 79.1388 150.884 79.1631 150.437 79.0537L150.425 79.078C150.872 79.3697 151.174 79.6978 151.307 80.0502C151.44 80.4026 151.416 80.7794 151.223 81.1804C150.945 81.7516 150.521 82.104 149.953 82.2256C149.385 82.3471 148.708 82.2134 147.934 81.8367C147.281 81.5207 146.761 81.1318 146.374 80.67L146.894 79.5884C147.063 79.8193 147.281 80.0381 147.523 80.2447C147.764 80.4513 148.018 80.6214 148.296 80.7551C148.708 80.9617 149.058 81.0346 149.324 80.986C149.59 80.9374 149.796 80.7551 149.953 80.4513C150.086 80.1717 150.074 79.9165 149.905 79.6856C149.735 79.4547 149.397 79.2238 148.901 78.9808L148.454 78.762L148.925 77.7898L149.385 78.0207C149.844 78.2516 150.219 78.3488 150.485 78.3367C150.763 78.3245 150.969 78.1665 151.102 77.8627C151.319 77.4131 151.15 77.0485 150.582 76.769C150.388 76.6717 150.171 76.611 149.941 76.5745C149.711 76.5381 149.421 76.5502 149.107 76.5867L148.949 75.4322C149.687 75.2985 150.425 75.42 151.186 75.7967C151.803 76.1006 152.226 76.4651 152.468 76.8905C152.649 77.3037 152.649 77.7412 152.444 78.1908Z" fill="black"/>
</g>
<g clip-path="url(#clip2)">
<path d="M182.659 180.986C181.89 182.977 180.728 184.715 179.298 186.129C176.613 188.788 172.995 190.329 169.215 190.404C167.363 190.447 165.468 190.131 163.629 189.414C161.79 188.696 160.182 187.667 158.83 186.394C156.088 183.803 154.434 180.228 154.237 176.468C154.133 174.462 154.435 172.398 155.215 170.402C155.984 168.411 157.145 166.673 158.575 165.259C161.246 162.622 164.874 161.075 168.654 161C170.506 160.957 172.401 161.273 174.24 161.99C176.073 162.698 177.687 163.737 179.039 165.01C181.781 167.601 183.435 171.176 183.632 174.936C183.73 176.932 183.428 178.996 182.659 180.986Z" fill="#F85453"/>
<path d="M161.843 171.458C159.495 175.375 160.766 180.449 164.683 182.792C168.599 185.135 173.678 183.86 176.026 179.943C178.374 176.026 177.102 170.952 173.186 168.609C169.269 166.266 164.191 167.542 161.843 171.458Z" fill="white"/>
<path d="M179.033 164.999C177.171 165.595 175.098 165.588 173.133 164.819C171.164 164.067 169.626 162.684 168.648 160.99C170.5 160.947 172.395 161.263 174.234 161.98C176.067 162.687 177.681 163.726 179.033 164.999Z" fill="#F85453"/>
<path d="M169.215 190.404C167.363 190.446 165.468 190.131 163.629 189.413C161.79 188.696 160.182 187.667 158.83 186.394C160.692 185.798 162.765 185.806 164.73 186.574C166.694 187.342 168.237 188.71 169.215 190.404Z" fill="#F85453"/>
<path d="M158.588 171.712C157.755 173.876 156.168 175.518 154.243 176.479C154.139 174.472 154.441 172.408 155.22 170.412C155.989 168.421 157.151 166.683 158.581 165.269C159.354 167.272 159.427 169.557 158.588 171.712Z" fill="#F85453"/>
<path d="M182.659 180.986C181.89 182.977 180.728 184.715 179.298 186.129C178.515 184.131 178.452 181.84 179.275 179.682C180.114 177.528 181.695 175.876 183.626 174.925C183.73 176.932 183.428 178.995 182.659 180.986Z" fill="#F85453"/>
<path d="M166.835 178.379L162.593 176.75L162.938 175.852L165.06 174.901C165.686 174.608 166.104 174.407 166.32 174.283C166.526 174.164 166.693 174.026 166.813 173.902C166.933 173.778 167.025 173.629 167.085 173.472C167.177 173.227 167.18 173.02 167.096 172.849C167.011 172.679 166.855 172.551 166.626 172.464C166.392 172.366 166.14 172.334 165.881 172.36C165.623 172.386 165.328 172.446 165.005 172.551L164.631 171.453C165.033 171.317 165.352 171.229 165.584 171.204C165.827 171.173 166.061 171.175 166.323 171.202C166.574 171.234 166.85 171.308 167.133 171.418C167.519 171.565 167.823 171.759 168.05 172.011C168.288 172.257 168.438 172.54 168.51 172.854C168.576 173.158 168.542 173.479 168.422 173.794C168.312 174.077 168.161 174.315 167.966 174.523C167.771 174.731 167.528 174.927 167.22 175.105C166.911 175.283 166.409 175.504 165.708 175.786L164.645 176.222L164.621 176.276L167.265 177.296L166.835 178.379Z" fill="black"/>
<path d="M171.154 175.584C171.736 175.809 172.14 176.151 172.369 176.621C172.593 177.08 172.593 177.6 172.361 178.172C172.093 178.847 171.689 179.286 171.127 179.5C170.57 179.699 169.904 179.659 169.126 179.356C168.457 179.099 167.943 178.779 167.612 178.395L168.04 177.286C168.212 177.488 168.43 177.677 168.692 177.868C168.953 178.059 169.211 178.198 169.472 178.294C170.25 178.597 170.765 178.423 171.015 177.786C171.249 177.172 170.966 176.705 170.145 176.399C170.004 176.344 169.826 176.296 169.637 176.255C169.449 176.213 169.298 176.19 169.17 176.182L168.765 175.718L170.187 172.721L173.477 173.983L173.064 175.07L170.899 174.24L170.33 175.389L170.486 175.422C170.683 175.432 170.899 175.498 171.154 175.584Z" fill="black"/>
</g>
</g>
<g clip-path="url(#clip3)">
<path d="M61.702 126.328C62.149 128.553 62.0993 130.766 61.6275 132.841C60.7584 136.739 58.4242 140.172 55.1341 142.397C53.52 143.478 51.6701 144.283 49.6463 144.698C47.6225 145.113 45.6112 145.101 43.7116 144.736C39.8254 143.981 36.3615 141.718 34.077 138.474C32.8602 136.739 31.9663 134.714 31.5193 132.501C31.0723 130.276 31.122 128.063 31.5938 125.988C32.4629 122.09 34.7971 118.657 38.0872 116.432C39.7013 115.351 41.5512 114.546 43.575 114.131C45.5988 113.716 47.6101 113.728 49.5097 114.093C53.3959 114.848 56.8599 117.111 59.1444 120.355C60.3611 122.09 61.255 124.102 61.702 126.328Z" fill="#5CC560"/>
<path d="M48.1642 138.029C52.8657 137.158 55.9795 132.592 55.1193 127.83C54.259 123.069 49.7503 119.915 45.0489 120.786C40.3474 121.658 37.2335 126.224 38.0938 130.985C38.9541 135.747 43.4628 138.9 48.1642 138.029Z" fill="white"/>
<path d="M49.5096 114.08C48.1935 115.677 46.3684 116.834 44.1957 117.274C42.0353 117.714 39.8998 117.362 38.0747 116.407C39.6888 115.325 41.5387 114.521 43.5625 114.106C45.5862 113.703 47.5976 113.716 49.5096 114.08Z" fill="#5CC560"/>
<path d="M55.1215 142.397C53.5074 143.478 51.6575 144.283 49.6337 144.698C47.6099 145.113 45.5986 145.1 43.699 144.736C45.015 143.139 46.8402 141.982 49.0129 141.542C51.1733 141.077 53.3088 141.441 55.1215 142.397Z" fill="#5CC560"/>
<path d="M35.2192 131.722C35.7034 134.124 35.2192 136.513 34.0645 138.462C32.8478 136.726 31.9538 134.702 31.5069 132.489C31.0599 130.263 31.1096 128.05 31.5814 125.976C33.3941 127.308 34.7474 129.32 35.2192 131.722Z" fill="#5CC560"/>
<path d="M61.7018 126.328C62.1488 128.553 62.0991 130.766 61.6273 132.841C59.8146 131.496 58.4613 129.496 57.9895 127.082C57.5053 124.681 57.9895 122.291 59.1442 120.343C60.3609 122.09 61.2548 124.102 61.7018 126.328Z" fill="#5CC560"/>
<path d="M46.1326 131.558L45.3255 131.722L45.5987 133.118L44.2205 133.394L43.9474 131.998L41.1042 132.577L40.9055 131.584L42.9665 126.617L44.2702 126.353L45.1145 130.603L45.9215 130.439L46.1326 131.558ZM43.7363 130.892L43.5128 129.748C43.4756 129.559 43.4259 129.283 43.3763 128.905C43.3142 128.541 43.2893 128.327 43.2893 128.264L43.2521 128.277C43.19 128.553 43.1031 128.83 42.9914 129.094L42.1347 131.219L43.7363 130.892Z" fill="black"/>
<path d="M51.5954 131.91L46.9271 132.866L46.7284 131.873L48.0693 129.811C48.4666 129.194 48.7149 128.767 48.8267 128.541C48.9384 128.314 49.0129 128.1 49.0501 127.924C49.0874 127.736 49.0874 127.56 49.0501 127.371C49.0005 127.095 48.8763 126.919 48.7025 126.805C48.5287 126.705 48.3176 126.68 48.0693 126.73C47.8086 126.78 47.5727 126.893 47.3492 127.069C47.1257 127.245 46.9146 127.459 46.6912 127.736L45.7476 126.969C46.0207 126.617 46.2566 126.365 46.4428 126.202C46.6415 126.038 46.8526 125.9 47.1009 125.787C47.3492 125.674 47.6223 125.586 47.9451 125.523C48.3673 125.435 48.7522 125.435 49.0998 125.523C49.4475 125.611 49.7454 125.774 49.9689 126.013C50.2048 126.252 50.3538 126.554 50.4283 126.906C50.4904 127.22 50.4904 127.522 50.4407 127.811C50.391 128.1 50.2793 128.415 50.1055 128.754C49.9317 129.081 49.6213 129.572 49.1495 130.225L48.4542 131.219L48.4666 131.282L51.3719 130.691L51.5954 131.91Z" fill="black"/>
</g>
<defs>
<clipPath id="clip0">
<rect width="124.938" height="151.241" fill="white" transform="translate(61.9705 42.2737)"/>
</clipPath>
<clipPath id="clip1">
<rect width="30" height="21" fill="white" transform="translate(133 63)"/>
</clipPath>
<clipPath id="clip2">
<rect width="32.2751" height="33.082" fill="white" transform="translate(191.492 179.65) rotate(150)"/>
</clipPath>
<clipPath id="clip3">
<rect width="35" height="34" fill="white" transform="translate(27 111)"/>
</clipPath>
</defs>
</svg>
