<svg width="1920" height="1082" viewBox="0 0 1920 1082" fill="none" xmlns="http://www.w3.org/2000/svg">
<g clip-path="url(#clip0)">
<path d="M1918.1 0H0V1081.46H1918.1V0Z" fill="white"/>
<path d="M1856.01 551.75H1917.52" stroke="#232323" stroke-width="2.57" stroke-miterlimit="10"/>
<path d="M1856.38 584.89H1917.89" stroke="#232323" stroke-width="2.57" stroke-miterlimit="10"/>
<path d="M1856.01 618.03H1917.52" stroke="#232323" stroke-width="2.57" stroke-miterlimit="10"/>
<path d="M1856.01 649.33H1917.52" stroke="#232323" stroke-width="2.57" stroke-miterlimit="10"/>
<path d="M1856.38 682.48H1917.89" stroke="#232323" stroke-width="2.57" stroke-miterlimit="10"/>
<path d="M1856.01 715.62H1917.52" stroke="#232323" stroke-width="2.57" stroke-miterlimit="10"/>
<path d="M1856.38 456H1917.89" stroke="#232323" stroke-width="2.57" stroke-miterlimit="10"/>
<path d="M1856.38 428.38H1917.89" stroke="#232323" stroke-width="2.57" stroke-miterlimit="10"/>
<path d="M1856.75 489.14H1918.26" stroke="#232323" stroke-width="2.57" stroke-miterlimit="10"/>
<path d="M1856.38 522.29H1917.89" stroke="#232323" stroke-width="2.57" stroke-miterlimit="10"/>
<path d="M991.96 1.31006H527.81V44.7001H991.96V1.31006Z" fill="#ADCE6B"/>
<path d="M1380.28 627.21L1370.61 625.08C1364.5 623.73 400.9 415.73 391.16 413.64L378.16 410.83L824.16 1032.65H778.16V1080.1H1242.32V1032.65H938.58L1380.28 627.21ZM1358.7 633.04L888.82 1064.32L870.7 1078.09L864.24 1070.99L402.04 426.52C511.03 450.05 1264.19 612.62 1358.7 633.04Z" fill="#ADCE6B"/>
<path d="M639.301 772.085L491.582 877.18L595.384 1023.08L743.104 917.987L639.301 772.085Z" fill="#F5AAAD"/>
<path d="M916.56 1.31006L1.98999 592.43" stroke="#F5AAAD" stroke-width="2.57" stroke-miterlimit="10"/>
<path d="M1655.88 1081.35L1918.95 851.49L1918.1 1081.46H1672.49" fill="#F5AAAD"/>
<path d="M1918.89 60.6501L1839.6 136.9L1709.19 1.31006H1694.91L1839.32 151.46L1918.89 74.9301V60.6501Z" fill="#ADCE6B"/>
<path d="M505.16 316.55C530.051 316.55 550.23 295.494 550.23 269.52C550.23 243.546 530.051 222.49 505.16 222.49C480.269 222.49 460.09 243.546 460.09 269.52C460.09 295.494 480.269 316.55 505.16 316.55Z" stroke="#EB5758" stroke-width="28.31" stroke-miterlimit="10"/>
<g style="mix-blend-mode:multiply">
<path d="M676.99 609.89L604.99 666.43L1453.44 656.48L1377.56 583.58L676.99 609.89Z" fill="#E0E0E0"/>
</g>
<path d="M1506.08 653.43L1578.54 652.22L1505.25 581.67L1437.88 584.23L1506.08 653.43Z" fill="#E0E0E0"/>
<path d="M1141.45 204.12L1467.42 492.25L1537.74 486.03L1191.41 176.94L1141.45 204.12Z" fill="#67B762"/>
<path d="M1411.8 491.57L1377.56 583.58L604.87 608.9L603.56 543.74" fill="#EB5758"/>
<path d="M1411.8 491.57L1377.56 583.58L604.87 608.9L603.56 543.74" stroke="#010101" stroke-width="7.72" stroke-miterlimit="10"/>
<path d="M1468.64 491.57L1437.88 585.01L1505.84 581.9L1540.32 486.03" fill="#010101"/>
<path d="M1473.63 497.71L1141.45 204.12L1191.41 176.94L1537.94 488.84" stroke="#010101" stroke-width="7.72" stroke-miterlimit="10"/>
<path d="M1118.79 233.31L1406.49 489.39L614.8 539.06L1118.79 233.31Z" fill="#EB5758" stroke="#010101" stroke-width="7.72" stroke-miterlimit="10"/>
<path d="M1151.74 315.01C1147.83 326.08 1143.55 337.01 1139.65 348.06C1136.89 355.89 1149.31 359.25 1152.06 351.48C1155.96 340.42 1160.24 329.48 1164.15 318.43C1166.91 310.61 1154.48 307.24 1151.74 315.01Z" fill="#010101"/>
<path d="M1160.17 419.03C1156.27 430.1 1151.98 441.03 1148.08 452.08C1145.32 459.91 1157.75 463.27 1160.49 455.5C1164.39 444.44 1168.68 433.5 1172.58 422.5C1175.34 414.68 1162.91 411.31 1160.17 419.08V419.03Z" fill="#010101"/>
<path d="M1060.95 403.73L1088.51 413.43C1096.33 416.18 1099.7 403.76 1091.93 401.02L1064.37 391.32C1056.54 388.57 1053.18 401 1060.95 403.73Z" fill="#010101"/>
<path d="M767.32 486.84L794.87 496.54C802.7 499.29 806.07 486.86 798.3 484.13L770.74 474.43C762.91 471.68 759.55 484.11 767.32 486.84Z" fill="#010101"/>
<path d="M995.16 475.39L1022.71 485.09C1030.54 487.84 1033.91 475.41 1026.13 472.68L998.58 462.98C990.75 460.23 987.38 472.66 995.16 475.39Z" fill="#010101"/>
<path d="M931.45 395.59L949.95 418.2C955.2 424.61 964.26 415.46 959.05 409.1L940.55 386.49C935.3 380.08 926.25 389.23 931.45 395.59Z" fill="#010101"/>
<path d="M881.46 442.57C876.127 450.73 870.81 458.887 865.51 467.04C860.98 473.98 872.44 479.85 876.93 472.96L892.93 448.49C897.45 441.55 885.99 435.69 881.5 442.57H881.46Z" fill="#010101"/>
<path d="M1290.92 456.91C1299.92 451.91 1309.23 447.43 1318.27 442.45C1325.53 438.45 1319.04 427.34 1311.78 431.34C1302.78 436.34 1293.46 440.83 1284.42 445.8C1277.16 449.8 1283.65 460.91 1290.92 456.91Z" fill="#010101"/>
<path d="M1012.04 349.83C1021.04 344.83 1030.35 340.34 1039.39 335.37C1046.65 331.37 1040.16 320.26 1032.9 324.26C1023.9 329.26 1014.58 333.74 1005.54 338.72C998.28 342.72 1004.77 353.83 1012.04 349.83Z" fill="#010101"/>
<path d="M1716.34 866.93C1788.55 866.835 1858.99 889.286 1917.82 931.15V912.43C1858.19 872.618 1788.09 851.408 1716.39 851.49C1562.97 851.49 1431.39 946.88 1377.89 1081.49H1394.58C1447.18 955.6 1571.6 866.93 1716.34 866.93Z" fill="#EB5758"/>
</g>
<defs>
<clipPath id="clip0">
<rect width="1919.26" height="1081.46" fill="white"/>
</clipPath>
</defs>
</svg>
