<svg width="247" height="254" viewBox="0 0 247 254" fill="none" xmlns="http://www.w3.org/2000/svg">
<rect width="247" height="254" fill="#131313"/>
<path d="M123.5 208C167.888 208 203.872 171.735 203.872 127C203.872 82.2649 167.888 46 123.5 46C79.1119 46 43.1282 82.2649 43.1282 127C43.1282 171.735 79.1119 208 123.5 208Z" fill="#1B1B1B"/>
<path d="M53.5096 60.0086L56.1485 60.7199C57.427 61.0703 57.427 62.9052 56.1485 63.2556L53.5096 63.9669C53.0596 64.0906 52.7119 64.441 52.5891 64.8946L51.8834 67.554C51.5356 68.8425 49.715 68.8425 49.3673 67.554L48.6615 64.8946C48.5388 64.441 48.1911 64.0906 47.741 63.9669L45.1022 63.2556C43.8237 62.9052 43.8237 61.0703 45.1022 60.7199L47.741 60.0086C48.1911 59.8849 48.5388 59.5345 48.6615 59.0809L49.3673 56.4214C49.715 55.133 51.5356 55.133 51.8834 56.4214L52.5891 59.0809C52.7119 59.5345 53.0596 59.8849 53.5096 60.0086Z" fill="#86C490"/>
<path d="M55.8724 76.5322L57.5396 76.9858C58.3578 77.2022 58.3578 78.367 57.5396 78.5938L55.8724 79.0474C55.586 79.1195 55.3713 79.3463 55.2894 79.6349L54.8394 81.3151C54.6246 82.1398 53.4688 82.1398 53.2438 81.3151L52.7938 79.6349C52.7222 79.3463 52.4972 79.1298 52.2108 79.0474L50.5436 78.5938C49.7254 78.3774 49.7254 77.2126 50.5436 76.9858L52.2108 76.5322C52.4972 76.4601 52.712 76.2333 52.7938 75.9447L53.2438 74.2645C53.4586 73.4398 54.6144 73.4398 54.8394 74.2645L55.2894 75.9447C55.361 76.2333 55.586 76.4601 55.8724 76.5322Z" fill="#86C490"/>
<path d="M197.259 81.2458C197.778 79.9651 197.168 78.5029 195.898 77.98C194.627 77.4571 193.176 78.0714 192.657 79.3522C192.138 80.6329 192.748 82.0951 194.019 82.618C195.289 83.1409 196.74 82.5266 197.259 81.2458Z" fill="black"/>
<path d="M55.3404 187.425C56.713 187.425 57.8258 186.304 57.8258 184.921C57.8258 183.537 56.713 182.416 55.3404 182.416C53.9677 182.416 52.855 183.537 52.855 184.921C52.855 186.304 53.9677 187.425 55.3404 187.425Z" fill="black"/>
<path d="M82.3719 156.956H47.5254C45.9385 156.956 44.6543 155.662 44.6543 154.062V147.871C44.6543 146.272 45.9385 144.978 47.5254 144.978H82.3719C83.9588 144.978 85.243 146.272 85.243 147.871V154.062C85.243 155.662 83.9588 156.956 82.3719 156.956Z" fill="white"/>
<path opacity="0.3" d="M57.7014 156.956H82.372C83.9589 156.956 85.2432 155.661 85.2432 154.062V147.871C85.2432 146.272 83.9589 144.977 82.372 144.977H77.6768C77.6768 144.969 71.0183 156.956 57.7014 156.956Z" fill="#D6D6D6"/>
<path d="M82.6828 156.956H47.2065V182.19C47.2065 185.356 49.7505 187.919 52.8916 187.919H76.9978C80.1389 187.919 82.6828 185.356 82.6828 182.19V156.956Z" fill="#ABEC6C"/>
<path d="M82.6827 156.956H63.9507C69.8403 158.777 77.194 163.493 77.194 170.508C77.194 183.525 69.5622 185.957 55.1819 187.919H76.9895C80.1306 187.919 82.6746 185.356 82.6746 182.19V156.956H82.6827Z" fill="#CEF4AA"/>
<path opacity="0.42" d="M48.5808 154.062V147.871C48.5808 146.272 49.865 144.977 51.4519 144.977H47.5174C45.9305 144.969 44.6462 146.263 44.6462 147.863V154.054C44.6462 155.653 45.9305 156.947 47.5174 156.947H51.4519C49.865 156.956 48.5808 155.661 48.5808 154.062Z" fill="white"/>
<path opacity="0.42" d="M51.1411 182.19V156.956H47.2065V182.19C47.2065 185.356 49.7505 187.919 52.8916 187.919H56.8261C53.685 187.919 51.1411 185.356 51.1411 182.19Z" fill="white"/>
<path d="M74.1513 168.753H68.5971V163.155H61.2843V168.753H55.7383V176.123H61.2843V181.72H68.5971V176.123H74.1513V168.753Z" fill="white"/>
<path d="M82.372 157.615H47.5255C45.5787 157.615 44 156.024 44 154.062V147.871C44 145.909 45.5787 144.318 47.5255 144.318H82.372C84.3188 144.318 85.8975 145.909 85.8975 147.871V154.062C85.8975 156.016 84.3106 157.615 82.372 157.615ZM47.5174 145.629C46.2904 145.629 45.3006 146.634 45.3006 147.863V154.054C45.3006 155.29 46.2986 156.288 47.5174 156.288H82.3638C83.5908 156.288 84.5806 155.282 84.5806 154.054V147.863C84.5806 146.626 83.5826 145.629 82.3638 145.629H47.5174Z" fill="black"/>
<path d="M76.9979 188.579H52.8917C49.3989 188.579 46.5522 185.71 46.5522 182.19V156.956C46.5522 156.593 46.8467 156.296 47.2066 156.296H82.6829C83.0428 156.296 83.3373 156.593 83.3373 156.956V182.19C83.3373 185.71 80.4907 188.579 76.9979 188.579ZM47.861 157.615V182.19C47.861 184.985 50.1187 187.26 52.8917 187.26H76.9979C79.7709 187.26 82.0285 184.985 82.0285 182.19V157.615H47.861Z" fill="black"/>
<path d="M68.5971 182.38H61.2842C60.9243 182.38 60.6298 182.083 60.6298 181.72V176.782H55.7301C55.3702 176.782 55.0757 176.485 55.0757 176.122V168.752C55.0757 168.39 55.3702 168.093 55.7301 168.093H60.6298V163.155C60.6298 162.792 60.9243 162.495 61.2842 162.495H68.5971C68.957 162.495 69.2515 162.792 69.2515 163.155V168.093H74.1512C74.5112 168.093 74.8056 168.39 74.8056 168.752V176.122C74.8056 176.485 74.5112 176.782 74.1512 176.782H69.2515V181.72C69.2515 182.083 68.9652 182.38 68.5971 182.38ZM61.9386 181.06H67.9427V176.122C67.9427 175.76 68.2372 175.463 68.5971 175.463H73.4968V169.412H68.5971C68.2372 169.412 67.9427 169.115 67.9427 168.752V163.814H61.9386V168.752C61.9386 169.115 61.6442 169.412 61.2842 169.412H56.3845V175.463H61.2842C61.6442 175.463 61.9386 175.76 61.9386 176.122V181.06Z" fill="black"/>
<path d="M48.5807 155.307C48.1308 155.307 47.7627 154.936 47.7627 154.483V147.434C47.7627 146.981 48.1308 146.61 48.5807 146.61C49.0306 146.61 49.3987 146.981 49.3987 147.434V154.483C49.3987 154.944 49.0306 155.307 48.5807 155.307Z" fill="black"/>
<path d="M52.6705 155.307C52.2206 155.307 51.8525 154.936 51.8525 154.483V147.434C51.8525 146.981 52.2206 146.61 52.6705 146.61C53.1204 146.61 53.4885 146.981 53.4885 147.434V154.483C53.4885 154.944 53.1204 155.307 52.6705 155.307Z" fill="black"/>
<path d="M56.7606 155.307C56.3107 155.307 55.9426 154.936 55.9426 154.483V147.434C55.9426 146.981 56.3107 146.61 56.7606 146.61C57.2105 146.61 57.5786 146.981 57.5786 147.434V154.483C57.5786 154.944 57.2105 155.307 56.7606 155.307Z" fill="black"/>
<path d="M60.8505 155.307C60.4006 155.307 60.0325 154.936 60.0325 154.483V147.434C60.0325 146.981 60.4006 146.61 60.8505 146.61C61.3004 146.61 61.6685 146.981 61.6685 147.434V154.483C61.6685 154.944 61.3085 155.307 60.8505 155.307Z" fill="black"/>
<path d="M64.9405 155.307C64.4907 155.307 64.1226 154.936 64.1226 154.483V147.434C64.1226 146.981 64.4907 146.61 64.9405 146.61C65.3904 146.61 65.7585 146.981 65.7585 147.434V154.483C65.7585 154.944 65.3986 155.307 64.9405 155.307Z" fill="black"/>
<path d="M69.0387 155.307C68.5888 155.307 68.2207 154.936 68.2207 154.483V147.434C68.2207 146.981 68.5888 146.61 69.0387 146.61C69.4886 146.61 69.8567 146.981 69.8567 147.434V154.483C69.8567 154.944 69.4886 155.307 69.0387 155.307Z" fill="black"/>
<path d="M73.1285 155.307C72.6786 155.307 72.3105 154.936 72.3105 154.483V147.434C72.3105 146.981 72.6786 146.61 73.1285 146.61C73.5784 146.61 73.9465 146.981 73.9465 147.434V154.483C73.9465 154.944 73.5784 155.307 73.1285 155.307Z" fill="black"/>
<path d="M77.2186 155.307C76.7687 155.307 76.4006 154.936 76.4006 154.483V147.434C76.4006 146.981 76.7687 146.61 77.2186 146.61C77.6685 146.61 78.0366 146.981 78.0366 147.434V154.483C78.0366 154.944 77.6685 155.307 77.2186 155.307Z" fill="black"/>
<path d="M81.3085 155.307C80.8586 155.307 80.4905 154.936 80.4905 154.483V147.434C80.4905 146.981 80.8586 146.61 81.3085 146.61C81.7583 146.61 82.1264 146.981 82.1264 147.434V154.483C82.1264 154.944 81.7583 155.307 81.3085 155.307Z" fill="black"/>
<path d="M175.874 61.7058C163.054 61.7058 152.662 70.745 152.662 81.9018C152.662 86.7551 154.633 91.2129 157.911 94.6984C156.791 97.1951 157.592 101.62 153.455 101.62C153.455 101.62 158.475 102.048 162.335 98.3075C166.145 100.689 170.821 102.098 175.874 102.098C188.694 102.098 199.086 93.0587 199.086 81.9018C199.086 70.745 188.694 61.7058 175.874 61.7058Z" fill="#EFEFEF"/>
<path d="M175.874 61.7058C163.054 61.7058 152.662 70.745 152.662 81.9018C152.662 86.7551 154.633 91.2129 157.911 94.6984C156.791 97.1951 156.66 99.5353 153.455 101.62C153.455 101.62 158.475 102.048 162.335 98.3075C166.145 100.689 170.821 102.098 175.874 102.098C188.694 102.098 199.086 93.0587 199.086 81.9018C199.086 70.745 188.694 61.7058 175.874 61.7058Z" fill="white"/>
<path opacity="0.3" d="M199.086 81.9018C199.086 75.4417 195.594 69.682 190.166 65.9905C188.686 73.1922 182.791 93.0339 162.326 98.3074C166.136 100.689 170.813 102.098 175.866 102.098C188.694 102.098 199.086 93.0586 199.086 81.9018Z" fill="#E0E0E0"/>
<path d="M175.874 102.757C171.034 102.757 166.39 101.505 162.416 99.1315C158.459 102.658 153.619 102.296 153.406 102.279C153.128 102.254 152.899 102.057 152.826 101.785C152.76 101.513 152.867 101.224 153.096 101.068C155.401 99.5352 155.974 97.9614 156.636 96.1404C156.791 95.7119 156.955 95.2752 157.135 94.822C155.557 93.0834 154.314 91.147 153.447 89.0623C152.491 86.7716 152 84.3573 152 81.8936C152 76.3069 154.494 71.0581 159.023 67.1111C163.528 63.1972 169.505 61.0383 175.866 61.0383C182.227 61.0383 188.203 63.1972 192.708 67.1111C197.238 71.0498 199.732 76.2987 199.732 81.8936C199.732 87.4802 197.238 92.729 192.708 96.676C188.212 100.606 182.227 102.757 175.874 102.757ZM162.334 97.6483C162.457 97.6483 162.572 97.6812 162.678 97.7472C166.537 100.161 171.099 101.439 175.874 101.439C188.318 101.439 198.432 92.6714 198.432 81.9018C198.432 71.1322 188.31 62.365 175.874 62.365C163.438 62.365 153.316 71.1322 153.316 81.9018C153.316 84.1843 153.766 86.4255 154.657 88.5596C155.524 90.6196 156.775 92.5313 158.385 94.2452C158.565 94.443 158.614 94.7231 158.508 94.9703C158.263 95.5141 158.058 96.0662 157.87 96.6018C157.355 98.0191 156.824 99.4775 155.434 100.87C157.151 100.639 159.726 99.9307 161.885 97.8378C161.999 97.7142 162.163 97.6483 162.334 97.6483Z" fill="black"/>
<path d="M177.149 80.9213H170.747C167.755 80.9213 165.327 78.474 165.327 75.4582C165.327 72.4424 167.755 69.9951 170.747 69.9951H177.149V80.9213Z" fill="white"/>
<path d="M183.551 80.9212H177.149V69.9868H183.551C186.543 69.9868 188.972 72.4341 188.972 75.4499C188.972 78.4739 186.543 80.9212 183.551 80.9212Z" fill="#FFABAB"/>
<path opacity="0.42" d="M183.06 69.9868H177.149H171.238C167.976 69.9868 165.327 72.4341 165.327 75.4499C165.327 76.9907 166.022 78.3833 167.134 79.3803C166.864 78.7541 166.708 78.0619 166.708 77.345C166.708 74.3292 169.357 71.882 172.62 71.882H177.149H178.531H184.442C186.037 71.882 187.484 72.467 188.547 73.4146C187.672 71.4123 185.546 69.9868 183.06 69.9868Z" fill="white"/>
<path d="M177.149 81.5805H170.747C167.395 81.5805 164.673 78.8366 164.673 75.4582C164.673 72.0798 167.395 69.3359 170.747 69.3359H177.149C177.509 69.3359 177.803 69.6326 177.803 69.9951V80.9295C177.803 81.2838 177.509 81.5805 177.149 81.5805ZM170.756 70.6461C168.123 70.6461 165.989 72.8049 165.989 75.45C165.989 78.1032 168.131 80.2538 170.756 80.2538H176.503V70.6461H170.756Z" fill="black"/>
<path d="M183.551 81.5804H177.149C176.789 81.5804 176.495 81.2838 176.495 80.9212V69.9868C176.495 69.6243 176.789 69.3276 177.149 69.3276H183.551C186.903 69.3276 189.626 72.0715 189.626 75.4499C189.626 78.8283 186.903 81.5804 183.551 81.5804ZM177.803 80.262H183.551C186.184 80.262 188.318 78.1032 188.318 75.4581C188.318 72.8049 186.176 70.6543 183.551 70.6543H177.803V80.262Z" fill="black"/>
<path d="M171.238 92.1935H165.327C162.065 92.1935 159.416 89.5237 159.416 86.236C159.416 82.9483 162.065 80.2786 165.327 80.2786H171.238V92.1935Z" fill="white"/>
<path d="M177.149 92.1935H171.238V80.2786H177.149C180.412 80.2786 183.061 82.9483 183.061 86.236C183.061 89.532 180.42 92.1935 177.149 92.1935Z" fill="#FFABAB"/>
<path opacity="0.42" d="M177.149 80.2786H171.238H165.327C162.065 80.2786 159.416 82.9483 159.416 86.236C159.416 87.917 160.11 89.4331 161.222 90.5208C160.953 89.8369 160.797 89.087 160.797 88.3042C160.797 85.0165 163.446 82.3468 166.709 82.3468H171.238H172.62H178.531C180.125 82.3468 181.573 82.9813 182.635 84.0195C181.761 81.8277 179.635 80.2786 177.149 80.2786Z" fill="white"/>
<path d="M171.238 92.8524H165.327C161.705 92.8524 158.761 89.8861 158.761 86.2358C158.761 82.5855 161.705 79.6191 165.327 79.6191H171.238C171.598 79.6191 171.892 79.9158 171.892 80.2783V92.1932C171.892 92.5558 171.606 92.8524 171.238 92.8524ZM165.327 80.9375C162.424 80.9375 160.07 83.3106 160.07 86.2358C160.07 89.161 162.424 91.5341 165.327 91.5341H170.584V80.9375H165.327Z" fill="black"/>
<path d="M177.149 92.8524H171.238C170.878 92.8524 170.584 92.5558 170.584 92.1932V80.2783C170.584 79.9158 170.878 79.6191 171.238 79.6191H177.149C180.771 79.6191 183.715 82.5855 183.715 86.2358C183.715 89.8861 180.771 92.8524 177.149 92.8524ZM171.892 91.5341H177.149C180.052 91.5341 182.407 89.161 182.407 86.2358C182.407 83.3106 180.052 80.9375 177.149 80.9375H171.892V91.5341Z" fill="black"/>
<path d="M186.96 86.6232L183.15 90.5454C181.049 92.7125 177.599 92.7537 175.449 90.6278C173.298 88.5102 173.257 85.0329 175.367 82.8658L179.177 78.9436L186.96 86.6232Z" fill="white"/>
<path d="M190.771 82.6928L186.961 86.615L179.169 78.9354L182.979 75.0132C185.08 72.8461 188.53 72.8049 190.681 74.9308C192.839 77.0485 192.872 80.5257 190.771 82.6928Z" fill="#FFABAB"/>
<g opacity="0.42">
<path opacity="0.42" d="M179.169 78.9355L175.359 82.8577C173.634 84.6375 173.348 87.299 174.492 89.3672C174.28 87.7522 174.778 86.0547 175.997 84.794L179.807 80.8718L180.453 80.2044L183.617 76.9496C185.718 74.7825 189.168 74.7413 191.318 76.8672C191.703 77.2463 192.022 77.6748 192.267 78.128C192.112 76.9579 191.58 75.829 190.681 74.9309C188.53 72.8132 185.08 72.8462 182.979 75.0133L179.169 78.9355Z" fill="white"/>
</g>
<path d="M179.251 92.8528C177.648 92.8528 176.136 92.2348 174.983 91.0977C172.579 88.7246 172.538 84.8272 174.893 82.3964L178.703 78.4742C178.956 78.2105 179.373 78.2105 179.627 78.466L187.419 86.1455C187.541 86.2691 187.615 86.4339 187.615 86.607C187.615 86.78 187.549 86.9531 187.427 87.0767L183.617 90.9989C182.48 92.1689 180.951 92.8281 179.324 92.8446C179.292 92.8528 179.275 92.8528 179.251 92.8528ZM179.177 79.8667L175.825 83.3193C173.977 85.2227 174.01 88.2879 175.899 90.1501C176.814 91.0565 178.024 91.5427 179.308 91.5262C180.592 91.5097 181.785 90.9989 182.685 90.076L186.037 86.6235L179.177 79.8667Z" fill="black"/>
<path d="M186.961 87.2825C186.797 87.2825 186.634 87.2166 186.503 87.093L178.711 79.4052C178.588 79.2816 178.515 79.1168 178.515 78.9437C178.515 78.7707 178.58 78.5977 178.703 78.4741L182.513 74.5519C183.649 73.3818 185.178 72.7226 186.805 72.7061C188.441 72.6896 189.978 73.3159 191.139 74.4612C192.3 75.6066 192.954 77.1474 192.97 78.7872C192.986 80.4269 192.365 81.9843 191.229 83.1543L187.419 87.0765C187.296 87.2166 187.124 87.2825 186.961 87.2825ZM180.093 78.9273L186.944 85.684L190.297 82.2315C192.144 80.3281 192.112 77.2628 190.223 75.4006C189.307 74.4942 188.097 74.008 186.814 74.0245C185.53 74.041 184.336 74.5519 183.437 75.4747L180.093 78.9273Z" fill="black"/>
<path d="M141.031 197.352H97.347C93.0921 197.352 89.635 193.878 89.635 189.58V80.3874C89.635 76.0993 93.0819 72.6152 97.347 72.6152H141.031C145.286 72.6152 148.743 76.089 148.743 80.3874V189.59C148.743 193.878 145.286 197.352 141.031 197.352Z" fill="black"/>
<path d="M139.834 76.8105H134.413C133.309 76.8105 132.409 77.7486 132.409 78.8928C132.409 80.0472 131.509 80.975 130.404 80.975H107.974C106.869 80.975 105.969 80.0369 105.969 78.8928C105.969 77.7383 105.069 76.8105 103.964 76.8105H98.5436C95.9661 76.8105 93.8694 78.9958 93.8694 81.6862V188.291C93.8694 190.982 95.9661 193.167 98.5436 193.167H139.824C142.401 193.167 144.498 190.982 144.498 188.291V81.6862C144.508 78.9958 142.412 76.8105 139.834 76.8105Z" fill="white"/>
<path d="M141.031 198.177H97.3468C92.6419 198.177 88.8167 194.321 88.8167 189.58V80.3874C88.8167 75.6457 92.6419 71.7905 97.3468 71.7905H141.031C145.736 71.7905 149.561 75.6457 149.561 80.3874V189.59C149.561 194.321 145.736 198.177 141.031 198.177ZM97.3468 73.4398C93.5522 73.4398 90.4531 76.5528 90.4531 80.3874V189.59C90.4531 193.414 93.542 196.538 97.3468 196.538H141.031C144.825 196.538 147.924 193.425 147.924 189.59V80.3874C147.924 76.5631 144.836 73.4398 141.031 73.4398H97.3468Z" fill="#5CC560"/>
<path d="M139.834 193.981H98.5537C95.5262 193.981 93.0613 191.425 93.0613 188.281V81.6861C93.0613 78.5422 95.5262 75.9858 98.5537 75.9858H103.975C105.529 75.9858 106.798 77.295 106.798 78.8927C106.798 79.5833 107.329 80.1503 107.984 80.1503H130.424C131.079 80.1503 131.611 79.5833 131.611 78.8927C131.611 77.2846 132.879 75.9858 134.434 75.9858H139.855C142.882 75.9858 145.347 78.5422 145.347 81.6861V188.291C145.327 191.425 142.862 193.981 139.834 193.981ZM98.5537 77.6351C96.4263 77.6351 94.6978 79.4493 94.6978 81.6861V188.291C94.6978 190.518 96.4263 192.342 98.5537 192.342H139.834C141.962 192.342 143.69 190.528 143.69 188.291V81.6861C143.69 79.4596 141.962 77.6351 139.834 77.6351H134.413C133.759 77.6351 133.227 78.2021 133.227 78.8927C133.227 80.5007 131.958 81.7995 130.404 81.7995H107.974C106.419 81.7995 105.151 80.4904 105.151 78.8927C105.151 78.2021 104.619 77.6351 103.964 77.6351H98.5537Z" fill="black"/>
<path d="M128.113 77.4601H113.855C113.354 77.4601 112.945 77.0477 112.945 76.5427C112.945 76.0376 113.354 75.6252 113.855 75.6252H128.113C128.614 75.6252 129.023 76.0376 129.023 76.5427C129.023 77.0477 128.614 77.4601 128.113 77.4601Z" fill="black"/>
<path d="M110.572 77.4601H110.183C109.723 77.4601 109.354 77.089 109.354 76.6251V76.4602C109.354 75.9963 109.723 75.6252 110.183 75.6252H110.572C111.032 75.6252 111.4 75.9963 111.4 76.4602V76.6251C111.4 77.0787 111.032 77.4601 110.572 77.4601Z" fill="black"/>
<path d="M133.288 103.219H124.789V94.6536H113.599V103.219H105.1V114.496H113.599V123.052H124.789V114.496H133.288V103.219Z" fill="#FF6555"/>
<path d="M124.789 98.8798V94.6536H113.599V103.219H105.1V114.496H105.938C116.412 111.703 123.213 103.817 124.789 98.8798Z" fill="white"/>
<path d="M124.789 123.877H113.599C113.149 123.877 112.781 123.506 112.781 123.052V115.311H105.1C104.65 115.311 104.281 114.94 104.281 114.486V103.219C104.281 102.766 104.65 102.395 105.1 102.395H112.781V94.6535C112.781 94.1999 113.149 93.8289 113.599 93.8289H124.789C125.239 93.8289 125.607 94.1999 125.607 94.6535V102.395H133.288C133.738 102.395 134.106 102.766 134.106 103.219V114.496C134.106 114.95 133.738 115.321 133.288 115.321H125.607V123.062C125.607 123.516 125.239 123.877 124.789 123.877ZM114.417 122.227H123.97V114.486C123.97 114.032 124.339 113.661 124.789 113.661H132.47V104.034H124.789C124.339 104.034 123.97 103.663 123.97 103.209V95.4781H114.417V103.219C114.417 103.673 114.049 104.044 113.599 104.044H105.918V113.672H113.599C114.049 113.672 114.417 114.043 114.417 114.496V122.227Z" fill="black"/>
<path d="M136.275 149.131H104.148C101.694 149.131 99.6992 147.121 99.6992 144.647C99.6992 142.173 101.694 140.163 104.148 140.163H136.275C138.729 140.163 140.724 142.173 140.724 144.647C140.724 147.132 138.729 149.131 136.275 149.131Z" fill="#F78989"/>
<path d="M137.748 163.573H102.676C101.039 163.573 99.7095 162.233 99.7095 160.584C99.7095 158.934 101.039 157.594 102.676 157.594H137.748C139.384 157.594 140.714 158.934 140.714 160.584C140.724 162.233 139.394 163.573 137.748 163.573Z" fill="#F25C5C"/>
<path d="M137.748 172.324H102.676C101.039 172.324 99.7095 170.984 99.7095 169.335C99.7095 167.685 101.039 166.345 102.676 166.345H137.748C139.384 166.345 140.714 167.685 140.714 169.335C140.724 170.984 139.394 172.324 137.748 172.324Z" fill="#F25C5C"/>
<path opacity="0.42" d="M101.591 146.554C101.591 144.08 103.586 142.07 106.041 142.07H138.167C138.914 142.07 139.609 142.256 140.223 142.575C139.476 141.143 137.993 140.163 136.285 140.163H104.148C101.694 140.163 99.6992 142.173 99.6992 144.647C99.6992 146.369 100.671 147.874 102.093 148.616C101.776 148.008 101.591 147.307 101.591 146.554Z" fill="white"/>
<path opacity="0.42" d="M101.591 162.48C101.591 160.831 102.921 159.491 104.558 159.491H139.63C139.957 159.491 140.274 159.542 140.56 159.646C140.172 158.45 139.057 157.594 137.737 157.594H102.676C101.039 157.594 99.7095 158.934 99.7095 160.584C99.7095 161.903 100.558 163.027 101.745 163.429C101.643 163.13 101.591 162.81 101.591 162.48Z" fill="white"/>
<path opacity="0.42" d="M101.591 171.231C101.591 169.582 102.921 168.242 104.558 168.242H139.63C139.957 168.242 140.274 168.294 140.56 168.397C140.172 167.201 139.057 166.345 137.737 166.345H102.676C101.039 166.345 99.7095 167.685 99.7095 169.335C99.7095 170.654 100.558 171.778 101.745 172.18C101.643 171.881 101.591 171.561 101.591 171.231Z" fill="white"/>
<path d="M136.275 149.956H104.149C101.244 149.956 98.8811 147.575 98.8811 144.647C98.8811 141.72 101.244 139.339 104.149 139.339H136.275C139.18 139.339 141.542 141.72 141.542 144.647C141.542 147.575 139.18 149.956 136.275 149.956ZM104.149 140.998C102.144 140.998 100.518 142.637 100.518 144.658C100.518 146.678 102.144 148.317 104.149 148.317H136.275C138.269 148.317 139.906 146.678 139.906 144.658C139.906 142.637 138.279 140.998 136.275 140.998H104.149Z" fill="black"/>
<path d="M137.748 164.397H102.676C100.589 164.397 98.8914 162.686 98.8914 160.583C98.8914 158.481 100.589 156.77 102.676 156.77H137.748C139.834 156.77 141.532 158.481 141.532 160.583C141.542 162.686 139.834 164.397 137.748 164.397ZM102.676 158.408C101.489 158.408 100.528 159.377 100.528 160.573C100.528 161.769 101.489 162.738 102.676 162.738H137.748C138.934 162.738 139.896 161.769 139.896 160.573C139.896 159.377 138.934 158.408 137.748 158.408H102.676Z" fill="black"/>
<path d="M137.748 173.149H102.676C100.589 173.149 98.8914 171.438 98.8914 169.335C98.8914 167.232 100.589 165.521 102.676 165.521H137.748C139.834 165.521 141.532 167.232 141.532 169.335C141.542 171.438 139.834 173.149 137.748 173.149ZM102.676 167.17C101.489 167.17 100.528 168.139 100.528 169.335C100.528 170.53 101.489 171.499 102.676 171.499H137.748C138.934 171.499 139.896 170.53 139.896 169.335C139.896 168.139 138.934 167.17 137.748 167.17H102.676Z" fill="black"/>
<path d="M173.154 190.817L167.439 194.049L161.724 190.817C148.674 183.442 140.586 169.54 140.586 154.456V134.443L167.439 130.498L194.292 134.443V154.447C194.292 169.54 186.213 183.442 173.154 190.817Z" fill="white"/>
<path opacity="0.42" d="M164.394 190.817C151.343 183.442 143.255 169.54 143.255 154.456V134.443L168.774 130.688L167.439 130.489L140.586 134.434V154.438C140.586 169.522 148.665 183.424 161.724 190.799L167.439 194.031L168.774 193.273L164.394 190.817Z" fill="white"/>
<path d="M163.865 185.311C153.045 179.199 146.318 167.636 146.318 155.133V139.814L167.439 136.709L188.56 139.814V155.133C188.56 167.636 181.842 179.199 171.013 185.311L167.439 187.333L163.865 185.311Z" fill="#F85554"/>
<path d="M188.56 155.133V139.814L179.585 138.496C179.54 145.745 177.981 172.953 157.694 180.842C159.557 182.539 161.626 184.038 163.865 185.311L167.439 187.333L171.013 185.311C181.842 179.199 188.56 167.636 188.56 155.133Z" fill="#DB4949"/>
<path d="M167.439 194.762C167.323 194.762 167.197 194.735 167.09 194.672L161.375 191.44C148.11 183.947 139.869 169.775 139.869 154.447V134.443C139.869 134.082 140.129 133.784 140.478 133.73L167.331 129.785C167.403 129.776 167.466 129.776 167.538 129.785L194.391 133.73C194.74 133.784 195 134.082 195 134.443V154.447C195 169.775 186.759 183.947 173.494 191.44L173.145 190.808L173.494 191.44L167.779 194.672C167.681 194.735 167.564 194.762 167.439 194.762ZM141.311 135.075V154.456C141.311 169.26 149.274 182.945 162.083 190.185L167.448 193.218L172.813 190.185C185.622 182.945 193.585 169.26 193.585 154.456V135.075L167.448 131.229L141.311 135.075Z" fill="black"/>
<path d="M167.439 188.055C167.323 188.055 167.197 188.028 167.09 187.964L163.516 185.942C152.472 179.705 145.611 167.897 145.611 155.133V139.814C145.611 139.453 145.87 139.155 146.22 139.101L167.34 135.996C167.412 135.987 167.475 135.987 167.546 135.996L188.667 139.101C189.017 139.155 189.276 139.453 189.276 139.814V155.133C189.276 167.897 182.415 179.696 171.371 185.942L167.797 187.964C167.681 188.018 167.564 188.055 167.439 188.055ZM147.044 140.437V155.133C147.044 167.374 153.627 178.694 164.223 184.678L167.448 186.502L170.673 184.678C181.269 178.694 187.852 167.374 187.852 155.133V140.437L167.448 137.44L147.044 140.437Z" fill="black"/>
<path d="M179.979 152.524H172.419V144.906H162.468V152.524H154.908V162.553H162.468V170.172H172.419V162.553H179.979V152.524Z" fill="white"/>
<path d="M172.419 170.894H162.468C162.074 170.894 161.751 170.569 161.751 170.172V163.276H154.908C154.514 163.276 154.191 162.951 154.191 162.553V152.524C154.191 152.127 154.514 151.802 154.908 151.802H161.751V144.906C161.751 144.508 162.074 144.183 162.468 144.183H172.419C172.813 144.183 173.136 144.508 173.136 144.906V151.802H179.979C180.373 151.802 180.695 152.127 180.695 152.524V162.553C180.695 162.951 180.373 163.276 179.979 163.276H173.136V170.172C173.136 170.569 172.813 170.894 172.419 170.894ZM163.184 169.45H171.703V162.553C171.703 162.156 172.025 161.831 172.419 161.831H179.262V153.247H172.419C172.025 153.247 171.703 152.922 171.703 152.524V145.628H163.184V152.524C163.184 152.922 162.862 153.247 162.468 153.247H155.625V161.831H162.468C162.862 161.831 163.184 162.156 163.184 162.553V169.45Z" fill="black"/>
<path d="M73.2048 106.099L71.5234 104.404L68.3363 107.616L70.0176 109.311L73.2048 106.099Z" fill="#EAF3F9"/>
<path d="M69.6925 108.988L68.6597 107.947C67.8191 107.1 66.4501 107.1 65.6014 107.947L54.2809 119.356C53.4402 120.203 53.4402 121.583 54.2809 122.438L55.3136 123.479C56.1543 124.326 57.5233 124.326 58.372 123.479L69.6925 112.07C70.5412 111.223 70.5412 109.843 69.6925 108.988Z" fill="#F4F7F9"/>
<path opacity="0.5" d="M55.4898 120.574L66.8103 109.165C67.6269 108.342 68.9319 108.318 69.7806 109.085C69.7566 109.052 69.7245 109.02 69.7005 108.996L68.6677 107.955C67.8271 107.108 66.4581 107.108 65.6094 107.955L54.2809 119.356C53.4402 120.203 53.4402 121.583 54.2809 122.438L55.3136 123.479C55.3457 123.511 55.3697 123.535 55.4017 123.56C54.6491 122.704 54.6732 121.389 55.4898 120.574Z" fill="white"/>
<path d="M70.0208 109.964C69.8526 109.964 69.6845 109.9 69.5644 109.779L67.8832 108.084C67.635 107.834 67.635 107.423 67.8832 107.173L71.0696 103.961C71.3178 103.711 71.7261 103.711 71.9743 103.961L73.6555 105.656C73.7756 105.777 73.8397 105.938 73.8397 106.116C73.8397 106.285 73.7756 106.454 73.6555 106.575L70.4691 109.787C70.357 109.892 70.1889 109.964 70.0208 109.964ZM69.2442 107.616L70.0208 108.399L72.3025 106.099L71.5259 105.317L69.2442 107.616Z" fill="black"/>
<path d="M56.8429 124.762C56.1224 124.762 55.4098 124.488 54.8574 123.939L53.8246 122.898C53.2962 122.366 53 121.656 53 120.897C53 120.139 53.2882 119.437 53.8246 118.896L65.1532 107.487C65.6816 106.955 66.3861 106.656 67.1387 106.656C67.8912 106.656 68.5878 106.947 69.1242 107.487L70.157 108.528C70.6854 109.061 70.9816 109.771 70.9816 110.529C70.9816 111.288 70.6934 111.99 70.157 112.53L58.8284 123.939C58.284 124.488 57.5634 124.762 56.8429 124.762ZM67.1307 107.955C66.7384 107.955 66.3541 108.109 66.0579 108.407L54.7373 119.816C54.1449 120.413 54.1449 121.39 54.7373 121.987L55.7701 123.027C56.3625 123.625 57.3313 123.625 57.9237 123.027L69.2443 111.618C69.5325 111.328 69.6926 110.941 69.6926 110.537C69.6926 110.126 69.5325 109.747 69.2443 109.456L68.2115 108.415C67.9153 108.109 67.523 107.955 67.1307 107.955Z" fill="black"/>
<path d="M83.2709 112.078C93.0338 112.078 100.948 104.102 100.948 94.2628C100.948 84.4235 93.0338 76.4473 83.2709 76.4473C73.5079 76.4473 65.5935 84.4235 65.5935 94.2628C65.5935 104.102 73.5079 112.078 83.2709 112.078Z" fill="#FF6555"/>
<path d="M95.7762 81.6675C95.48 81.369 95.1757 81.0866 94.8715 80.8123C93.7827 88.429 89.1952 103.582 70.0208 106.043C70.2609 106.317 70.5171 106.591 70.7813 106.858C77.6825 113.813 88.875 113.813 95.7842 106.858C102.677 99.9026 102.677 88.6227 95.7762 81.6675Z" fill="#FF6555"/>
<path opacity="0.5" d="M73.8076 106.858C66.9064 99.9025 66.9064 88.6226 73.8076 81.6594C76.8739 78.5691 80.7889 76.8505 84.7919 76.5117C79.7801 76.076 74.6162 77.7946 70.7733 81.6594C63.8721 88.6146 63.8721 99.8945 70.7733 106.858C74.6082 110.723 79.7721 112.441 84.7919 112.005C80.7809 111.667 76.8739 109.948 73.8076 106.858Z" fill="white"/>
<path d="M83.271 112.724C78.3793 112.724 73.7758 110.803 70.3172 107.318C66.8586 103.832 64.9531 99.1927 64.9531 94.2627C64.9531 89.3328 66.8586 84.6934 70.3172 81.2077C73.7758 77.7221 78.3793 75.8018 83.271 75.8018C88.1626 75.8018 92.7661 77.7221 96.2247 81.2077C99.6833 84.6934 101.589 89.3328 101.589 94.2627C101.589 99.1927 99.6833 103.832 96.2247 107.318C92.7661 110.803 88.1707 112.724 83.271 112.724ZM83.271 77.1008C78.9077 77.1008 74.5444 78.771 71.2219 82.1195C64.5768 88.8164 64.5768 99.709 71.2219 106.398C77.8669 113.095 88.675 113.095 95.312 106.398C101.957 99.701 101.957 88.8084 95.312 82.1195C91.9975 78.771 87.6343 77.1008 83.271 77.1008Z" fill="black"/>
<path d="M83.2709 107.713C90.6417 107.713 96.617 101.691 96.617 94.2626C96.617 86.8342 90.6417 80.8123 83.2709 80.8123C75.9 80.8123 69.9248 86.8342 69.9248 94.2626C69.9248 101.691 75.9 107.713 83.2709 107.713Z" fill="white"/>
<path opacity="0.3" d="M76.1694 105.648C81.3253 108.923 88.2185 108.302 92.7099 103.776C97.2814 99.1684 97.8418 92.06 94.3992 86.8396C91.9654 93.819 86.8575 101.863 76.1694 105.648Z" fill="#D8E4EA"/>
<path d="M83.2707 108.359C79.5319 108.359 76.0253 106.89 73.3833 104.228C67.9312 98.7328 67.9312 89.7928 73.3833 84.29C78.8354 78.7953 87.7061 78.7953 93.1662 84.29C95.8082 86.9526 97.2653 90.4947 97.2653 94.2547C97.2653 98.0147 95.8082 101.557 93.1662 104.219L92.7099 103.76L93.1662 104.219C90.5242 106.89 87.0096 108.359 83.2707 108.359ZM83.2707 81.466C80.0203 81.466 76.7618 82.7166 74.288 85.2098C69.3322 90.2043 69.3322 98.3294 74.288 103.316C76.6898 105.736 79.8762 107.068 83.2707 107.068C86.6653 107.068 89.8517 105.736 92.2535 103.316C94.6553 100.895 95.9763 97.6839 95.9763 94.2628C95.9763 90.8417 94.6553 87.6304 92.2535 85.2098C89.7797 82.7166 86.5292 81.466 83.2707 81.466Z" fill="black"/>
<path d="M62.2391 119.445L58.2841 115.459C57.8998 115.072 57.2753 115.072 56.891 115.459L55.2738 117.089C54.8895 117.476 54.8895 118.105 55.2738 118.493L59.2288 122.479C59.6131 122.866 60.2376 122.866 60.6219 122.479L62.2391 120.849C62.6234 120.461 62.6234 119.84 62.2391 119.445Z" fill="#FF6555"/>
<path opacity="0.5" d="M56.4105 118.226L58.0277 116.597C58.412 116.209 59.0365 116.209 59.4207 116.597L58.2919 115.459C57.9076 115.072 57.2831 115.072 56.8988 115.459L55.2816 117.089C54.8973 117.476 54.8973 118.105 55.2816 118.493L56.4105 119.63C56.0182 119.243 56.0182 118.614 56.4105 118.226Z" fill="white"/>
<path d="M59.9252 123.415C59.4929 123.415 59.0846 123.245 58.7724 122.939L54.8254 118.953C54.5212 118.646 54.353 118.235 54.353 117.791C54.353 117.355 54.5212 116.944 54.8254 116.629L56.4426 114.999C57.0751 114.362 58.1079 114.362 58.7403 114.999L62.6953 118.985C63.3278 119.622 63.3278 120.663 62.6953 121.301L61.0781 122.93C60.7739 123.245 60.3656 123.415 59.9252 123.415ZM57.5875 115.814C57.4994 115.814 57.4113 115.846 57.3473 115.919L55.7301 117.549C55.594 117.686 55.594 117.904 55.7301 118.041L59.6851 122.027C59.8212 122.164 60.0373 122.164 60.1734 122.027L61.7906 120.397C61.9268 120.26 61.9268 120.042 61.7906 119.905L57.8357 115.919C57.7636 115.854 57.6755 115.814 57.5875 115.814Z" fill="black"/>
<path d="M83.0916 188.068L79.427 191.761C77.4066 193.797 74.1265 193.797 72.0978 191.761C70.0774 189.725 70.0774 186.419 72.0978 184.375L75.7624 180.681L83.0916 188.068Z" fill="white"/>
<path d="M86.7562 184.375L83.0916 188.068L75.7625 180.681L79.427 176.988C81.4475 174.952 84.7276 174.952 86.7562 176.988C88.7767 179.033 88.7767 182.338 86.7562 184.375Z" fill="#5CC560"/>
<g opacity="0.42">
<path opacity="0.42" d="M75.7709 180.681L72.1063 184.375C70.4458 186.048 70.1513 188.571 71.2147 190.549C71.0265 189.008 71.5173 187.4 72.6952 186.221L76.3598 182.528L76.9815 181.901L80.0163 178.843C82.0367 176.807 85.3168 176.807 87.3455 178.843C87.7054 179.206 88.008 179.618 88.2371 180.047C88.098 178.934 87.6072 177.854 86.7565 176.996C84.7361 174.96 81.4559 174.96 79.4273 176.996L75.7709 180.681Z" fill="white"/>
</g>
<path d="M75.7707 193.946C74.2738 193.946 72.7851 193.369 71.6481 192.223C70.5438 191.11 69.9385 189.634 69.9385 188.068C69.9385 186.493 70.5438 185.018 71.6481 183.913L75.3127 180.22C75.4354 180.096 75.599 180.03 75.7789 180.03C75.9507 180.03 76.1225 180.096 76.2452 180.22L83.5744 187.606C83.828 187.862 83.828 188.282 83.5744 188.538L79.9098 192.231C78.7564 193.369 77.2595 193.946 75.7707 193.946ZM75.7707 181.613L72.5724 184.836C71.7217 185.694 71.2473 186.839 71.2473 188.06C71.2473 189.28 71.7217 190.426 72.5724 191.283C74.3393 193.064 77.2104 193.064 78.9691 191.283L82.1674 188.06L75.7707 181.613Z" fill="black"/>
<path d="M83.0918 188.727C82.9201 188.727 82.7483 188.661 82.6256 188.538L75.2964 181.151C75.0428 180.896 75.0428 180.475 75.2964 180.22L78.961 176.526C81.235 174.235 84.9405 174.235 87.2145 176.526C88.3188 177.639 88.9241 179.115 88.9241 180.681C88.9241 182.256 88.3188 183.732 87.2145 184.836L83.5499 188.53C83.4354 188.653 83.2636 188.727 83.0918 188.727ZM76.6951 180.681L83.0918 187.128L86.2902 183.905C87.1409 183.047 87.6153 181.901 87.6153 180.681C87.6153 179.461 87.1409 178.315 86.2902 177.458C84.5233 175.677 81.6522 175.677 79.8935 177.458L76.6951 180.681Z" fill="black"/>
<path d="M91.059 193.311H84.7032C81.194 193.311 78.3474 190.442 78.3474 186.906C78.3474 183.369 81.194 180.5 84.7032 180.5H91.059V193.311Z" fill="white"/>
<path d="M97.4149 193.311H91.0591V180.492H97.4149C100.924 180.492 103.771 183.361 103.771 186.898C103.771 190.443 100.924 193.311 97.4149 193.311Z" fill="#5CC560"/>
<path opacity="0.42" d="M97.4148 180.492H91.059H84.7032C81.194 180.492 78.3474 183.361 78.3474 186.898C78.3474 188.711 79.0918 190.344 80.2942 191.506C79.9998 190.764 79.8362 189.964 79.8362 189.115C79.8362 185.579 82.6828 182.71 86.192 182.71H91.0672H92.5559H98.9117C100.63 182.71 102.184 183.394 103.329 184.507C102.38 182.157 100.09 180.492 97.4148 180.492Z" fill="white"/>
<path d="M91.0591 193.97H84.7033C80.8342 193.97 77.6931 190.796 77.6931 186.905C77.6931 183.006 80.8424 179.84 84.7033 179.84H91.0591C91.419 179.84 91.7135 180.137 91.7135 180.5V193.319C91.7135 193.673 91.419 193.97 91.0591 193.97ZM84.6951 181.151C81.5459 181.151 78.9937 183.731 78.9937 186.897C78.9937 190.062 81.554 192.643 84.6951 192.643H90.3965V181.143H84.6951V181.151Z" fill="black"/>
<path d="M97.415 193.971H91.0592C90.6993 193.971 90.4048 193.674 90.4048 193.311V180.492C90.4048 180.129 90.6993 179.833 91.0592 179.833H97.415C101.284 179.833 104.425 183.006 104.425 186.897C104.425 190.797 101.284 193.971 97.415 193.971ZM91.7136 192.652H97.415C100.564 192.652 103.116 190.071 103.116 186.906C103.116 183.74 100.556 181.16 97.415 181.16H91.7136V192.652Z" fill="black"/>
</svg>
