<svg width="401" height="443" viewBox="0 0 401 443" fill="none" xmlns="http://www.w3.org/2000/svg">
<path d="M316.052 141.402C310.152 144.779 259.492 245.286 329.562 284.106L328.748 258.796C328.748 258.796 303.519 199.346 336.072 159.224L316.052 141.402Z" fill="#67B762"/>
<path d="M192.838 297.982L242.44 150.517L251.148 148.157C251.148 148.157 252.044 140.018 250.009 140.018C246.51 140.018 242.766 139.449 241.871 139.449C240.121 139.449 205.696 164.27 192.838 297.982Z" fill="#67B762"/>
<path d="M224.01 48.5032C224.01 48.5032 186.33 27.71 193.126 21.8098C210.216 6.83546 275.525 27.3845 298.312 50.2936C298.312 50.1716 224.01 18.9614 224.01 48.5032Z" fill="#010101" class="w_b"/>
<path d="M319.267 275.316L329.684 319.588L311.454 434.256L334.892 433.686L347.1 300.504L333.509 301.073L329.562 284.105L319.267 275.316Z" fill="#010101" class="w_b"/>
<path d="M298.31 67.5873C297.5 67.5873 296.724 67.2658 296.152 66.6934C295.579 66.1211 295.258 65.3449 295.258 64.5355V49.317C295.258 48.5076 295.579 47.7313 296.152 47.159C296.724 46.5867 297.5 46.2651 298.31 46.2651C299.119 46.2651 299.895 46.5867 300.468 47.159C301.04 47.7313 301.361 48.5076 301.361 49.317V64.4948C301.372 64.9004 301.301 65.3042 301.152 65.6817C301.003 66.0592 300.78 66.4027 300.495 66.6915C300.21 66.9804 299.869 67.2086 299.494 67.3625C299.118 67.5165 298.715 67.5929 298.31 67.5873Z" fill="#010101" class="w_b"/>
<path d="M246.186 52.491C242.783 52.4782 239.424 51.7286 236.338 50.2937C230.461 47.4699 225.631 42.8537 222.544 37.1097C222.155 36.4275 222.048 35.6202 222.245 34.86C222.443 34.0998 222.93 33.4469 223.602 33.0406C224.291 32.6653 225.099 32.5701 225.857 32.7747C226.615 32.9793 227.264 33.468 227.671 34.1393C230.149 38.753 234.004 42.4795 238.699 44.8004C240.912 45.8472 243.33 46.3902 245.779 46.3902C248.227 46.3902 250.646 45.8472 252.859 44.8004C256.582 42.3388 259.732 39.1053 262.096 35.3193C262.576 34.7297 263.256 34.3374 264.006 34.2173C264.757 34.0972 265.525 34.2578 266.165 34.6683C266.762 35.1425 267.161 35.8232 267.281 36.5764C267.402 37.3295 267.236 38.1005 266.816 38.7374C263.95 43.2798 260.097 47.1184 255.545 49.9682C252.663 51.5247 249.459 52.3885 246.186 52.491Z" fill="#010101" class="w_b"/>
<path d="M257.619 107.628C254.18 107.64 250.756 107.174 247.446 106.245C247.039 106.155 246.655 105.984 246.317 105.74C245.979 105.497 245.695 105.187 245.482 104.829C245.268 104.472 245.13 104.074 245.076 103.661C245.022 103.249 245.052 102.829 245.166 102.429C245.28 102.028 245.475 101.655 245.739 101.333C246.002 101.01 246.329 100.745 246.699 100.554C247.069 100.363 247.474 100.249 247.889 100.22C248.304 100.191 248.721 100.247 249.114 100.385C255.263 102.106 261.79 101.921 267.832 99.8562C268.568 99.6792 269.344 99.7824 270.009 100.146C270.674 100.509 271.179 101.106 271.428 101.822C271.677 102.537 271.65 103.32 271.354 104.017C271.058 104.714 270.513 105.276 269.826 105.594C265.902 106.96 261.774 107.648 257.619 107.628Z" fill="#010101" class="w_b"/>
<path d="M295.341 148.156L331.393 158.655C331.393 158.655 321.098 131.88 293.632 131.88L295.341 148.156Z" fill="#67B762"/>
<path d="M277.316 77.8013C276.51 77.7907 275.74 77.4658 275.17 76.8957C274.6 76.3257 274.275 75.5555 274.265 74.7494V68.7271C274.265 67.9177 274.586 67.1415 275.159 66.5692C275.731 65.9968 276.507 65.6753 277.316 65.6753C278.126 65.6753 278.902 65.9968 279.474 66.5692C280.047 67.1415 280.368 67.9177 280.368 68.7271V74.7901C280.347 75.5891 280.018 76.349 279.449 76.9104C278.88 77.4717 278.116 77.791 277.316 77.8013Z" fill="#010101" class="w_b"/>
<path d="M288.462 64.8208C288.031 64.8266 287.604 64.7387 287.211 64.563C286.817 64.3874 286.467 64.1282 286.184 63.8035C283.046 61.596 279.412 60.1982 275.604 59.7344C274.607 59.8391 273.647 60.1727 272.8 60.7091C271.953 61.2455 271.242 61.9703 270.721 62.8269C270.3 63.523 269.62 64.0234 268.83 64.2179C268.04 64.4125 267.205 64.2854 266.509 63.8645C265.813 63.4436 265.313 62.7635 265.118 61.9737C264.924 61.1838 265.051 60.3491 265.472 59.653C266.501 57.9814 267.904 56.5712 269.57 55.5333C271.236 54.4954 273.121 53.8581 275.075 53.6714C280.796 53.9332 286.285 56.0145 290.741 59.6123C291.009 59.9114 291.214 60.2603 291.347 60.639C291.48 61.0178 291.536 61.4189 291.513 61.8196C291.491 62.2202 291.389 62.6124 291.215 62.9738C291.04 63.3352 290.796 63.6586 290.497 63.9256C289.96 64.476 289.231 64.7969 288.462 64.8208Z" fill="#010101" class="w_b"/>
<path d="M238.7 77.1912C237.919 77.1494 237.184 76.8096 236.646 76.2417C236.109 75.6739 235.809 74.9213 235.811 74.1393V68.117C235.811 67.3076 236.132 66.5314 236.704 65.959C237.277 65.3867 238.053 65.0652 238.862 65.0652C239.672 65.0652 240.448 65.3867 241.02 65.959C241.593 66.5314 241.914 67.3076 241.914 68.117V74.1393C241.921 74.5559 241.841 74.9693 241.679 75.3534C241.518 75.7374 241.279 76.0839 240.977 76.3707C240.675 76.6575 240.316 76.8786 239.924 77.0198C239.532 77.161 239.115 77.2194 238.7 77.1912Z" fill="#010101" class="w_b"/>
<path d="M245.618 64.2105C245.185 64.2034 244.758 64.1056 244.366 63.9233C243.973 63.7411 243.624 63.4785 243.339 63.1525C240.216 60.9468 236.595 59.5488 232.8 59.0834C231.798 59.1745 230.832 59.4977 229.977 60.0275C229.123 60.5573 228.403 61.2789 227.876 62.1353C227.455 62.8313 226.775 63.3317 225.985 63.5263C225.196 63.7209 224.361 63.5938 223.665 63.1729C222.969 62.752 222.468 62.0718 222.274 61.282C222.079 60.4922 222.206 59.6574 222.627 58.9613C223.663 57.296 225.068 55.8907 226.733 54.8537C228.398 53.8166 230.279 53.1755 232.23 52.9797C238.009 53.3103 243.536 55.4611 248.018 59.1241C248.286 59.4232 248.492 59.772 248.624 60.1508C248.757 60.5295 248.813 60.9307 248.791 61.3314C248.768 61.732 248.667 62.1242 248.492 62.4856C248.318 62.847 248.074 63.1704 247.774 63.4374C247.177 63.9546 246.408 64.2303 245.618 64.2105Z" fill="#010101" class="w_b"/>
<path d="M354.466 300.423L383.357 316.048L393.489 298.063L354.466 300.423Z" fill="#010101" class="w_b"/>
<path d="M190.111 418.509C189.71 418.52 189.311 418.452 188.937 418.308C188.562 418.165 188.22 417.949 187.929 417.673C187.638 417.397 187.404 417.067 187.241 416.701C187.078 416.334 186.988 415.939 186.978 415.539C183.471 371.633 183.811 327.505 187.995 283.659C188.119 282.895 188.529 282.207 189.141 281.734C189.754 281.261 190.523 281.038 191.293 281.111C192.063 281.183 192.777 281.545 193.29 282.124C193.804 282.703 194.078 283.455 194.058 284.228C189.915 327.723 189.575 371.496 193.041 415.05C193.08 415.447 193.039 415.848 192.92 416.228C192.801 416.609 192.606 416.961 192.348 417.265C192.09 417.569 191.773 417.818 191.417 417.996C191.06 418.175 190.672 418.28 190.274 418.306L190.111 418.509Z" fill="#010101" class="w_b"/>
<path d="M334.974 435.883H334.73C334.329 435.852 333.938 435.743 333.579 435.56C333.221 435.377 332.902 435.126 332.641 434.819C332.38 434.513 332.182 434.158 332.059 433.775C331.936 433.392 331.889 432.988 331.923 432.587C333.55 411.916 335.178 391.571 336.806 371.103C338.637 348.031 340.468 324.837 342.34 300.789C342.365 300.389 342.47 299.999 342.649 299.64C342.827 299.282 343.075 298.963 343.378 298.701C343.681 298.44 344.033 298.242 344.414 298.118C344.794 297.994 345.196 297.948 345.595 297.981C345.996 298.012 346.387 298.122 346.746 298.304C347.104 298.487 347.423 298.738 347.684 299.045C347.945 299.351 348.143 299.706 348.266 300.089C348.39 300.472 348.436 300.876 348.403 301.277C346.571 325.285 344.7 348.519 342.869 371.591C341.241 391.937 339.613 412.282 338.026 433.076C337.965 433.842 337.616 434.557 337.05 435.077C336.485 435.598 335.743 435.886 334.974 435.883Z" fill="#010101" class="w_b"/>
<path d="M360.894 442.313L354.831 441.54C354.831 441.011 354.831 440.482 354.831 439.953L355.563 434.093C355.563 434.093 355.563 433.809 355.563 433.646C361.801 389.147 372.112 345.315 386.367 302.702C386.493 302.298 386.702 301.926 386.98 301.607C387.257 301.288 387.598 301.031 387.981 300.851C388.364 300.672 388.779 300.573 389.202 300.563C389.624 300.552 390.045 300.629 390.436 300.789C390.843 300.91 391.22 301.116 391.542 301.392C391.864 301.669 392.124 302.011 392.304 302.395C392.485 302.779 392.582 303.197 392.59 303.622C392.597 304.047 392.515 304.468 392.348 304.858C377.72 349.105 367.391 394.66 361.504 440.889L360.894 442.313Z" fill="#010101" class="w_b"/>
<path d="M330.744 304.288L330.499 301.317C328.517 277.087 324.942 253.014 319.798 229.253C319.712 228.861 319.705 228.455 319.776 228.059C319.847 227.664 319.996 227.286 320.213 226.948C320.43 226.61 320.712 226.318 321.042 226.088C321.372 225.859 321.745 225.697 322.137 225.612C322.53 225.526 322.936 225.519 323.331 225.59C323.727 225.661 324.105 225.81 324.443 226.027C324.781 226.244 325.073 226.526 325.302 226.856C325.532 227.186 325.694 227.559 325.779 227.951C330.753 251.01 334.273 274.358 336.318 297.859L393.286 294.766C391.456 286.488 389.105 278.333 386.246 270.352C382.779 260.945 380.15 251.25 378.393 241.379C376.236 225.795 373.998 209.681 367.65 195.195C360.733 179.447 349.339 167.85 336.359 163.374C335.945 163.275 335.556 163.09 335.217 162.831C334.879 162.572 334.599 162.245 334.394 161.871C334.19 161.497 334.066 161.084 334.031 160.66C333.995 160.235 334.049 159.808 334.189 159.405C334.329 159.003 334.552 158.634 334.843 158.323C335.134 158.012 335.487 157.765 335.879 157.598C336.271 157.432 336.694 157.349 337.12 157.356C337.546 157.362 337.966 157.458 338.353 157.637C352.961 162.642 365.657 175.46 373.225 192.753C379.858 208.013 382.299 224.289 384.374 240.566C386.068 250.062 388.601 259.39 391.943 268.439C395.417 277.841 398.032 287.538 399.756 297.411L400.244 300.666L330.744 304.288Z" fill="#010101" class="w_b"/>
<path d="M192.231 272.508H191.539C190.75 272.324 190.064 271.837 189.63 271.152C189.196 270.467 189.049 269.639 189.22 268.846C191.336 259.365 195.812 217.616 198.497 192.672C200.898 170.129 206.961 165.246 225.72 153.202C226.405 152.765 227.236 152.618 228.029 152.793C228.823 152.969 229.514 153.452 229.952 154.138C230.389 154.823 230.536 155.654 230.36 156.447C230.185 157.241 229.701 157.932 229.016 158.37C211.03 169.885 206.676 173.385 204.601 193.323C200.939 227.26 197.236 261.115 195.242 270.189C195.076 270.859 194.688 271.453 194.142 271.875C193.595 272.296 192.921 272.519 192.231 272.508Z" fill="#010101" class="w_b"/>
<path d="M251.149 170.007C250.339 170.007 249.563 169.685 248.991 169.113C248.418 168.541 248.097 167.765 248.097 166.955V130.699C248.097 129.89 248.418 129.114 248.991 128.541C249.563 127.969 250.339 127.647 251.149 127.647C251.958 127.647 252.734 127.969 253.307 128.541C253.879 129.114 254.2 129.89 254.2 130.699V167.321C254.102 168.062 253.739 168.742 253.178 169.236C252.617 169.73 251.896 170.004 251.149 170.007Z" fill="#010101" class="w_b"/>
<path d="M294.16 166.834C293.374 166.825 292.621 166.517 292.054 165.973C291.488 165.429 291.149 164.689 291.108 163.904L289.358 116.174C289.345 115.773 289.41 115.373 289.551 114.998C289.693 114.623 289.906 114.279 290.18 113.986C290.454 113.693 290.783 113.457 291.148 113.291C291.513 113.126 291.907 113.033 292.308 113.02C292.709 113.007 293.108 113.072 293.484 113.213C293.859 113.354 294.203 113.568 294.496 113.842C294.789 114.116 295.025 114.445 295.191 114.81C295.356 115.175 295.448 115.569 295.462 115.97L297.212 163.66C297.234 164.467 296.94 165.25 296.393 165.843C295.845 166.436 295.088 166.792 294.282 166.834H294.16Z" fill="#010101" class="w_b"/>
<path d="M270.355 184.656C268.572 184.663 266.794 184.444 265.066 184.005C261.056 183.032 257.377 181.013 254.403 178.153C251.429 175.294 249.267 171.697 248.138 167.729C248.034 167.341 248.007 166.937 248.059 166.539C248.111 166.141 248.241 165.758 248.441 165.41C248.641 165.063 248.908 164.758 249.226 164.513C249.544 164.269 249.907 164.089 250.295 163.985C250.682 163.881 251.086 163.854 251.484 163.906C251.882 163.958 252.266 164.088 252.613 164.288C252.961 164.488 253.266 164.755 253.51 165.073C253.755 165.391 253.934 165.754 254.038 166.142C254.819 169.111 256.39 171.813 258.585 173.959C260.78 176.106 263.516 177.617 266.502 178.331C269.488 179.045 272.612 178.936 275.54 178.014C278.469 177.093 281.093 175.395 283.132 173.1C283.672 172.495 284.43 172.13 285.239 172.084C286.047 172.039 286.841 172.316 287.446 172.856C288.05 173.395 288.415 174.153 288.461 174.962C288.507 175.771 288.229 176.565 287.69 177.169C285.471 179.543 282.787 181.433 279.804 182.722C276.821 184.01 273.605 184.669 270.355 184.656Z" fill="#010101" class="w_b"/>
<path d="M259.449 135.216C258.799 135.251 258.149 135.154 257.537 134.932C247.677 131.08 238.846 124.993 231.739 117.15C227.652 113.505 224.321 109.095 221.932 104.169C220.172 98.9334 219.453 93.4041 219.816 87.8926L220.06 38.2493C220.071 37.4432 220.396 36.6731 220.966 36.103C221.536 35.533 222.306 35.208 223.112 35.1975C223.511 35.1975 223.906 35.2767 224.274 35.4305C224.642 35.5844 224.976 35.8099 225.256 36.0938C225.536 36.3777 225.757 36.7145 225.906 37.0845C226.055 37.4546 226.129 37.8505 226.123 38.2493L226.042 87.8112C225.691 92.5515 226.243 97.3153 227.669 101.85C229.773 106.036 232.66 109.779 236.174 112.877C242.648 120.05 250.699 125.621 259.693 129.153C263.152 129.479 285.817 121.544 289.235 113.731C292.444 107.109 294.809 100.109 296.275 92.8976C296.616 89.9369 296.616 86.9469 296.275 83.9862C295.746 78.1267 295.217 72.023 298.838 68.076C300.06 66.8582 301.525 65.9131 303.138 65.3029C304.752 64.6927 306.476 64.4313 308.197 64.5359C309.937 64.4112 311.661 64.9328 313.039 66.0007C313.796 66.7124 314.377 67.5899 314.738 68.5643C315.098 69.5387 315.227 70.5834 315.115 71.6161C314.482 77.3232 312.285 82.7446 308.767 87.2822C307.628 89.0726 306.407 90.9037 305.349 92.8976C305.068 93.428 304.635 93.8624 304.106 94.1452C303.577 94.4279 302.975 94.5461 302.378 94.4845C300.808 101.99 298.32 109.274 294.973 116.173C290.619 125.98 267.506 135.216 259.449 135.216ZM308.279 70.7616C307.399 70.6646 306.508 70.7481 305.662 71.007C304.815 71.2659 304.03 71.6947 303.355 72.2672C301.524 74.261 301.971 79.0219 302.378 83.5793C302.378 84.3117 302.378 85.0442 302.378 85.7766L303.477 84.0676C306.468 80.4452 308.398 76.0649 309.052 71.4127C309.101 71.1984 309.101 70.9759 309.052 70.7616H308.279Z" fill="#010101" class="w_b"/>
<path d="M217.375 91.8809C216.772 91.8777 216.181 91.7088 215.666 91.3926C213.657 89.9493 212.019 88.0495 210.887 85.8494C209.755 83.6493 209.162 81.2119 209.156 78.7377C209.024 76.2691 209.487 73.805 210.507 71.553C211.527 69.301 213.073 67.3272 215.015 65.7979C215.663 65.3122 216.477 65.1037 217.278 65.2182C217.675 65.2749 218.056 65.4091 218.401 65.6133C218.746 65.8175 219.047 66.0876 219.288 66.4082C219.528 66.7289 219.703 67.0937 219.803 67.4819C219.902 67.8702 219.924 68.2742 219.868 68.6709C219.811 69.0677 219.677 69.4494 219.472 69.7942C219.268 70.1391 218.998 70.4404 218.678 70.6808C217.57 71.6726 216.691 72.8935 216.102 74.2588C215.513 75.6241 215.228 77.1012 215.266 78.5876C215.305 80.0741 215.667 81.5343 216.326 82.8671C216.985 84.2 217.926 85.3734 219.084 86.3062C219.623 86.673 220.03 87.2026 220.247 87.8175C220.463 88.4325 220.476 89.1004 220.285 89.7236C220.094 90.3468 219.708 90.8924 219.185 91.2806C218.661 91.6688 218.027 91.8792 217.375 91.8809Z" fill="#010101" class="w_b"/>
<path d="M258.638 93.8337H248.466V91.026C247.943 83.554 248.093 76.0503 248.913 68.6052C249.005 67.7958 249.414 67.0559 250.052 66.5485C250.689 66.041 251.501 65.8075 252.311 65.8992C253.12 65.9909 253.86 66.4004 254.368 67.0376C254.875 67.6748 255.109 68.4875 255.017 69.2969C254.326 75.4427 254.122 81.6334 254.406 87.8114H258.964C259.366 87.8112 259.765 87.8917 260.135 88.0481C260.506 88.2045 260.842 88.4336 261.122 88.7219C261.403 89.0102 261.623 89.3518 261.77 89.7266C261.916 90.1014 261.986 90.5017 261.975 90.9039C261.96 91.3195 261.861 91.7276 261.682 92.1033C261.504 92.479 261.251 92.8143 260.939 93.0886C260.626 93.363 260.261 93.5706 259.865 93.6987C259.47 93.8268 259.052 93.8728 258.638 93.8337Z" fill="#010101" class="w_b"/>
<path d="M298.352 53.3868H297.742C297.347 53.314 296.97 53.1628 296.634 52.9422C296.299 52.7216 296.01 52.4361 295.787 52.1024C295.563 51.7687 295.408 51.3936 295.332 50.9992C295.255 50.6048 295.258 50.1991 295.341 49.806C296.684 43.0106 296.887 14.0791 272.757 7.52786C269.533 6.58159 266.189 6.10199 262.829 6.10367C251.476 6.38851 236.135 11.1901 230.276 23.845C230.118 24.2244 229.885 24.568 229.591 24.8551C229.297 25.1423 228.948 25.3672 228.565 25.5163C228.183 25.6654 227.773 25.7356 227.363 25.7228C226.952 25.71 226.548 25.6143 226.175 25.4416C225.802 25.2689 225.468 25.0227 225.193 24.7177C224.918 24.4127 224.707 24.0553 224.573 23.6668C224.439 23.2783 224.385 22.8668 224.414 22.4569C224.443 22.047 224.554 21.6472 224.742 21.2815C231.781 6.06298 249.604 0.325529 262.707 0C266.655 0.00693044 270.585 0.554557 274.385 1.62764C300.427 8.7079 303.805 38.4938 301.322 50.986C301.181 51.668 300.808 52.2799 300.267 52.7176C299.725 53.1554 299.048 53.3918 298.352 53.3868Z" fill="#010101" class="w_b"/>
<path d="M256.156 156.986C255.04 156.984 253.924 156.903 252.819 156.742L250.459 156.376L247.692 126.305L252.046 127.607C257.976 129.225 264.257 129.015 270.065 127.003C275.874 124.992 280.939 121.274 284.599 116.335L294.894 102.216L290.052 118.94C289.604 120.608 278.821 156.986 256.156 156.986ZM254.569 134.28L256.156 151.045C266.98 151.045 274.833 139.285 279.472 129.682C271.938 134.007 263.152 135.629 254.569 134.28Z" fill="#010101" class="w_b"/>
<path d="M132.74 188.807L18.8047 143.151C20.1882 159.428 28.8554 178.634 43.7484 195.48C48.282 200.609 53.2663 205.321 58.6413 209.559C58.5125 206.896 58.9422 204.234 59.9028 201.747C61.0421 199.102 63.9719 195.602 67.0237 197.678C70.0756 199.753 70.808 204.921 71.5404 208.746C79.3938 199.671 88.7121 213.181 95.9551 227.138C100.714 228.139 105.635 228.07 110.364 226.937C115.093 225.804 119.511 223.635 123.3 220.587C131.356 213.506 134.327 201.991 132.74 188.807Z" fill="#EC6275"/>
<path d="M61.3653 231.533C46.5537 230.149 -2.80467 178.919 0.125098 135.868L18.4361 142.907C20.5521 169.641 38.0086 194.463 59.9004 210.984L61.3653 231.533Z" fill="#ADCE6B"/>
<path d="M99.6976 246.71L99.0059 230.434C104.326 230.312 109.564 229.097 114.395 226.864C119.225 224.631 123.544 221.427 127.083 217.453C132.976 209.864 135.65 200.262 134.529 190.719L149.992 197.067C151.66 210.576 148.201 217.697 139.494 227.951C134.497 233.635 128.387 238.232 121.541 241.459C114.696 244.685 107.261 246.473 99.6976 246.71Z" fill="#ADCE6B"/>
<path d="M55.6693 209.803C54.9345 209.83 54.2185 209.567 53.6755 209.071C31.743 190.312 17.9893 166.264 15.9141 143.151C15.857 142.35 16.1138 141.558 16.6302 140.943C17.1467 140.328 17.8822 139.938 18.6811 139.855C19.4867 139.797 20.2834 140.053 20.9051 140.569C21.5268 141.084 21.9254 141.82 22.0178 142.622C23.9302 164.148 36.9107 186.691 57.6632 204.473C57.9673 204.73 58.2172 205.046 58.3983 205.401C58.5795 205.756 58.6884 206.144 58.7187 206.541C58.749 206.938 58.7001 207.338 58.5747 207.716C58.4494 208.095 58.2503 208.445 57.9887 208.745C57.7049 209.083 57.3495 209.353 56.9483 209.536C56.5471 209.719 56.1102 209.81 55.6693 209.803Z" fill="#010101" class="w_b"/>
<path d="M102.792 230.516H99.4957C99.0736 230.517 98.6558 230.431 98.2688 230.262C97.8818 230.093 97.534 229.846 97.2473 229.537C96.9606 229.227 96.7413 228.861 96.6033 228.462C96.4653 228.063 96.4115 227.64 96.4454 227.219C96.4793 226.798 96.6001 226.389 96.8002 226.017C97.0003 225.646 97.2753 225.32 97.6078 225.06C97.9404 224.8 98.3233 224.611 98.7323 224.507C99.1413 224.403 99.5675 224.384 99.984 224.453C104.028 224.946 108.132 224.509 111.982 223.177C115.832 221.844 119.327 219.65 122.201 216.762C125.486 212.984 127.89 208.524 129.241 203.704C130.592 198.883 130.856 193.823 130.014 188.889C129.923 188.085 130.154 187.277 130.658 186.644C131.161 186.011 131.896 185.603 132.7 185.511C133.096 185.46 133.498 185.488 133.883 185.594C134.268 185.7 134.628 185.881 134.942 186.127C135.256 186.373 135.518 186.679 135.713 187.028C135.908 187.376 136.032 187.76 136.077 188.156C136.997 193.943 136.628 199.861 134.996 205.488C133.364 211.115 130.51 216.313 126.637 220.709C123.563 223.913 119.855 226.44 115.749 228.129C111.643 229.817 107.23 230.63 102.792 230.516Z" fill="#010101" class="w_b"/>
<path d="M55.545 167.811L49.0751 163.742C46.3081 161.951 43.7852 166.346 46.5115 168.137L52.9814 172.206C55.7484 173.996 58.312 169.561 55.545 167.811Z" fill="#010101" class="w_b"/>
<path d="M112.802 199.875L105.152 200.689C101.937 201.014 101.897 206.101 105.152 205.775L112.802 204.961C116.016 204.636 116.057 199.549 112.802 199.875Z" fill="#010101" class="w_b"/>
<path d="M98.0684 188.115L91.5985 184.046C88.8315 182.296 86.3087 186.691 89.035 188.44L95.5049 192.51C98.2719 194.3 100.835 189.905 98.0684 188.115Z" fill="#010101" class="w_b"/>
<path d="M81.4672 196.701C80.3686 198.451 79.2699 200.16 78.1306 201.869C76.3808 204.636 80.7755 207.199 82.5252 204.432C83.6239 202.723 84.7632 201.014 85.8619 199.265C87.6523 196.538 83.2169 193.975 81.4672 196.701Z" fill="#010101" class="w_b"/>
<path d="M56.3604 182.866L48.6291 182.622C48.0377 182.728 47.5025 183.039 47.1171 183.5C46.7317 183.962 46.5205 184.543 46.5205 185.144C46.5205 185.745 46.7317 186.327 47.1171 186.788C47.5025 187.25 48.0377 187.561 48.6291 187.667L56.3197 187.911C56.9389 187.833 57.5081 187.531 57.9207 187.063C58.3333 186.595 58.5609 185.992 58.5609 185.368C58.5609 184.744 58.3333 184.142 57.9207 183.673C57.5081 183.205 56.9389 182.903 56.3197 182.825L56.3604 182.866Z" fill="#010101" class="w_b"/>
<path d="M101.527 216.151L93.8359 215.907C93.2168 215.986 92.6476 216.287 92.235 216.755C91.8224 217.224 91.5947 217.826 91.5947 218.45C91.5947 219.074 91.8224 219.677 92.235 220.145C92.6476 220.614 93.2168 220.915 93.8359 220.994L101.527 221.238C102.146 221.159 102.715 220.858 103.128 220.389C103.54 219.921 103.768 219.319 103.768 218.695C103.768 218.07 103.54 217.468 103.128 217C102.715 216.531 102.146 216.23 101.527 216.151Z" fill="#010101" class="w_b"/>
<path d="M36.91 166.793C36.0555 165.288 35.2824 163.701 34.3872 162.195C34.0079 161.698 33.4603 161.357 32.8472 161.236C32.2341 161.115 31.5978 161.222 31.058 161.536C30.5182 161.851 30.1119 162.353 29.9157 162.946C29.7195 163.539 29.7468 164.184 29.9925 164.759C30.8878 166.264 31.6609 167.851 32.5154 169.357C32.8947 169.853 33.4423 170.195 34.0554 170.316C34.6685 170.437 35.3048 170.33 35.8446 170.015C36.3845 169.7 36.7906 169.199 36.9869 168.606C37.1831 168.012 37.1557 167.368 36.91 166.793Z" fill="#010101" class="w_b"/>
<path d="M117.804 192.062C116.908 190.516 116.135 188.969 115.281 187.423C114.901 186.926 114.354 186.585 113.741 186.464C113.128 186.343 112.491 186.45 111.952 186.765C111.412 187.079 111.005 187.581 110.809 188.174C110.613 188.767 110.64 189.412 110.886 189.987C111.741 191.533 112.514 193.079 113.409 194.625C113.788 195.122 114.336 195.463 114.949 195.585C115.562 195.706 116.198 195.599 116.738 195.284C117.278 194.969 117.684 194.468 117.88 193.875C118.077 193.281 118.049 192.637 117.804 192.062Z" fill="#010101" class="w_b"/>
<path d="M74.0194 183.598C73.6125 180.912 73.0428 178.227 72.5952 175.46C72.1476 172.693 67.1833 173.588 67.7123 176.802C68.2412 180.017 68.6889 182.174 69.1365 184.941C69.5841 187.708 74.5484 186.772 74.0194 183.598Z" fill="#010101" class="w_b"/>
<path d="M142.218 195.114C141.855 195.172 141.484 195.172 141.12 195.114L7.9376 141.524C7.54908 141.387 7.19234 141.172 6.88889 140.894C6.58544 140.615 6.34156 140.278 6.17195 139.902C6.00235 139.527 5.91052 139.121 5.90202 138.709C5.89351 138.297 5.9685 137.888 6.12246 137.505C6.27642 137.123 6.50617 136.776 6.79786 136.485C7.08954 136.194 7.43713 135.965 7.81966 135.812C8.20219 135.659 8.61175 135.585 9.02364 135.595C9.43554 135.604 9.84124 135.697 10.2163 135.868L143.48 189.214C144.162 189.472 144.729 189.967 145.078 190.607C145.427 191.248 145.535 191.992 145.382 192.705C145.23 193.419 144.827 194.054 144.247 194.496C143.666 194.938 142.947 195.157 142.218 195.114Z" fill="#010101" class="w_b"/>
<path d="M68.6497 251.146C68.0998 251.152 67.5588 251.007 67.0854 250.728C66.6119 250.448 66.2241 250.044 65.9641 249.559C58.3146 235.561 55.1071 219.566 56.7679 203.7C57.3376 198.126 60.308 192.714 65.8013 193.161C67.5703 193.485 69.2032 194.327 70.4928 195.58C71.7824 196.833 72.6705 198.442 73.0443 200.201C73.2447 200.731 73.4079 201.275 73.5326 201.828C73.6029 202.121 73.6982 202.407 73.8175 202.683C74.9855 202.135 76.2745 201.897 77.5611 201.991C80.037 202.234 82.3796 203.228 84.2751 204.84C92.4133 211.106 95.9128 220.75 99.2495 230.027C100.429 233.201 101.61 236.538 102.993 239.549C103.97 241.746 105.15 242.723 105.435 242.601C106.217 242.391 107.051 242.5 107.753 242.904C108.455 243.308 108.968 243.975 109.178 244.758C109.389 245.54 109.28 246.374 108.875 247.076C108.471 247.778 107.804 248.291 107.021 248.501C103.319 249.478 99.6157 247.036 97.4184 242.072C95.9535 238.817 94.7327 235.399 93.3492 232.103C90.1346 223.232 87.1235 214.89 80.3688 209.682C79.4565 208.839 78.3307 208.262 77.1135 208.014C76.8754 207.985 76.6339 208.018 76.4128 208.111C76.1917 208.204 75.9984 208.353 75.852 208.542L74.4685 213.71L70.7249 209.885C69.136 208.048 68.0434 205.835 67.551 203.456L67.1441 202.073C66.6151 200.486 65.7199 199.224 65.0282 199.184C64.3364 199.143 62.8716 201.584 62.5867 204.27C61.0955 218.915 64.0747 233.669 71.1319 246.589C71.5002 247.288 71.5831 248.103 71.363 248.861C71.1429 249.62 70.637 250.264 69.9518 250.658C69.558 250.913 69.1138 251.079 68.6497 251.146Z" fill="#010101" class="w_b"/>
<path d="M119.433 316.048C119.041 316.045 118.653 315.962 118.294 315.804C117.474 315.463 116.788 314.863 116.341 314.095L108.203 299.894C104.421 292.029 99.173 284.957 92.7399 279.06C89.4477 276.572 85.9334 274.393 82.2415 272.55C80.4918 271.614 78.7421 270.678 77.0331 269.661C60.5243 259.943 47.8977 244.8 41.3062 226.813C41.1566 226.433 41.0847 226.027 41.0947 225.619C41.1046 225.211 41.1963 224.81 41.3642 224.438C41.5322 224.066 41.773 223.732 42.0724 223.454C42.3719 223.177 42.7238 222.963 43.1075 222.824C43.4913 222.685 43.8989 222.625 44.3064 222.646C44.7139 222.668 45.1129 222.771 45.4798 222.949C45.8468 223.128 46.1743 223.378 46.4429 223.685C46.7115 223.992 46.9158 224.35 47.0437 224.737C53.2336 241.342 64.9039 255.338 80.1256 264.411C81.7939 265.388 83.4623 266.283 85.1306 267.178C89.1561 269.19 92.9842 271.574 96.5648 274.299C103.68 280.66 109.509 288.326 113.737 296.883L121.509 310.637C121.996 311.036 122.348 311.578 122.516 312.186C122.684 312.794 122.658 313.439 122.444 314.033C122.23 314.626 121.837 315.139 121.32 315.5C120.803 315.86 120.186 316.052 119.555 316.048H119.433Z" fill="#010101" class="w_b"/>
<path d="M167 317.635C166.462 317.63 165.936 317.484 165.472 317.213C165.008 316.942 164.623 316.554 164.355 316.089C158.251 305.387 145.352 292.977 132.9 281.013C123.546 272.631 114.891 263.499 107.021 253.71C106.606 253.068 106.446 252.294 106.574 251.54C106.703 250.787 107.109 250.109 107.713 249.64C108.346 249.211 109.12 249.04 109.876 249.161C110.632 249.282 111.313 249.686 111.782 250.291C119.448 259.787 127.857 268.658 136.929 276.822C149.746 289.03 162.971 301.807 169.482 313.444C169.864 314.136 169.959 314.951 169.746 315.712C169.532 316.473 169.028 317.12 168.342 317.513C167.911 317.662 167.45 317.704 167 317.635Z" fill="#010101" class="w_b"/>
<path d="M158.497 357.35C153.709 356.9 149.252 354.715 145.964 351.205C137.239 343.451 129.231 334.926 122.038 325.733C121.536 325.096 121.308 324.286 121.403 323.481C121.498 322.676 121.91 321.942 122.546 321.44C123.183 320.938 123.993 320.71 124.798 320.805C125.603 320.9 126.338 321.312 126.839 321.948C133.778 330.879 141.543 339.136 150.033 346.607C152.303 349.249 155.516 350.899 158.985 351.205C160.797 350.905 162.512 350.18 163.99 349.089C171.872 344.191 178.383 337.373 182.912 329.273C183.313 328.595 183.954 328.094 184.708 327.867C185.462 327.641 186.273 327.707 186.981 328.052C187.673 328.439 188.188 329.08 188.416 329.839C188.643 330.599 188.567 331.417 188.202 332.121C183.235 341.104 176.084 348.69 167.409 354.176C165.108 355.817 162.439 356.865 159.636 357.228L158.497 357.35Z" fill="#010101" class="w_b"/>
<path d="M197.233 274.503C187.834 274.503 167.366 267.667 162.971 261.482L161.954 260.058L193.937 190.354C194.277 189.614 194.897 189.04 195.66 188.758C196.423 188.476 197.267 188.508 198.006 188.848C198.746 189.188 199.32 189.808 199.602 190.571C199.884 191.334 199.852 192.178 199.512 192.917L169.075 259.081C174.772 263.638 194.344 269.579 198.454 268.318C198.839 268.2 199.243 268.16 199.643 268.198C200.044 268.237 200.433 268.354 200.788 268.543C201.143 268.732 201.458 268.989 201.713 269.299C201.969 269.61 202.162 269.968 202.279 270.352C202.397 270.737 202.437 271.141 202.399 271.542C202.36 271.942 202.243 272.331 202.054 272.686C201.865 273.041 201.608 273.356 201.298 273.612C200.987 273.868 200.629 274.06 200.245 274.177C199.258 274.41 198.247 274.52 197.233 274.503Z" fill="#010101" class="w_b"/>
<path d="M157.562 305.672C157.198 305.729 156.827 305.729 156.463 305.672C156.074 305.528 155.718 305.307 155.416 305.023C155.114 304.738 154.872 304.396 154.705 304.017C154.538 303.637 154.449 303.228 154.444 302.813C154.438 302.398 154.516 301.987 154.673 301.603C156.925 295.656 159.731 289.934 163.055 284.512C164.764 281.582 166.514 278.571 168.589 274.462C168.962 273.755 169.597 273.223 170.358 272.98C171.119 272.736 171.944 272.801 172.658 273.159C173.015 273.337 173.334 273.583 173.595 273.884C173.856 274.185 174.055 274.535 174.18 274.913C174.305 275.292 174.353 275.691 174.322 276.089C174.292 276.486 174.183 276.874 174.001 277.229C171.804 281.298 169.932 284.716 168.304 287.564C165.071 292.713 162.346 298.165 160.166 303.841C159.942 304.356 159.581 304.8 159.122 305.123C158.662 305.446 158.122 305.636 157.562 305.672Z" fill="#010101" class="w_b"/>
</svg>
