<svg width="276" height="489" viewBox="0 0 276 489" fill="none" xmlns="http://www.w3.org/2000/svg">
<path d="M154.223 241.872L223.826 395.255L224.922 345.199L154.223 241.872Z" fill="#010101" class="w_b"/>
<path d="M131.094 105.223L112.826 119.4L76.581 118.048L76.1426 80.0493C76.1426 80.0493 92.9131 110.558 113.301 110.558C127.148 110.558 131.094 105.223 131.094 105.223Z" fill="#010101" class="w_b"/>
<path d="M19.3647 193.863L0 475.82L32.2623 488.718L30.947 470.668L23.6761 469.207L19.3647 193.863Z" fill="#010101" class="w_b"/>
<path d="M111.476 267.339L74.6465 147.351L46.8782 161.088C40.2181 163.892 34.1354 167.906 28.9385 172.927C28.4368 173.392 27.7791 173.653 27.0946 173.658C26.4102 173.663 25.7486 173.412 25.2401 172.954C24.7316 172.496 24.4129 171.864 24.3468 171.183C24.2807 170.502 24.4719 169.82 24.8829 169.273C30.5385 163.74 37.1812 159.315 44.4668 156.229L77.9713 139.458L111.659 249.07L130.439 192.474C130.662 191.781 131.151 191.205 131.798 190.873C132.446 190.54 133.199 190.479 133.892 190.702C134.584 190.925 135.16 191.414 135.493 192.061C135.825 192.709 135.886 193.462 135.664 194.155L111.476 267.339Z" fill="#010101" class="w_b"/>
<path d="M264.092 290.321C263.554 290.32 263.027 290.16 262.578 289.861C262.13 289.562 261.78 289.137 261.571 288.64C248.601 258.168 214.073 177.713 209.652 171.721C205.998 166.679 171.8 152.284 151.193 144.392C150.84 144.267 150.517 144.071 150.243 143.817C149.969 143.562 149.75 143.254 149.599 142.912C149.449 142.57 149.37 142.2 149.367 141.826C149.365 141.453 149.439 141.082 149.585 140.738C149.714 140.389 149.912 140.069 150.168 139.798C150.423 139.527 150.73 139.309 151.071 139.159C151.412 139.009 151.78 138.93 152.152 138.925C152.524 138.92 152.894 138.989 153.239 139.13C162.446 142.784 208.702 160.504 214.329 168.36C219.956 176.215 264.896 281.844 266.833 286.338C266.977 286.674 267.054 287.035 267.059 287.401C267.064 287.766 266.997 288.129 266.861 288.469C266.725 288.808 266.524 289.118 266.268 289.379C266.012 289.64 265.708 289.849 265.371 289.992C264.98 290.209 264.54 290.322 264.092 290.321Z" fill="#010101" class="w_b"/>
<path d="M227.7 474.176L20.8271 471.947L16.4426 177.75C16.4378 177.39 16.5039 177.033 16.6371 176.699C16.7704 176.364 16.9682 176.06 17.2193 175.802C17.4704 175.544 17.7698 175.338 18.1004 175.196C18.4311 175.054 18.7865 174.978 19.1463 174.973C19.8668 174.973 20.5583 175.257 21.0712 175.763C21.5841 176.269 21.877 176.957 21.8866 177.677L26.198 466.503L221.964 468.622L220.868 342.094L224.778 343.812C241.256 351.119 253.423 351.119 260.876 343.812C273.007 331.827 269.791 304.059 267.928 299.638C264.859 293.573 192.406 218.745 144.469 169.931C137.161 161.966 124.52 148.849 120.574 147.315C112.93 144.772 104.978 143.273 96.934 142.857C96.7394 144.193 96.956 145.557 97.5551 146.767C100.734 147.614 103.828 148.751 106.799 150.165L109.868 151.59L107.822 154.293C105.739 157.07 100.88 164.999 101.976 170.333L138.513 192.95C138.848 193.124 139.143 193.366 139.38 193.659C139.617 193.953 139.791 194.293 139.89 194.657C139.99 195.021 140.013 195.402 139.959 195.775C139.904 196.148 139.773 196.507 139.574 196.827C139.374 197.148 139.111 197.423 138.8 197.637C138.489 197.851 138.137 197.999 137.767 198.07C137.396 198.142 137.015 198.136 136.647 198.053C136.278 197.971 135.931 197.813 135.627 197.59L97.2628 173.914L96.9705 173.037C94.5956 166.314 98.7243 158.13 101.428 153.855C99.7785 153.119 98.0666 152.533 96.3129 152.101C95.2758 151.864 94.3258 151.341 93.5703 150.592C92.8148 149.843 92.284 148.898 92.038 147.863C91.4967 146.332 91.3402 144.691 91.5824 143.086C91.8245 141.48 92.4577 139.959 93.4264 138.655C97.482 134.636 121.158 141.578 122.656 142.309C128.977 144.757 145.346 162.733 148.561 166.314C168.693 186.811 269.755 289.883 273.08 297.592C275.564 303.438 278.999 333.8 264.822 347.831C256.273 356.307 243.411 357.221 226.531 350.644L227.7 474.176Z" fill="#010101" class="w_b"/>
<path d="M223.825 349.036C223.369 349.037 222.919 348.924 222.517 348.707C222.115 348.49 221.773 348.176 221.524 347.793C213.997 335.955 142.859 228.171 142.128 227.221L141.471 226.234L151.555 184.801C151.641 184.451 151.796 184.121 152.01 183.83C152.223 183.54 152.492 183.294 152.801 183.108C153.11 182.921 153.452 182.797 153.809 182.743C154.166 182.689 154.53 182.705 154.88 182.792C155.23 182.878 155.56 183.032 155.85 183.246C156.141 183.46 156.387 183.729 156.573 184.038C156.76 184.347 156.884 184.689 156.938 185.046C156.992 185.402 156.976 185.766 156.889 186.116L147.39 225.211C154.697 236.172 219.003 333.763 226.164 344.98C226.506 345.584 226.609 346.294 226.453 346.97C226.298 347.646 225.895 348.24 225.323 348.634C224.872 348.905 224.353 349.045 223.825 349.036Z" fill="#010101" class="w_b"/>
<path d="M146.955 215.858C146.519 215.863 146.089 215.762 145.701 215.565C145.313 215.368 144.979 215.08 144.726 214.725L134.203 200.11L148.16 170.588C148.477 169.935 149.036 169.432 149.719 169.186C150.402 168.94 151.154 168.971 151.814 169.273C152.141 169.426 152.434 169.642 152.677 169.909C152.92 170.175 153.108 170.487 153.231 170.827C153.353 171.166 153.407 171.526 153.389 171.887C153.372 172.247 153.284 172.601 153.129 172.927L140.524 199.526L149.183 211.51C149.565 212.084 149.713 212.781 149.597 213.46C149.482 214.139 149.112 214.748 148.562 215.164C148.121 215.572 147.554 215.817 146.955 215.858Z" fill="#010101" class="w_b"/>
<path d="M156.016 226.929C155.593 226.936 155.174 226.844 154.793 226.66C154.413 226.476 154.08 226.205 153.823 225.869L151.595 222.91C151.214 222.342 151.059 221.653 151.16 220.977C151.262 220.301 151.612 219.687 152.143 219.256C152.429 219.035 152.756 218.874 153.105 218.782C153.455 218.69 153.819 218.669 154.176 218.72C154.534 218.771 154.878 218.894 155.187 219.08C155.497 219.266 155.766 219.512 155.979 219.804L158.208 222.727C158.635 223.312 158.816 224.04 158.714 224.757C158.611 225.473 158.233 226.122 157.66 226.564C157.166 226.862 156.589 226.991 156.016 226.929Z" fill="#010101" class="w_b"/>
<path d="M116.663 158.495C116.421 158.53 116.175 158.53 115.933 158.495C114.261 158.046 112.687 157.29 111.292 156.266C110.749 155.845 110.386 155.233 110.277 154.555C110.169 153.876 110.323 153.181 110.708 152.612C110.918 152.319 111.185 152.069 111.492 151.879C111.799 151.689 112.14 151.561 112.497 151.504C112.853 151.446 113.218 151.459 113.569 151.543C113.92 151.627 114.252 151.779 114.544 151.991C115.396 152.611 116.347 153.081 117.357 153.379C117.985 153.562 118.527 153.963 118.886 154.51C119.244 155.057 119.395 155.714 119.311 156.362C119.227 157.011 118.914 157.608 118.429 158.046C117.943 158.484 117.317 158.734 116.663 158.75V158.495Z" fill="#010101" class="w_b"/>
<path d="M96.9339 220.827V219.585C96.8686 219.004 96.9834 218.418 97.2627 217.904L100.916 176.617C100.941 175.915 101.168 175.234 101.57 174.658C101.972 174.081 102.531 173.632 103.182 173.366L104.826 172.744L106.36 174.096C106.79 174.513 107.087 175.047 107.217 175.631C107.347 176.215 107.303 176.825 107.091 177.385L106.47 179.029H106.214L102.561 220.754L96.9339 220.827Z" fill="#010101" class="w_b"/>
<path d="M125.905 213.666C125.182 213.647 124.494 213.346 123.989 212.827C123.484 212.308 123.202 211.613 123.202 210.889C123.272 202.693 122.476 194.512 120.827 186.482C120.755 186.13 120.753 185.766 120.822 185.413C120.89 185.059 121.027 184.723 121.226 184.423C121.424 184.123 121.68 183.864 121.978 183.663C122.277 183.461 122.612 183.321 122.964 183.249C123.317 183.177 123.68 183.175 124.034 183.243C124.387 183.312 124.723 183.449 125.024 183.648C125.324 183.846 125.582 184.102 125.784 184.4C125.985 184.698 126.126 185.033 126.198 185.386C127.922 193.801 128.755 202.373 128.682 210.962C128.678 211.322 128.602 211.677 128.46 212.008C128.318 212.339 128.112 212.638 127.854 212.889C127.596 213.14 127.291 213.338 126.957 213.471C126.623 213.605 126.265 213.671 125.905 213.666Z" fill="#010101" class="w_b"/>
<path d="M141.033 167.446C140.652 167.453 140.276 167.365 139.937 167.191C139.594 167.055 139.283 166.852 139.021 166.592C138.76 166.332 138.555 166.021 138.418 165.679C138.281 165.337 138.216 164.97 138.226 164.602C138.235 164.234 138.321 163.871 138.476 163.537L138.951 162.404C139.034 162.147 139.171 161.91 139.353 161.71L147.318 144.903C145.418 145.524 143.445 146.072 141.545 146.62C137.589 147.574 133.735 148.908 130.036 150.603C129.386 150.919 128.637 150.966 127.953 150.734C127.269 150.501 126.704 150.008 126.382 149.36L114.142 124.369C111.539 130.322 108.434 136.042 104.862 141.468C104.468 142.04 103.874 142.443 103.198 142.598C102.522 142.754 101.812 142.651 101.208 142.309C100.649 141.904 100.259 141.308 100.111 140.635C99.9624 139.961 100.067 139.257 100.404 138.655C104.828 131.849 108.503 124.585 111.365 116.989C111.542 116.48 111.866 116.035 112.296 115.712C112.727 115.389 113.244 115.201 113.782 115.174C114.319 115.146 114.853 115.28 115.314 115.558C115.776 115.836 116.143 116.245 116.371 116.733L130.109 144.83C133.375 143.583 136.704 142.51 140.083 141.615C144.041 140.667 147.896 139.333 151.593 137.632C152.098 137.364 152.676 137.265 153.242 137.35C153.808 137.436 154.331 137.701 154.735 138.107C155.149 138.504 155.428 139.02 155.533 139.584C155.637 140.148 155.563 140.73 155.319 141.249L143.518 166.021C143.282 166.471 142.923 166.843 142.483 167.096C142.043 167.348 141.54 167.47 141.033 167.446Z" fill="#010101" class="w_b"/>
<path d="M94.9967 149.031C94.4301 149.018 93.8715 148.894 93.3525 148.666C87.287 146.243 80.9785 144.479 74.5359 143.404C74.1808 143.332 73.8434 143.191 73.5429 142.989C73.2424 142.786 72.9847 142.527 72.7845 142.225C72.5844 141.923 72.4457 141.585 72.3763 141.229C72.3069 140.873 72.3082 140.508 72.3802 140.153C72.4521 139.798 72.5933 139.46 72.7957 139.16C72.9981 138.859 73.2576 138.601 73.5596 138.401C73.8615 138.201 74.2 138.062 74.5556 137.993C74.9112 137.924 75.2769 137.925 75.632 137.997C82.0006 139.048 88.2446 140.75 94.266 143.076C94.6663 142.894 95.1067 142.818 95.5447 142.856C96.138 142.911 96.7027 143.137 97.1699 143.506C97.637 143.876 97.9864 144.374 98.1754 144.939C98.3437 145.492 98.3648 146.08 98.2367 146.644C98.1085 147.207 97.8355 147.728 97.4447 148.154C96.7772 148.76 95.8967 149.075 94.9967 149.031Z" fill="#010101" class="w_b"/>
<path d="M114.251 113.517C111.895 113.539 109.551 113.181 107.309 112.457C104.638 111.495 102.106 110.18 99.7827 108.548C89.6619 101.971 72.5625 87.9045 71.6125 67.4072C71.5928 67.0472 71.6443 66.6869 71.7641 66.3468C71.8839 66.0068 72.0696 65.6937 72.3106 65.4256C72.5515 65.1575 72.8431 64.9395 73.1685 64.7842C73.4938 64.629 73.8466 64.5394 74.2067 64.5207C74.9372 64.4909 75.6501 64.7504 76.1905 65.2429C76.7309 65.7354 77.0552 66.4212 77.0931 67.1514C77.6777 80.3413 87.0677 93.7505 102.669 103.944C104.627 105.316 106.751 106.433 108.99 107.269C113.025 108.431 117.325 108.277 121.267 106.831C129.418 103.521 136.162 97.4744 140.339 89.7314C145.009 81.8213 147.867 72.9739 148.706 63.8265C148.733 63.4677 148.832 63.1179 148.997 62.7977C149.161 62.4776 149.388 62.1935 149.663 61.9621C149.939 61.7307 150.258 61.5566 150.602 61.4501C150.946 61.3437 151.307 61.3069 151.665 61.342C152.026 61.374 152.376 61.4772 152.697 61.6454C153.017 61.8137 153.301 62.0437 153.532 62.3223C153.763 62.6008 153.937 62.9224 154.043 63.2683C154.149 63.6143 154.185 63.9779 154.15 64.338C153.243 74.2915 150.122 83.9164 145.016 92.5082C140.198 101.362 132.446 108.261 123.093 112.019C120.244 112.985 117.26 113.491 114.251 113.517Z" fill="#010101" class="w_b"/>
<path d="M111.877 77.0895H111.073C108.098 77.234 105.144 76.524 102.56 75.0434C100.952 74.1019 99.7141 72.6401 99.0498 70.8995C98.3854 69.159 98.3348 67.2439 98.9062 65.4707C99.0382 65.1348 99.235 64.8282 99.4854 64.5684C99.7359 64.3086 100.035 64.1007 100.366 63.9565C100.697 63.8123 101.053 63.7346 101.413 63.728C101.774 63.7214 102.133 63.7859 102.469 63.9178C102.805 64.0498 103.111 64.2466 103.371 64.497C103.631 64.7475 103.839 65.0466 103.983 65.3774C104.127 65.7082 104.205 66.0642 104.211 66.425C104.218 66.7858 104.153 67.1443 104.021 67.4802C103.925 68.0602 104.01 68.656 104.265 69.1859C104.52 69.7158 104.933 70.1537 105.446 70.4397C107.185 71.3229 109.127 71.7265 111.073 71.6089C114.245 71.6652 117.415 71.4082 120.536 70.8416C121.446 70.752 122.329 70.4785 123.13 70.0378C123.298 69.9365 123.426 69.7822 123.496 69.5994C123.416 69.2512 123.406 68.8904 123.468 68.5385C123.53 68.1866 123.662 67.8507 123.856 67.5508C124.051 67.2509 124.303 66.9931 124.599 66.7927C124.895 66.5922 125.228 66.4533 125.578 66.3841C125.934 66.3037 126.301 66.295 126.66 66.3584C127.019 66.4219 127.361 66.5561 127.667 66.7535C127.974 66.9508 128.237 67.2071 128.443 67.5076C128.649 67.808 128.793 68.1465 128.867 68.5033C129.073 69.6427 128.941 70.8178 128.487 71.8828C128.032 72.9479 127.275 73.8563 126.309 74.4953C124.948 75.3959 123.398 75.971 121.779 76.1761C118.513 76.7824 115.198 77.0881 111.877 77.0895Z" fill="#010101" class="w_b"/>
<path d="M117.139 67.5174H116.956L107.712 66.9328V64.4483C107.457 56.4101 107.383 48.3354 107.712 40.3703C107.722 39.6498 108.015 38.9622 108.528 38.4562C109.041 37.9501 109.732 37.6664 110.453 37.6665C110.812 37.6713 111.168 37.7469 111.498 37.889C111.829 38.0312 112.129 38.237 112.38 38.4949C112.631 38.7527 112.828 39.0575 112.962 39.3919C113.095 39.7262 113.161 40.0835 113.156 40.4433C113.156 47.495 113.156 54.6563 113.156 61.781L117.395 62.0368C117.753 62.0554 118.104 62.1451 118.428 62.3008C118.751 62.4566 119.04 62.6752 119.279 62.9438C119.517 63.2125 119.699 63.5259 119.814 63.8658C119.93 64.2056 119.977 64.5651 119.952 64.9232C119.914 65.6372 119.599 66.3081 119.073 66.7927C118.548 67.2774 117.854 67.5374 117.139 67.5174Z" fill="#010101" class="w_b"/>
<path d="M135.188 52.866C134.461 52.866 133.764 52.5773 133.25 52.0634C132.736 51.5495 132.447 50.8525 132.447 50.1257V43.1836C132.447 42.4569 132.736 41.7599 133.25 41.246C133.764 40.7321 134.461 40.4434 135.188 40.4434C135.914 40.4434 136.611 40.7321 137.125 41.246C137.639 41.7599 137.928 42.4569 137.928 43.1836V50.1257C137.928 50.8525 137.639 51.5495 137.125 52.0634C136.611 52.5773 135.914 52.866 135.188 52.866Z" fill="#010101" class="w_b"/>
<path d="M93.9014 52.4275C93.1776 52.4181 92.4861 52.1263 91.9742 51.6145C91.4623 51.1026 91.1706 50.4111 91.1611 49.6873V43.1836C91.1611 42.4569 91.4498 41.7599 91.9637 41.246C92.4776 40.7321 93.1747 40.4434 93.9014 40.4434C94.6282 40.4434 95.3252 40.7321 95.8391 41.246C96.353 41.7599 96.6417 42.4569 96.6417 43.1836V49.6873C96.6417 50.414 96.353 51.111 95.8391 51.6249C95.3252 52.1388 94.6282 52.4275 93.9014 52.4275Z" fill="#010101" class="w_b"/>
<path d="M140.157 34.8892C139.667 34.8981 139.184 34.7736 138.759 34.529C138.335 34.2845 137.984 33.9291 137.746 33.5008C137.248 32.6832 136.555 32.0022 135.728 31.5191C134.902 31.036 133.968 30.766 133.012 30.7334C132.055 30.7008 131.105 30.9066 130.248 31.3323C129.391 31.7579 128.652 32.3902 128.1 33.172C127.675 33.7073 127.066 34.0667 126.392 34.1813C125.718 34.2959 125.025 34.1577 124.446 33.7931C123.891 33.3831 123.514 32.7763 123.391 32.097C123.269 31.4176 123.411 30.7173 123.789 30.1394C124.873 28.6153 126.32 27.3846 127.998 26.558C129.676 25.7313 131.533 25.3346 133.403 25.4034C135.272 25.4722 137.095 26.0045 138.708 26.9523C140.32 27.9002 141.672 29.2339 142.642 30.8336C142.982 31.4483 143.073 32.1702 142.896 32.8501C142.72 33.5301 142.289 34.1162 141.692 34.4873C141.23 34.7657 140.697 34.9052 140.157 34.8892Z" fill="#010101" class="w_b"/>
<path d="M87.03 37.7754C86.3644 37.7737 85.7217 37.5329 85.2187 37.097C84.7157 36.6611 84.3861 36.0591 84.2897 35.4005C84.1961 34.684 84.3893 33.9594 84.8272 33.3846C85.2652 32.8098 85.9124 32.4313 86.6281 32.3314C90.5536 31.7777 94.5047 31.4241 98.4662 31.2718C99.188 31.2609 99.8864 31.5279 100.417 32.0176C100.947 32.5072 101.269 33.1821 101.316 33.9025C101.331 34.2654 101.273 34.6276 101.147 34.968C101.02 35.3084 100.827 35.6203 100.579 35.8855C100.331 36.1507 100.032 36.3639 99.7008 36.5127C99.3695 36.6615 99.0119 36.743 98.6489 36.7524C94.9951 36.7524 91.1222 37.2274 87.3954 37.7389L87.03 37.7754Z" fill="#010101" class="w_b"/>
<path d="M151.373 66.9325C150.719 66.9235 150.089 66.684 149.595 66.2562C149.1 65.8285 148.772 65.2399 148.669 64.5941C148.618 64.2365 148.637 63.8722 148.727 63.5223C148.817 63.1723 148.975 62.8435 149.192 62.5548C149.41 62.2662 149.682 62.0234 149.993 61.8404C150.305 61.6574 150.65 61.5378 151.008 61.4885C151.958 61.4885 152.981 60.027 154.004 57.8348C155.027 55.6425 155.904 53.1215 156.707 50.7466C157.316 49.4875 157.533 48.0745 157.328 46.6909C156.707 44.9737 153.675 44.4622 150.934 44.8275C150.579 44.8844 150.216 44.8697 149.866 44.7842C149.516 44.6988 149.187 44.5443 148.897 44.3299C148.608 44.1155 148.365 43.8454 148.181 43.5356C147.998 43.2258 147.878 42.8824 147.829 42.5257C147.777 42.1681 147.797 41.8038 147.887 41.4538C147.977 41.1038 148.135 40.7751 148.352 40.4864C148.569 40.1978 148.842 39.9549 149.153 39.7719C149.465 39.5889 149.809 39.4693 150.167 39.42C154.698 38.7624 160.653 39.7854 162.48 44.8275C163.198 47.3983 162.991 50.1395 161.896 52.5734C161.019 55.0579 160.069 57.5425 159.046 59.8809C158.278 61.6712 156.269 66.3479 151.738 67.1883L151.373 66.9325Z" fill="#010101" class="w_b"/>
<path d="M149.655 60.0635C149.295 60.054 148.941 59.9737 148.612 59.8272C148.283 59.6806 147.986 59.4707 147.738 59.2094C147.491 58.9482 147.297 58.6407 147.168 58.3045C147.039 57.9683 146.978 57.61 146.988 57.2501C147.317 41.8314 146.988 25.9377 137.452 15.6708C131.871 10.2263 124.665 6.75209 116.93 5.7761C109.194 4.8001 101.352 6.37562 94.5935 10.2633C81.6228 18.8861 77.6037 37.1546 78.1883 51.4772C78.2027 51.8371 78.146 52.1963 78.0216 52.5342C77.8972 52.8722 77.7074 53.1824 77.4632 53.447C77.2189 53.7116 76.9249 53.9256 76.5979 54.0766C76.2709 54.2276 75.9174 54.3127 75.5576 54.3271C75.1977 54.3415 74.8386 54.2849 74.5006 54.1605C74.1626 54.0361 73.8525 53.8463 73.5878 53.602C73.3232 53.3577 73.1092 53.0637 72.9582 52.7368C72.8072 52.4098 72.7221 52.0563 72.7077 51.6964C72.0866 35.8393 76.6903 15.4516 91.5244 5.69615C106.358 -4.05927 129.742 -0.843996 141.398 11.9805C152.139 23.7455 152.724 40.8449 152.359 57.3597C152.34 58.071 152.049 58.748 151.546 59.2511C151.043 59.7542 150.366 60.045 149.655 60.0635Z" fill="#010101" class="w_b"/>
<path d="M74.4995 71.4268H74.0245C67.4843 70.3307 65.4382 63.8636 63.5018 57.6157L62.7345 55.2773C61.9617 53.2316 61.5417 51.0696 61.4923 48.8833C61.486 47.4799 61.8343 46.0977 62.505 44.8649C63.1757 43.6321 64.1469 42.5887 65.3286 41.8317C66.4613 41.2105 68.6535 40.4798 74.9014 41.4297C75.6233 41.5412 76.2714 41.9349 76.7031 42.5241C77.1347 43.1134 77.3146 43.85 77.2032 44.5719C77.0918 45.2939 76.6981 45.942 76.1089 46.3736C75.5196 46.8053 74.783 46.9852 74.0611 46.8738C72.0863 46.4044 70.0398 46.3175 68.0324 46.618C67.6816 46.9109 67.4034 47.281 67.2195 47.6994C67.0357 48.1178 66.9513 48.573 66.9728 49.0295C67.0488 50.5839 67.3821 52.1149 67.9593 53.5601L68.7266 56.0081C70.59 61.854 71.8688 65.5077 74.9379 66.0193C75.6162 66.1311 76.2276 66.4938 76.6509 67.0354C77.0743 67.5769 77.2786 68.2578 77.2234 68.943C77.1683 69.6282 76.8576 70.2676 76.353 70.7344C75.8484 71.2013 75.1869 71.4614 74.4995 71.4633V71.4268Z" fill="#010101" class="w_b"/>
<path d="M152.03 144.537C151.316 144.538 150.63 144.259 150.118 143.761C149.606 143.263 149.309 142.584 149.29 141.87L147.719 71.0611C147.719 70.3343 148.007 69.6373 148.521 69.1234C149.035 68.6095 149.732 68.3208 150.459 68.3208C151.186 68.3208 151.883 68.6095 152.397 69.1234C152.911 69.6373 153.199 70.3343 153.199 71.0611L154.77 141.907C154.78 142.627 154.506 143.323 154.007 143.842C153.507 144.362 152.824 144.664 152.103 144.683L152.03 144.537Z" fill="#010101" class="w_b"/>
<path d="M77.2784 143.697C76.5516 143.697 75.8546 143.408 75.3407 142.894C74.8268 142.38 74.5381 141.683 74.5381 140.956C74.5381 140.956 74.5381 131.237 74.5381 119.619C74.5381 82.5334 74.8669 81.2546 75.0131 80.6335C75.1897 79.9623 75.6144 79.383 76.2014 79.0128C76.7885 78.6426 77.4942 78.5089 78.176 78.6387C78.8578 78.7686 79.4649 79.1524 79.8747 79.7125C80.2846 80.2726 80.4666 80.9674 80.3841 81.6565C80.3841 82.4238 80.0917 87.7217 80.0187 119.655C80.0187 131.237 80.0187 140.956 80.0187 140.956C80.0092 141.68 79.7175 142.372 79.2056 142.884C78.6937 143.395 78.0022 143.687 77.2784 143.697Z" fill="#010101" class="w_b"/>
<path d="M77.3138 122.396C76.587 122.396 75.89 122.108 75.3761 121.594C74.8622 121.08 74.5735 120.383 74.5735 119.656C74.5686 119.298 74.635 118.942 74.7687 118.61C74.9024 118.278 75.1008 117.975 75.3523 117.72C75.6039 117.465 75.9036 117.263 76.234 117.125C76.5645 116.987 76.919 116.916 77.2772 116.916L152.361 116.441C153.088 116.441 153.785 116.729 154.299 117.243C154.813 117.757 155.101 118.454 155.101 119.181C155.101 119.908 154.813 120.605 154.299 121.119C153.785 121.633 153.088 121.921 152.361 121.921L77.3138 122.396Z" fill="#010101" class="w_b"/>
<path d="M75.4116 40.4064C75.4116 40.4064 69.2368 0.471291 111.656 0.215531C146.586 -0.149841 151.518 19.2514 150.13 37.8123C150.13 37.8123 149.765 11.469 110.853 12.492C76.1058 13.2593 75.4116 40.4064 75.4116 40.4064Z" fill="#010101" class="w_b"/>
<path d="M107.384 471.654C106.661 471.626 105.977 471.316 105.478 470.79C104.98 470.265 104.707 469.565 104.717 468.841L108.882 258.131C108.892 257.411 109.185 256.723 109.698 256.217C110.211 255.711 110.902 255.427 111.623 255.427C111.982 255.437 112.337 255.517 112.666 255.664C112.995 255.81 113.291 256.02 113.539 256.282C113.787 256.543 113.981 256.85 114.109 257.186C114.238 257.523 114.3 257.881 114.29 258.241L110.125 468.951C110.106 469.668 109.81 470.35 109.299 470.855C108.788 471.359 108.102 471.645 107.384 471.654Z" fill="#010101" class="w_b"/>
<path d="M81.77 224.262C81.3415 224.258 80.92 224.153 80.5392 223.956C80.1585 223.76 79.8292 223.476 79.5778 223.129L56.0479 191.306L67.009 177.275L56.2671 177.787V156.559C56.2671 155.832 56.5558 155.135 57.0697 154.621C57.5836 154.107 58.2806 153.818 59.0074 153.818C59.7341 153.818 60.4311 154.107 60.945 154.621C61.4589 155.135 61.7476 155.832 61.7476 156.559V172.05L78.5548 171.247L63.0996 191.379L84.1815 219.878C84.4748 220.291 84.6495 220.776 84.6868 221.281C84.724 221.786 84.6224 222.292 84.3929 222.744C84.1633 223.195 83.8146 223.575 83.3845 223.843C82.9544 224.111 82.4592 224.256 81.9527 224.262H81.77Z" fill="#010101" class="w_b"/>
<path d="M166.974 191.451C166.614 191.453 166.257 191.383 165.925 191.245C165.592 191.107 165.291 190.904 165.038 190.648C164.524 190.134 164.236 189.437 164.236 188.711C164.236 187.985 164.524 187.288 165.038 186.775L168.216 183.559L159.922 166.971C159.615 166.32 159.573 165.575 159.805 164.894C160.037 164.212 160.524 163.647 161.165 163.318C161.814 163.001 162.563 162.954 163.247 163.187C163.931 163.419 164.496 163.913 164.818 164.56L174.903 184.692L169.02 190.611C168.758 190.887 168.44 191.105 168.087 191.25C167.734 191.395 167.355 191.463 166.974 191.451Z" fill="#010101" class="w_b"/>
<path d="M132.299 252.468C131.706 252.471 131.128 252.278 130.655 251.92C130.125 251.489 129.774 250.876 129.673 250.2C129.572 249.524 129.726 248.834 130.107 248.267L144.722 229.231C145.17 228.653 145.828 228.274 146.553 228.179C147.279 228.083 148.012 228.277 148.595 228.719C149.171 229.161 149.548 229.812 149.644 230.532C149.74 231.251 149.547 231.979 149.107 232.556L134.674 251.555C134.384 251.89 134.015 252.149 133.601 252.308C133.187 252.468 132.74 252.523 132.299 252.468Z" fill="#010101" class="w_b"/>
<path d="M127.881 294.085C125.944 294.085 124.051 293.51 122.441 292.434C120.83 291.358 119.575 289.829 118.834 288.04C118.093 286.251 117.899 284.282 118.277 282.382C118.655 280.483 119.587 278.738 120.957 277.369C122.326 275.999 124.071 275.067 125.971 274.689C127.87 274.311 129.839 274.505 131.628 275.246C133.417 275.987 134.947 277.242 136.023 278.853C137.098 280.463 137.673 282.356 137.673 284.293C137.673 286.89 136.641 289.38 134.805 291.217C132.968 293.053 130.478 294.085 127.881 294.085ZM127.881 280.018C127.027 280.018 126.192 280.272 125.482 280.747C124.772 281.222 124.219 281.898 123.894 282.688C123.569 283.478 123.486 284.347 123.655 285.184C123.825 286.021 124.239 286.789 124.845 287.391C125.452 287.992 126.224 288.4 127.062 288.562C127.901 288.724 128.769 288.634 129.556 288.302C130.343 287.97 131.014 287.412 131.483 286.698C131.953 285.984 132.199 285.147 132.192 284.293C132.192 283.728 132.08 283.169 131.863 282.648C131.646 282.127 131.328 281.654 130.927 281.257C130.526 280.859 130.051 280.545 129.528 280.333C129.005 280.12 128.445 280.013 127.881 280.018Z" fill="#010101" class="w_b"/>
<path d="M127.881 362.847C125.944 362.847 124.051 362.273 122.441 361.197C120.83 360.121 119.575 358.591 118.834 356.802C118.093 355.013 117.899 353.044 118.277 351.145C118.655 349.245 119.587 347.5 120.957 346.131C122.326 344.762 124.071 343.829 125.971 343.451C127.87 343.073 129.839 343.267 131.628 344.008C133.417 344.749 134.947 346.004 136.023 347.615C137.098 349.225 137.673 351.118 137.673 353.055C137.673 355.652 136.641 358.143 134.805 359.979C132.968 361.815 130.478 362.847 127.881 362.847ZM127.881 348.78C127.027 348.78 126.192 349.034 125.482 349.509C124.772 349.985 124.219 350.66 123.894 351.45C123.569 352.24 123.486 353.109 123.655 353.946C123.825 354.783 124.239 355.552 124.845 356.153C125.452 356.754 126.224 357.162 127.062 357.324C127.901 357.487 128.769 357.396 129.556 357.064C130.343 356.732 131.014 356.174 131.483 355.46C131.953 354.746 132.199 353.909 132.192 353.055C132.183 351.918 131.724 350.831 130.917 350.03C130.109 349.229 129.018 348.78 127.881 348.78Z" fill="#010101" class="w_b"/>
<path d="M127.114 433.948C125.176 433.948 123.281 433.373 121.67 432.295C120.059 431.218 118.804 429.686 118.064 427.895C117.324 426.104 117.132 424.133 117.513 422.232C117.894 420.332 118.83 418.587 120.203 417.219C121.576 415.851 123.324 414.922 125.226 414.548C127.128 414.174 129.098 414.373 130.887 415.12C132.675 415.867 134.202 417.128 135.274 418.743C136.345 420.358 136.913 422.255 136.906 424.193C136.896 426.783 135.861 429.265 134.025 431.093C132.19 432.922 129.705 433.948 127.114 433.948ZM127.114 419.881C126.261 419.881 125.428 420.134 124.719 420.608C124.01 421.082 123.457 421.755 123.131 422.543C122.805 423.331 122.719 424.198 122.886 425.034C123.052 425.87 123.463 426.638 124.066 427.241C124.669 427.844 125.437 428.255 126.273 428.421C127.109 428.588 127.976 428.502 128.764 428.176C129.552 427.85 130.225 427.297 130.699 426.588C131.173 425.879 131.426 425.045 131.426 424.193C131.43 423.625 131.322 423.062 131.107 422.537C130.892 422.012 130.575 421.535 130.174 421.133C129.772 420.732 129.295 420.415 128.77 420.2C128.245 419.985 127.682 419.876 127.114 419.881Z" fill="#010101" class="w_b"/>
</svg>
