<svg width="247" height="254" viewBox="0 0 247 254" fill="none" xmlns="http://www.w3.org/2000/svg">
<rect width="247" height="254" fill="#131313"/>
<path d="M197.439 161.294C202.524 150.693 205.365 138.821 205.365 126.284C205.365 81.3971 168.892 45 123.886 45C78.8793 45 42.4065 81.3855 42.4065 126.284C42.4065 138.821 45.2472 150.693 50.3323 161.294H197.439Z" fill="#1B1B1B"/>
<path d="M64.9214 114.867C64.9214 115.695 64.255 116.36 63.425 116.36C62.595 116.36 61.9287 115.695 61.9287 114.867C61.9287 114.039 62.595 113.374 63.425 113.374C64.255 113.374 64.9214 114.051 64.9214 114.867Z" fill="#86C490"/>
<path d="M102.446 81.1173C102.446 81.9453 101.78 82.61 100.95 82.61C100.12 82.61 99.4536 81.9453 99.4536 81.1173C99.4536 80.2892 100.12 79.6245 100.95 79.6245C101.78 79.6245 102.446 80.3009 102.446 81.1173Z" fill="#86C490"/>
<path d="M126.691 115.17C126.691 115.998 126.025 116.663 125.195 116.663C124.365 116.663 123.698 115.998 123.698 115.17C123.698 114.342 124.365 113.678 125.195 113.678C126.025 113.689 126.691 114.354 126.691 115.17Z" fill="#86C490"/>
<path d="M199.789 97.6421C199.789 98.4702 199.123 99.1349 198.293 99.1349C197.463 99.1349 196.796 98.4702 196.796 97.6421C196.796 96.8141 197.463 96.1494 198.293 96.1494C199.123 96.1611 199.789 96.8258 199.789 97.6421Z" fill="#86C490"/>
<path d="M55.1251 107.998C55.1251 109.712 53.734 111.1 52.0155 111.1C50.2971 111.1 48.906 109.712 48.906 107.998C48.906 106.284 50.2971 104.896 52.0155 104.896C53.734 104.908 55.1251 106.284 55.1251 107.998Z" fill="#86C490"/>
<path d="M90.3588 66.7613C90.3588 68.4756 88.9677 69.8634 87.2492 69.8634C85.5308 69.8634 84.1396 68.4756 84.1396 66.7613C84.1396 65.047 85.5308 63.6592 87.2492 63.6592C88.9677 63.6708 90.3588 65.0586 90.3588 66.7613Z" fill="#86C490"/>
<path d="M114.744 51.4374C114.744 54.9943 111.857 57.8749 108.291 57.8749C104.726 57.8749 101.838 54.9943 101.838 51.4374C101.838 47.8805 104.726 45 108.291 45C111.857 45 114.744 47.8805 114.744 51.4374Z" fill="#86C490"/>
<path d="M134.278 134.926C135.996 134.926 137.388 133.537 137.388 131.824C137.388 130.111 135.996 128.722 134.278 128.722C132.561 128.722 131.169 130.111 131.169 131.824C131.169 133.537 132.561 134.926 134.278 134.926Z" fill="white"/>
<path d="M195.838 111.427C195.838 114.517 193.324 117.024 190.226 117.024C187.129 117.024 184.615 114.517 184.615 111.427C184.615 108.336 187.129 105.829 190.226 105.829C193.324 105.829 195.838 108.336 195.838 111.427Z" fill="#86C490"/>
<path d="M154.876 110.972C154.876 114.657 151.883 117.643 148.189 117.643C144.495 117.643 141.502 114.657 141.502 110.972C141.502 107.287 144.495 104.301 148.189 104.301C151.883 104.301 154.876 107.287 154.876 110.972Z" fill="#86C490"/>
<path d="M222 181.166C222 195.988 177.905 208 123.5 208C69.0947 208 25 195.988 25 181.166C25 166.343 69.0947 154.331 123.5 154.331C177.894 154.331 222 166.355 222 181.166Z" fill="white"/>
<path d="M222 181.166C222 195.988 177.905 208 123.5 208C69.0947 208 25 195.988 25 181.166C25 166.343 69.0947 154.331 123.5 154.331C177.894 154.331 222 166.355 222 181.166Z" fill="#1B1B1B"/>
<path d="M100.717 189.981C127.777 189.981 149.714 180.161 149.714 168.047C149.714 155.934 127.777 146.114 100.717 146.114C73.6567 146.114 51.72 155.934 51.72 168.047C51.72 180.161 73.6567 189.981 100.717 189.981Z" fill="#59BC6A"/>
<g opacity="0.2">
<path opacity="0.2" d="M100.717 188.027C74.1196 188.027 52.4743 179.251 51.7321 167.428C51.7199 167.635 51.7078 167.841 51.7078 168.048C51.7078 180.161 73.6451 189.981 100.705 189.981C127.764 189.981 149.702 180.161 149.702 168.048C149.702 167.841 149.69 167.635 149.677 167.428C148.972 179.251 127.314 188.027 100.717 188.027Z" fill="#5CC560"/>
</g>
<path d="M100.717 190.527C87.5521 190.527 75.1659 188.233 65.8459 184.058C56.3799 179.821 51.1724 174.141 51.1724 168.048C51.1724 161.966 56.3799 156.274 65.8459 152.038C75.1659 147.862 87.5521 145.568 100.717 145.568C113.882 145.568 126.268 147.862 135.588 152.038C145.054 156.274 150.261 161.954 150.261 168.048C150.261 174.141 145.054 179.821 135.588 184.058C126.268 188.233 113.882 190.527 100.717 190.527ZM100.717 146.661C87.6981 146.661 75.4823 148.93 66.2961 153.033C61.8673 155.024 58.3875 157.318 55.9662 159.879C53.5085 162.476 52.2674 165.219 52.2674 168.048C52.2674 170.864 53.5085 173.607 55.9662 176.216C58.3875 178.778 61.8551 181.084 66.2961 183.062C75.4823 187.177 87.7102 189.435 100.717 189.435C113.736 189.435 125.951 187.165 135.138 183.062C139.566 181.072 143.046 178.778 145.468 176.216C147.925 173.619 149.166 170.876 149.166 168.048C149.166 165.232 147.925 162.488 145.468 159.879C143.046 157.318 139.579 155.011 135.138 153.033C125.964 148.93 113.736 146.661 100.717 146.661Z" fill="black"/>
<path d="M100.717 185.526C127.777 185.526 149.714 176.685 149.714 165.778C149.714 154.871 127.777 146.029 100.717 146.029C73.6564 146.029 51.7197 154.871 51.7197 165.778C51.7197 176.685 73.6564 185.526 100.717 185.526Z" fill="#D3F5B2"/>
<g opacity="0.4">
<path opacity="0.4" d="M100.717 183.22C74.6182 183.22 53.2771 174.99 51.8049 164.625C51.7562 165.001 51.7197 165.389 51.7197 165.778C51.7197 176.678 73.657 185.526 100.717 185.526C127.776 185.526 149.714 176.69 149.714 165.778C149.714 165.389 149.677 165.013 149.628 164.625C148.156 175.003 126.827 183.22 100.717 183.22Z" fill="white"/>
</g>
<g opacity="0.6">
<path opacity="0.6" d="M100.717 149.149C126.474 149.149 147.597 157.16 149.568 167.331C149.665 166.822 149.714 166.3 149.714 165.778C149.714 154.878 127.776 146.029 100.717 146.029C73.657 146.029 51.7197 154.878 51.7197 165.778C51.7197 166.3 51.7684 166.822 51.8657 167.331C53.849 157.16 74.9589 149.149 100.717 149.149Z" fill="#E3FAFF"/>
</g>
<path d="M100.717 186.072C87.5642 186.072 75.178 184.009 65.858 180.246C56.3798 176.423 51.1602 171.288 51.1602 165.778C51.1602 160.267 56.3798 155.133 65.858 151.309C75.178 147.559 87.552 145.483 100.717 145.483C113.869 145.483 126.256 147.546 135.576 151.309C145.054 155.133 150.273 160.267 150.273 165.778C150.273 171.288 145.054 176.423 135.576 180.246C126.256 183.997 113.882 186.072 100.717 186.072ZM100.717 146.575C87.698 146.575 75.4701 148.615 66.2717 152.317C61.8307 154.101 58.3631 156.176 55.9418 158.483C53.4962 160.813 52.2552 163.265 52.2552 165.778C52.2552 168.29 53.4962 170.742 55.9418 173.073C58.3631 175.379 61.8307 177.454 66.2717 179.239C75.4579 182.941 87.698 184.98 100.717 184.98C113.736 184.98 125.964 182.941 135.162 179.239C139.603 177.454 143.071 175.379 145.492 173.073C147.937 170.742 149.178 168.29 149.178 165.778C149.178 163.265 147.937 160.813 145.492 158.483C143.071 156.176 139.603 154.101 135.162 152.317C125.976 148.615 113.748 146.575 100.717 146.575Z" fill="black"/>
<g opacity="0.6">
<path opacity="0.6" d="M131.074 165.777C131.074 171.907 117.483 176.871 100.729 176.871C83.9625 176.871 70.3718 171.907 70.3718 165.777C70.3718 159.648 83.9625 154.683 100.729 154.683C117.483 154.683 131.074 159.648 131.074 165.777Z" fill="#E3FAFF"/>
</g>
<g opacity="0.8">
<path opacity="0.8" d="M73.3284 168.472C73.3284 162.342 86.9191 157.378 103.685 157.378C115.049 157.378 124.941 159.66 130.149 163.034C126.815 158.228 114.916 154.671 100.729 154.671C83.9625 154.671 70.3718 159.636 70.3718 165.765C70.3718 167.744 71.7954 169.589 74.2653 171.203C73.6569 170.341 73.3284 169.419 73.3284 168.472Z" fill="white"/>
</g>
<path d="M100.717 177.418C92.5526 177.418 84.863 176.252 79.0715 174.128C73.1096 171.943 69.8245 168.982 69.8245 165.765C69.8245 162.561 73.1096 159.587 79.0715 157.402C84.863 155.29 92.5526 154.113 100.717 154.113C108.881 154.113 116.57 155.278 122.362 157.402C128.324 159.587 131.609 162.549 131.609 165.765C131.609 168.982 128.324 171.943 122.362 174.128C116.583 176.252 108.893 177.418 100.717 177.418ZM100.717 155.229C92.6743 155.229 85.1185 156.37 79.4486 158.446C74.0221 160.425 70.9195 163.107 70.9195 165.777C70.9195 168.46 74.0343 171.13 79.4486 173.109C85.1185 175.184 92.6743 176.325 100.717 176.325C108.759 176.325 116.315 175.184 121.985 173.109C127.411 171.13 130.514 168.448 130.514 165.777C130.514 163.095 127.399 160.425 121.985 158.446C116.327 156.37 108.771 155.229 100.717 155.229Z" fill="black"/>
<path d="M124.418 165.935C122.873 165.935 121.595 164.734 121.51 163.18C121.425 161.578 122.666 160.206 124.272 160.133C128.786 159.903 135.186 159.211 138.642 155.958C140.199 154.489 141.209 151.855 141.282 149.1C141.343 146.697 140.673 144.585 139.457 143.31C137.498 141.259 133.641 143.262 131.67 145.009C130.465 146.078 128.628 145.968 127.557 144.767C126.487 143.565 126.596 141.732 127.801 140.664C134.188 135.008 140.503 135.991 143.679 139.305C146.003 141.732 147.219 145.264 147.122 149.258C147.013 153.567 145.346 157.657 142.657 160.182C137.863 164.709 130.477 165.644 124.589 165.947C124.516 165.935 124.467 165.935 124.418 165.935Z" fill="#5CC560"/>
<g opacity="0.4">
<path opacity="0.4" d="M127.764 142.267C127.326 142.655 127.046 143.153 126.937 143.687C127.059 144.063 127.253 144.427 127.533 144.743C128.604 145.944 130.441 146.054 131.646 144.985C133.617 143.238 137.474 141.235 139.433 143.286C140.661 144.573 141.318 146.685 141.258 149.076C141.185 151.831 140.175 154.465 138.617 155.934C135.162 159.199 128.762 159.879 124.248 160.109C123.737 160.134 123.275 160.291 122.861 160.534C122.35 161.044 122.046 161.748 122.094 162.525C122.167 163.921 123.323 165.001 124.71 165.001C124.759 165.001 124.808 165.001 124.844 165.001C130.149 164.734 136.792 163.896 141.112 159.818C143.521 157.536 145.029 153.858 145.127 149.986C145.224 146.393 144.117 143.213 142.036 141.028C139.201 138.055 133.519 137.169 127.764 142.267Z" fill="#5CC560"/>
</g>
<g opacity="0.2">
<g opacity="0.2">
<path opacity="0.2" d="M127.788 141.49C134.176 135.833 140.491 136.816 143.667 140.13C145.82 142.388 147.025 145.592 147.11 149.234C147.207 145.24 145.99 141.708 143.667 139.28C140.503 135.967 134.176 134.984 127.788 140.64C127.022 141.32 126.706 142.303 126.839 143.237C126.937 142.582 127.253 141.963 127.788 141.49Z" fill="white"/>
</g>
<g opacity="0.2">
<path opacity="0.2" d="M121.535 163.447C121.729 162.1 122.861 161.044 124.272 160.971C128.786 160.74 135.186 160.049 138.642 156.796C140.199 155.327 141.209 152.693 141.282 149.938C141.294 149.695 141.282 149.452 141.282 149.221C141.184 151.94 140.187 154.501 138.642 155.958C135.186 159.223 128.786 159.903 124.272 160.133C122.666 160.218 121.425 161.578 121.51 163.18C121.51 163.265 121.522 163.362 121.535 163.447Z" fill="white"/>
</g>
</g>
<path d="M124.418 166.36C122.642 166.36 121.182 164.977 121.085 163.204C120.987 161.372 122.411 159.806 124.248 159.709C128.689 159.478 134.992 158.81 138.35 155.642C139.834 154.247 140.795 151.734 140.856 149.088C140.917 146.806 140.296 144.803 139.141 143.602C138.678 143.116 138.045 142.861 137.267 142.861C135.503 142.861 133.325 144.099 131.95 145.313C131.341 145.859 130.551 146.151 129.735 146.151C128.786 146.151 127.874 145.738 127.241 145.034C126.645 144.366 126.353 143.517 126.402 142.631C126.45 141.744 126.852 140.931 127.521 140.336C130.587 137.618 133.909 136.185 137.121 136.185C139.81 136.185 142.243 137.181 143.983 139.001C146.38 141.514 147.645 145.155 147.536 149.258C147.426 153.676 145.699 157.876 142.937 160.486C138.033 165.11 130.563 166.057 124.601 166.36C124.54 166.36 124.479 166.36 124.418 166.36ZM137.267 141.999C138.289 141.999 139.128 142.339 139.761 142.995C141.063 144.354 141.769 146.575 141.708 149.088C141.635 151.953 140.564 154.696 138.934 156.249C135.381 159.612 128.871 160.303 124.297 160.546C122.922 160.619 121.863 161.784 121.936 163.156C122.009 164.479 123.092 165.511 124.418 165.511C124.455 165.511 124.491 165.511 124.54 165.511H124.552C130.368 165.207 137.656 164.297 142.353 159.866C144.956 157.415 146.575 153.433 146.684 149.234C146.781 145.349 145.601 141.927 143.363 139.584C141.781 137.933 139.566 137.035 137.109 137.035C134.103 137.035 130.976 138.394 128.068 140.98C127.57 141.417 127.278 142.024 127.241 142.691C127.205 143.347 127.424 143.99 127.862 144.488C128.336 145.022 129.018 145.325 129.723 145.325C130.332 145.325 130.916 145.107 131.378 144.694C132.765 143.444 135.138 141.999 137.267 141.999Z" fill="black"/>
<path d="M100.011 115.915C81.6024 115.915 66.6733 121.923 66.6733 129.352C66.6733 129.352 67.7684 153.919 76.4435 166.858C77.9158 169.067 80.0937 170.706 82.5758 171.665C88.7445 174.056 102.189 177.612 117.581 171.567C120.172 170.548 122.387 168.739 123.895 166.384C132.278 153.324 133.349 129.364 133.349 129.364C133.349 121.935 118.42 115.915 100.011 115.915Z" fill="#5CC560"/>
<g opacity="0.4">
<path opacity="0.4" d="M127.886 121.996C127.886 122.032 127.898 122.081 127.898 122.117C127.898 122.117 126.827 146.09 118.444 159.138C116.935 161.481 114.721 163.289 112.129 164.321C96.7381 170.378 83.2934 166.809 77.1247 164.418C76.054 164.005 75.0563 163.459 74.1316 162.804C74.8373 164.236 75.6038 165.608 76.4433 166.858C77.9156 169.067 80.0935 170.706 82.5756 171.664C88.7443 174.056 102.189 177.612 117.58 171.567C120.172 170.548 122.386 168.739 123.895 166.384C132.278 153.324 133.349 129.364 133.349 129.364C133.349 126.633 131.341 124.108 127.886 121.996Z" fill="#C3EDF4"/>
</g>
<g opacity="0.2">
<path opacity="0.2" d="M68.7172 131.755C68.7172 124.339 83.6463 118.318 102.055 118.318C115.573 118.318 127.217 121.559 132.449 126.22C128.957 120.309 115.767 115.903 100.023 115.903C81.6143 115.903 66.6853 121.911 66.6853 129.34C66.6853 129.34 67.7803 153.907 76.4555 166.846C77.003 167.659 77.6479 168.4 78.3657 169.055C69.8001 156.067 68.7172 131.755 68.7172 131.755Z" fill="white"/>
</g>
<path d="M100.06 175.44C92.431 175.44 86.238 173.655 82.3688 172.162C79.6921 171.131 77.4898 169.395 75.9811 167.149C71.4549 160.388 69.0093 150.472 67.7683 143.335C66.4177 135.627 66.1257 129.424 66.1257 129.364C66.1257 129.352 66.1257 129.352 66.1257 129.339C66.1257 125.516 69.715 121.96 76.2366 119.338C82.6 116.777 91.044 115.369 100.011 115.369C108.978 115.369 117.422 116.777 123.786 119.338C130.307 121.96 133.897 125.516 133.897 129.339C133.897 129.352 133.897 129.352 133.897 129.364C133.897 129.424 133.617 135.481 132.303 143.043C131.098 150.047 128.738 159.83 124.358 166.652C122.776 169.103 120.501 170.973 117.787 172.041C112.081 174.311 106.119 175.44 100.06 175.44ZM67.2208 129.339C67.2329 129.643 67.5371 135.7 68.8512 143.177C70.08 150.205 72.477 159.951 76.8936 166.555C78.2685 168.606 80.3004 170.196 82.7582 171.155C86.53 172.611 92.6014 174.359 100.048 174.359C105.961 174.359 111.789 173.243 117.361 171.058C119.868 170.075 121.961 168.351 123.421 166.093C131.56 153.421 132.753 129.995 132.789 129.352C132.789 127.701 131.962 126.074 130.344 124.533C128.713 122.979 126.365 121.583 123.372 120.369C117.142 117.857 108.844 116.473 100.011 116.473C91.1778 116.473 82.8799 117.857 76.6503 120.369C73.6572 121.583 71.3089 122.979 69.6785 124.533C68.0481 126.062 67.2329 127.689 67.2208 129.339Z" fill="black"/>
<path d="M133.349 129.352C133.349 136.768 118.42 142.789 100.011 142.789C81.6024 142.789 66.6733 136.78 66.6733 129.352C66.6733 121.935 81.6024 115.915 100.011 115.915C118.42 115.915 133.349 121.935 133.349 129.352Z" fill="white"/>
<g opacity="0.4">
<path opacity="0.4" d="M100.011 141.283C82.2227 141.283 67.6952 135.676 66.734 128.599C66.6975 128.854 66.6853 129.097 66.6853 129.352C66.6853 136.768 81.6143 142.788 100.023 142.788C118.432 142.788 133.361 136.78 133.361 129.352C133.361 129.097 133.337 128.854 133.312 128.599C132.327 135.663 117.799 141.283 100.011 141.283Z" fill="white"/>
</g>
<path d="M100.011 143.335C91.044 143.335 82.6 141.927 76.2366 139.366C69.715 136.744 66.1257 133.187 66.1257 129.364C66.1257 125.54 69.715 121.984 76.2366 119.362C82.6 116.801 91.044 115.393 100.011 115.393C108.978 115.393 117.422 116.801 123.786 119.362C130.307 121.984 133.897 125.54 133.897 129.364C133.897 133.187 130.307 136.744 123.786 139.366C117.422 141.915 108.978 143.335 100.011 143.335ZM100.011 116.461C91.1778 116.461 82.8799 117.845 76.6503 120.358C73.6572 121.559 71.3089 122.967 69.6785 124.521C68.0481 126.074 67.2329 127.701 67.2329 129.352C67.2329 131.015 68.0603 132.641 69.6785 134.183C71.3089 135.736 73.6572 137.132 76.6503 138.346C82.8799 140.859 91.1778 142.242 100.011 142.242C108.844 142.242 117.142 140.859 123.372 138.346C126.365 137.144 128.713 135.736 130.344 134.183C131.974 132.629 132.789 131.003 132.789 129.352C132.789 127.689 131.962 126.062 130.344 124.521C128.713 122.967 126.365 121.571 123.372 120.358C117.142 117.845 108.844 116.461 100.011 116.461Z" fill="black"/>
<g opacity="0.8">
<g opacity="0.8">
<path opacity="0.8" d="M130.831 129.085C130.831 135.287 117.203 140.324 100.401 140.324C83.5979 140.324 69.9707 135.287 69.9707 129.085C69.9707 122.882 83.5979 117.845 100.401 117.845C117.203 117.845 130.831 122.882 130.831 129.085Z" fill="white"/>
</g>
<g opacity="0.8">
<g opacity="0.8">
<path opacity="0.8" d="M100.401 140.871C92.2121 140.871 84.4981 139.693 78.6944 137.545C72.7204 135.336 69.4231 132.338 69.4231 129.085C69.4231 125.832 72.7204 122.834 78.6944 120.624C84.4981 118.476 92.2121 117.299 100.401 117.299C108.589 117.299 116.303 118.476 122.107 120.624C128.081 122.834 131.378 125.832 131.378 129.085C131.378 132.325 128.081 135.336 122.107 137.545C116.291 139.693 108.589 140.871 100.401 140.871ZM100.401 118.391C92.3338 118.391 84.7537 119.544 79.0716 121.644C73.6329 123.647 70.5181 126.366 70.5181 129.085C70.5181 131.803 73.6329 134.51 79.0716 136.513C84.7658 138.613 92.3338 139.766 100.401 139.766C108.467 139.766 116.035 138.613 121.729 136.513C127.168 134.51 130.283 131.791 130.283 129.085C130.283 126.366 127.168 123.659 121.729 121.644C116.035 119.556 108.455 118.391 100.401 118.391Z" fill="black"/>
</g>
</g>
</g>
<path d="M72.8542 132.301C72.8542 133.127 73.0976 133.928 73.5599 134.705C78.8283 138.067 88.6472 140.324 99.9139 140.324C116.717 140.324 130.344 135.287 130.344 129.085C130.344 128.259 130.101 127.458 129.638 126.681C124.37 123.319 114.551 121.062 103.284 121.062C86.4814 121.074 72.8542 126.099 72.8542 132.301Z" fill="#FF6555"/>
<path d="M99.9138 140.871C88.9999 140.871 78.7795 138.686 73.2678 135.166C73.1948 135.117 73.134 135.057 73.0853 134.984C72.5622 134.11 72.3066 133.2 72.3066 132.301C72.3066 129.048 75.6039 126.05 81.578 123.841C87.3817 121.693 95.0956 120.515 103.284 120.515C114.198 120.515 124.406 122.7 129.93 126.22C130.003 126.269 130.064 126.329 130.113 126.402C130.636 127.276 130.891 128.187 130.891 129.085C130.891 132.326 127.594 135.336 121.62 137.545C115.816 139.693 108.102 140.871 99.9138 140.871ZM73.9735 134.316C79.3514 137.691 89.2676 139.778 99.9138 139.778C107.981 139.778 115.549 138.625 121.243 136.525C126.681 134.523 129.796 131.804 129.796 129.097C129.796 128.429 129.602 127.75 129.237 127.082C123.859 123.708 113.942 121.62 103.296 121.62C95.2295 121.62 87.6615 122.773 81.9673 124.873C76.5286 126.876 73.4138 129.595 73.4138 132.314C73.4017 132.969 73.5964 133.649 73.9735 134.316Z" fill="black"/>
<g opacity="0.2">
<path opacity="0.2" d="M78.7065 128.599C78.7065 128.599 78.7552 128.502 78.889 128.332C79.0107 128.162 79.2054 127.931 79.4852 127.652C79.7651 127.373 80.1179 127.07 80.5559 126.742C80.775 126.572 81.0061 126.414 81.2616 126.244C81.5171 126.086 81.797 125.916 82.089 125.746C82.235 125.662 82.381 125.577 82.5392 125.504C82.6974 125.431 82.8555 125.346 83.0137 125.261C83.3422 125.103 83.6829 124.945 84.0357 124.812C84.7414 124.508 85.4958 124.241 86.2988 123.999C86.7003 123.889 87.1019 123.756 87.5155 123.659C87.7224 123.61 87.9292 123.55 88.1482 123.501C88.3551 123.452 88.5741 123.404 88.7809 123.355C88.9999 123.307 89.2068 123.258 89.4258 123.222C89.6448 123.185 89.8638 123.137 90.0828 123.1C90.5208 123.015 90.9588 122.955 91.3968 122.882C91.8349 122.809 92.2729 122.761 92.7109 122.712C92.9299 122.688 93.1489 122.663 93.3679 122.639C93.5869 122.615 93.8059 122.603 94.0249 122.578C94.2439 122.554 94.463 122.542 94.6698 122.518C94.8888 122.506 95.0956 122.494 95.3147 122.481C95.7405 122.457 96.1663 122.433 96.58 122.421C96.9937 122.409 97.4074 122.396 97.7967 122.384C98.1983 122.384 98.5876 122.384 98.9648 122.384C99.7191 122.384 100.437 122.421 101.106 122.445C101.763 122.469 102.372 122.518 102.907 122.554C103.442 122.591 103.905 122.639 104.294 122.676C104.683 122.712 104.975 122.748 105.182 122.773C105.389 122.797 105.499 122.809 105.499 122.809C105.499 122.809 105.389 122.809 105.182 122.809C104.975 122.809 104.671 122.821 104.282 122.821C103.892 122.821 103.43 122.821 102.895 122.833C102.627 122.833 102.347 122.846 102.043 122.846C101.739 122.846 101.423 122.846 101.094 122.858C100.437 122.882 99.7191 122.882 98.9648 122.918C98.5876 122.93 98.1983 122.943 97.8089 122.967C97.4196 122.991 97.0059 123.015 96.6044 123.04C96.1907 123.064 95.777 123.1 95.3512 123.137C94.9253 123.173 94.4995 123.21 94.0736 123.258C93.8546 123.282 93.6478 123.295 93.4288 123.319C93.2097 123.343 93.0029 123.367 92.7839 123.392C92.3459 123.44 91.92 123.501 91.482 123.562C91.044 123.622 90.6181 123.683 90.1923 123.768C89.9733 123.804 89.7664 123.841 89.5474 123.877C89.3406 123.914 89.1216 123.962 88.9148 124.011C88.0752 124.181 87.2479 124.375 86.457 124.581C85.6661 124.812 84.9118 125.03 84.2182 125.297C83.5126 125.552 82.8555 125.831 82.2715 126.111C81.6875 126.39 81.1521 126.681 80.7019 126.96C80.2518 127.239 79.8746 127.507 79.5704 127.749C79.2784 127.992 79.0472 128.198 78.9134 128.344C78.7674 128.514 78.7065 128.599 78.7065 128.599Z" fill="white"/>
</g>
<g opacity="0.4">
<path opacity="0.4" d="M81.3224 132.143C81.3224 132.944 80.1179 133.588 78.6335 133.588C77.1491 133.588 75.9446 132.944 75.9446 132.143C75.9446 131.342 77.1491 130.699 78.6335 130.699C80.1179 130.699 81.3224 131.342 81.3224 132.143Z" fill="#D86E30"/>
</g>
<g opacity="0.4">
<path opacity="0.4" d="M82.5148 129.085C82.5148 129.582 81.7726 129.971 80.86 129.971C79.9475 129.971 79.2053 129.57 79.2053 129.085C79.2053 128.587 79.9475 128.199 80.86 128.199C81.7726 128.199 82.5148 128.599 82.5148 129.085Z" fill="#D86E30"/>
</g>
<g opacity="0.4">
<path opacity="0.4" d="M84.5589 133.721C84.5589 134.037 84.0844 134.292 83.4882 134.292C82.892 134.292 82.4175 134.037 82.4175 133.721C82.4175 133.406 82.892 133.151 83.4882 133.151C84.0722 133.139 84.5589 133.394 84.5589 133.721Z" fill="#D86E30"/>
</g>
<path d="M152.196 167.659C155.006 166.651 159.703 167.076 164.545 169.006C168.938 170.766 172.393 173.339 173.987 175.791C175.18 175.367 176.031 174.675 176.408 173.74C177.674 170.596 173.099 165.826 166.2 163.071C159.301 160.315 152.695 160.631 151.429 163.763C150.979 164.904 151.295 166.263 152.196 167.659Z" fill="#F8B467"/>
<g opacity="0.4">
<g opacity="0.4">
<path opacity="0.4" d="M169.838 166.652C164.229 161.979 152.95 161.833 151.283 164.333C151.101 165.341 151.442 166.482 152.208 167.659C154.471 166.846 164.46 167.465 169.887 171.228C169.875 171.228 168.597 167.853 169.838 166.652Z" fill="white"/>
</g>
</g>
<path d="M152.026 168.072C151.928 168.035 151.843 167.963 151.782 167.878C150.76 166.312 150.48 164.819 150.979 163.581C151.661 161.894 153.668 160.886 156.649 160.753C159.508 160.619 162.964 161.287 166.371 162.646C169.777 164.006 172.734 165.899 174.717 167.963C176.774 170.123 177.54 172.235 176.859 173.922C176.445 174.942 175.52 175.731 174.17 176.216C173.951 176.289 173.695 176.204 173.574 176.01C171.968 173.546 168.524 171.082 164.363 169.419C159.776 167.586 155.177 167.076 152.378 168.072C152.269 168.132 152.147 168.12 152.026 168.072ZM166.042 163.496C162.769 162.185 159.484 161.542 156.759 161.675C154.167 161.796 152.439 162.61 151.892 163.957C151.454 165.037 151.88 166.215 152.403 167.101C155.445 166.19 160.105 166.749 164.716 168.594C168.877 170.257 172.369 172.709 174.17 175.233C175.082 174.833 175.679 174.286 175.971 173.57C176.518 172.223 175.825 170.439 174.024 168.569C172.138 166.603 169.303 164.795 166.042 163.496Z" fill="black"/>
<path d="M195.523 178.559C195.438 176.665 195.036 174.833 194.367 173.048C191.362 165.183 181.555 157.864 171.834 153.798C161.638 149.525 147.645 147.122 139.907 150.314C136.817 151.588 134.176 153.591 132.181 156.431C131.743 157.05 128.75 163.641 128.665 163.872C128.604 164.03 128.555 164.188 128.519 164.345C124.333 177.891 136.038 188.961 153.072 195.758C170.787 202.835 187.712 202.228 193.309 188.281L193.321 188.245C193.467 187.905 195.596 180.307 195.523 178.559ZM161.65 174.444C154.751 171.689 150.188 166.906 151.442 163.775C152.707 160.631 159.314 160.328 166.212 163.083C173.111 165.838 177.674 170.621 176.421 173.752C175.155 176.884 168.536 177.199 161.65 174.444Z" fill="#F8B467"/>
<g opacity="0.2">
<g opacity="0.2">
<g opacity="0.2">
<path opacity="0.2" d="M153.972 193.525C137.035 186.764 125.367 175.779 129.358 162.331C128.969 163.18 128.701 163.799 128.677 163.86C128.616 164.018 128.567 164.176 128.531 164.333C124.345 177.879 136.05 188.949 153.084 195.746C170.799 202.823 187.724 202.216 193.321 188.269L193.333 188.233C193.357 188.172 193.43 187.93 193.54 187.541C187.359 200.019 171.03 200.335 153.972 193.525Z" fill="black"/>
</g>
</g>
</g>
<path d="M152.901 196.171C143.91 192.578 136.841 187.966 132.473 182.844C130.088 180.052 128.494 177.115 127.728 174.08C126.913 170.864 127.022 167.538 128.056 164.188C128.105 164.018 128.154 163.848 128.214 163.69C128.324 163.362 131.305 156.808 131.779 156.152C133.763 153.336 136.439 151.224 139.7 149.889C147.682 146.6 161.577 149.197 171.116 153.009C171.408 153.13 171.712 153.251 172.004 153.373C177.041 155.485 181.981 158.422 185.911 161.651C190.291 165.256 193.369 169.14 194.805 172.903C195.511 174.76 195.912 176.666 195.997 178.559C196.083 180.428 193.892 188.124 193.771 188.415L193.759 188.452C192.372 191.899 190.255 194.666 187.456 196.681C184.816 198.575 181.579 199.813 177.832 200.335C170.848 201.342 162.221 199.898 152.901 196.171ZM170.787 153.846C161.431 150.108 147.852 147.547 140.126 150.727C137.023 152.001 134.48 154.004 132.595 156.686C132.181 157.257 129.261 163.678 129.139 164.018C129.09 164.151 129.042 164.309 129.005 164.455V164.467C127.071 170.73 128.494 176.726 133.227 182.285C137.498 187.286 144.421 191.79 153.254 195.322C162.404 198.975 170.836 200.395 177.662 199.436C185.157 198.38 190.279 194.557 192.87 188.087L192.883 188.051C193.065 187.578 195.121 180.173 195.048 178.547C194.975 176.751 194.586 174.942 193.917 173.17C191.252 166.178 182.516 158.738 171.663 154.198C171.371 154.089 171.079 153.968 170.787 153.846ZM161.479 174.869C158.073 173.51 155.116 171.616 153.133 169.553C151.076 167.392 150.31 165.28 150.991 163.593C151.673 161.906 153.68 160.898 156.661 160.765C159.52 160.631 162.976 161.299 166.383 162.658C169.789 164.018 172.746 165.911 174.729 167.975C176.786 170.135 177.552 172.247 176.871 173.935C176.189 175.622 174.182 176.629 171.201 176.775C168.329 176.896 164.886 176.229 161.479 174.869ZM166.042 163.496C162.769 162.185 159.484 161.542 156.758 161.675C154.167 161.797 152.439 162.61 151.892 163.957C151.344 165.304 152.038 167.089 153.838 168.958C155.712 170.924 158.547 172.721 161.82 174.032C165.093 175.343 168.378 175.986 171.103 175.852C173.695 175.731 175.423 174.918 175.97 173.57C176.518 172.223 175.824 170.439 174.024 168.57C172.138 166.603 169.303 164.795 166.042 163.496Z" fill="black"/>
<g opacity="0.4">
<g opacity="0.4">
<g opacity="0.4">
<path opacity="0.4" d="M192.992 189.034C193.418 187.651 195.316 180.841 195.279 179.166C195.231 177.2 194.854 175.294 194.197 173.449C191.301 165.329 181.543 157.864 171.833 153.786C161.637 149.513 147.597 147.231 139.761 150.678C137.425 151.698 135.344 153.142 133.592 155.036C131.682 161.93 123.664 166.761 131.731 172.976C136.026 176.277 137.729 187.869 143.156 190.406C149.945 193.562 153.558 183.815 156.393 184.677C159.228 185.551 155.639 189.823 161.905 191.122C168.171 192.409 168.463 190.151 174.303 187.044C180.156 183.924 184.645 191.049 189.816 190.685C190.924 190.6 191.775 190.418 192.505 190.102C192.542 190.09 192.578 190.066 192.615 190.054C192.724 189.811 192.822 189.568 192.931 189.313L192.943 189.277C192.931 189.228 192.956 189.156 192.992 189.034ZM161.65 174.444C155.006 171.798 150.529 167.271 151.332 164.127C152.974 161.178 159.399 160.874 166.042 163.52C172.685 166.166 177.114 170.803 176.262 174.08C174.656 176.908 168.281 177.103 161.65 174.444Z" fill="#ABEC6C"/>
</g>
</g>
</g>
<path d="M194.367 173.048C191.362 165.183 181.555 157.864 171.834 153.798C161.638 149.525 147.645 147.122 139.907 150.314C137.607 151.261 135.563 152.62 133.836 154.417C132.035 161.02 128.592 167.623 139.992 173.801C139.992 173.801 138.435 186.072 143.874 188.585C150.663 191.729 154.106 182.394 156.941 183.281C159.776 184.167 155.992 187.225 162.234 188.561C168.475 189.896 168.037 187.614 173.805 184.701C179.572 181.788 185.12 189.835 190.242 189.544C191.386 189.483 192.274 189.301 193.004 188.973C193.102 188.743 193.211 188.512 193.309 188.269L193.321 188.233C193.455 187.893 195.596 180.307 195.511 178.547C195.438 176.665 195.036 174.833 194.367 173.048ZM161.65 174.444C154.751 171.689 150.188 166.906 151.442 163.775C152.707 160.631 159.314 160.328 166.212 163.083C173.111 165.838 177.674 170.621 176.421 173.752C175.155 176.884 168.536 177.199 161.65 174.444Z" fill="#5CC560"/>
<g opacity="0.6">
<g opacity="0.3">
<path opacity="0.3" d="M190.681 188.476C185.546 188.755 180.034 179.761 174.267 182.674C168.5 185.587 169.133 188.27 162.879 186.935C156.637 185.599 160.64 181.97 157.805 181.084C154.97 180.198 151.648 189.253 144.847 186.109C139.408 183.597 140.82 171.701 140.82 171.701C130.21 165.948 132.278 160.292 134.091 154.15C134.006 154.235 133.909 154.332 133.824 154.429C132.023 161.032 128.689 167.684 140.077 173.862C140.077 173.862 138.423 186.097 143.861 188.61C150.651 191.753 154.094 182.419 156.929 183.305C159.764 184.191 155.98 187.25 162.222 188.585C168.463 189.921 168.025 187.639 173.793 184.726C179.56 181.812 185.108 189.86 190.23 189.569C191.374 189.508 192.262 189.326 192.992 188.998C193.09 188.767 193.199 188.537 193.296 188.294L193.309 188.258C193.333 188.197 193.43 187.881 193.564 187.396C192.871 187.687 191.788 188.415 190.681 188.476Z" fill="white"/>
</g>
</g>
<g opacity="0.5">
<g opacity="0.5">
<path opacity="0.5" d="M167.162 160.692C160.263 157.937 153.352 158.993 152.087 162.137C151.977 162.416 151.904 162.707 151.892 163.011C153.875 160.607 159.922 160.571 166.2 163.084C172.491 165.596 176.834 169.784 176.603 172.891C176.798 172.66 176.956 172.406 177.066 172.126C178.331 168.97 174.06 163.448 167.162 160.692Z" fill="#5CC560"/>
</g>
</g>
<g opacity="0.3">
<g opacity="0.3">
<path opacity="0.3" d="M171.834 153.785C161.637 149.525 147.645 147.122 139.907 150.314C137.607 151.261 135.563 152.62 133.836 154.417C133.738 154.793 133.629 155.169 133.519 155.558C135.198 153.87 137.157 152.596 139.36 151.686C147.098 148.493 161.078 150.897 171.274 155.169C171.286 155.157 181.543 157.852 171.834 153.785Z" fill="white"/>
</g>
</g>
<path d="M144.105 189.18C143.959 189.119 143.825 189.058 143.679 188.998C138.423 186.558 139.262 176.034 139.481 174.032C129.212 168.327 131.037 162.197 132.802 156.262C132.996 155.606 133.191 154.939 133.373 154.283C133.398 154.21 133.422 154.15 133.471 154.101C135.198 152.293 137.291 150.885 139.7 149.889C147.682 146.6 161.577 149.197 171.116 153.009C171.408 153.13 171.712 153.251 172.004 153.373C177.041 155.485 181.981 158.422 185.911 161.651C190.291 165.256 193.369 169.14 194.805 172.903C195.511 174.76 195.912 176.666 195.998 178.559C196.083 180.428 193.893 188.124 193.771 188.415L193.759 188.452C193.661 188.682 193.564 188.913 193.455 189.168C193.406 189.265 193.333 189.338 193.236 189.386C192.457 189.738 191.52 189.92 190.303 189.993C189.366 190.042 188.369 189.847 187.237 189.398C185.935 188.876 184.597 188.063 183.307 187.286C181.993 186.485 180.643 185.66 179.292 185.126C177.272 184.312 175.605 184.312 174.048 185.089C172.284 185.975 171.104 186.813 170.142 187.493C167.904 189.083 166.663 189.957 162.149 188.986C161.443 188.84 160.835 188.658 160.311 188.452C157.987 187.517 157.841 186.145 157.744 185.138C157.659 184.349 157.598 183.997 156.978 183.754C156.929 183.73 156.868 183.718 156.807 183.693C156.016 183.451 154.873 184.567 153.656 185.757C151.454 187.93 148.412 190.903 144.105 189.18ZM134.286 154.647C134.116 155.278 133.921 155.922 133.738 156.541C131.986 162.452 130.319 168.023 140.223 173.4C140.406 173.498 140.503 173.68 140.479 173.874C140.467 173.995 139.031 185.842 144.068 188.172C144.19 188.233 144.312 188.282 144.445 188.33C148.144 189.811 150.809 187.201 152.95 185.114C154.435 183.669 155.712 182.419 157.063 182.844C157.148 182.868 157.233 182.904 157.318 182.929C158.535 183.414 158.632 184.361 158.705 185.114C158.803 186.048 158.888 186.922 160.64 187.626C161.102 187.808 161.662 187.978 162.307 188.112C166.395 188.986 167.38 188.294 169.534 186.764C170.52 186.072 171.736 185.211 173.549 184.288C175.374 183.366 177.309 183.366 179.621 184.288C181.044 184.859 182.443 185.708 183.782 186.522C185.096 187.323 186.337 188.075 187.554 188.561C188.539 188.949 189.391 189.119 190.169 189.083C191.179 189.022 191.97 188.876 192.603 188.621C192.688 188.439 192.761 188.257 192.822 188.087L192.834 188.051C193.017 187.578 195.073 180.173 195 178.547C194.927 176.751 194.537 174.942 193.868 173.17C191.204 166.178 182.468 158.738 171.615 154.198C171.323 154.077 171.031 153.955 170.739 153.846C161.382 150.108 147.804 147.547 140.077 150.727C137.875 151.661 135.904 152.972 134.286 154.647ZM161.479 174.869C158.073 173.51 155.116 171.616 153.133 169.553C151.077 167.392 150.31 165.28 150.991 163.593C151.673 161.906 153.68 160.898 156.661 160.765C159.521 160.631 162.976 161.299 166.383 162.658C169.79 164.018 172.746 165.911 174.729 167.975C176.786 170.135 177.552 172.247 176.871 173.935C176.189 175.622 174.182 176.629 171.201 176.775C168.33 176.896 164.886 176.229 161.479 174.869ZM166.042 163.496C162.769 162.185 159.484 161.542 156.759 161.675C154.167 161.797 152.439 162.61 151.892 163.957C151.344 165.304 152.038 167.089 153.838 168.958C155.712 170.924 158.547 172.721 161.82 174.032C165.093 175.343 168.378 175.986 171.104 175.852C173.695 175.731 175.423 174.918 175.97 173.57C176.518 172.223 175.824 170.439 174.024 168.57C172.138 166.603 169.303 164.795 166.042 163.496Z" fill="black"/>
<g opacity="0.3">
<g opacity="0.4">
<g opacity="0.4">
<g opacity="0.4">
<path opacity="0.4" d="M189.719 170.573C187.845 167.283 184.232 163.969 180.691 162.294L178.574 162.076C178.063 164.309 181.871 167.271 183.295 168.728C184.816 170.451 186.75 176.29 188.466 176.763C192.688 178.11 190.559 172.175 189.719 170.573Z" fill="white"/>
</g>
</g>
</g>
<g opacity="0.4">
<g opacity="0.4">
<path opacity="0.4" d="M189.184 180.38C188.916 181.06 188.089 181.375 187.359 181.084C186.617 180.793 186.251 180.004 186.519 179.324C186.787 178.644 187.614 178.329 188.344 178.62C189.086 178.899 189.464 179.688 189.184 180.38Z" fill="white"/>
</g>
</g>
</g>
<g opacity="0.5">
<g opacity="0.5">
<g opacity="0.5">
<g opacity="0.5">
<path opacity="0.5" d="M149.823 150.339C145.443 152.79 141.051 155.303 136.963 158.155C136.111 158.75 135.211 159.369 134.505 160.134C134.347 160.304 134.128 160.559 134.128 160.801C134.128 161.117 134.627 161.251 134.858 161.311C136.05 161.615 137.315 161.53 138.496 161.396C139.785 161.251 141.063 160.996 142.316 160.729C149.057 159.296 155.603 157.257 162.319 155.776C163.025 155.619 163.742 155.473 164.46 155.327C164.728 155.279 164.241 155.364 164.509 155.315C164.582 155.303 164.667 155.291 164.74 155.267C164.886 155.242 165.044 155.218 165.19 155.194C165.495 155.145 165.811 155.097 166.115 155.048C166.371 155.012 166.626 154.975 166.894 154.951C167.125 154.927 166.577 154.975 166.809 154.963C166.869 154.963 166.918 154.951 166.979 154.951C167.101 154.939 167.234 154.939 167.356 154.927C167.745 154.915 167.052 154.927 167.344 154.927C167.441 154.927 167.526 154.927 167.624 154.927C167.076 154.902 167.429 154.915 167.551 154.927C167.733 154.951 167.198 154.878 167.38 154.902C167.429 154.915 167.478 154.915 167.514 154.927C167.101 154.842 167.356 154.89 167.453 154.927C167.137 154.817 167.332 154.89 167.417 154.927C167.271 154.854 167.429 154.927 167.502 155.048C167.429 154.939 167.514 155.121 167.514 155.194C167.514 155.267 167.441 155.485 167.49 155.388C167.38 155.606 167.198 155.776 167.015 155.922C166.894 156.019 166.772 156.104 166.638 156.189C166.468 156.298 166.65 156.189 166.517 156.274C166.419 156.335 166.322 156.383 166.225 156.444C164.18 157.585 161.844 158.337 159.618 159.114C156.588 160.17 153.522 161.166 150.492 162.234C147.597 163.253 144.701 164.297 141.963 165.62C140.868 166.142 139.798 166.725 138.812 167.405C138.131 167.878 137.449 168.436 137.023 169.14C135.855 171.131 138.374 172.672 140.211 173.207C142.401 173.838 144.81 173.728 146.988 173.389C148.874 173.085 150.699 172.563 152.476 171.92C153.218 171.653 153.96 171.362 154.666 171.034C155.177 170.791 154.374 170.573 154.167 170.536C153.607 170.439 152.841 170.39 152.33 170.633C150.006 171.726 147.414 172.539 144.896 172.854C144.774 172.867 144.664 172.879 144.543 172.891C144.798 172.867 144.409 172.903 144.397 172.903C144.166 172.927 143.922 172.927 143.691 172.939C144.007 172.927 143.63 172.939 143.582 172.939C143.472 172.939 143.35 172.939 143.241 172.927C143.569 172.939 143.192 172.927 143.144 172.915C143.095 172.915 142.633 172.855 142.9 172.891C142.413 172.83 142.28 172.794 141.793 172.636C141.464 172.527 141.051 172.32 140.722 172.114C139.992 171.629 139.396 171.022 139.396 170.208C139.408 168.679 141.501 167.514 142.693 166.834C145.175 165.438 147.913 164.406 150.614 163.411C153.68 162.282 156.783 161.263 159.885 160.219C162.416 159.357 164.971 158.52 167.38 157.427C168.159 157.075 168.938 156.687 169.595 156.177C169.911 155.934 170.337 155.509 170.191 155.072C169.948 154.368 168.658 154.283 168.062 154.247C166.809 154.162 165.555 154.283 164.339 154.478C161.212 154.951 158.158 155.74 155.116 156.505C151.624 157.391 148.156 158.325 144.652 159.199C143.131 159.576 141.61 159.94 140.077 160.255C139.761 160.316 139.445 160.389 139.116 160.449C138.849 160.498 139.347 160.413 139.08 160.462C139.007 160.474 138.934 160.486 138.861 160.498C138.69 160.522 138.52 160.559 138.362 160.583C138.094 160.632 137.826 160.668 137.559 160.704C137.437 160.717 137.315 160.741 137.194 160.753C137.133 160.765 137.072 160.765 137.011 160.777C136.695 160.814 137.255 160.753 137.048 160.777C136.841 160.801 136.634 160.814 136.427 160.814C136.208 160.826 136.817 160.814 136.598 160.814C136.549 160.814 136.512 160.814 136.464 160.814C136.111 160.814 136.841 160.85 136.5 160.814C136.245 160.789 136.877 160.874 136.585 160.826C136.5 160.814 136.914 160.911 136.658 160.838C136.792 160.874 136.719 160.85 136.841 160.923C136.744 160.85 136.829 160.959 136.817 160.911C136.756 160.717 136.902 160.607 137.072 160.413C137.352 160.085 137.693 159.818 138.021 159.539C140.309 157.694 142.9 156.177 145.431 154.648C147.536 153.385 149.653 152.147 151.794 150.933C151.904 150.873 152.026 150.812 152.135 150.739C152.61 150.472 151.88 150.29 151.636 150.241C151.125 150.156 150.286 150.072 149.823 150.339Z" fill="#FE6DCB"/>
</g>
</g>
</g>
<g opacity="0.5">
<g opacity="0.5">
<g opacity="0.5">
<path opacity="0.5" d="M167.745 163.46C170.094 162.974 172.454 162.525 174.814 162.1C176.506 161.797 178.209 161.506 179.925 161.287C180.533 161.214 181.154 161.129 181.762 161.105C181.957 161.093 182.151 161.093 182.346 161.105C183.076 161.154 182.322 161.445 182.066 160.183C182.03 160.025 182.078 160.073 181.981 160.219C181.908 160.316 181.823 160.401 181.738 160.486C181.433 160.777 181.081 161.02 180.728 161.263C179.766 161.943 178.744 162.55 177.735 163.156C176.335 163.982 174.924 164.783 173.488 165.548C173.111 165.754 173.89 167.113 174.218 166.943C176.372 165.79 178.501 164.601 180.533 163.278C181.093 162.914 181.64 162.55 182.151 162.137C182.419 161.918 182.808 161.651 182.918 161.311C183.088 160.802 182.626 159.916 182.054 159.746C181.701 159.636 181.275 159.697 180.922 159.721C178.136 159.879 175.386 160.474 172.673 160.972C170.775 161.324 168.877 161.688 166.991 162.076C166.699 162.137 167.295 163.557 167.745 163.46Z" fill="#FE6DCB"/>
</g>
</g>
</g>
<g opacity="0.5">
<g opacity="0.5">
<g opacity="0.5">
<path opacity="0.5" d="M161.808 174.809C159.813 175.998 157.793 177.333 156.187 178.972C155.25 179.931 154.544 181.12 155.299 182.468C155.798 183.354 156.576 183.694 157.55 183.596C158.426 183.511 159.289 183.257 160.117 183.002C161.358 182.625 162.575 182.201 163.779 181.764C166.918 180.635 170.021 179.433 173.16 178.304C176.457 177.115 179.791 175.962 183.21 175.076C185.802 174.396 188.624 173.704 191.386 173.935C191.776 173.971 192.153 174.02 192.53 174.117C192.712 174.165 192.895 174.214 193.065 174.274C193.151 174.299 193.236 174.335 193.321 174.372C193.357 174.384 193.589 174.493 193.467 174.432C193.601 174.493 193.735 174.578 193.856 174.663C193.929 174.711 193.99 174.76 194.051 174.809C194.075 174.833 194.1 174.845 194.124 174.869C194.258 174.978 194.002 174.748 194.124 174.869C194.185 174.918 194.233 174.978 194.294 175.039C194.465 175.221 194.282 175.015 194.331 175.076C194.379 175.136 194.416 175.209 194.465 175.27C194.282 174.978 194.44 175.233 194.477 175.306C194.477 174.857 194.477 174.408 194.465 173.947C192.834 173.995 191.192 174.614 189.865 175.403C186.459 177.418 184.926 181.047 184.561 184.798C184.512 185.259 184.719 185.818 185.047 186.182C185.339 186.485 185.643 186.4 185.68 186.012C186.021 182.492 187.529 179.081 190.778 177.236C192.043 176.52 193.625 175.949 195.158 175.913C195.645 175.901 195.231 174.736 195.146 174.554C194.16 172.527 192.08 171.98 189.951 171.956C187.018 171.92 184.11 172.684 181.361 173.449C174.778 175.294 168.524 177.916 162.124 180.174C160.993 180.574 159.861 180.95 158.693 181.278C158.267 181.399 157.842 181.497 157.404 181.582C157.233 181.618 157.063 181.642 156.893 181.654C156.82 181.666 156.747 181.666 156.674 181.679C156.625 181.679 156.382 181.679 156.54 181.691C156.43 181.691 156.321 181.679 156.211 181.654C156.138 181.642 156.065 181.606 155.992 181.582C155.992 181.582 155.7 181.387 155.846 181.521C155.798 181.472 155.712 181.351 155.871 181.557C155.98 181.715 156.029 181.885 156.077 182.067C156.065 182.006 156.065 182.492 156.102 182.176C156.077 182.37 156.15 182.067 156.175 182.018C156.236 181.873 156.248 181.873 156.333 181.727C157.075 180.574 158.316 179.676 159.423 178.85C160.421 178.11 161.467 177.406 162.489 176.799C163.122 176.399 162.258 174.541 161.808 174.809Z" fill="#FE6DCB"/>
</g>
</g>
</g>
</g>
<path d="M148.947 149.877C144.567 152.329 140.175 154.842 136.087 157.694C135.235 158.289 134.335 158.908 133.629 159.672C133.471 159.842 133.252 160.097 133.252 160.34C133.252 160.656 133.751 160.789 133.982 160.85C135.174 161.165 136.439 161.068 137.62 160.935C138.909 160.789 140.187 160.534 141.44 160.267C148.181 158.835 154.727 156.796 161.443 155.315C162.149 155.157 162.866 155.011 163.584 154.866C163.852 154.817 163.365 154.902 163.633 154.854C163.706 154.842 163.791 154.829 163.864 154.805C164.01 154.781 164.168 154.757 164.314 154.72C164.619 154.672 164.935 154.623 165.239 154.575C165.495 154.538 165.75 154.502 166.006 154.477C166.237 154.453 165.689 154.502 165.92 154.49C165.981 154.49 166.03 154.477 166.091 154.477C166.212 154.465 166.346 154.465 166.468 154.453C166.857 154.441 166.164 154.453 166.456 154.453C166.541 154.453 166.638 154.453 166.736 154.453C166.188 154.429 166.541 154.441 166.663 154.453C166.845 154.477 166.31 154.405 166.492 154.429C166.541 154.441 166.59 154.441 166.626 154.453C166.212 154.368 166.468 154.417 166.565 154.453C166.249 154.344 166.444 154.417 166.529 154.453C166.383 154.38 166.541 154.453 166.614 154.575C166.541 154.465 166.626 154.647 166.626 154.72C166.626 154.793 166.553 155.012 166.602 154.914C166.492 155.133 166.31 155.303 166.127 155.448C166.006 155.546 165.884 155.631 165.75 155.716C165.58 155.825 165.762 155.716 165.628 155.8C165.531 155.861 165.434 155.91 165.336 155.97C163.292 157.111 160.956 157.864 158.73 158.641C155.7 159.697 152.634 160.692 149.604 161.76C146.709 162.78 143.813 163.824 141.075 165.147C139.98 165.669 138.909 166.251 137.924 166.931C137.243 167.404 136.561 167.963 136.135 168.667C134.967 170.657 137.486 172.199 139.323 172.733C141.513 173.364 143.922 173.255 146.1 172.915C147.986 172.612 149.811 172.09 151.588 171.446C152.33 171.179 153.072 170.888 153.778 170.56C154.289 170.318 153.486 170.099 153.279 170.063C152.719 169.966 151.953 169.917 151.442 170.16C149.118 171.252 146.514 172.065 144.007 172.381C143.886 172.393 143.776 172.405 143.655 172.417C143.898 172.393 143.521 172.43 143.496 172.43C143.265 172.442 143.022 172.454 142.791 172.466C143.107 172.454 142.73 172.466 142.681 172.466C142.572 172.466 142.45 172.466 142.341 172.454C142.669 172.466 142.292 172.454 142.243 172.442C142.195 172.442 141.732 172.381 142 172.417C141.513 172.357 141.379 172.32 140.893 172.163C140.564 172.053 140.15 171.847 139.822 171.641C139.092 171.155 138.496 170.548 138.496 169.735C138.508 168.206 140.601 167.04 141.793 166.361C144.275 164.965 147.013 163.933 149.714 162.938C152.78 161.809 155.883 160.789 158.985 159.745C161.516 158.884 164.071 158.046 166.48 156.954C167.259 156.602 168.038 156.213 168.695 155.703C169.011 155.461 169.437 155.036 169.291 154.599C169.047 153.895 167.758 153.81 167.161 153.773C165.908 153.688 164.655 153.81 163.438 154.004C160.311 154.477 157.257 155.266 154.216 156.031C150.724 156.917 147.256 157.852 143.752 158.726C142.231 159.102 140.71 159.466 139.177 159.782C138.861 159.842 138.544 159.915 138.216 159.976C137.948 160.024 138.447 159.94 138.179 159.988C138.106 160 138.033 160.012 137.96 160.024C137.79 160.061 137.62 160.085 137.462 160.109C137.194 160.158 136.926 160.194 136.659 160.231C136.537 160.243 136.415 160.267 136.293 160.279C136.233 160.292 136.172 160.292 136.111 160.304C135.795 160.34 136.354 160.279 136.147 160.304C135.941 160.316 135.734 160.34 135.527 160.34C135.308 160.352 135.916 160.34 135.697 160.34C135.649 160.34 135.612 160.34 135.563 160.34C135.211 160.328 135.941 160.377 135.6 160.34C135.344 160.316 135.977 160.401 135.685 160.352C135.6 160.34 136.014 160.437 135.758 160.364C135.892 160.401 135.819 160.376 135.941 160.449C135.843 160.376 135.928 160.486 135.916 160.437C135.855 160.243 136.001 160.134 136.172 159.94C136.452 159.612 136.792 159.345 137.121 159.066C139.408 157.221 142 155.703 144.531 154.174C146.636 152.912 148.753 151.674 150.894 150.46C151.004 150.399 151.125 150.326 151.235 150.266C151.709 149.999 150.979 149.816 150.736 149.768C150.249 149.695 149.422 149.622 148.947 149.877Z" fill="#F85453"/>
<path d="M166.882 163.01C169.23 162.525 171.59 162.076 173.951 161.651C175.642 161.347 177.345 161.056 179.061 160.838C179.669 160.753 180.29 160.68 180.898 160.656C181.093 160.643 181.287 160.643 181.482 160.656C182.212 160.704 181.458 160.995 181.202 159.733C181.166 159.575 181.214 159.624 181.117 159.769C181.044 159.867 180.959 159.952 180.874 160.036C180.57 160.328 180.217 160.571 179.864 160.813C178.903 161.493 177.881 162.1 176.871 162.707C175.471 163.532 174.06 164.333 172.624 165.098C172.247 165.304 173.026 166.664 173.354 166.494C175.508 165.341 177.637 164.151 179.669 162.84C180.229 162.476 180.776 162.112 181.287 161.699C181.555 161.481 181.944 161.214 182.054 160.874C182.224 160.364 181.762 159.478 181.19 159.308C180.837 159.199 180.411 159.26 180.058 159.284C177.272 159.442 174.522 160.036 171.809 160.534C169.911 160.886 168.013 161.25 166.127 161.639C165.823 161.687 166.419 163.107 166.882 163.01Z" fill="#F85453"/>
<path d="M160.944 174.36C158.949 175.549 156.929 176.884 155.323 178.523C154.386 179.482 153.68 180.671 154.435 182.019C154.934 182.905 155.712 183.245 156.686 183.148C157.562 183.063 158.425 182.808 159.253 182.553C160.494 182.176 161.711 181.752 162.915 181.315C166.054 180.186 169.157 178.984 172.296 177.855C175.593 176.666 178.927 175.525 182.346 174.627C184.938 173.947 187.76 173.255 190.522 173.486C190.912 173.522 191.289 173.571 191.666 173.668C191.849 173.704 192.031 173.765 192.201 173.826C192.287 173.85 192.372 173.886 192.445 173.923C192.481 173.935 192.712 174.044 192.591 173.983C192.725 174.044 192.858 174.129 192.98 174.214C193.053 174.263 193.114 174.311 193.175 174.36C193.199 174.384 193.223 174.396 193.248 174.42C193.382 174.53 193.126 174.299 193.248 174.42C193.309 174.469 193.357 174.53 193.418 174.59C193.589 174.772 193.406 174.566 193.455 174.627C193.503 174.687 193.54 174.76 193.588 174.821C193.406 174.53 193.564 174.784 193.601 174.857C193.601 174.408 193.601 173.959 193.588 173.498C191.958 173.546 190.316 174.165 188.989 174.954C185.583 176.969 184.049 180.599 183.684 184.337C183.636 184.798 183.843 185.357 184.171 185.721C184.463 186.036 184.767 185.939 184.804 185.551C185.145 182.031 186.653 178.62 189.902 176.775C191.167 176.047 192.749 175.488 194.282 175.44C194.769 175.428 194.355 174.263 194.27 174.08C193.284 172.053 191.204 171.507 189.074 171.483C186.142 171.447 183.234 172.211 180.485 172.976C173.902 174.821 167.66 177.443 161.248 179.7C160.117 180.101 158.985 180.477 157.817 180.805C157.391 180.926 156.965 181.023 156.527 181.108C156.357 181.145 156.187 181.169 156.016 181.181C155.943 181.193 155.87 181.193 155.797 181.205C155.749 181.205 155.505 181.205 155.664 181.218C155.554 181.218 155.445 181.205 155.335 181.181C155.262 181.169 155.189 181.133 155.116 181.108C155.116 181.108 154.824 180.914 154.97 181.048C154.921 180.999 154.836 180.878 154.994 181.084C155.104 181.242 155.153 181.412 155.201 181.594C155.177 181.533 155.189 182.019 155.226 181.703C155.201 181.897 155.274 181.594 155.299 181.545C155.359 181.4 155.372 181.4 155.457 181.254C156.199 180.101 157.44 179.203 158.547 178.377C159.545 177.637 160.591 176.933 161.613 176.326C162.246 175.95 161.394 174.093 160.944 174.36Z" fill="#F85453"/>
<path d="M91.9321 161.117C91.7131 161.117 91.5063 160.983 91.4211 160.765C91.3725 160.643 90.2653 157.779 89.5961 153.725C88.9755 149.962 88.647 144.463 90.5694 139.584C90.6789 139.305 90.9953 139.171 91.2751 139.28C91.555 139.39 91.6888 139.705 91.5793 139.984C88.063 148.882 92.3823 160.255 92.431 160.364C92.5405 160.643 92.3945 160.959 92.1147 161.068C92.066 161.105 91.993 161.117 91.9321 161.117Z" fill="black"/>
<path d="M95.8135 168.703C95.6675 169.492 94.9009 170.013 94.1101 169.868L85.8121 168.326C85.0212 168.181 84.4981 167.416 84.6441 166.627L86.3596 157.426C86.5056 156.637 87.2722 156.116 88.063 156.261L96.361 157.803C97.1518 157.948 97.675 158.713 97.529 159.502L95.8135 168.703Z" fill="white"/>
<g opacity="0.4">
<g opacity="0.4">
<path opacity="0.4" d="M88.7201 165.838C87.9292 165.692 87.406 164.928 87.552 164.139L88.9877 156.443L88.063 156.273C87.2722 156.128 86.5056 156.65 86.3596 157.439L84.6441 166.639C84.4981 167.428 85.0213 168.193 85.8121 168.339L94.1101 169.88C94.901 170.026 95.6675 169.504 95.8135 168.715L96.0933 167.21L88.7201 165.838Z" fill="#C3EDF4"/>
</g>
</g>
<path d="M94.3778 170.439C94.2561 170.439 94.1344 170.427 94.0127 170.402L85.7148 168.861C85.1916 168.764 84.7293 168.472 84.4251 168.023C84.1209 167.586 84.0114 167.052 84.1087 166.518L85.8243 157.318C86.0068 156.371 86.8342 155.679 87.7954 155.679C87.917 155.679 88.0387 155.691 88.1604 155.715L96.4583 157.257C96.9815 157.354 97.4439 157.645 97.748 158.094C98.0522 158.531 98.1617 159.065 98.0644 159.6L96.3488 168.8C96.1785 169.759 95.3511 170.439 94.3778 170.439ZM87.7954 156.796C87.3573 156.796 86.9802 157.111 86.895 157.536L85.1794 166.737C85.1308 166.979 85.1916 167.222 85.3254 167.416C85.4593 167.623 85.6661 167.756 85.9095 167.793L94.2074 169.334C94.2683 169.346 94.3169 169.346 94.3778 169.346C94.8158 169.346 95.193 169.031 95.2781 168.606L96.9937 159.405C97.0424 159.163 96.9815 158.92 96.8477 158.726C96.7138 158.519 96.507 158.386 96.2637 158.349L87.9535 156.808C87.9049 156.796 87.844 156.796 87.7954 156.796Z" fill="black"/>
<path opacity="0.3" d="M110.671 89.3614C110.141 86.479 108.796 83.5366 106.416 81.3628C104.084 79.1771 100.902 77.9881 97.9784 78.0001C97.7933 78.0001 97.596 78.0722 97.4726 78.2163C97.2382 78.4805 97.2876 78.8528 97.5713 79.069L97.633 79.105C98.1757 79.5013 98.7185 79.8256 99.2119 80.1979C99.656 80.6302 100.162 80.9425 100.532 81.3869C100.889 81.8312 101.297 82.2035 101.556 82.6719L101.987 83.3205L102.32 84.017C103.184 85.8305 103.369 87.8121 103.209 89.7938C103.036 91.7754 102.542 93.781 101.728 95.6305C101.321 96.5793 100.889 97.408 100.322 98.3448C99.767 99.2935 99.1255 100.254 98.4471 101.263C97.1272 103.305 95.5976 105.551 94.4751 108.253C93.3403 110.943 92.7975 114.042 93.0689 116.984C93.624 122.977 97.3986 128.261 102.505 130.915C102.666 131 102.863 131.024 103.048 130.976C103.406 130.867 103.603 130.531 103.492 130.195V130.183C102.616 127.721 101.876 125.475 101.556 123.289C101.198 121.115 101.223 119.074 101.531 117.152C101.852 115.207 102.468 113.441 103.394 111.616C104.306 109.79 105.552 107.845 106.884 105.647C107.538 104.542 108.192 103.365 108.809 102.116C109.413 100.855 109.956 99.4016 110.338 98.0205C111.054 95.1982 111.226 92.2678 110.671 89.3614Z" fill="#F85453"/>
<path opacity="0.3" d="M86.6418 96.0916C85.7424 94.1401 84.3126 92.2873 82.3755 91.1634C80.4614 90.0147 78.1899 89.7306 76.322 90.2494C76.1951 90.2864 76.0913 90.3729 76.0337 90.4964C75.9414 90.7187 76.0452 90.9781 76.2643 91.0769L76.3104 91.1016C76.7371 91.2869 77.1522 91.4227 77.5327 91.5957C77.9016 91.8303 78.2822 91.9662 78.605 92.2132C78.9279 92.4726 79.2507 92.6579 79.5159 92.942L79.9195 93.3249L80.2654 93.7572C81.1648 94.8935 81.6606 96.2645 81.9489 97.6973C82.2141 99.1301 82.2948 100.637 82.1218 102.094C82.0411 102.835 81.9258 103.502 81.7413 104.256C81.5684 105.022 81.3493 105.825 81.1071 106.652C80.6574 108.32 80.104 110.197 79.908 112.297C79.7004 114.409 79.9541 116.694 80.692 118.744C82.2025 122.907 85.6502 125.982 89.4322 126.983C89.5475 127.02 89.6859 126.995 89.7896 126.933C89.9972 126.797 90.0664 126.513 89.928 126.303V126.291C88.8903 124.698 87.9793 123.228 87.3567 121.746C86.711 120.276 86.3305 118.818 86.1575 117.398C85.9961 115.953 86.0422 114.594 86.2844 113.149C86.515 111.691 86.9416 110.098 87.3682 108.307C87.5758 107.406 87.7603 106.467 87.9217 105.466C88.0716 104.466 88.1292 103.342 88.1177 102.292C88.0139 100.168 87.5527 98.0555 86.6418 96.0916Z" fill="#F85453"/>
<path opacity="0.3" d="M122.902 101.309C123.157 99.4112 122.936 97.3424 121.983 95.5796C121.053 93.8045 119.425 92.5192 117.727 92.0173C117.611 91.9805 117.495 92.005 117.39 92.0662C117.204 92.1886 117.158 92.4335 117.285 92.6171L117.309 92.6538C117.541 92.9966 117.797 93.2904 118.018 93.6087C118.192 93.9514 118.425 94.2452 118.553 94.5758C118.681 94.9185 118.832 95.2123 118.902 95.5551L119.03 96.0325L119.088 96.5222C119.239 97.8075 118.96 99.0684 118.483 100.28C117.995 101.492 117.32 102.655 116.483 103.671C116.053 104.198 115.658 104.638 115.134 105.116C114.623 105.618 114.065 106.107 113.472 106.622C112.309 107.662 110.972 108.813 109.797 110.306C108.611 111.8 107.704 113.636 107.274 115.521C106.425 119.365 107.6 123.319 110.065 125.865C110.146 125.939 110.251 126 110.367 126C110.6 126 110.786 125.816 110.774 125.584V125.572C110.739 123.882 110.751 122.352 110.983 120.932C111.193 119.512 111.611 118.239 112.169 117.088C112.739 115.925 113.437 114.921 114.332 113.954C115.216 112.975 116.32 111.971 117.518 110.82C118.111 110.245 118.727 109.621 119.32 108.947C119.913 108.262 120.518 107.442 121.006 106.646C121.995 105.018 122.657 103.218 122.902 101.309Z" fill="#F85453"/>
</svg>
